<svg version="1.1" xmlns="http://www.w3.org/2000/svg" viewBox="0 0 1278.4685297050644 2879.665672659021" width="2556.9370594101288" height="5759.331345318042">
  <!-- svg-source:excalidraw -->
  
  <defs>
    <style class="style-fonts">
      @font-face {
        font-family: "Virgil";
        src: url("https://excalidraw.com/Virgil.woff2");
      }
      @font-face {
        font-family: "Cascadia";
        src: url("https://excalidraw.com/Cascadia.woff2");
      }
    </style>
  </defs>
  <rect x="0" y="0" width="1278.4685297050644" height="2879.665672659021" fill="#ffffff"></rect><g stroke-linecap="round" transform="translate(131.10932269211503 10) rotate(0 518.88671875 1429.8328363295104)"><path d="M-1.47 0.02 L1037.18 1.89 L1038.84 2857.97 L1.43 2861.01" stroke="none" stroke-width="0" fill="#ffffff"></path><path d="M0.07 -0.48 C358.75 -1.79, 718.7 -2.43, 1037.62 0.11 M-0.38 -0.21 C255.51 0.63, 510.68 0.41, 1038.06 -0.1 M1037.6 -0.7 C1030.52 679.03, 1030.4 1356.57, 1037.56 2860.34 M1038.05 -0.11 C1027.88 983.47, 1027.34 1967.29, 1037.65 2859.42 M1038.27 2859.51 C706.3 2860.75, 373.8 2862.26, 0.63 2859.7 M1037.74 2859.39 C758.8 2856.83, 480.22 2856.86, 0.02 2859.36 M0.49 2860.05 C9.4 1973.46, 8.88 1086.38, 0.61 -0.31 M0.07 2859.27 C-1.02 1914.93, -1.09 970.42, -0.36 -0.21" stroke="#000000" stroke-width="1" fill="none"></path></g><g transform="translate(360.25290710703393 541.5076274110811) rotate(0 213.5 34)"><text x="0" y="27" font-family="Cascadia, Segoe UI Emoji" font-size="28px" fill="#000000" text-anchor="start" style="white-space: pre;" direction="ltr">What is Lorem Ipsum? Where</text><text x="0" y="61" font-family="Cascadia, Segoe UI Emoji" font-size="28px" fill="#000000" text-anchor="start" style="white-space: pre;" direction="ltr">can I get some? </text></g><g transform="translate(515.0699419880698 651.9675022115921) rotate(0 29.261135921703556 6.540724500145416)"><text x="0" y="10.081449000290975" font-family="Cascadia, Segoe UI Emoji" font-size="11.015957052876619px" fill="#495057" text-anchor="start" style="white-space: pre;" direction="ltr">Tags Here</text></g><g stroke-linecap="round" transform="translate(280.20418561376937 97.85689922820802) rotate(0 378.0978974093958 206.3613184080341)"><path d="M0 0 C0 0, 0 0, 0 0 M0 0 C0 0, 0 0, 0 0 M0.09 6.84 C1.6 5.05, 2.88 2.98, 5.69 0.73 M-0.17 6.11 C1.44 4.21, 3.9 1.64, 4.72 0.66 M1.31 12.77 C3.44 7.66, 5.52 5.16, 10.82 -1.54 M-0.57 11.33 C4.76 7.75, 8.29 1.98, 11.12 -0.2 M-1.34 16.71 C6.05 13.25, 7.5 9.74, 15.31 1.55 M-1.02 18.09 C5.91 11.25, 11.4 6.62, 14.64 0.09 M-1.68 25.45 C3.85 19.13, 10.55 13.95, 22.41 1.92 M0.65 24.57 C7.2 15.83, 14.28 8.17, 21.28 -0.45 M-1.7 28.66 C5.51 25.67, 10.31 19.61, 26.58 -1.68 M-0.21 30.57 C5.25 24.14, 11.6 17.77, 25.96 -0.11 M-0.49 36.93 C12.7 23.65, 24.78 6.19, 33.07 -1.74 M-0.72 36.33 C10.2 25.44, 19.11 15.57, 32.54 -0.12 M1.54 41.77 C11.95 28.84, 27.58 11.01, 36.09 -0.76 M-0.81 43.4 C13.25 28.12, 25.34 12.92, 37.45 1.07 M0.15 49.41 C13.89 30.73, 31.67 11.73, 41.55 0.3 M-0.44 48.56 C12.05 35.88, 24.78 20.08, 42.73 0.42 M1.23 53.13 C10.86 42.99, 21.47 32.26, 49.22 -0.4 M0.82 55.3 C11.85 41.14, 24.86 26.92, 47.57 0.12 M-0.91 62.8 C10.15 49.12, 22.96 37.04, 51.42 -2.08 M-0.74 61.56 C12.97 47.74, 25.32 33.76, 53.36 0.23 M-1.6 69.23 C12.31 52.08, 25.02 36.15, 59.22 0.34 M-0.53 67.17 C15.81 49.15, 30.31 33.31, 57.15 0.46 M-0.3 73.92 C21.15 48.77, 43.07 21.98, 65.09 -0.35 M1.11 73.82 C17.29 55.01, 33.41 36.14, 64.78 -1.18 M-1.11 80.96 C19.45 60.29, 36.59 38.53, 69.15 2.06 M0.74 80.06 C18.49 59.8, 34.37 40.12, 68.32 -0.58 M-0.81 83.25 C25.68 60.24, 47.13 30.9, 73.8 -1.34 M1.19 85.73 C28.77 53.43, 57.72 20.39, 75.17 -0.89 M-0.59 90.14 C26.2 63.75, 51.84 31.86, 77.94 -0.97 M0.09 90.71 C25.71 60.13, 54.29 28.45, 79.54 -0.74 M-2.07 97.68 C16.22 75.28, 34.48 54.33, 83.65 -1.22 M-0.75 97.37 C15.05 77.32, 32.49 57.67, 85.52 0.44 M0.19 104.47 C22.8 75.26, 44.75 49.55, 90.36 1.15 M0.46 103.53 C18.67 81.04, 37.99 59.39, 90.6 0.17 M0.14 109.48 C22.31 82.87, 46.57 57.23, 97.57 0.51 M0.33 110.46 C21.08 85.07, 42.68 61.55, 94.69 -0.42 M-1.71 116.33 C20.94 90.29, 42.29 68.07, 99.02 0 M0.63 116.34 C34.72 74.34, 69.47 34.41, 101.64 -0.77 M-0.11 122.86 C39.14 74.89, 81 31.11, 105.35 -0.99 M-0.17 121.94 C35.98 80.7, 70.07 41.07, 106.31 -0.28 M0.96 129.48 C23.76 100.72, 44.65 76.3, 110.36 -1.19 M-0.48 128.14 C23.52 100.47, 48.64 74.45, 112.09 -0.52 M1.76 132.92 C31.06 98.89, 59.03 66.42, 116.95 -1.18 M1.15 133.87 C34.74 92.3, 72.12 52.17, 117.23 0.22 M-1.74 142.11 C44.63 88.24, 91.17 33.59, 122.68 -1.55 M-0.11 141.11 C36.11 99.76, 71.31 58.37, 121.73 0.86 M2.16 144.42 C43.16 97.61, 85.34 49.27, 127.16 0.91 M-0.01 145.28 C41.03 97.26, 83.81 49.02, 127.08 0.59 M1.01 153.21 C37.46 110.61, 73.85 65.9, 132.17 -0.48 M-0.61 152.11 C28.75 118.68, 57.54 87.72, 131.77 -0.69 M-1.16 158.56 C48.75 105.05, 93.56 52.48, 137.61 1.04 M0.63 157.96 C37.61 115.63, 73.38 73.69, 137.36 0.09 M1.75 165.84 C33.83 125.16, 68.99 85.81, 142.74 0.05 M-0.06 164.56 C36.79 121.19, 72.7 78.93, 143.33 -0.53 M-1 171.67 C54.78 107.89, 107.64 45.96, 149.31 1.14 M0.06 170.04 C52.36 108.38, 107.3 45.84, 148.87 -0.4 M0.17 177.76 C57.53 111.42, 114.67 46.69, 152.43 -1.63 M0.51 176.52 C38.02 132.97, 74.46 91.24, 153.57 0.04 M1.53 182.76 C63.56 108, 127.16 36.26, 157.14 -0.15 M0.07 182.14 C62.92 111.17, 125 39.85, 158.82 1.02 M-0.82 188.42 C54.01 125.21, 111.4 62.05, 165.93 0.83 M-0.58 189.92 C35.85 147.59, 74.11 104.57, 165.13 -0.96 M-0.37 194.73 C37.01 154.24, 74.77 112.39, 168.57 1.41 M-0.18 194.82 C45.18 141.25, 91.02 88.64, 168.66 -0.08 M-0.82 200.4 C46.62 148.77, 89.26 97.77, 176.18 0.04 M-0.69 201.42 C36.13 158.64, 72.23 116.97, 175.06 -0.57 M1.2 206.77 C47.37 150.89, 97.44 94.64, 181.45 0.66 M-0.39 206.94 C45.91 153.94, 91.96 102.6, 179.54 -0.25 M-0.66 212.46 C65.53 139.06, 128.41 65.98, 186.06 0.01 M0.56 212.8 C43.95 164.06, 87.94 113.44, 185.6 -0.08 M0.35 220.15 C76.65 132.41, 151.55 45.36, 190.05 1.15 M-0.7 220.47 C68.03 139.13, 137.54 61.08, 190.08 0.86 M1.58 224.78 C54.26 162.31, 108.54 101.08, 196.5 1 M0.26 225.28 C56.39 158.47, 112.73 93.46, 196.75 -0.69 M0.99 230.64 C63.06 159.32, 128.15 85.12, 201.56 0.61 M0.15 231.99 C62.12 160.69, 125.03 88.48, 201.84 0.2 M-0.33 238.01 C50.87 178.61, 101.05 120.22, 208.17 -1.26 M0 238.06 C43.43 187.83, 86.54 138.87, 207.33 0.07 M-0.99 243.43 C69.43 163.85, 138.11 82.34, 213.06 -1.05 M0.29 244.04 C47.67 190.97, 94.97 136.89, 212.54 -0.37 M0.45 249.77 C62.62 179.42, 122.53 108.97, 217.46 0.28 M-0.25 250.14 C74.09 163.55, 149.9 77.28, 217.19 0.17 M0.73 256.69 C49.8 200.04, 99.13 144.16, 222.58 -0.78 M-0.41 255.44 C64.94 182.71, 127.66 110.09, 222.83 0.38 M-0.91 261.6 C77.91 169.03, 159.36 75.97, 229.04 -0.42 M-0.12 262.07 C74.34 174.68, 149.55 88.52, 227.78 -0.2 M1.14 267.37 C81.18 174.33, 165.06 78.35, 232.85 0.59 M0.69 268.34 C74.2 183.91, 147.6 100.18, 233.78 -0.13 M-0.96 273.45 C60.87 206.09, 122.34 138.96, 237.34 -0.4 M-0.52 274.1 C71.59 191.62, 143.84 107.9, 237.97 -0.19 M-1.05 280.81 C93.52 172.4, 187.67 62.17, 244.24 0.25 M-0.14 280.32 C93.87 172.41, 186.52 65.29, 243.72 0.52 M-0.53 287.48 C77.69 196.92, 155.23 106.67, 249.05 -0.69 M0.64 286.66 C70.04 208.27, 138.99 129.16, 248.87 0.55 M-0.44 293.27 C90.31 191.16, 179.47 86.71, 254.03 -0.21 M-0.46 292.48 C94.7 184.44, 190.13 74.22, 254.11 -0.11 M1.33 297.76 C75.46 213.62, 151.63 126.96, 259.88 -0.36 M-0.17 298.04 C99.67 186.9, 197.82 75.55, 259.27 0.83 M0.01 305.71 C96.3 194.88, 189.23 86.66, 264.91 0.91 M-0.36 304.32 C70 223.39, 141.26 141.51, 264.93 0.11 M0.75 311.5 C76.34 222.41, 153.76 134.15, 271.07 -0.55 M-0.06 311.67 C106.77 190.3, 211.61 69.07, 269.98 0.61 M0.45 317.02 C83.13 220.22, 169.46 122.86, 276.36 -0.01 M-0.27 316.39 C61.39 247.72, 122.51 177.63, 275.56 -0.03 M0.04 323.46 C63.73 250.97, 126.9 178.49, 280.49 -0.29 M0.43 323.23 C66.18 245.6, 132.95 168.97, 280.29 -0.14 M-0.09 328.18 C109.91 202.38, 221.68 73.25, 286.32 0.52 M0.16 329.07 C82.98 230.69, 168.1 133.44, 286.39 0.2 M-0.24 335.6 C108.11 212.3, 216.01 88.49, 292.24 0.06 M0.02 334.85 C84.04 239.74, 167.44 143.55, 291.74 -0.02 M0.71 341.54 C105.18 219.71, 212.61 97.43, 296.44 -1.09 M-0.3 341.94 C100.91 225.78, 200.84 110.37, 297.17 -0.31 M0.37 346.41 C62.53 273.53, 126.43 202.02, 301.11 0.03 M0.49 346.92 C73.95 261.53, 148.65 175.47, 301.53 0.2 M0.12 353.06 C80.64 261.57, 160.77 167.69, 308.42 -0.14 M-0.16 353.44 C88.89 252.07, 178.12 149.15, 307.65 0.01 M0.82 358.55 C117.94 222.92, 234.53 87.57, 311.77 -0.03 M0.52 359.5 C83.04 263.43, 165.34 167.49, 312.87 0.29 M-0.64 365.62 C107.75 241.3, 215.13 119.25, 317.98 -0.34 M0.19 365.52 C90.74 261.06, 180.77 156.79, 317.97 0 M-0.87 372.61 C104.51 251.3, 207.96 129.95, 323.64 0.05 M-0.41 371.88 C76.15 286.33, 152.52 198.33, 323.01 0.06 M0.65 377.54 C95.58 268.61, 191.22 157.53, 328.52 0.47 M-0.1 377.52 C116.42 246.32, 231.79 114.37, 328.97 -0.66 M0.65 384.07 C82.74 288.49, 165.47 194.29, 334.65 -0.56 M-0.15 384.3 C95.59 272.45, 192.11 161.78, 333.85 -0.31 M-0.44 389.61 C75.27 302.19, 151.79 214.61, 339.25 -1.1 M0.71 389.98 C102.44 272.34, 205.09 154.17, 339.36 -0.56 M0 396.79 C125.24 248.59, 252.24 103.39, 343.71 0.42 M0.13 396.11 C106.92 274.08, 212.34 152.27, 344.41 0.1 M-0.07 403.22 C110.87 276.68, 219.38 151.79, 349.19 0.61 M-0.59 402.64 C88.7 301.84, 177.33 200.51, 349.58 0.58 M0.91 407.6 C86.13 308.26, 174.27 205.68, 354.37 -0.47 M-0.12 408.08 C73.68 324.61, 145.56 240.86, 355.5 0.16 M0.78 413.43 C113.3 282.4, 225.44 152, 360.48 0.45 M0.98 413.37 C110.02 288.7, 218.87 163.41, 359.96 0.2 M6.17 414.01 C105.2 300.97, 204.46 187.16, 366.09 -0.45 M6.42 413.59 C92.74 312.47, 180.61 211.58, 366.04 -0.45 M10.6 413.83 C110.59 297.89, 210.66 181.83, 370.41 0.59 M10.89 413.93 C101.11 310.83, 190.35 208.8, 370.38 0.13 M16.46 414.11 C150.22 261.61, 282.12 109.52, 376.71 -0.87 M16.53 413.25 C134.07 277.95, 252.12 142.21, 376.71 -0.11 M21.79 413.68 C104.88 319.14, 187.34 223, 381.26 0.33 M21.91 413.83 C117.88 302.55, 215.47 190.81, 381.73 0.03 M27.12 414.01 C133.03 291.47, 237.83 172.42, 386.36 -0.01 M27.29 413.23 C136.52 290.07, 245.68 165.17, 387.08 -0.42 M33.1 413.8 C133.68 298.33, 235.85 182.93, 392.46 0.8 M32.14 413.42 C124.92 306.49, 217.21 200.53, 391.6 0.14 M38.42 413.22 C156.22 277.68, 272.61 143.48, 398.36 -0.29 M37.87 413.4 C129.67 308.91, 221.17 204.29, 397.69 -0.23 M43.87 413.32 C157.92 281.35, 274.15 147.63, 402.97 -0.58 M42.89 413.52 C140.12 300.91, 238.15 188.05, 402.75 0.06 M48.58 413.88 C192.31 247.07, 335.35 81.48, 408.73 0.53 M48.59 413.77 C126.03 325.04, 202.82 237.16, 407.98 0.02 M54.18 414.43 C170.57 279.79, 288.77 145.35, 413.7 0.26 M53.59 414.08 C155.54 298.16, 256.88 181.5, 413.03 -0.04 M59.36 413.63 C188.72 262.78, 319.7 113.71, 418.23 0.56 M59.7 413.35 C149.19 310.69, 240.09 206.6, 419.15 -0.59 M64.05 413.58 C156.44 308.16, 247.49 202.76, 423.47 0.45 M64.59 413.82 C149.97 312.97, 236.54 213.24, 423.86 0.17 M70.43 412.75 C180 287.19, 287.35 162.01, 429.98 -0.65 M70.17 413.68 C208.09 255.93, 346 97.37, 429.71 -0.58 M74.24 413.49 C200.8 270.32, 325.46 126.54, 434.67 0.59 M75.2 413.84 C218.59 249.65, 361.48 85.37, 434.16 0.01 M80.22 413.39 C167.58 314.55, 254.32 215.46, 440.61 0.34 M80.5 412.92 C174.8 302.74, 269.5 193.53, 439.91 -0.5 M85.43 414.34 C168.36 318.98, 250.97 223.85, 444.4 0.74 M85.62 414.01 C226.71 250.77, 368.26 89.03, 444.8 -0.27 M91.49 413.95 C172.94 319.41, 254.44 224.7, 450.72 0.42 M91.55 413.34 C197.79 292.84, 303.33 171.34, 450.53 -0.16 M95.87 412.97 C169.75 328.21, 244.08 243.62, 456.51 -0.38 M96.62 413.36 C223.8 265.74, 351.95 119.65, 455.77 0.2 M102.55 413.1 C192.66 306.96, 282.51 203.17, 460.81 0.34 M101.67 413.03 C214.14 283.72, 324.92 155.32, 461.68 -0.56 M106.92 413.28 C240.51 261.54, 373.73 108.88, 466.4 0.22 M106.69 413.7 C183.2 325.43, 258.99 238.63, 466.6 0.02 M112.83 413.79 C231.7 277.29, 350.51 140.71, 471.48 -0.12 M112.78 413.42 C219.83 289.16, 326.9 165.49, 471.75 0.39 M117.48 414.23 C220.75 295.39, 323.07 175.44, 477.79 -0.61 M117.24 413.6 C253.4 258.93, 388.52 103.87, 476.76 -0.03 M123.04 413.56 C199.95 326.36, 277.33 236.91, 482.05 0.39 M122.84 414.06 C225.21 296.62, 327.23 179.8, 482.02 0.49 M128 413.86 C241.66 282.07, 356.14 150.81, 487.54 -0.18 M128.21 413.59 C222.34 304.77, 315.78 197.31, 487.62 0.2 M133.82 413.57 C237.41 293.95, 341.77 174.6, 492.19 0.58 M132.94 414.04 C216.97 319.46, 299.67 224.38, 492.34 0.58 M138.07 413.26 C243.99 288.67, 351.44 166.04, 497.65 -0.29 M138.5 413.39 C269.62 263.06, 400.17 113.35, 498.1 -0.17 M144.16 414.28 C240.44 302.14, 337.22 191.79, 503.77 0.65 M143.71 413.64 C269.38 268.47, 395.58 123.5, 503.35 0.33 M148.79 414.17 C238.75 310.49, 328.63 207.54, 509.65 -0.13 M149.5 413.07 C285.5 258.55, 421.08 102.14, 509.07 -0.25 M154.84 413.29 C263.29 286.7, 372.32 161.08, 514.58 0.67 M154.38 414.18 C296.22 250.27, 438.49 86.27, 513.82 0.15 M160.43 413.43 C257.4 298.91, 358.01 184.76, 519.03 -0.19 M159.97 413.49 C263.38 295.35, 367.54 174.95, 519.7 -0.18 M165.4 413.25 C265.12 298.37, 366.58 183.31, 523.99 -0.24 M164.9 413.53 C292.64 266.32, 420.91 118.22, 524.24 0.02 M169.97 413.29 C266.07 305.01, 360.45 196.28, 530.39 0.09 M170.37 413.45 C270.96 300.1, 370.11 186.28, 530.31 0.05 M174.88 413.05 C285.37 286.73, 395.89 159.89, 535.26 0.12 M175.58 413.76 C309.43 259.72, 443.56 105.56, 534.84 -0.08 M181.56 412.71 C318.28 254.86, 454.29 98.3, 540.69 -0.08 M180.91 413.35 C254.32 327.31, 327.74 242, 541.14 -0.55 M185.9 413.48 C271.74 315.02, 356.72 217.59, 545.21 -0.21 M186.62 413.47 C265.45 321.82, 345.55 230.1, 545.98 0.17 M191.25 412.89 C328.74 258.54, 464.7 101.56, 551.2 -0.4 M191.93 413.13 C313.99 270.96, 436.97 129.48, 551.17 -0.43 M197.38 413.16 C321.01 268.06, 445.85 125.36, 556.21 -0.1 M196.98 413.85 C275.7 322.75, 355.3 230.83, 556.17 0.26 M202.26 413.3 C309.32 291.83, 414.43 169.96, 561.97 -0.33 M202.7 413.51 C289.18 314.64, 374.37 217.02, 561.7 -0.65 M207.01 414.2 C300.77 308.49, 393 202.29, 567.34 0.62 M207.94 413.47 C328.27 275.13, 450.23 135.77, 567.21 0.06 M212.93 412.45 C335.66 270.85, 459.39 130.12, 572.54 0.14 M213.4 413.19 C299.18 314.28, 384.4 216.21, 572.78 -0.51 M218.4 413.36 C291.44 327.58, 365.41 243.6, 578.44 0.39 M217.91 413.44 C314.75 301.55, 412.82 188.97, 577.46 0.2 M223.93 413.55 C304.39 320.62, 385.94 228.01, 582.16 0.43 M223.98 413.23 C362.11 254.84, 498.43 97.89, 582.93 0.4 M229.09 414.05 C363.36 256.47, 499.69 98.96, 587.67 -0.08 M228.45 413.85 C362.64 259.72, 496.91 105.8, 588.62 0.1 M234.29 412.44 C313.49 318.5, 395.4 224.82, 593.18 0.38 M234.49 413.45 C343.02 288.54, 450.34 164.89, 592.94 0.43 M239.37 412.76 C377.95 254.15, 516.84 94.46, 598.74 -0.23 M239.83 413.39 C356.77 277.04, 475.38 141.16, 598.9 -0.09 M244.71 413.6 C354.69 285.87, 467.3 156.86, 604.73 0.73 M244.07 413.61 C357.55 284.35, 470.97 153.93, 604.01 -0.08 M249.87 414.24 C384.38 259.49, 519.12 105.73, 608.9 -0.43 M249.85 413.66 C348.33 300.32, 446.24 187.48, 609.84 0.18 M254.59 413.5 C338.03 319.22, 421.48 223.73, 614.51 0.94 M254.76 413.96 C378.4 272.1, 501.98 130.84, 614.29 0.26 M260.76 413.1 C373.09 284.63, 487.2 153.58, 620.92 0.42 M260.66 413.27 C358.26 300.44, 457.07 187.02, 620.33 -0.18 M265.31 413.93 C344.4 325.98, 419.89 238.56, 625.37 0.74 M265.55 413.79 C404.79 252.63, 544.26 91.59, 625.08 0.18 M270.92 413.81 C386.77 277.43, 505.33 142.46, 631.13 -0.74 M271.12 413.8 C360.67 310.47, 451.7 206.41, 630.98 -0.29 M275.64 413.39 C376.85 301.17, 475.18 188.5, 636.5 0.91 M276.23 413.6 C365.23 309.02, 456.09 205.46, 635.61 0.2 M282 413.91 C406.2 267.99, 532.95 124.56, 641.38 -0.7 M282.04 413.78 C377.93 303.98, 472.3 195.06, 641.32 -0.1 M286.68 413.45 C398.31 284.74, 510.17 156.85, 645.82 0.9 M287.11 413.87 C366.64 320, 447.66 226.9, 646.64 -0.19 M292.77 412.78 C385.7 305.5, 477.64 198.58, 651.86 -0.36 M292.55 413.11 C368.24 327.46, 442.37 241.51, 651.84 -0.01 M297.88 413.15 C370.25 328.79, 445.22 244.19, 657.21 -0.39 M297.86 413.84 C438.96 254.04, 579.73 92.62, 656.85 0.24 M303.15 414.1 C435.27 263.6, 565.13 113.05, 663.5 -0.79 M302.91 413.46 C421.48 278.15, 539.1 142.16, 662.74 -0.42 M307.81 412.96 C421.43 282.17, 535.59 150.98, 668.44 -0.58 M307.84 413.51 C424.35 278.68, 540.88 143.81, 668.06 0.13 M313.38 413.78 C424.22 288.01, 532.96 162.51, 673.98 -0.79 M314.13 413.1 C422.88 285.56, 532.67 158.17, 673.55 -0.59 M318.2 414.04 C458.54 250.22, 600.93 87.43, 678.48 0.57 M318.96 413.26 C460.81 249.41, 602.53 86.21, 678.43 -0.15 M324.85 413.61 C452.82 264.89, 583.94 115.04, 683.3 -0.89 M324.32 413.61 C459.63 259.09, 593.98 104.14, 684.34 -0.59 M329.9 414.21 C426.68 303.03, 523.13 192.21, 689.78 0.34 M329.67 413.45 C422.54 303.98, 516.83 195.91, 689.24 0.36 M334.49 412.43 C457.41 273.59, 578.18 134.32, 694.6 -0.96 M334.74 413.2 C477.85 250.3, 619.19 87.44, 694.52 -0.13 M340.51 413.55 C462.04 272.15, 585.06 130.44, 699.56 0.3 M340.15 413.18 C476.21 256.13, 612.24 99.2, 699.7 -0.41 M345.16 413.36 C444.86 299.87, 543.07 187.56, 704.71 -0.27 M345.39 413.4 C484.11 255.11, 620.39 98.25, 704.94 0.21 M349.95 413.6 C464.85 280.57, 579.41 150.11, 710.17 0.68 M351.09 413.14 C454.43 293.66, 558.15 174.46, 710.56 0.03 M356.2 414.12 C478.93 273.17, 600.54 131.09, 715.55 0.35 M355.52 413.89 C493.84 253.58, 632.91 93.34, 715.4 0.34 M361.3 413.36 C457.73 303.17, 552.89 192.33, 720.3 -0.45 M361.74 413.58 C480.71 276.69, 599.45 140.97, 720.5 -0.45 M366.86 414.44 C492.41 270.22, 618.42 124.44, 726.24 0.55 M366.71 413.85 C442.23 328.7, 516.62 243.29, 725.81 0.01 M371.95 413.29 C498.65 267.38, 625.7 120.96, 732.18 0.07 M371.85 413.12 C489.07 277.98, 607.18 142.45, 731.32 -0.23 M376.37 413.36 C460.39 317.04, 546.18 220.27, 736.46 -0.08 M376.88 413.69 C476.22 297.1, 576.46 181.84, 736.12 0.19 M382.47 412.93 C496.75 282.09, 611.66 150.24, 742.76 0.04 M382.94 413.17 C492.8 285.46, 602.99 158.54, 741.96 0.1 M387.32 413.45 C522.41 260.09, 655.13 106.08, 746.64 -0.51 M387.33 414.03 C523.65 256.61, 662.08 98.85, 746.76 0.21 M392.52 413.27 C533.6 253.92, 672.6 93.63, 752.54 -0.87 M393.02 413.46 C528.26 254.92, 664.48 97.97, 752.9 -0.3 M397.88 414.33 C493.8 305.57, 587.23 197.18, 756.49 0.13 M398.53 413.67 C519.77 273.73, 641.32 133.46, 756.88 0.53 M403.32 412.76 C533.42 264.44, 664.4 114.23, 757.27 6.47 M404.27 413.34 C492.97 311.98, 582.14 209.9, 757.43 6.3 M408.93 413.49 C493.94 317.52, 576.66 220.96, 757.95 12.37 M408.84 413.97 C517.51 286.86, 626.29 160.77, 757.6 12.99 M415.23 412.91 C534.98 275.43, 655.91 138.06, 756.36 19.11 M414.57 413.7 C522.09 287.53, 630.84 161.3, 756.93 19.06 M420.09 413.47 C546.95 265.47, 676.22 117.15, 757.08 25.51 M419.77 413.66 C523.81 291.42, 628.91 170.79, 757.61 24.71 M425.35 412.7 C495.64 332.65, 566.78 252.26, 757.23 30.72 M425.14 413.4 C547.31 270.17, 671.45 127.9, 756.78 31.26 M430.54 413.08 C557.91 267.91, 685.2 121.5, 757.27 36.84 M429.96 414.04 C521.47 308.38, 613.79 201.7, 757.9 37.3 M436.33 412.55 C534.53 299.15, 633.65 185.47, 757.92 42.73 M436.15 412.87 C529.03 303.9, 624.05 195.22, 757.33 43.49 M441.4 412.94 C533.38 307.16, 625.77 200.92, 756.35 49.88 M440.36 413.79 C508.54 336.81, 575.95 258.59, 757.33 49.46 M445.8 413.7 C560.53 278.84, 676.56 146.3, 758.2 55.41 M446.24 412.92 C559.91 285.69, 671.84 156.49, 757.49 55.8 M451.62 413.31 C564.47 284.33, 675.31 156.61, 756.54 62.61 M451.57 413.28 C524.96 329.24, 599 244.58, 757.22 61.69 M457.38 413.76 C526.79 332.41, 595.83 251.93, 757.47 68.31 M457.13 413.63 C556.8 299.05, 656.97 183.25, 757.08 68.69 M462.25 412.8 C522.62 344.43, 583.21 275.24, 756.29 74.02 M462.33 413.68 C561.62 298.62, 661.99 182.79, 757.07 73.84 M467.52 412.55 C554.35 315.78, 641.04 215.74, 756.56 79.69 M468.14 413.56 C575.44 287.17, 683.43 162.65, 757.42 80.57 M471.99 413.12 C543.71 332.75, 614.09 252.89, 757.48 85.85 M472.5 413.59 C537.23 338.65, 602.13 265.05, 757.79 85.73 M478.43 414.7 C546.11 333.61, 614.93 251.85, 756.79 92.52 M477.44 413.71 C571.91 305.09, 665.19 197.92, 756.7 92.81 M483.99 412.43 C553.04 331.28, 622.85 251.64, 757.37 99.73 M482.93 413.12 C553.18 331.47, 623.91 250.07, 756.76 98.42 M488.24 413.24 C582.33 301.34, 679.22 190.29, 757.7 104.31 M488.39 413.44 C556.33 335.94, 625.5 257.47, 757.32 104.23 M494.63 414.51 C555.96 340.91, 619.04 269.11, 758.01 110.5 M493.97 413.79 C582.33 311.53, 671.74 208.79, 757.06 110.72 M498.12 413.72 C596.01 299.4, 694.13 187.38, 756.91 117.05 M498.96 413.33 C568.42 332, 638.46 250.86, 757.43 116.5 M504.77 412.43 C585.27 318.05, 666.78 224.25, 757.18 122.6 M504.78 413.51 C559.33 350.53, 613.45 288.07, 756.78 123.14 M510.21 413.22 C571.14 344, 633.2 270.35, 757.46 128.27 M510.12 413.73 C586.04 323.81, 662.75 235.98, 757.08 129.06 M514.75 414.41 C581.26 337.69, 645.9 260.33, 756.67 135.27 M514.83 413.77 C604.01 310.05, 692.21 209.18, 757.76 135.3 M520.58 413.1 C611.13 305.98, 705.78 199.41, 758.02 140.58 M520.04 413.75 C613.25 305.35, 706.38 196.87, 757.05 140.93 M525.52 412.6 C613.71 311.6, 704.72 208.52, 758.48 146.11 M525.98 413.39 C600.85 327.82, 675.76 241.19, 757.2 147.39 M529.79 413.4 C576.33 362.83, 622.55 310.05, 756.66 153.5 M530.78 414.23 C606.31 326.42, 682.05 239, 756.6 153.81 M537.42 412.92 C626.13 311.14, 712.58 210.42, 757.49 160.86 M536.97 413.93 C616.24 324.78, 694.57 234.09, 757.42 160.31 M542.48 413.96 C621.24 323.48, 701.25 233.13, 757.98 165.97 M541.52 413.39 C590.52 356.78, 639.65 300.29, 756.88 165.65 M545.81 414.43 C625.92 323.77, 703.61 236.08, 758.03 171.02 M547.56 412.65 C625.66 321.81, 705.86 230.88, 756.45 171.96 M552.59 412.89 C624.06 329.79, 697.64 247.35, 757.98 178.66 M551.55 414.08 C629.87 323.56, 707.84 234.43, 757 177.22 M559.02 412.11 C637.07 323.22, 716.42 232.18, 758.54 183.51 M558.09 413.9 C604.97 357.66, 654.29 300.87, 756.62 183.85 M563.26 413.68 C620.98 344.2, 681.12 275.33, 757.87 190.64 M562.5 413.62 C636.26 329.75, 709.67 245.74, 756.59 189.72 M569.22 412.7 C627.34 344.38, 684.97 276.74, 757.8 194.64 M568.82 413.27 C615.96 357.75, 664.16 302.6, 757.07 195.99 M571.93 412.42 C640.69 331.96, 711.35 252.07, 757.18 203.55 M573.46 414.25 C645.43 331, 718.77 248.29, 756.4 202.53 M578.98 413.6 C644.2 337.89, 708.19 263.17, 755.9 209.27 M579.16 413.78 C622.38 363.58, 665.81 315.28, 757.88 208.37 M583.45 413.9 C648.85 338.92, 712.56 265.82, 757.04 212.76 M584.39 413.69 C639.09 352.3, 692.5 290.96, 756.6 213.73 M588.03 413.04 C650.14 342.25, 714.72 271.68, 755.37 222.13 M589.21 414.35 C638.78 357.48, 685.77 303.09, 757.12 220.83 M593.39 415.06 C637.86 363.13, 683.27 309.87, 758.59 227.47 M593.91 413.39 C655.84 341.95, 718.8 271.08, 757.16 225.58 M600.55 412.23 C656.21 351.84, 708.58 288.33, 756.04 231.21 M600.22 413.4 C634.25 374.81, 668.73 335.67, 757.41 232.44 M605.05 412.15 C664.01 345.6, 723.59 279.85, 757 238.3 M604.97 413.23 C663.86 348.1, 720.06 283.22, 757.87 238.44 M609.48 412.15 C646 373.77, 681.91 330.52, 758.85 245.05 M609.55 414.56 C652.01 362.93, 695.81 313.59, 756.44 245.42 M615.03 412.85 C666.16 352.57, 717.31 293.71, 755.66 251.73 M615.92 413.9 C648.76 374.21, 682.88 336.23, 756.85 250.35 M620.77 415.37 C655.46 373.14, 694.01 327.81, 756.59 257.92 M621.03 414.35 C666.47 360.3, 711.78 306.85, 757.07 255.99 M624.58 414.88 C672.19 359.11, 719.9 303.84, 757.66 262.39 M626.1 414.37 C654.76 383.01, 681.13 351.54, 757.52 263.45 M630.87 414.48 C676.04 362.53, 717.89 311.28, 755.44 268.53 M631.53 413.79 C677.33 359.47, 726.92 304.26, 757.33 268.01 M635.61 412.84 C670.79 375.11, 708.25 332.05, 755.47 277.05 M637.03 414.01 C673.28 369.08, 711.89 326.34, 756.53 275.49 M642.47 414.76 C668.88 383.44, 696.12 351.88, 756.61 283.59 M642.02 414.47 C668.04 382.5, 693.13 352.6, 757.54 281.12 M647.47 412.87 C690.35 362.63, 733.81 315.83, 758.4 286.72 M647.69 412.4 C679.56 375.4, 711.36 338.89, 756.94 286.4 M651.19 415.22 C676.66 384.64, 701.02 357.27, 758.51 293.74 M653.52 413.58 C685.45 376.63, 717.45 339.8, 756.32 293.09 M659.46 414.84 C682.23 384.14, 705.93 356.66, 758.8 300.98 M657.34 414 C683.4 384.76, 708.08 355.75, 756.62 298.64 M663.51 413.31 C685.33 387.19, 709.55 361.3, 755.49 307.4 M663.84 414.64 C699.45 369.68, 736.8 327.81, 757.69 305.96 M668.71 414.3 C695.91 380.13, 724.07 347.81, 757.2 310.85 M668.6 413.16 C688.49 389.56, 707.3 368.44, 756.63 312.86 M674.72 415.16 C703.28 380.14, 728.61 348.21, 758.42 317.9 M674.64 412.62 C700.33 383.56, 725.17 352.05, 756.64 317.98 M680.2 412.44 C701.39 386.1, 725.93 360.33, 758.95 323.7 M680.4 413.18 C709.56 379.78, 737.72 345.42, 756.81 323.86 M682.99 413.53 C698.77 397.8, 712.79 380, 755.98 330.21 M684.37 412.87 C701.35 395.74, 717.52 376.61, 757.5 329.29 M688.77 414.12 C712.95 389.79, 732.67 367.38, 756.25 337.84 M691 413.26 C704.78 395.88, 720.64 378.94, 756.87 336.13 M695.31 413.86 C712.07 396.05, 728.19 375.94, 756.08 343.71 M695.34 414.21 C715.4 390.31, 735.62 367.63, 756.26 341.71 M700.44 414.59 C715.97 393.95, 731.58 376.82, 756.84 349.49 M700.34 414.3 C714.78 397.78, 730.87 380.03, 758 347.83 M705.54 412.23 C728.4 390.35, 748.16 367.63, 758.42 355.2 M706.69 413.84 C723.52 392.37, 743.23 369.22, 756.22 354.73 M709.02 414.52 C719.44 401.94, 732.85 388.93, 757.27 359.51 M711.64 414.84 C722.52 400.51, 733.58 388.79, 757.22 360.53 M716.35 413.39 C731.58 396.13, 744.68 382.18, 756.57 365.36 M717.36 414.42 C730.23 397.99, 743.27 381.72, 757.02 367.01 M722.22 414.48 C735.31 399.23, 745.17 385.46, 756.29 372.19 M720.49 414.61 C733.88 399.96, 747.92 383.59, 757.73 372.99 M725.27 412.73 C739.55 401.55, 750.86 385.04, 758.62 377.81 M727.15 413 C737.05 401.15, 748.12 388.2, 756.32 378.39 M730.25 413.94 C738.66 407.07, 748.57 394.96, 755.46 386.19 M732.47 414.5 C737.88 405.45, 746.13 397.28, 756.5 385.13 M738.69 414.31 C743.98 409.09, 748.09 404.25, 756.47 389.79 M737.66 414.06 C742.01 408.1, 745.69 404.84, 758.06 391.63 M743.14 414.04 C748.21 407.8, 753.35 401.17, 757.23 397.11 M743.49 414.35 C745.82 409.64, 750.42 406.94, 757.4 397.53 M749.31 413.03 C750.27 410.11, 752.46 408.73, 755.83 403.19 M749.01 412.81 C750.23 411.87, 751.26 409, 756.9 403.95 M753.19 414.29 C753.81 412.66, 755.53 411.16, 757.36 408.97 M753.18 413.78 C755.02 411.96, 756.24 410.03, 757.13 409.28" stroke="#868e96" stroke-width="0.5" fill="none"></path><path d="M-0.25 -0.5 C221.84 -2.81, 443.72 -1.71, 756.04 0.49 M0.32 0.02 C151.37 -2.95, 302.72 -2.73, 755.92 -0.26 M756.25 -0.82 C755.65 132.16, 756.53 266.67, 756.72 413.61 M756.61 -0.21 C756.73 144.4, 757.07 288.78, 755.66 412.98 M755.47 412.31 C516.52 415.36, 277.79 416.11, 0.43 412.04 M756.44 412.81 C475.14 415.19, 193.87 415.32, -0.05 412.83 M-0.31 413.2 C2.02 309.41, 1.68 207.39, -0.66 -0.45 M0.08 412.76 C1.06 307.11, 1.51 202.89, -0.09 0.49" stroke="#495057" stroke-width="1" fill="none"></path></g><g transform="translate(361.0050537393581 653.2831430327747) rotate(0 52.646189005095835 6.624354907925863)"><text x="0" y="10.248709815851933" font-family="Cascadia, Segoe UI Emoji" font-size="11.156808265980569px" fill="#495057" text-anchor="start" style="white-space: pre;" direction="ltr">Tue 10, Jan 2023</text></g><g transform="translate(356.1496825365613 722.3817707853368) rotate(0 234.5 162)"><text x="0" y="14" font-family="Helvetica, Segoe UI Emoji" font-size="15.786873793318868px" fill="#343a40" text-anchor="start" style="white-space: pre;" direction="ltr">Contrary to popular belief, Lorem Ipsum is not simply random text. </text><text x="0" y="32" font-family="Helvetica, Segoe UI Emoji" font-size="15.786873793318868px" fill="#343a40" text-anchor="start" style="white-space: pre;" direction="ltr">It has roots in a piece of classical Latin literature from 45 BC, </text><text x="0" y="50" font-family="Helvetica, Segoe UI Emoji" font-size="15.786873793318868px" fill="#343a40" text-anchor="start" style="white-space: pre;" direction="ltr">making it over 2000 years old. Richard McClintock, a Latin </text><text x="0" y="68" font-family="Helvetica, Segoe UI Emoji" font-size="15.786873793318868px" fill="#343a40" text-anchor="start" style="white-space: pre;" direction="ltr">professor at Hampden-Sydney College in Virginia, looked up one </text><text x="0" y="86" font-family="Helvetica, Segoe UI Emoji" font-size="15.786873793318868px" fill="#343a40" text-anchor="start" style="white-space: pre;" direction="ltr">of the more obscure Latin words, consectetur, from a Lorem Ipsum </text><text x="0" y="104" font-family="Helvetica, Segoe UI Emoji" font-size="15.786873793318868px" fill="#343a40" text-anchor="start" style="white-space: pre;" direction="ltr">passage, and going through the cites of the word in classical </text><text x="0" y="122" font-family="Helvetica, Segoe UI Emoji" font-size="15.786873793318868px" fill="#343a40" text-anchor="start" style="white-space: pre;" direction="ltr">literature, discovered the undoubtable source. Lorem Ipsum comes</text><text x="0" y="140" font-family="Helvetica, Segoe UI Emoji" font-size="15.786873793318868px" fill="#343a40" text-anchor="start" style="white-space: pre;" direction="ltr"> from sections 1.10.32 and 1.10.33 of "de Finibus Bonorum et </text><text x="0" y="158" font-family="Helvetica, Segoe UI Emoji" font-size="15.786873793318868px" fill="#343a40" text-anchor="start" style="white-space: pre;" direction="ltr">Malorum" (The Extremes of Good and Evil) by Cicero, written in </text><text x="0" y="176" font-family="Helvetica, Segoe UI Emoji" font-size="15.786873793318868px" fill="#343a40" text-anchor="start" style="white-space: pre;" direction="ltr">45 BC. This book is a treatise on the theory of ethics, very popular </text><text x="0" y="194" font-family="Helvetica, Segoe UI Emoji" font-size="15.786873793318868px" fill="#343a40" text-anchor="start" style="white-space: pre;" direction="ltr">during the Renaissance. The first line of Lorem Ipsum, "Lorem </text><text x="0" y="212" font-family="Helvetica, Segoe UI Emoji" font-size="15.786873793318868px" fill="#343a40" text-anchor="start" style="white-space: pre;" direction="ltr">ipsum dolor sit amet..", comes from a line in section 1.10.32.</text><text x="0" y="230" font-family="Helvetica, Segoe UI Emoji" font-size="15.786873793318868px" fill="#343a40" text-anchor="start" style="white-space: pre;" direction="ltr"></text><text x="0" y="248" font-family="Helvetica, Segoe UI Emoji" font-size="15.786873793318868px" fill="#343a40" text-anchor="start" style="white-space: pre;" direction="ltr">The standard chunk of Lorem Ipsum used since the 1500s is </text><text x="0" y="266" font-family="Helvetica, Segoe UI Emoji" font-size="15.786873793318868px" fill="#343a40" text-anchor="start" style="white-space: pre;" direction="ltr">reproduced below for those interested. Sections 1.10.32 and </text><text x="0" y="284" font-family="Helvetica, Segoe UI Emoji" font-size="15.786873793318868px" fill="#343a40" text-anchor="start" style="white-space: pre;" direction="ltr">1.10.33 from "de Finibus Bonorum et Malorum" by Cicero are also </text><text x="0" y="302" font-family="Helvetica, Segoe UI Emoji" font-size="15.786873793318868px" fill="#343a40" text-anchor="start" style="white-space: pre;" direction="ltr">reproduced in their exact original form, accompanied by English </text><text x="0" y="320" font-family="Helvetica, Segoe UI Emoji" font-size="15.786873793318868px" fill="#343a40" text-anchor="start" style="white-space: pre;" direction="ltr">versions from the 1914 translation by H. Rackham. </text></g><g stroke-linecap="round"><g transform="translate(351.3381590338972 632.9852922385658) rotate(0 233.89513233388658 -0.26070465942848386)"><path d="M-1.04 -1.18 C77.06 -0.95, 390.59 0.16, 468.83 0.52 M0.62 0.81 C78.63 0.76, 390.54 -1.05, 468.43 -1.33" stroke="#343a40" stroke-width="1" fill="none"></path></g></g><mask></mask><g stroke-linecap="round"><g transform="translate(351.7918097894211 681.6703686141941) rotate(0 234.240802443492 0.3790688425256121)"><path d="M-0.68 1.05 C77.21 1.22, 388.75 1.18, 466.91 1.12 M1.17 0.56 C79.47 0.41, 391.4 -0.11, 469.16 -0.41" stroke="#343a40" stroke-width="1" fill="none"></path></g></g><mask></mask><g transform="translate(309.4395509983617 551.1278247603495) rotate(0 14.695330518091964 8.212096465992545)"><text x="0" y="13.42419293198509" font-family="Cascadia, Segoe UI Emoji" font-size="13.830899311145343px" fill="#495057" text-anchor="start" style="white-space: pre;" direction="ltr">❤ 3</text></g><g transform="translate(778.2241929600797 647.4843729149302) rotate(0 15.5 10)"><text x="0" y="15" font-family="Cascadia, Segoe UI Emoji" font-size="12.0269647575918px" fill="#495057" text-anchor="start" style="white-space: pre;" direction="ltr">💬 3</text></g><g transform="translate(360.22094379636394 1092.7801234617818) rotate(0 118 12)"><text x="0" y="19" font-family="Cascadia, Segoe UI Emoji" font-size="20.06629856487459px" fill="#000000" text-anchor="start" style="white-space: pre;" direction="ltr">What is Lorem Ipsum?</text></g><g transform="translate(364.1929663936089 1531.589686684505) rotate(0 134.169673034251 12.601571500454611)"><text x="0" y="20.203143000909026" font-family="Cascadia, Segoe UI Emoji" font-size="20.75552953016037px" fill="#000000" text-anchor="start" style="white-space: pre;" direction="ltr">Where can I get some? </text></g><g transform="translate(359.4495822870581 1162.4088741757314) rotate(0 234.5 162)"><text x="0" y="14" font-family="Helvetica, Segoe UI Emoji" font-size="15.786873793318868px" fill="#343a40" text-anchor="start" style="white-space: pre;" direction="ltr">Contrary to popular belief, Lorem Ipsum is not simply random text. </text><text x="0" y="32" font-family="Helvetica, Segoe UI Emoji" font-size="15.786873793318868px" fill="#343a40" text-anchor="start" style="white-space: pre;" direction="ltr">It has roots in a piece of classical Latin literature from 45 BC, </text><text x="0" y="50" font-family="Helvetica, Segoe UI Emoji" font-size="15.786873793318868px" fill="#343a40" text-anchor="start" style="white-space: pre;" direction="ltr">making it over 2000 years old. Richard McClintock, a Latin </text><text x="0" y="68" font-family="Helvetica, Segoe UI Emoji" font-size="15.786873793318868px" fill="#343a40" text-anchor="start" style="white-space: pre;" direction="ltr">professor at Hampden-Sydney College in Virginia, looked up one </text><text x="0" y="86" font-family="Helvetica, Segoe UI Emoji" font-size="15.786873793318868px" fill="#343a40" text-anchor="start" style="white-space: pre;" direction="ltr">of the more obscure Latin words, consectetur, from a Lorem Ipsum </text><text x="0" y="104" font-family="Helvetica, Segoe UI Emoji" font-size="15.786873793318868px" fill="#343a40" text-anchor="start" style="white-space: pre;" direction="ltr">passage, and going through the cites of the word in classical </text><text x="0" y="122" font-family="Helvetica, Segoe UI Emoji" font-size="15.786873793318868px" fill="#343a40" text-anchor="start" style="white-space: pre;" direction="ltr">literature, discovered the undoubtable source. Lorem Ipsum comes</text><text x="0" y="140" font-family="Helvetica, Segoe UI Emoji" font-size="15.786873793318868px" fill="#343a40" text-anchor="start" style="white-space: pre;" direction="ltr"> from sections 1.10.32 and 1.10.33 of "de Finibus Bonorum et </text><text x="0" y="158" font-family="Helvetica, Segoe UI Emoji" font-size="15.786873793318868px" fill="#343a40" text-anchor="start" style="white-space: pre;" direction="ltr">Malorum" (The Extremes of Good and Evil) by Cicero, written in </text><text x="0" y="176" font-family="Helvetica, Segoe UI Emoji" font-size="15.786873793318868px" fill="#343a40" text-anchor="start" style="white-space: pre;" direction="ltr">45 BC. This book is a treatise on the theory of ethics, very popular </text><text x="0" y="194" font-family="Helvetica, Segoe UI Emoji" font-size="15.786873793318868px" fill="#343a40" text-anchor="start" style="white-space: pre;" direction="ltr">during the Renaissance. The first line of Lorem Ipsum, "Lorem </text><text x="0" y="212" font-family="Helvetica, Segoe UI Emoji" font-size="15.786873793318868px" fill="#343a40" text-anchor="start" style="white-space: pre;" direction="ltr">ipsum dolor sit amet..", comes from a line in section 1.10.32.</text><text x="0" y="230" font-family="Helvetica, Segoe UI Emoji" font-size="15.786873793318868px" fill="#343a40" text-anchor="start" style="white-space: pre;" direction="ltr"></text><text x="0" y="248" font-family="Helvetica, Segoe UI Emoji" font-size="15.786873793318868px" fill="#343a40" text-anchor="start" style="white-space: pre;" direction="ltr">The standard chunk of Lorem Ipsum used since the 1500s is </text><text x="0" y="266" font-family="Helvetica, Segoe UI Emoji" font-size="15.786873793318868px" fill="#343a40" text-anchor="start" style="white-space: pre;" direction="ltr">reproduced below for those interested. Sections 1.10.32 and </text><text x="0" y="284" font-family="Helvetica, Segoe UI Emoji" font-size="15.786873793318868px" fill="#343a40" text-anchor="start" style="white-space: pre;" direction="ltr">1.10.33 from "de Finibus Bonorum et Malorum" by Cicero are also </text><text x="0" y="302" font-family="Helvetica, Segoe UI Emoji" font-size="15.786873793318868px" fill="#343a40" text-anchor="start" style="white-space: pre;" direction="ltr">reproduced in their exact original form, accompanied by English </text><text x="0" y="320" font-family="Helvetica, Segoe UI Emoji" font-size="15.786873793318868px" fill="#343a40" text-anchor="start" style="white-space: pre;" direction="ltr">versions from the 1914 translation by H. Rackham. </text></g><g transform="translate(363.43291520563184 1598.3625342851083) rotate(0 232.5 90)"><text x="0" y="14" font-family="Helvetica, Segoe UI Emoji" font-size="15.786873793318868px" fill="#343a40" text-anchor="start" style="white-space: pre;" direction="ltr">The standard chunk of Lorem Ipsum used since the 1500s is </text><text x="0" y="32" font-family="Helvetica, Segoe UI Emoji" font-size="15.786873793318868px" fill="#343a40" text-anchor="start" style="white-space: pre;" direction="ltr">reproduced below for those interested. Sections 1.10.32 and </text><text x="0" y="50" font-family="Helvetica, Segoe UI Emoji" font-size="15.786873793318868px" fill="#343a40" text-anchor="start" style="white-space: pre;" direction="ltr">1.10.33 from "de Finibus Bonorum et Malorum" by Cicero are also </text><text x="0" y="68" font-family="Helvetica, Segoe UI Emoji" font-size="15.786873793318868px" fill="#343a40" text-anchor="start" style="white-space: pre;" direction="ltr">reproduced in their exact original form, accompanied by English </text><text x="0" y="86" font-family="Helvetica, Segoe UI Emoji" font-size="15.786873793318868px" fill="#343a40" text-anchor="start" style="white-space: pre;" direction="ltr">versions from the 1914 translation by H. Rackham. </text><text x="0" y="104" font-family="Helvetica, Segoe UI Emoji" font-size="15.786873793318868px" fill="#343a40" text-anchor="start" style="white-space: pre;" direction="ltr"></text><text x="0" y="122" font-family="Helvetica, Segoe UI Emoji" font-size="15.786873793318868px" fill="#343a40" text-anchor="start" style="white-space: pre;" direction="ltr">In publishing and graphic design, Lorem ipsum is a placeholder </text><text x="0" y="140" font-family="Helvetica, Segoe UI Emoji" font-size="15.786873793318868px" fill="#343a40" text-anchor="start" style="white-space: pre;" direction="ltr">text commonly used to demonstrate the visual form of a </text><text x="0" y="158" font-family="Helvetica, Segoe UI Emoji" font-size="15.786873793318868px" fill="#343a40" text-anchor="start" style="white-space: pre;" direction="ltr">document  or a typeface without relying  on meaningful content.</text><text x="0" y="176" font-family="Helvetica, Segoe UI Emoji" font-size="15.786873793318868px" fill="#343a40" text-anchor="start" style="white-space: pre;" direction="ltr"></text></g><g transform="translate(137.14937575549902 419.84522241256946) rotate(0 44.5 18)"><text x="0" y="14" font-family="Helvetica, Segoe UI Emoji" font-size="16px" fill="#343a40" text-anchor="start" style="white-space: pre;" direction="ltr">reactions list</text><text x="0" y="32" font-family="Helvetica, Segoe UI Emoji" font-size="16px" fill="#343a40" text-anchor="start" style="white-space: pre;" direction="ltr">column</text></g><g stroke-linecap="round"><g transform="translate(236.2324899856826 454.49018715157763) rotate(0 34.711598759419644 45.33485840828712)"><path d="M-0.04 -0.18 C11.53 14.85, 56.86 75.7, 68.58 90.87 M-1.52 -1.32 C10.52 13.79, 59.01 76.48, 70.94 91.99" stroke="#343a40" stroke-width="1" fill="none"></path></g><g transform="translate(236.2324899856826 454.49018715157763) rotate(0 34.711598759419644 45.33485840828712)"><path d="M45.29 74.83 C50.15 81.34, 55.92 81.9, 72.67 91.26 M46.09 76.72 C52.05 79.42, 57.24 83.3, 70.67 91.93" stroke="#343a40" stroke-width="1" fill="none"></path></g><g transform="translate(236.2324899856826 454.49018715157763) rotate(0 34.711598759419644 45.33485840828712)"><path d="M61.54 62.29 C62.74 71.67, 64.8 75.1, 72.67 91.26 M62.34 64.18 C64.21 69.93, 65.38 76.91, 70.67 91.93" stroke="#343a40" stroke-width="1" fill="none"></path></g></g><mask></mask><g transform="translate(858.8939688724465 553.15839538603) rotate(0 69.22973413050875 7.739970275460564)"><text x="0" y="12.479940550921215" font-family="Helvetica, Segoe UI Emoji" font-size="13.759947156374409px" fill="#343a40" text-anchor="start" style="white-space: pre;" direction="ltr">What is Lorem Ipsum?</text></g><g transform="translate(858.3216494328605 591.0132054477053) rotate(0 71.5 8)"><text x="0" y="13" font-family="Helvetica, Segoe UI Emoji" font-size="13.759947156374409px" fill="#343a40" text-anchor="start" style="white-space: pre;" direction="ltr">Where can I get some?</text></g><g stroke-linecap="round" transform="translate(845.2908175505067 539.910239807145) rotate(0 85.70489492743047 40.93320231005532)"><path d="M0.92 0.31 C42.81 -3, 90.23 -3, 172.83 -1.37 M-0.5 -0.23 C63.04 0.84, 124.12 2.09, 170.98 0.33 M171.01 1.56 C171.8 23.96, 170.61 44.27, 171.58 81.94 M172.12 0.15 C171.1 20.78, 170.32 42.15, 171.38 82.61 M173.24 80.04 C135.61 80.81, 95.22 83.91, 1.8 83.46 M171.87 81.05 C116.97 82.09, 61.89 82.63, 0.12 81.94 M1.48 82.52 C-1.05 53.43, -2.15 26.89, -1.14 -0.82 M-0.78 82.61 C1.04 52.09, -0.43 22.94, -0.71 -0.89" stroke="#343a40" stroke-width="1" fill="none"></path></g><g stroke-linecap="round"><g transform="translate(857.6427356140605 581.4463908566295) rotate(0 70.23861622432128 -0.6898204790220461)"><path d="M0.7 -0.92 C32.11 -0.67, 66.25 -1.57, 140.54 -0.88 M-0.06 -0.23 C40.89 -1.03, 82.78 -1.2, 138.66 -0.74" stroke="#343a40" stroke-width="1" fill="none"></path></g></g><mask></mask><g transform="translate(1135.3600734896343 456.5553498369468) rotate(0 54.5 18)"><text x="0" y="14" font-family="Helvetica, Segoe UI Emoji" font-size="16px" fill="#343a40" text-anchor="start" style="white-space: pre;" direction="ltr">table of content</text><text x="0" y="32" font-family="Helvetica, Segoe UI Emoji" font-size="16px" fill="#343a40" text-anchor="start" style="white-space: pre;" direction="ltr">scrollable/stick</text></g><g stroke-linecap="round"><g transform="translate(1125.781034991368 477.3464222707853) rotate(0 -52.01758434858735 30.53668576985683)"><path d="M-1.54 0.95 C-33.99 20.78, -63.27 38.66, -103.22 61.53 M0.87 -0.53 C-33.19 18.2, -67.54 37.65, -104.9 61.6" stroke="#343a40" stroke-width="1" fill="none"></path></g><g transform="translate(1125.781034991368 477.3464222707853) rotate(0 -52.01758434858735 30.53668576985683)"><path d="M-87.91 38.95 C-93.57 46.54, -96.4 52.98, -103 62.05 M-85.51 37.48 C-91.82 45.08, -98.68 52.63, -104.69 62.12" stroke="#343a40" stroke-width="1" fill="none"></path></g><g transform="translate(1125.781034991368 477.3464222707853) rotate(0 -52.01758434858735 30.53668576985683)"><path d="M-77.08 56.38 C-85.87 58.75, -92.01 59.87, -103 62.05 M-74.68 54.9 C-84.32 56.88, -94.61 58.89, -104.69 62.12" stroke="#343a40" stroke-width="1" fill="none"></path></g></g><mask></mask><g transform="translate(309.832901114107 583.5722907770005) rotate(0 13.5 11)"><text x="0" y="17" font-family="Cascadia, Segoe UI Emoji" font-size="13.830899311145343px" fill="#495057" text-anchor="start" style="white-space: pre;" direction="ltr">😂3</text></g><g transform="translate(310.55571235993693 622.6776343705255) rotate(0 13.5 11)"><text x="0" y="17" font-family="Cascadia, Segoe UI Emoji" font-size="13.830899311145343px" fill="#495057" text-anchor="start" style="white-space: pre;" direction="ltr">👏3</text></g><g stroke-linecap="round" transform="translate(309.85638754676074 657.9869227553681) rotate(0 12.606487127309947 12.606487127309947)"><path d="M14.72 0 C17.17 0.24, 20.49 2.67, 22.18 4.63 C23.88 6.58, 24.94 9.26, 24.88 11.75 C24.81 14.24, 23.34 17.3, 21.82 19.54 C20.3 21.78, 18.19 24.35, 15.76 25.16 C13.33 25.98, 9.77 25.68, 7.25 24.42 C4.73 23.16, 1.71 20.16, 0.67 17.58 C-0.37 14.99, 0.07 11.48, 1.01 8.91 C1.95 6.34, 3.94 3.54, 6.32 2.16 C8.71 0.78, 13.47 0.97, 15.33 0.66 C17.19 0.35, 17.4 0.19, 17.48 0.29 M8.42 -0.98 C11.1 -1.72, 15.61 -0.54, 18.23 0.79 C20.86 2.12, 22.91 4.7, 24.19 7.01 C25.47 9.31, 26.42 11.75, 25.9 14.63 C25.38 17.5, 23.74 22.53, 21.07 24.26 C18.4 25.99, 12.94 25.3, 9.86 25 C6.78 24.69, 4.04 24.42, 2.57 22.45 C1.1 20.48, 1.01 16.19, 1.04 13.17 C1.07 10.15, 1.2 6.36, 2.75 4.32 C4.29 2.28, 9.39 1.67, 10.3 0.92 C11.21 0.17, 8.42 -0.38, 8.21 -0.17" stroke="#343a40" stroke-width="1" fill="none"></path></g><g transform="translate(311.2295742589231 658.5582443432454) rotate(0 11 13)"><text x="0" y="20" font-family="Helvetica, Segoe UI Emoji" font-size="16px" fill="#343a40" text-anchor="start" style="white-space: pre;" direction="ltr">➕</text></g><g transform="translate(135.70598242504434 531.8284964979807) rotate(0 62.5 27)"><text x="0" y="14" font-family="Helvetica, Segoe UI Emoji" font-size="16px" fill="#343a40" text-anchor="start" style="white-space: pre;" direction="ltr">react button</text><text x="0" y="32" font-family="Helvetica, Segoe UI Emoji" font-size="16px" fill="#343a40" text-anchor="start" style="white-space: pre;" direction="ltr">on-hover popover</text><text x="0" y="50" font-family="Helvetica, Segoe UI Emoji" font-size="16px" fill="#343a40" text-anchor="start" style="white-space: pre;" direction="ltr"></text></g><g stroke-linecap="round"><g transform="translate(258.0796861445335 588.2069122784192) rotate(0 23.564339024326046 33.258682741110306)"><path d="M-0.48 0.02 C11.99 18.85, 25.88 36.44, 47.61 64.38 M-0.47 0.67 C16.87 22.9, 33.08 47.71, 46.32 66.49" stroke="#343a40" stroke-width="1" fill="none"></path></g><g transform="translate(258.0796861445335 588.2069122784192) rotate(0 23.564339024326046 33.258682741110306)"><path d="M21.36 49.18 C27.45 54.68, 35.35 58.91, 47.74 65.04 M21.37 49.82 C30.88 54.47, 39.19 61.64, 46.45 67.15" stroke="#343a40" stroke-width="1" fill="none"></path></g><g transform="translate(258.0796861445335 588.2069122784192) rotate(0 23.564339024326046 33.258682741110306)"><path d="M38.23 37.5 C39.77 46.25, 43.03 53.7, 47.74 65.04 M38.24 38.15 C41.6 47.09, 43.77 58.51, 46.45 67.15" stroke="#343a40" stroke-width="1" fill="none"></path></g></g><mask></mask><g stroke-linecap="round"><g transform="translate(137.721610199236 1834.0865915169588) rotate(0 516.7848315705813 0.6285890675676455)"><path d="M0.38 0.37 C244.33 1.39, 487.79 1.27, 1033.37 0.44 M0.2 0.16 C386.07 0.63, 772.54 0.09, 1033.07 0.33" stroke="#343a40" stroke-width="1" fill="none"></path></g></g><mask></mask><g stroke-linecap="round" transform="translate(376.80652185149063 1942.3478323822837) rotate(0 17.737988371669076 17.737988371668962)"><path d="M24.03 1.07 C27.41 2.08, 30.67 5.11, 32.5 8.58 C34.33 12.05, 35.73 17.98, 35 21.91 C34.28 25.84, 31.08 29.93, 28.16 32.15 C25.24 34.37, 21.04 35.45, 17.5 35.22 C13.97 35, 9.85 33.19, 6.98 30.8 C4.1 28.4, 0.9 24.42, 0.27 20.86 C-0.37 17.29, 1.19 12.58, 3.16 9.4 C5.13 6.22, 8.11 2.91, 12.09 1.78 C16.08 0.66, 23.96 2.04, 27.08 2.64 C30.2 3.24, 30.74 5.02, 30.81 5.38 M24.07 0.41 C27.79 1.31, 32.14 5.12, 34.21 8.81 C36.27 12.5, 37.33 18.59, 36.45 22.55 C35.58 26.51, 32.09 30.24, 28.94 32.56 C25.79 34.89, 21.55 36.88, 17.55 36.49 C13.55 36.09, 7.69 32.88, 4.94 30.18 C2.19 27.48, 1.52 23.73, 1.04 20.28 C0.56 16.82, 0.36 12.86, 2.06 9.44 C3.76 6.02, 7.6 1.25, 11.24 -0.25 C14.89 -1.75, 21.71 -0.12, 23.93 0.43 C26.16 0.98, 24.72 2.49, 24.59 3.04" stroke="#343a40" stroke-width="1" fill="none"></path></g><g transform="translate(369.9291881013264 1877.7299606051147) rotate(0 83 13)"><text x="0" y="21" font-family="Cascadia, Segoe UI Emoji" font-size="21.709087858196224px" fill="#343a40" text-anchor="start" style="white-space: pre;" direction="ltr">Responses (3)</text></g><g stroke-linecap="round" transform="translate(427.96306607970075 1942.3184428879022) rotate(0 195.41568491795732 38.84128836068567)"><path d="M0.85 -0.51 C119.5 -0.64, 240.7 -1.7, 390.47 -0.73 M0.52 -0.38 C143.12 -0.55, 286.44 -0.97, 391.25 0.12 M388.91 1.94 C390.98 29.71, 390.95 61.65, 392.03 78.15 M390.8 0.49 C390.5 27.05, 390.2 55.59, 389.87 78.48 M391.76 76.89 C285.95 75.93, 182.46 75.27, -0.27 78.47 M390.91 77.27 C308.08 75.35, 224.35 75.43, 0.3 78.02 M-1.6 79.27 C1.77 54.52, 0.33 32.02, 0.54 0.08 M0.89 76.69 C0.65 59.28, -0.86 39.82, -0.16 0.29" stroke="#343a40" stroke-width="1" fill="none"></path></g><g stroke-linecap="round" transform="translate(713.8985582007074 2034.9859975624731) rotate(0 50.5 18)"><path d="M9 0 M9 0 C29.69 -1.75, 48.43 -1.79, 92 0 M9 0 C28.62 0.36, 47.46 1.02, 92 0 M92 0 C99.48 -1.2, 102.55 4.77, 101 9 M92 0 C99.52 0.63, 101.85 1.74, 101 9 M101 9 C102.32 14.66, 101.08 18.68, 101 27 M101 9 C101.84 15.11, 101.43 20.71, 101 27 M101 27 C101.5 31.32, 98.06 37.25, 92 36 M101 27 C99.65 33.59, 95.77 35.54, 92 36 M92 36 C66.82 37.73, 39.74 36.59, 9 36 M92 36 C70.05 35.46, 49.62 36.19, 9 36 M9 36 C4.69 35.51, 0.98 31.23, 0 27 M9 36 C4.54 35.75, -2.15 32.54, 0 27 M0 27 C-0.71 22.59, 0.47 17.14, 0 9 M0 27 C0.2 21.42, -0.29 15.7, 0 9 M0 9 C-1.07 3.99, 1.72 1.55, 9 0 M0 9 C-1.46 4.75, 2.12 -1.8, 9 0" stroke="#343a40" stroke-width="1" fill="none"></path></g><g transform="translate(730.8985582007074 2043.4859975624731) rotate(0 33.5 9.5)"><text x="33.5" y="15" font-family="Cascadia, Segoe UI Emoji" font-size="16px" fill="#343a40" text-anchor="middle" style="white-space: pre;" direction="ltr">comment</text></g><g stroke-linecap="round" transform="translate(376.856407941474 2134.8262195189227) rotate(0 12.136049037400824 12.13604903740088)"><path d="M13.58 1.12 C15.86 1.28, 18.83 2.85, 20.57 4.57 C22.31 6.3, 24.01 9.09, 24.02 11.49 C24.02 13.88, 22.2 16.7, 20.6 18.96 C19 21.21, 16.82 24.51, 14.43 25 C12.03 25.5, 8.53 23.44, 6.24 21.93 C3.96 20.41, 1.68 18.17, 0.73 15.91 C-0.21 13.65, -0.32 10.81, 0.57 8.36 C1.46 5.91, 3.48 2.44, 6.07 1.21 C8.65 -0.03, 14.53 0.9, 16.09 0.94 C17.65 0.99, 15.49 1.35, 15.45 1.48 M6.96 0.68 C9.01 -0.6, 12.7 -0.59, 15.12 0.27 C17.54 1.12, 20.12 3.77, 21.49 5.82 C22.86 7.87, 23.44 10.27, 23.36 12.58 C23.27 14.9, 22.72 18.01, 20.99 19.72 C19.26 21.43, 15.83 22.32, 12.98 22.87 C10.13 23.42, 5.97 24.33, 3.91 23.01 C1.85 21.68, 1.11 17.77, 0.64 14.92 C0.16 12.07, 0.14 8.06, 1.05 5.92 C1.96 3.77, 4.89 2.67, 6.09 2.04 C7.29 1.41, 7.85 2.15, 8.26 2.12" stroke="#343a40" stroke-width="1" fill="none"></path></g><g transform="translate(418.2640105691629 2135.5336612232686) rotate(0 49 8)"><text x="0" y="13" font-family="Helvetica, Segoe UI Emoji" font-size="14.24901749825464px" fill="#343a40" text-anchor="start" style="white-space: pre;" direction="ltr">nicely said rich!</text></g><g stroke-linecap="round" transform="translate(375.99188140633487 2181.344457271587) rotate(0 12.136049037400824 12.13604903740088)"><path d="M12.52 -0.9 C14.95 -1.2, 18.19 0.5, 20.01 2.41 C21.83 4.31, 22.84 7.99, 23.43 10.53 C24.02 13.06, 24.76 15.52, 23.54 17.61 C22.31 19.7, 18.66 22.14, 16.08 23.07 C13.51 23.99, 10.42 23.83, 8.11 23.16 C5.8 22.49, 3.67 21.14, 2.23 19.05 C0.78 16.96, -0.76 13.44, -0.57 10.62 C-0.37 7.8, 0.93 3.84, 3.41 2.12 C5.89 0.41, 12.37 0.51, 14.33 0.34 C16.28 0.17, 15.41 0.81, 15.14 1.1 M9.74 1.51 C11.91 0.49, 14.67 -0.18, 16.74 0.77 C18.82 1.71, 21.24 4.48, 22.19 7.19 C23.13 9.9, 23 14.35, 22.42 17.02 C21.84 19.7, 20.84 22.02, 18.71 23.25 C16.58 24.48, 11.97 25.03, 9.64 24.42 C7.32 23.81, 6.36 21.54, 4.78 19.59 C3.2 17.64, 0.38 15.1, 0.16 12.72 C-0.06 10.35, 1.73 7.65, 3.45 5.34 C5.17 3.04, 9.5 -0.34, 10.49 -1.12 C11.47 -1.91, 9.36 0.35, 9.36 0.65" stroke="#343a40" stroke-width="1" fill="none"></path></g><g transform="translate(417.39948403402377 2182.051898975931) rotate(0 14 8)"><text x="0" y="13" font-family="Helvetica, Segoe UI Emoji" font-size="14.24901749825464px" fill="#343a40" text-anchor="start" style="white-space: pre;" direction="ltr">rich!</text></g><g stroke-linecap="round" transform="translate(377.40657192726565 2226.665498475373) rotate(0 12.136049037400824 12.13604903740088)"><path d="M10.24 0.88 C12.64 0.37, 15.72 0.82, 17.95 2.25 C20.19 3.67, 22.62 6.93, 23.66 9.44 C24.71 11.94, 25.1 14.9, 24.22 17.27 C23.34 19.64, 20.83 22.53, 18.39 23.68 C15.95 24.84, 12.23 24.99, 9.56 24.19 C6.88 23.38, 3.99 21.02, 2.32 18.84 C0.65 16.66, -0.52 13.49, -0.47 11.11 C-0.42 8.72, 0.72 6.45, 2.63 4.51 C4.54 2.56, 9.19 0.23, 10.98 -0.55 C12.76 -1.33, 13.03 -0.51, 13.32 -0.18 M12.35 -0.73 C15.12 -0.9, 19.47 1.7, 21.33 3.36 C23.18 5.03, 23.42 6.84, 23.49 9.25 C23.55 11.66, 22.95 15.41, 21.72 17.82 C20.5 20.24, 18.22 22.63, 16.13 23.73 C14.04 24.83, 11.47 25.37, 9.17 24.43 C6.86 23.5, 3.88 20.36, 2.29 18.14 C0.69 15.93, -0.76 13.43, -0.41 11.12 C-0.05 8.81, 2.27 6.36, 4.42 4.29 C6.56 2.22, 11.22 -0.62, 12.47 -1.29 C13.71 -1.97, 12.04 0.02, 11.88 0.24" stroke="#343a40" stroke-width="1" fill="none"></path></g><g transform="translate(419.10808532800115 2227.0751105963645) rotate(0 24.5 8)"><text x="0" y="13" font-family="Helvetica, Segoe UI Emoji" font-size="14.24901749825464px" fill="#343a40" text-anchor="start" style="white-space: pre;" direction="ltr">hehehe</text></g><g transform="translate(1125.4685297050644 571.5099205762035) rotate(0 71.5 9)"><text x="0" y="14" font-family="Helvetica, Segoe UI Emoji" font-size="16px" fill="#343a40" text-anchor="start" style="white-space: pre;" direction="ltr">authenticated visitor</text></g><g stroke-linecap="round"><g transform="translate(1117.2978102143688 586.406471231664) rotate(0 -147.07115219873828 35.4579508781826)"><path d="M-0.64 1.14 C-49.74 12.8, -245.32 57.42, -294.44 69 M1.23 0.69 C-48.05 12.59, -246.35 58.88, -295.37 70.23" stroke="#343a40" stroke-width="1" fill="none"></path></g><g transform="translate(1117.2978102143688 586.406471231664) rotate(0 -147.07115219873828 35.4579508781826)"><path d="M-268.35 53.9 C-279.32 57.43, -284.6 63.26, -295.33 68.25 M-269.77 54.59 C-279.45 60.86, -289.52 65.9, -296.06 69.68" stroke="#343a40" stroke-width="1" fill="none"></path></g><g transform="translate(1117.2978102143688 586.406471231664) rotate(0 -147.07115219873828 35.4579508781826)"><path d="M-263.7 73.89 C-275.98 71.06, -282.73 70.55, -295.33 68.25 M-265.12 74.58 C-276.82 72.86, -288.75 69.94, -296.06 69.68" stroke="#343a40" stroke-width="1" fill="none"></path></g></g><mask></mask><g transform="translate(111.1886831788313 1771.366090190667) rotate(0 71.5 9)"><text x="0" y="14" font-family="Helvetica, Segoe UI Emoji" font-size="16px" fill="#343a40" text-anchor="start" style="white-space: pre;" direction="ltr">authenticated visitor</text></g><g stroke-linecap="round"><g transform="translate(251.8971637716072 1797.5394225481405) rotate(0 54.38804176455659 46.25109105309366)"><path d="M-0.11 -0.01 C17.76 15.48, 90.13 78.16, 108.17 93.57 M-1.62 -1.07 C16.53 14.07, 91.71 76.21, 110.4 92.01" stroke="#343a40" stroke-width="1" fill="none"></path></g><g transform="translate(251.8971637716072 1797.5394225481405) rotate(0 54.38804176455659 46.25109105309366)"><path d="M82.16 80.3 C94.8 84.16, 103.68 88.63, 108.77 93.41 M81.88 81.79 C92.91 85.64, 102.41 89.72, 110.19 91.34" stroke="#343a40" stroke-width="1" fill="none"></path></g><g transform="translate(251.8971637716072 1797.5394225481405) rotate(0 54.38804176455659 46.25109105309366)"><path d="M95.31 64.55 C103.01 74.4, 106.88 84.88, 108.77 93.41 M95.03 66.03 C101.33 75.81, 105.95 85.74, 110.19 91.34" stroke="#343a40" stroke-width="1" fill="none"></path></g></g><mask></mask><g stroke-linecap="round"><g transform="translate(246.2855929304394 1802.042135591214) rotate(0 65.33939215982429 69.2355117310126)"><path d="M0.95 -1.19 C22.62 22.13, 109.23 116.29, 130.69 139.67 M-0.02 0.79 C21.44 23.82, 107.7 114.7, 129.73 137.99" stroke="#343a40" stroke-width="1" fill="none"></path></g><g transform="translate(246.2855929304394 1802.042135591214) rotate(0 65.33939215982429 69.2355117310126)"><path d="M100.9 124.52 C113.81 127.5, 122.34 135.8, 130.65 137.69 M103.59 124.28 C110.86 129.53, 118.43 132.21, 129.37 138.42" stroke="#343a40" stroke-width="1" fill="none"></path></g><g transform="translate(246.2855929304394 1802.042135591214) rotate(0 65.33939215982429 69.2355117310126)"><path d="M115.8 110.4 C123.38 118.52, 126.61 131.84, 130.65 137.69 M118.48 110.16 C121.42 119.45, 124.64 126.26, 129.37 138.42" stroke="#343a40" stroke-width="1" fill="none"></path></g></g><mask></mask><g stroke-linecap="round"><g transform="translate(233.99816260991088 1798.1729193013398) rotate(0 69.84067603666585 166.37066180190914)"><path d="M-1.1 0.02 C22.24 55.39, 117.09 277.05, 140.78 332.24 M0.53 -1.02 C23.65 54.55, 116.54 278.26, 139.85 333.76" stroke="#343a40" stroke-width="1" fill="none"></path></g><g transform="translate(233.99816260991088 1798.1729193013398) rotate(0 69.84067603666585 166.37066180190914)"><path d="M119.56 311.76 C126.79 320.3, 132.38 328.31, 138.93 334.52 M119.78 312.68 C124.8 318.72, 131.53 324.98, 139.54 333.19" stroke="#343a40" stroke-width="1" fill="none"></path></g><g transform="translate(233.99816260991088 1798.1729193013398) rotate(0 69.84067603666585 166.37066180190914)"><path d="M138.5 303.86 C138.9 315.07, 137.67 325.93, 138.93 334.52 M138.72 304.78 C138.09 313.19, 139.24 321.78, 139.54 333.19" stroke="#343a40" stroke-width="1" fill="none"></path></g></g><mask></mask><g stroke-linecap="round"><g transform="translate(143.20271510061525 2303.383051525593) rotate(0 513.8560037596742 -0.7486545096894588)"><path d="M-0.23 -0.38 C171.26 -0.72, 857.94 -1, 1029.52 -0.92 M-1.81 -1.63 C169.56 -1.34, 857.33 -0.39, 1029.12 0.13" stroke="#343a40" stroke-width="1" fill="none"></path></g></g><mask></mask><g transform="translate(365.3487172982133 2349.3376337884347) rotate(0 45 13)"><text x="0" y="21" font-family="Cascadia, Segoe UI Emoji" font-size="21.709087858196224px" fill="#343a40" text-anchor="start" style="white-space: pre;" direction="ltr">Comment</text></g><g stroke-linecap="round" transform="translate(374.6785149583378 2416.075650021661) rotate(0 17.737988371669076 17.737988371668962)"><path d="M10.63 2.78 C13.57 0.98, 17.9 0.28, 21.3 0.97 C24.7 1.65, 28.56 4.1, 31.01 6.9 C33.46 9.7, 36.06 13.93, 35.99 17.78 C35.91 21.62, 33.29 27.19, 30.57 29.98 C27.84 32.76, 23.36 33.95, 19.64 34.47 C15.92 35, 11.37 35.09, 8.24 33.12 C5.11 31.16, 1.99 26.53, 0.87 22.69 C-0.25 18.86, -0.63 13.94, 1.54 10.12 C3.7 6.3, 11.11 1.49, 13.85 -0.23 C16.58 -1.94, 18.04 -0.57, 17.92 -0.17 M9.22 0.53 C12.61 -1.17, 18.72 -0.48, 22.74 0.46 C26.75 1.4, 31.04 2.89, 33.31 6.18 C35.59 9.48, 36.72 16.31, 36.39 20.23 C36.06 24.15, 34.25 27.19, 31.34 29.69 C28.44 32.2, 22.92 34.61, 18.95 35.28 C14.98 35.95, 10.47 36.03, 7.52 33.7 C4.57 31.37, 2.19 25.37, 1.26 21.31 C0.33 17.25, 0.46 12.85, 1.96 9.35 C3.46 5.85, 9.06 1.42, 10.26 0.3 C11.47 -0.82, 9.2 2.32, 9.19 2.61" stroke="#343a40" stroke-width="1" fill="none"></path></g><g stroke-linecap="round" transform="translate(425.8350591865476 2416.0462605272787) rotate(0 195.41568491795732 38.84128836068567)"><path d="M-1.09 0.69 C83.52 -0.34, 167.37 -1.94, 391.42 -1.05 M-0.08 0.07 C110.23 1.56, 220.86 2.37, 390.89 -0.12 M389.45 -0.09 C389.27 22.33, 390.36 46.71, 389.71 77.26 M390.74 0.7 C389.33 18.74, 390.88 36.88, 390.45 77.45 M391.34 76.88 C277.18 79.14, 163.09 78.79, -0.92 78.17 M390.63 77.9 C293.55 76.82, 196.01 77.22, 0.23 78.22 M-1.04 79.04 C1.5 52.37, 0.33 27.05, 1.93 1.94 M-0.88 78.35 C-1.21 57.99, -0.57 37.74, 0.46 0.42" stroke="#343a40" stroke-width="1" fill="none"></path></g><g stroke-linecap="round" transform="translate(711.7705513075543 2508.7138152018506) rotate(0 50.5 18)"><path d="M9 0 M9 0 C38.66 1.36, 67.79 2.5, 92 0 M9 0 C30.01 1.29, 50.46 0.62, 92 0 M92 0 C98.25 -0.49, 99.26 3.36, 101 9 M92 0 C99.19 0.23, 100.51 3.27, 101 9 M101 9 C100.94 12.26, 99.32 17.44, 101 27 M101 9 C100.29 12.14, 101.15 16.57, 101 27 M101 27 C102.4 31.18, 99.3 37.28, 92 36 M101 27 C102.61 32.12, 97.47 35.8, 92 36 M92 36 C66.01 36.77, 41.58 36.41, 9 36 M92 36 C74.15 35.53, 57.16 36, 9 36 M9 36 C3.75 36.38, -1.83 32.85, 0 27 M9 36 C2.51 36.9, 2.12 33.49, 0 27 M0 27 C1.09 23.6, -0.44 18.2, 0 9 M0 27 C-0.58 22.79, -0.03 16.67, 0 9 M0 9 C1.32 1.55, 3.24 -0.18, 9 0 M0 9 C-0.72 4.05, 3.96 1.5, 9 0" stroke="#343a40" stroke-width="1" fill="none"></path></g><g transform="translate(728.7705513075543 2517.2138152018506) rotate(0 33.5 9.5)"><text x="33.5" y="15" font-family="Cascadia, Segoe UI Emoji" font-size="16px" fill="#343a40" text-anchor="middle" style="white-space: pre;" direction="ltr">comment</text></g><g transform="translate(10 2336.153265694784) rotate(0 80.5 9)"><text x="0" y="14" font-family="Helvetica, Segoe UI Emoji" font-size="16px" fill="#343a40" text-anchor="start" style="white-space: pre;" direction="ltr">unauthenticated visitor</text></g><g stroke-linecap="round"><g transform="translate(183.83671662314578 2352.726135186871) rotate(0 87.95078800350223 2.588783712825716)"><path d="M0.86 -0.24 C29.74 0.6, 144.9 4.07, 173.76 5.11 M-0.14 -1.41 C29.08 -0.38, 147.19 5.68, 176.04 6.59" stroke="#343a40" stroke-width="1" fill="none"></path></g><g transform="translate(183.83671662314578 2352.726135186871) rotate(0 87.95078800350223 2.588783712825716)"><path d="M147.04 14.29 C156.93 11.45, 168.11 10.34, 176.06 8.4 M148.18 16.14 C157.5 12.01, 167.62 8.71, 176.3 5.97" stroke="#343a40" stroke-width="1" fill="none"></path></g><g transform="translate(183.83671662314578 2352.726135186871) rotate(0 87.95078800350223 2.588783712825716)"><path d="M147.92 -6.21 C157.53 -2.1, 168.4 3.75, 176.06 8.4 M149.06 -4.36 C157.95 -1.15, 167.76 2.89, 176.3 5.97" stroke="#343a40" stroke-width="1" fill="none"></path></g></g><mask></mask></svg>