<svg version="1.1" xmlns="http://www.w3.org/2000/svg" viewBox="0 0 546.4612437978931 2845.932046200194" width="1092.9224875957862" height="5691.864092400388">
  <!-- svg-source:excalidraw -->
  
  <defs>
    <style class="style-fonts">
      @font-face {
        font-family: "Virgil";
        src: url("https://excalidraw.com/Virgil.woff2");
      }
      @font-face {
        font-family: "Cascadia";
        src: url("https://excalidraw.com/Cascadia.woff2");
      }
    </style>
  </defs>
  <rect x="0" y="0" width="546.4612437978931" height="2845.932046200194" fill="#ffffff"></rect><g transform="translate(20.573376904881115 111.48094162648385) rotate(0 123.5 9)"><text x="0" y="14" font-family="Helvetica, Segoe UI Emoji" font-size="16px" fill="#343a40" text-anchor="start" style="white-space: pre;" direction="ltr">:: card :: article / essays / blog post</text></g><g stroke-linecap="round" transform="translate(10 154.96208599431293) rotate(0 251.9296875 254.123046875)"><path d="M33.26 1.79 L470.17 0.97 L485.77 2.92 L496.42 9.04 L501.87 18.58 L502.46 32.28 L502.44 474.34 L501.25 489.09 L494.86 502.19 L487.08 505.29 L472.85 510 L31.73 507.56 L16.62 504.55 L9.92 500.54 L0.29 491.8 L0.11 474.99 L0.76 32.59 L3.97 19.58 L7.12 9.67 L18.53 1.91 L32.82 -1.8" stroke="none" stroke-width="0" fill="#ffffff"></path><path d="M32 0 M32 0 C167.7 -2.52, 302.71 -1.95, 471.86 0 M32 0 C143.79 1.17, 255.12 0.95, 471.86 0 M471.86 0 C492.95 1.6, 505.33 9.26, 503.86 32 M471.86 0 C492.91 -1.08, 504.82 9.87, 503.86 32 M503.86 32 C503.19 185.7, 502.52 340.05, 503.86 476.25 M503.86 32 C504.04 196.46, 504.48 360.1, 503.86 476.25 M503.86 476.25 C505.01 498.25, 494.87 509.16, 471.86 508.25 M503.86 476.25 C504.86 496.99, 492.48 509.76, 471.86 508.25 M471.86 508.25 C377.22 509.8, 281.39 509.31, 32 508.25 M471.86 508.25 C376.55 508.59, 281.36 508.69, 32 508.25 M32 508.25 C11.95 507.23, -0.79 497.81, 0 476.25 M32 508.25 C11.41 506.29, 1.67 496.32, 0 476.25 M0 476.25 C-2.51 377.39, -3.03 279.75, 0 32 M0 476.25 C0.11 356.19, -0.48 235.67, 0 32 M0 32 C0.65 12.61, 9.91 -1.91, 32 0 M0 32 C-0.2 12.07, 11.04 0.05, 32 0" stroke="#000000" stroke-width="1" fill="none"></path></g><g transform="translate(40.96875 222.20817974431293) rotate(0 213.5 34)"><text x="0" y="27" font-family="Cascadia, Segoe UI Emoji" font-size="28px" fill="#000000" text-anchor="start" style="white-space: pre;" direction="ltr">What is Lorem Ipsum? Where</text><text x="0" y="61" font-family="Cascadia, Segoe UI Emoji" font-size="28px" fill="#000000" text-anchor="start" style="white-space: pre;" direction="ltr">can I get some? </text></g><g transform="translate(45.1171875 184.43083599431293) rotate(0 57 9.5)"><text x="0" y="15" font-family="Cascadia, Segoe UI Emoji" font-size="16px" fill="#495057" text-anchor="start" style="white-space: pre;" direction="ltr">Actions Here</text></g><g stroke-linecap="round" transform="translate(10.3125 316.20817974431293) rotate(0 250.888671875 138.869140625)"><path d="M0 0 C0 0, 0 0, 0 0 M0 0 C0 0, 0 0, 0 0 M-0.25 6.58 C1.09 5.74, 1.25 4.33, 5.25 1.14 M-0.02 6.46 C1.18 5.22, 2.15 2.98, 5.2 0.44 M-0.1 13.4 C1.88 7.42, 7.14 4.83, 9.47 1.38 M0.19 12.45 C3.84 9.11, 5.96 4.22, 10.83 -0.13 M-2.09 19.16 C6.59 12.2, 11.78 6.63, 16.15 1.32 M0.21 19.33 C2.66 13.76, 7.63 10.54, 14.75 1.11 M1.34 25.92 C8.24 16.73, 15.65 9.15, 21.08 -1.95 M0.14 24.77 C8.2 15.53, 16.34 6.89, 21.47 -0.73 M1.06 29.22 C6.76 20.79, 14.67 11.59, 26.98 -0.62 M0.56 30.83 C6.2 22.37, 12.76 16.46, 26.19 -0.24 M-0.44 35 C7.87 29.05, 15.24 17.62, 32.07 -1.21 M0.2 35.93 C10.11 25.19, 19.53 14.29, 31.94 -0.79 M-1.58 43.73 C5.87 34.77, 14.59 26.62, 35.89 1.39 M-0.18 41.97 C8.07 32.67, 15.3 24.37, 37.13 1.2 M-0.3 48.26 C7.93 39.27, 19.31 25.62, 42.08 -0.56 M-1.06 48.28 C11.47 37.85, 21.33 24.32, 42.61 -1.06 M0.05 54.06 C9.67 42.68, 20.83 30.24, 48.49 1.93 M0.27 55.08 C15.93 37.39, 30.36 19.47, 47.18 1.03 M0.83 60.89 C17.01 42.42, 32.78 21.02, 53.9 -1.86 M-0.76 61.23 C19.7 39.41, 37.35 16.33, 52.64 0.14 M-1.8 66.99 C14.76 48.55, 34.06 28.52, 56.23 -0.78 M0.35 67.67 C14.71 51.9, 28.1 34.81, 57.3 0.77 M0.53 74.99 C22.8 46.8, 45.47 21.43, 63.16 1.71 M0 73.38 C16.58 53.74, 34.35 34.81, 63.02 -0.08 M-0.07 79.69 C19.98 56.09, 39.13 34.47, 70.4 1.14 M0.3 80.39 C22.17 54.67, 43.76 29.63, 68.76 0.86 M0.23 86.33 C27.14 56.22, 51.78 28.73, 76.32 -0.41 M0.44 84.22 C28.25 52.61, 58.28 18.9, 73.57 -0.19 M1.18 90.24 C28.6 57.38, 56.35 28.17, 80.15 -0.76 M-0.78 90.6 C20.37 67.48, 39.12 45.86, 80.17 -0.32 M-1.48 99.08 C26.03 64.09, 56.03 33.57, 84.69 -2.08 M0.44 97.94 C19.89 73.91, 40.73 50.04, 85.93 -1.23 M-0.61 104.65 C27.99 71.12, 56.02 37.43, 90.46 -1.29 M0.69 104.3 C30.95 67.64, 63.27 32.57, 90.46 0.51 M-0.16 108.79 C36.14 68.37, 73.05 25.27, 94.43 1.46 M0.18 109.39 C31.67 71.46, 65.45 33.34, 96.57 0.17 M-1.16 115.56 C30.28 82.3, 55.28 51.63, 100.16 0.4 M1.11 115.95 C28.46 81.43, 57.31 48.62, 99.89 0.57 M0.48 120.94 C23.57 92.93, 49.32 65.42, 104.53 -0.35 M-0.79 121.58 C30.26 89.1, 59.91 53.96, 105.81 -1.2 M0 129.04 C26.77 95.96, 55.68 67.57, 111.92 -1.17 M0.08 128.14 C41.04 81.64, 80.87 33.71, 111.06 -0.02 M1.24 133.93 C25.33 107.31, 47.94 79.04, 116.2 1.32 M0.05 133.73 C27.98 99.84, 58.71 66.86, 116.1 0.64 M0.14 139.52 C29.59 106.23, 64.85 69.21, 122.25 0.14 M-0.03 139.66 C30.09 106.16, 58.74 73.01, 121.88 0.8 M0.75 145.79 C39.97 101.79, 75.97 57.46, 125.41 1.72 M0.57 146.93 C45.91 92.9, 89.5 41.74, 127.72 0.83 M-0.51 152.4 C43.22 104.01, 85.51 51.92, 131.62 0.15 M0.92 152.9 C29.78 120.36, 57.05 87.96, 132.6 0 M0.72 157.18 C44.08 108.28, 86.04 58.72, 137.11 0.9 M0.23 158.09 C31.97 119.29, 65.6 81.09, 137.76 1.07 M1.33 163.13 C35.07 126.33, 67.52 83.85, 142.08 -1.4 M0.85 164.2 C43.47 112.09, 89.25 61.43, 142.85 0.42 M-0.73 169.53 C47.95 118.58, 92.92 63.51, 149.32 -0.67 M0.01 171.29 C45.41 119.43, 89.68 66.16, 147.97 0.17 M-0.89 175.28 C56.62 110.11, 111.23 46.99, 155.24 -0.05 M-0.53 176.76 C32.59 137.87, 66.27 99.25, 154.28 0.05 M-0.64 184.29 C51.97 118.97, 107.61 55.33, 159.78 -0.79 M0.81 182.72 C46.92 128.53, 92.71 76.23, 158.63 0.61 M-1.47 188.32 C46.07 136.7, 87.14 87.92, 164.21 1.3 M-0.17 189.57 C54.54 123.55, 111.72 59.23, 164.53 0.4 M-0.74 195.34 C56.88 129.32, 114.21 63.86, 170.32 -0.08 M0.27 194.79 C43.78 143.57, 89.04 90.69, 169.92 0.92 M0.85 200.14 C47.54 148.13, 92.41 93.94, 175.5 -1.72 M0.01 200.69 C64.4 130.13, 127.75 57.26, 174.93 0.34 M0.43 207.93 C40.17 159.66, 81.8 115.05, 178.53 -0.18 M-0.33 207.22 C49.19 151.15, 97.87 94.73, 179.52 0.14 M1.39 212.98 C57.45 146.8, 116.23 77.41, 187.05 -1 M0.23 213.87 C47.7 155.73, 97.84 97.85, 186.14 0.35 M-1.14 221.15 C71.91 134.82, 148.48 50.19, 191.95 1 M0.48 220.48 C45.57 168.85, 92.02 117.63, 191.29 0.01 M0.23 225.67 C55.48 159.77, 113.27 95.26, 196.91 -0.01 M-0.35 225.4 C62.36 153.02, 125.03 80.82, 196.05 0.07 M-1.36 230.36 C44.08 178.29, 90.25 125.12, 201.8 1.42 M0.3 232 C60.64 161.44, 121.8 90.99, 201.95 -0.56 M-0.51 236.25 C59.74 166.09, 120.71 97.07, 207.59 0.79 M0.97 238.03 C62.85 165.16, 124.32 95.33, 206.58 -0.89 M0.02 244.5 C42.3 194.02, 84.24 146.43, 212.25 -0.26 M0.38 244.39 C60.56 173.55, 120.87 102.39, 211.3 -0.11 M0.88 249.71 C82.47 155.01, 166.66 59.28, 218.38 -0.58 M0.27 250.41 C50 192.9, 100.61 133.72, 218.26 -0.83 M0.96 255.66 C78.66 165.13, 158.28 72.31, 223.41 -0.69 M-0.12 255.81 C46 202.1, 93.31 148.43, 222.47 0.2 M-0.86 262.02 C51.59 201.71, 104.46 143.8, 227.28 -0.78 M0.55 262.13 C70.61 182.83, 140.44 101.96, 228.48 -1 M0.92 267.11 C53.71 204.05, 108.18 142.31, 233.35 0.84 M0.25 268.53 C88.64 166.07, 175.67 66.44, 232.81 0.29 M1.1 274.72 C57.47 209.45, 115.39 140.5, 239.39 -0.2 M-0.02 274.51 C79.09 184.69, 155.81 94.74, 238.33 0.13 M-0.01 279.47 C81.49 185.74, 163.44 89.58, 244.67 -0.87 M1.09 279.32 C68.29 201.31, 136.57 122.77, 244.33 0.36 M6.93 277.69 C70.16 203.42, 135.28 128.32, 249.94 0.89 M7.03 278.31 C66.53 207.87, 128.05 137.52, 249.01 0.46 M12.79 278.33 C77.43 205.38, 142.23 130.15, 255.35 -0.34 M11.49 279.05 C88.05 189.05, 165.02 100, 255.06 0.25 M18.38 279.21 C85.79 199, 153.81 118.68, 259.92 0.59 M17.08 278.28 C87.9 198.5, 156.61 117.68, 259.97 0.8 M22.41 279.73 C70.84 222.06, 120.49 163.52, 265.17 -0.52 M22.91 279.68 C89.01 204.89, 155.67 129.26, 264.85 0.03 M27.65 278.34 C98.64 194.91, 173.04 110.89, 269.53 0.96 M28.46 278.43 C117.99 174.17, 207.67 72.6, 269.66 -0.13 M32.85 278.25 C84.95 217.05, 137.97 155.99, 276.92 1.01 M32.54 279.39 C84.23 218.17, 137.11 158.45, 275.89 -0.59 M38.85 279.91 C101.83 208.71, 162.44 137.31, 281.32 0.18 M38.38 279.16 C106.9 199.38, 175.47 121.09, 280.47 0.71 M43.04 279.36 C127.55 181.33, 210.48 85.33, 285.24 0.92 M43.95 279.37 C99.59 216.34, 153.48 153.59, 285.94 -0.4 M50.39 278.01 C128.87 188.91, 206.15 98.28, 291.62 1.11 M49.51 278.62 C137.05 177.41, 223.73 77.52, 291.88 0.1 M53.07 278.48 C130.47 190.18, 206.42 103.98, 297.66 -1.26 M54.11 279.54 C114.67 210.17, 174.91 140.58, 296.38 0.24 M58.78 279.53 C111.76 221.15, 164.43 163.2, 301.55 0.24 M59.47 278.32 C147.02 177.39, 234.49 75.27, 302.35 0.35 M65.41 279.41 C123.4 209.84, 183.17 142.92, 308.64 0.56 M65.16 279.16 C125.32 209.32, 185.59 139.32, 307.83 -0.03 M69.66 278.14 C132.07 207.65, 195.98 133.82, 313.43 1.28 M70.09 278.82 C120.24 220.59, 171.24 163.06, 312.37 -0.01 M76.25 278.37 C152.26 188.63, 230.04 98.86, 318.1 0.58 M75.08 278.66 C139.01 205.36, 203.41 131.1, 318.37 -0.45 M81.81 277.81 C164.94 179.8, 247.99 82.91, 322.01 -0.95 M80.63 279.05 C141.81 212.15, 199.68 144.45, 322.67 0.63 M86.6 279.98 C164.66 186.8, 244.88 96.32, 327.74 -0.47 M85.79 279.05 C166.67 186.28, 247.49 93.7, 329.03 0.01 M90.13 279.97 C184.47 172.57, 275.44 69.3, 333.1 0.52 M91.45 278.98 C178.54 177.95, 267.45 76.22, 333.53 0.09 M96.19 278.81 C173.97 189.22, 253.1 99.93, 339.73 -1.44 M96.31 278.81 C191.63 172.55, 284.16 65.29, 339.52 -0.46 M101.94 279.25 C193.49 172.56, 286.66 66.79, 344.99 -1.12 M102.28 279.65 C179.23 192.91, 256.28 105.6, 344.23 0.47 M107.08 277.81 C192.17 182.84, 274.94 88.21, 349.97 1.23 M107.1 278.26 C189.92 183.62, 272.42 89.46, 349.4 -0.17 M111.95 279.12 C170.08 213.84, 228.45 146.74, 354.65 -0.58 M112.64 279.71 C199.83 177.99, 289.29 75.45, 354.85 0.15 M117.53 279.76 C194.6 189.61, 271.83 101.09, 359.32 -0.66 M118.21 278.85 C167.37 218.93, 219 159.79, 360.09 -0.08 M123.5 280.22 C207.08 181.69, 292.13 85.06, 366.34 1.07 M122.61 279.13 C182.27 209.16, 243.46 139.86, 365.68 0.5 M128.21 278.57 C218.56 177.26, 306.44 75.94, 370.87 0.96 M128.65 278.95 C177.47 221.82, 227.41 163.96, 370.32 0.18 M134.23 279.92 C221.71 180.41, 307.78 82.89, 375.6 0.09 M134 279.41 C187.7 217.12, 241.31 155.35, 376.59 0.41 M138.42 277.8 C199.63 206.27, 263.78 135.26, 381.5 1.45 M139.48 279.32 C192.15 217.47, 245.02 155.96, 381.84 -0.16 M144.82 278.43 C198.53 219.4, 254.18 155.4, 387.75 -1.33 M144.82 279.2 C237.97 170.3, 332.4 61.76, 386.41 -0.69 M149.85 279.59 C243.15 173.22, 337.85 64.88, 392.32 0.29 M149.52 278.81 C231.75 183.75, 315.08 88.03, 391.96 -0.37 M155.2 280.1 C240.69 181.05, 324.59 81.6, 396.89 -1.2 M154.82 278.66 C203.5 222.17, 252.42 166.76, 397.28 0.32 M160.39 278.44 C257.19 167.64, 352.38 57.51, 402.46 -0.18 M160.84 278.73 C248.58 178.17, 335.48 79.33, 402.84 -0.07 M165.83 279.78 C236.71 198.88, 304.94 118.37, 409.37 1.02 M166.11 278.82 C251.84 179.69, 336.6 81.24, 407.83 -0.31 M170.3 279.77 C249.44 187.26, 328.94 94.47, 412.85 -0.9 M170.82 278.46 C228.61 210.92, 286.5 143.53, 413.45 0.14 M176.47 278.93 C271.64 170.72, 365.74 63.58, 417.88 0.75 M176.38 278.5 C243.09 205.27, 309.61 129.21, 418.74 -0.19 M180.98 278.87 C258.51 192.04, 333.31 105.49, 424.9 0.05 M181.31 278.57 C244.12 209.53, 305.12 137.99, 423.86 0.54 M187.37 279.38 C275.27 180.12, 360.83 76.67, 429.81 -0.68 M186.92 278.64 C243.31 213.95, 300 148.8, 429.66 -0.06 M191.25 279.52 C252.74 211.75, 311.45 142.62, 434.39 1.3 M191.95 278.97 C253.36 206.31, 316.5 135.04, 434.69 0.43 M198.11 279.69 C278.29 182.27, 360.56 86.95, 441.35 0.36 M197.06 279.2 C260.5 206.66, 322.79 135.08, 439.82 -0.73 M203.57 277.82 C278.35 190.64, 353.86 102.84, 445.02 -0.6 M203.15 278.29 C252.7 220.5, 302.24 163.63, 445.2 0 M208.75 278.81 C303.75 170.95, 397.11 63.21, 451.07 -1.38 M208.47 278.55 C305.3 165.69, 401.87 54.21, 451.13 0.05 M212.2 279.1 C288.47 195.99, 360.25 111.65, 454.85 -0.02 M212.43 278.94 C271.44 213.72, 328.17 149.08, 456.38 -0.3 M218.66 279.8 C267.13 220.87, 316.45 162.03, 461.13 -1.49 M218.44 279.02 C285.21 206.04, 349.01 132.02, 461.39 -0.46 M224.42 278.79 C282.5 209.05, 342.52 142.21, 467.38 -0.84 M223.79 279.79 C317.41 170.35, 410.63 62.85, 466.66 -0.4 M230.2 278.73 C285.09 213.87, 339.14 151.9, 470.49 1.32 M229.05 278.88 C299.69 196.14, 371.87 113.1, 471.63 0.01 M233.07 278.06 C329.99 167.36, 425.98 56.69, 478.01 -0.35 M234.52 278.85 C304.43 198.51, 373.04 120.06, 477.47 0.06 M240.05 278.23 C315.61 189.42, 392.86 101.44, 481.19 0.87 M240.44 279.15 C308.91 200.1, 375.73 122.27, 481.97 0.21 M245.15 279.6 C308.2 207.39, 372.42 133.39, 487.58 -0.35 M244.64 279.49 C305.33 209.3, 365.39 139.83, 487.63 -0.17 M250.39 278.87 C318.6 202.61, 383.89 125.7, 493.24 -0.76 M250.17 279.23 C310.58 212.39, 368.72 145.61, 493.24 0.47 M255.21 279.72 C338.91 181.66, 424.85 84.19, 498.7 -1.02 M255.58 279.48 C350.08 170.88, 445.29 62.84, 497.73 0.39 M260.18 277.93 C339.78 186.42, 419.51 94.03, 502.8 0.77 M261.26 278.79 C346.26 180.38, 431.9 81.64, 502.15 1.08 M266.34 279.45 C324.24 212.06, 383.15 145.06, 503.67 7.12 M265.91 278.99 C338.67 192.98, 412.51 106.89, 503.58 7.22 M271.39 278 C329.36 213.58, 384.72 147.15, 502.39 13.21 M271.67 278.37 C324.56 219, 376.43 157.63, 503.29 12.68 M276.59 278.3 C346.41 195.32, 418.37 111.94, 503.06 20.29 M276.87 278.78 C324.87 222.9, 373.92 166.77, 503.12 19.68 M282.88 278.48 C330.81 226, 378.12 170.9, 502.17 24.63 M282.35 278.83 C329.79 224.24, 377.53 168.55, 502.27 25.32 M287.69 278.19 C333.56 227.04, 381.25 173.85, 503.26 31.34 M288.09 279.66 C370.9 184.79, 453.66 90.54, 503.11 32.07 M293.89 279.1 C371.7 187.33, 450.45 95.6, 502.48 38.23 M292.9 278 C360.82 200.12, 430 121.27, 502.85 37.02 M298.73 279.72 C372.38 193.9, 446.31 108.96, 503.33 42.53 M297.91 278.97 C358.54 207.24, 419.04 136.22, 503.05 43.87 M302.71 278.58 C359.2 213.62, 416.48 147.97, 501.46 49.5 M303.43 278.03 C359.07 212.45, 416.39 148.03, 502.4 50.56 M309.97 280.3 C366.47 212.71, 423.44 147.38, 503.58 56.1 M308.38 279.47 C372.29 202.95, 438.09 128.63, 502.99 56.13 M314.03 278.93 C359.59 226.87, 405.52 173.24, 501.94 61.17 M313.97 277.93 C367.46 220.21, 419.54 161.11, 503.22 61.42 M318.54 278.27 C370.39 218.55, 424.3 156.56, 503.48 67.46 M319.05 278.93 C367.34 226.86, 414.58 173.17, 503.63 67.32 M325.44 279.08 C390.23 206.06, 455.82 130.87, 503.32 75.47 M324.52 279.24 C363.98 231.92, 404.64 184.59, 502.16 74.65 M328.99 277.77 C389.25 208.62, 449.82 140.5, 502.43 78.93 M330.44 279.49 C383.85 217.34, 439.11 154.09, 501.8 80.75 M333.71 279.18 C388.93 214.53, 442.81 154.86, 502.3 85.71 M335.39 279.23 C385.39 222.16, 435.83 163.56, 503.06 86.23 M339.82 278.38 C376.85 237.53, 410.26 198.75, 504.17 93.03 M340.14 279.41 C400 211.14, 458.74 142.67, 503.21 93.24 M345.35 280.76 C378.77 242.05, 410.96 202.53, 503.32 97.36 M345.48 279.31 C378.32 242.1, 409.67 204.3, 503.1 98.16 M350.86 279.29 C404.81 217.57, 456.98 157.81, 501.29 105.43 M351.61 278.37 C405.01 217.68, 457.45 157.26, 503.54 104.85 M355.49 278.36 C393.77 239.35, 428.51 200.08, 503.79 111.9 M355.85 279.7 C398.19 230.53, 440.77 181.96, 502.11 110.84 M361.79 277.52 C415 215.96, 469 155.57, 502.68 116.19 M362.08 278.55 C418.14 215.53, 473.78 149.69, 502.88 116.92 M368.24 278.82 C407.63 234.88, 444.93 188.76, 504.4 121.24 M366.68 279.28 C399.65 239.5, 433.66 201.61, 503.17 122.28 M374.07 280.41 C403.76 244.98, 432.75 210.15, 504.86 129.75 M373.27 278.73 C416.91 228.77, 459.73 177.26, 502.99 128.63 M378.05 279.54 C417.47 231.27, 459.96 181.11, 503.79 134.87 M378.06 279.97 C404.63 248.47, 430.96 217.66, 502.36 135.4 M384.94 278.45 C426.58 225.27, 471.94 177.75, 501.35 142.73 M383.46 278.38 C429.73 226.88, 476.07 172.3, 502.24 142.11 M388.74 279.96 C413.6 251.44, 437.72 224.77, 502.5 147.26 M388.79 278.33 C418.49 244.79, 448.07 210.7, 503.08 146.76 M393.55 277.01 C417.08 253.94, 439.1 226.66, 504.63 153.83 M394.26 278.83 C421.96 246.97, 449.82 214.06, 502.64 152.79 M397.8 280.17 C427.1 246.68, 458.34 213.44, 501.63 157.51 M399.5 278.33 C431.06 241.19, 462.87 204.05, 503.4 159.49 M402.88 279.28 C430.96 246.85, 460 215.12, 504.07 166.7 M403.61 278.38 C429.52 251.55, 454.01 223.55, 503.07 164.75 M409.38 278.94 C436.98 243.54, 466.62 213.95, 503.21 173.36 M409.68 278.36 C430.56 254.47, 452.93 230.06, 501.99 171.5 M413.75 280.12 C438.55 251.6, 459.99 227.81, 502.53 176.89 M414.79 279.22 C446.09 243.28, 475.35 207.89, 502.9 176.71 M420.49 279.7 C440.59 256.74, 459.27 232.74, 503.11 181.93 M420.61 278.19 C447.42 248.7, 472.58 219.28, 501.81 183.34 M426.84 280.03 C452.21 251.63, 475.55 223.17, 501.74 190.63 M425.37 278.5 C452.83 246.22, 481.71 214.37, 502.32 189.83 M430.96 280.53 C449 259.85, 463.15 239.66, 501.06 196.27 M430.42 278.07 C445.57 262.35, 460.32 245.17, 503.18 195.77 M436.65 279.19 C453.28 259.07, 468.8 242.28, 503.61 203.52 M436.27 279.26 C459.69 250.99, 483.52 224.78, 502.68 201.44 M441.49 280.18 C465.39 255.21, 487.71 228.48, 501.29 206.31 M441.08 279.61 C465.79 250.94, 490.03 221.6, 503.42 207.7 M444.9 280.15 C459.41 263.22, 472.86 245.82, 502.85 215.59 M446.09 280.25 C469.78 252.54, 491.03 227.01, 502.16 215.04 M451.61 280.05 C471.48 257.19, 487.45 237.87, 501.89 221.67 M451.38 278.89 C468.88 260.21, 484.51 241, 503.16 219.97 M457.1 278.91 C474.22 259.69, 492.06 239.75, 501.06 225.77 M456.71 279.84 C468.42 265.06, 479.69 251.96, 502.77 225.8 M461.68 278.18 C472.6 266.72, 482.53 255.2, 504.1 234.35 M461.91 279.39 C472.84 267.23, 483.3 256.85, 502.72 233.08 M468.64 279.33 C480.08 264.26, 492.43 252.15, 503.32 238.9 M468.38 279.61 C477.32 267.86, 486.72 255.55, 502.01 238.56 M474.94 279.3 C484.88 266.68, 498.09 250.89, 501.03 245.76 M474.13 279.02 C483.93 265.33, 494.95 252.06, 501.69 245.21 M477.41 280.21 C486.89 266.34, 498.56 258.38, 503.58 252.46 M477.32 278.31 C487.11 268.83, 495.89 260.75, 503.22 249.6 M483.43 276.78 C488.61 271.3, 494.98 262.93, 503.6 257.23 M483.3 279.1 C491.51 270.49, 498.4 261.95, 502.04 257.71 M489.14 277.99 C492.01 272.44, 499.13 268.76, 501.97 263.37 M488.11 279.6 C492.07 275.79, 496.29 271.93, 501.9 262.34 M494.19 278.66 C498.39 276.37, 499.85 270.37, 501.87 268.96 M493.84 279.15 C496.44 275.51, 499.04 272.87, 503.45 269.04 M499.4 279.52 C500.64 278.03, 501.62 276.19, 502.36 275.22 M499.2 279.09 C500.47 277.71, 501.6 276.47, 502.85 275.34" stroke="#868e96" stroke-width="0.5" fill="none"></path><path d="M0.23 0.42 C174.92 -0.69, 349.27 -0.81, 501.21 -0.76 M0.39 0.24 C135.04 1.2, 270.81 0.95, 501.64 -0.28 M500.46 1.2 C503.91 58.83, 504.41 120.05, 503.3 278.96 M501.74 0.31 C502.87 71.17, 503.15 142.85, 502.07 277.17 M502.07 277.31 C349.03 276.8, 195.57 276.46, -0.1 278.38 M501.59 277.9 C314.27 277.68, 126.78 277.82, 0.29 277.57 M0.47 279.17 C-1.17 194.18, 0.22 108.03, 0.89 0.52 M-0.2 277.5 C-0.47 170.54, -1.37 64.85, 0.12 0.76" stroke="#495057" stroke-width="1" fill="none"></path></g><g transform="translate(36.98828125 622.3409922443129) rotate(0 42.5 9.5)"><text x="0" y="15" font-family="Cascadia, Segoe UI Emoji" font-size="16px" fill="#495057" text-anchor="start" style="white-space: pre;" direction="ltr">View More</text></g><g transform="translate(453.26171875 622.4542734943129) rotate(0 17 9.5)"><text x="0" y="15" font-family="Cascadia, Segoe UI Emoji" font-size="16px" fill="#495057" text-anchor="start" style="white-space: pre;" direction="ltr">❤ 3</text></g><g transform="translate(372.41015625 186.32813524927997) rotate(0 54.068359375 6.803303497516481)"><text x="0" y="10.606606995033113" font-family="Cascadia, Segoe UI Emoji" font-size="11.458195364238406px" fill="#495057" text-anchor="start" style="white-space: pre;" direction="ltr">Tue 10, Jan 2023</text></g><g transform="translate(30.028420729378922 732.498620261088) rotate(0 53.5 9)"><text x="0" y="14" font-family="Helvetica, Segoe UI Emoji" font-size="16px" fill="#343a40" text-anchor="start" style="white-space: pre;" direction="ltr">:: card :: media</text></g><g stroke-linecap="round" transform="translate(17.533399677819943 785.8465376156278) rotate(0 251.9296875 274.3749622392065)"><path d="M31.51 1.45 L472.39 1.87 L484.18 0.42 L495.87 7.24 L503.13 19.05 L505.44 30.83 L505.44 518.23 L500.23 532.33 L494.68 539.75 L484.74 545.37 L472.75 546.79 L32.92 549.96 L16.05 544.95 L9.68 539.54 L2.89 530.99 L-0.32 517.69 L-1.65 32.08 L2.77 17.39 L7.72 6.78 L18.17 0.04 L32.62 0.56" stroke="none" stroke-width="0" fill="#ffffff"></path><path d="M32 0 M32 0 C172.48 -0.43, 314.32 -1.5, 471.86 0 M32 0 C121.51 1.62, 210.01 1.14, 471.86 0 M471.86 0 C491.34 1.47, 505.79 12.31, 503.86 32 M471.86 0 C494.52 0.58, 505.81 10.76, 503.86 32 M503.86 32 C501.35 145.09, 502.48 258.5, 503.86 516.75 M503.86 32 C503.28 217.47, 503.72 402.57, 503.86 516.75 M503.86 516.75 C502.58 538.63, 495 546.76, 471.86 548.75 M503.86 516.75 C505.38 539.53, 494.69 550.12, 471.86 548.75 M471.86 548.75 C307.21 548.25, 142.24 546.29, 32 548.75 M471.86 548.75 C368.98 546.31, 264.96 547.03, 32 548.75 M32 548.75 C11.38 548.62, -0.35 538.87, 0 516.75 M32 548.75 C10.65 549.87, 0.83 538.52, 0 516.75 M0 516.75 C-1.51 345.85, -1.25 175.59, 0 32 M0 516.75 C-0.39 333.54, 0.02 150.21, 0 32 M0 32 C-1.07 11.32, 11.36 1.58, 32 0 M0 32 C-0.32 12.62, 11.62 0.19, 32 0" stroke="#000000" stroke-width="1" fill="none"></path></g><g transform="translate(52.65058717781994 815.3152876156278) rotate(0 85 9.5)"><text x="0" y="15" font-family="Cascadia, Segoe UI Emoji" font-size="16px" fill="#495057" text-anchor="start" style="white-space: pre;" direction="ltr">Actions = Activity</text></g><g stroke-linecap="round" transform="translate(45.93560494232406 864.4300277393963) rotate(0 222.18478895422368 122.98128277945011)"><path d="M7.86 8.16 C7.86 8.16, 7.86 8.16, 7.86 8.16 M7.86 8.16 C7.86 8.16, 7.86 8.16, 7.86 8.16 M3.66 19.09 C8.25 13.07, 11.89 12.1, 18.1 2.48 M3.66 19.09 C6.13 16.05, 9.78 12.08, 18.1 2.48 M2.75 26.24 C11.24 16.98, 17.69 7.73, 24.4 1.33 M2.75 26.24 C9.95 18.7, 15.82 11.32, 24.4 1.33 M2.48 32.64 C8.29 22.85, 14.18 15.53, 30.7 0.18 M2.48 32.64 C12.75 18.81, 25.68 7.78, 30.7 0.18 M2.88 38.28 C16.41 24.43, 25.43 8.75, 34.37 2.05 M2.88 38.28 C12.87 27.05, 22.38 17.21, 34.37 2.05 M2.62 44.68 C11.26 36.09, 17.41 26.91, 39.36 2.41 M2.62 44.68 C18 28.59, 32.31 12.2, 39.36 2.41 M2.36 51.07 C19.75 33.6, 30.97 14.87, 45 2.02 M2.36 51.07 C12.04 38.83, 23.34 28.34, 45 2.02 M2.75 56.72 C16.7 41.55, 31.31 25, 49.99 2.38 M2.75 56.72 C19.39 37.53, 36.34 19.01, 49.99 2.38 M2.49 63.11 C21.48 40.93, 43.53 18.29, 55.63 1.98 M2.49 63.11 C16.18 47.73, 29.33 33.21, 55.63 1.98 M2.23 69.51 C19.23 47.01, 39.91 26.43, 60.62 2.34 M2.23 69.51 C15.13 54.29, 29.22 39.76, 60.62 2.34 M2.62 75.16 C22.38 49.8, 44.22 28.27, 66.26 1.95 M2.62 75.16 C26.05 46.3, 49.01 19.13, 66.26 1.95 M2.36 81.55 C24.56 58.98, 42.23 33.65, 71.25 2.31 M2.36 81.55 C18.1 64.49, 32.63 47.01, 71.25 2.31 M2.76 87.2 C27.77 61.2, 49.16 31.18, 76.89 1.91 M2.76 87.2 C21.49 63.23, 40.6 41.1, 76.89 1.91 M2.49 93.59 C18.56 75.8, 33.31 57.81, 81.88 2.27 M2.49 93.59 C25.38 66.22, 48.86 38.72, 81.88 2.27 M2.23 99.99 C22.52 74.71, 44.07 52.18, 87.52 1.88 M2.23 99.99 C28.53 72.28, 52.31 42.44, 87.52 1.88 M2.63 105.64 C35.12 64.58, 71.41 26.54, 92.51 2.24 M2.63 105.64 C30.62 72.32, 57.03 41.34, 92.51 2.24 M2.37 112.03 C26.99 82.34, 54.46 53.65, 98.15 1.85 M2.37 112.03 C24.75 84.41, 48.95 56.71, 98.15 1.85 M2.1 118.43 C30.98 84.81, 60.05 52.63, 103.14 2.21 M2.1 118.43 C29.56 85.16, 56.14 53.48, 103.14 2.21 M2.5 124.07 C28.72 92.9, 58.98 59.72, 108.78 1.81 M2.5 124.07 C28.43 97.03, 52.79 69.37, 108.78 1.81 M2.24 130.47 C45.1 79.45, 90.63 29.34, 113.77 2.17 M2.24 130.47 C30.56 98.85, 58.65 65.6, 113.77 2.17 M2.63 136.11 C25.09 109.48, 49.52 80.95, 119.41 1.78 M2.63 136.11 C45.44 89.03, 87.42 40.66, 119.41 1.78 M2.37 142.51 C35.78 104.2, 70.51 63.35, 124.4 2.14 M2.37 142.51 C38.76 102.39, 75.08 59.78, 124.4 2.14 M2.11 148.91 C29.5 116.12, 57.57 86.56, 130.04 1.74 M2.11 148.91 C39.31 106.45, 75.47 65.04, 130.04 1.74 M2.5 154.55 C45.02 102.74, 88.71 53.82, 135.03 2.1 M2.5 154.55 C45.58 106.69, 85.82 58.93, 135.03 2.1 M2.24 160.95 C38.68 121.25, 72.08 78.75, 140.67 1.71 M2.24 160.95 C37.88 120.81, 72.78 79.33, 140.67 1.71 M1.98 167.35 C32.42 129.67, 66.25 93.13, 145.66 2.07 M1.98 167.35 C56.21 105.56, 110.6 43.61, 145.66 2.07 M2.38 172.99 C43.59 127.02, 81.62 83.11, 150.65 2.43 M2.38 172.99 C40 130.53, 76.74 86.85, 150.65 2.43 M2.11 179.39 C43.59 130.67, 87.38 83.37, 156.29 2.03 M2.11 179.39 C38.61 137.36, 75.46 95.76, 156.29 2.03 M2.51 185.03 C41.47 143.16, 77.56 98.83, 161.28 2.39 M2.51 185.03 C42.48 139.12, 82.47 92.2, 161.28 2.39 M2.25 191.43 C51.7 138.06, 97.32 83.3, 166.92 2 M2.25 191.43 C36.21 150.25, 70.18 111.66, 166.92 2 M1.99 197.83 C58.02 134.03, 113.58 73.1, 171.91 2.36 M1.99 197.83 C67.17 123.23, 132.34 49.74, 171.91 2.36 M2.38 203.47 C49.96 146.54, 99.9 90.96, 177.55 1.96 M2.38 203.47 C48.35 150.85, 96.15 95.47, 177.55 1.96 M2.12 209.87 C63.17 142.21, 122.84 74.71, 182.54 2.32 M2.12 209.87 C66 135.23, 130.18 61.54, 182.54 2.32 M2.51 215.51 C72.25 135.31, 138.49 57.57, 188.18 1.93 M2.51 215.51 C69.84 136.78, 137.98 58.73, 188.18 1.93 M2.91 221.16 C45.39 174.76, 86.76 126.79, 193.17 2.29 M2.91 221.16 C43.49 174.16, 86.21 126.31, 193.17 2.29 M1.99 228.31 C58.87 163.3, 117.3 98.93, 198.81 1.9 M1.99 228.31 C62.77 159.86, 122.47 90.28, 198.81 1.9 M3.7 232.44 C47.14 184.4, 88.93 135.62, 203.8 2.26 M3.7 232.44 C49.71 180.34, 95.37 127.12, 203.8 2.26 M6.72 235.07 C65.04 166.52, 123.45 101.67, 209.44 1.86 M6.72 235.07 C62.5 169.82, 118.32 105.87, 209.44 1.86 M9.08 238.44 C69.99 170.06, 129.08 103.09, 214.43 2.22 M9.08 238.44 C86.23 151.64, 161.6 63.82, 214.43 2.22 M12.1 241.07 C93.39 146.91, 174.77 51.77, 220.07 1.83 M12.1 241.07 C81.11 163.82, 148.92 86.1, 220.07 1.83 M15.12 243.69 C75.02 173.62, 137.56 101.76, 225.06 2.19 M15.12 243.69 C62.47 189.71, 111.24 134.4, 225.06 2.19 M19.45 244.81 C97.22 154.89, 176.52 64.74, 230.7 1.79 M19.45 244.81 C76.24 180.68, 132.21 114.91, 230.7 1.79 M23.12 246.68 C72.02 193.32, 118.24 137.14, 235.69 2.15 M23.12 246.68 C89.17 168.53, 156.94 90.45, 235.69 2.15 M27.45 247.79 C108.05 154.04, 189.33 59.52, 241.33 1.76 M27.45 247.79 C110.93 153.09, 192.32 60.03, 241.33 1.76 M33.1 247.4 C100.82 169.41, 170.28 91.17, 246.32 2.12 M33.1 247.4 C110.09 157.23, 187.68 66.77, 246.32 2.12 M38.74 247 C104.05 174.58, 167.13 98.57, 251.96 1.72 M38.74 247 C107.43 166.16, 177.06 86.34, 251.96 1.72 M43.73 247.36 C86.41 196.5, 131.32 145.2, 256.95 2.08 M43.73 247.36 C89.61 193.83, 137.85 138.62, 256.95 2.08 M49.37 246.97 C91.55 199.93, 136.58 148.63, 262.59 1.69 M49.37 246.97 C92.09 197.08, 136.74 146.86, 262.59 1.69 M54.36 247.33 C128.48 160.77, 202.48 75.29, 267.58 2.05 M54.36 247.33 C128.28 162.31, 202.43 76.08, 267.58 2.05 M60 246.93 C114.88 180.3, 173.05 115.56, 272.56 2.41 M60 246.93 C126.92 168.4, 193.68 91.58, 272.56 2.41 M64.99 247.29 C145.71 156.69, 222.08 66.36, 278.21 2.01 M64.99 247.29 C132.78 169.38, 202.07 90.49, 278.21 2.01 M70.63 246.9 C137.05 172.74, 199.5 101.12, 283.19 2.37 M70.63 246.9 C156.68 149.07, 241.17 51.18, 283.19 2.37 M75.62 247.26 C154.87 156.75, 230.35 68.31, 288.84 1.98 M75.62 247.26 C149.4 162.74, 222.73 77.55, 288.84 1.98 M81.26 246.87 C164.31 152.97, 247.91 55.69, 293.82 2.34 M81.26 246.87 C160.53 154.39, 241.8 61.12, 293.82 2.34 M86.25 247.23 C164.53 157.71, 242.72 67.77, 299.47 1.94 M86.25 247.23 C156.66 166.1, 224.7 87.04, 299.47 1.94 M91.89 246.83 C148.67 183.13, 202.41 119.46, 304.45 2.3 M91.89 246.83 C143.96 187.21, 195.75 128.2, 304.45 2.3 M96.88 247.19 C156.17 179.1, 215.16 111.07, 310.1 1.91 M96.88 247.19 C181.84 150.95, 267.19 52.52, 310.1 1.91 M102.52 246.8 C168.58 168.86, 235.78 91.26, 315.08 2.27 M102.52 246.8 C174.73 164.95, 245.97 82.93, 315.08 2.27 M107.51 247.16 C183.48 157.41, 261.11 70.29, 320.73 1.88 M107.51 247.16 C153.53 194.98, 199.08 142.17, 320.73 1.88 M113.15 246.76 C195.42 154.07, 277.51 60.62, 325.71 2.24 M113.15 246.76 C174.59 176.56, 234.66 106.91, 325.71 2.24 M118.14 247.12 C187.16 164.38, 257.8 85.05, 331.36 1.84 M118.14 247.12 C170.83 188.27, 222 129.57, 331.36 1.84 M123.12 247.48 C209.29 150.28, 295.15 51.76, 336.34 2.2 M123.12 247.48 C181.94 178.94, 239.7 112.52, 336.34 2.2 M128.77 247.09 C185.61 183.38, 239.94 120.91, 341.99 1.81 M128.77 247.09 C181.96 183.25, 236.58 121.25, 341.99 1.81 M133.75 247.45 C199.52 173.66, 264.29 97.49, 346.97 2.17 M133.75 247.45 C210.04 159.19, 287.5 70.18, 346.97 2.17 M139.4 247.05 C201.11 179.75, 259.13 110.54, 352.62 1.77 M139.4 247.05 C194.08 181.67, 249.75 118.75, 352.62 1.77 M144.38 247.41 C217.18 162.88, 289.32 78.77, 357.6 2.13 M144.38 247.41 C223.76 159.24, 301.12 70.28, 357.6 2.13 M150.03 247.02 C211.28 177.84, 271.35 107.07, 363.25 1.74 M150.03 247.02 C229.23 153, 309.35 61.54, 363.25 1.74 M155.01 247.38 C238.46 154.1, 319.39 61.52, 368.23 2.1 M155.01 247.38 C234.67 158.53, 313.67 67.46, 368.23 2.1 M160.66 246.98 C205.9 192.81, 252.23 139.6, 373.88 1.7 M160.66 246.98 C230.31 164.75, 302.1 82.74, 373.88 1.7 M165.65 247.34 C246.23 156.84, 322.9 66.21, 378.86 2.06 M165.65 247.34 C217.64 188.26, 268.77 129.7, 378.86 2.06 M171.29 246.95 C252.84 151.21, 334.99 57.66, 383.85 2.42 M171.29 246.95 C253.06 152.57, 335.87 57.42, 383.85 2.42 M176.28 247.31 C236.15 177.5, 297.24 107.56, 389.49 2.03 M176.28 247.31 C239.9 176.09, 303.12 104.46, 389.49 2.03 M181.92 246.91 C256.82 160.56, 330.15 75.01, 394.48 2.39 M181.92 246.91 C226.18 195.6, 270.48 145.05, 394.48 2.39 M186.91 247.28 C233.65 195.46, 279.45 143.4, 400.12 1.99 M186.91 247.28 C235.74 191.95, 282.37 138.36, 400.12 1.99 M192.55 246.88 C240.93 188.53, 293.81 131.64, 405.11 2.35 M192.55 246.88 C274.11 152.66, 355.54 58.76, 405.11 2.35 M197.54 247.24 C247.54 189.96, 298.24 131.02, 412.72 -0.3 M197.54 247.24 C279.26 152.64, 361.6 58, 412.72 -0.3 M203.18 246.85 C251.15 192.98, 299.1 136.71, 417.71 0.06 M203.18 246.85 C267.81 170.99, 334.79 94.3, 417.71 0.06 M208.17 247.21 C282.7 164.26, 354.87 78.53, 421.38 1.93 M208.17 247.21 C270.73 172.48, 335.59 98.35, 421.38 1.93 M213.81 246.81 C263.65 189.84, 316.05 129.24, 425.72 3.04 M213.81 246.81 C279.41 171.13, 345.17 94.26, 425.72 3.04 M218.8 247.17 C292.9 162.79, 366.56 79.58, 429.39 4.91 M218.8 247.17 C295.8 156.12, 372.59 66.87, 429.39 4.91 M224.44 246.78 C286.29 177.32, 345.01 107.55, 433.72 6.02 M224.44 246.78 C291.94 167.81, 361.71 89.69, 433.72 6.02 M229.43 247.14 C304.01 162.78, 380.4 76.38, 436.74 8.65 M229.43 247.14 C301.03 163.21, 372.28 81.55, 436.74 8.65 M234.41 247.5 C300.05 171.34, 363.7 96.11, 439.1 12.03 M234.41 247.5 C280.19 198.28, 323.86 147.51, 439.1 12.03 M240.06 247.1 C298.16 179.26, 356.69 111.93, 442.12 14.65 M240.06 247.1 C291.42 188.74, 342.66 130.26, 442.12 14.65 M245.04 247.46 C313.6 170.07, 383.02 91.47, 443.83 18.79 M245.04 247.46 C294.69 193.14, 341.89 136.59, 443.83 18.79 M250.69 247.07 C324.91 163.38, 397.48 81.92, 444.22 24.43 M250.69 247.07 C306.54 181.35, 363.07 115.49, 444.22 24.43 M255.67 247.43 C318.31 174.72, 379.44 105.95, 445.27 29.32 M255.67 247.43 C295.06 203.59, 333.65 160.47, 445.27 29.32 M261.32 247.03 C305.88 195.76, 350.7 146.32, 446.32 34.21 M261.32 247.03 C319.54 180.41, 379.35 113.64, 446.32 34.21 M266.3 247.39 C318.29 187.07, 370.95 127.17, 446.72 39.85 M266.3 247.39 C320.66 187.08, 373.58 124.67, 446.72 39.85 M271.95 247 C311.4 200.11, 352.24 154.29, 446.46 46.25 M271.95 247 C334.83 175.53, 397.55 102.42, 446.46 46.25 M276.93 247.36 C314.85 204.13, 355.32 160.17, 446.85 51.89 M276.93 247.36 C321.2 199.58, 365.36 149.03, 446.85 51.89 M282.58 246.96 C333.28 190.69, 380.15 133.18, 446.59 58.29 M282.58 246.96 C334.91 187.48, 385.87 128.22, 446.59 58.29 M287.56 247.32 C346.46 180.04, 403.91 111.57, 446.33 64.68 M287.56 247.32 C320.75 208.22, 355.77 168.87, 446.33 64.68 M293.21 246.93 C341.33 195.62, 388.36 141.49, 446.72 70.33 M293.21 246.93 C328.95 205.06, 365.28 162.57, 446.72 70.33 M298.19 247.29 C346.52 191.58, 394.66 137.69, 446.46 76.73 M298.19 247.29 C333.03 206.68, 367.25 167.17, 446.46 76.73 M303.84 246.9 C348.61 198.28, 390.81 147.88, 446.86 82.37 M303.84 246.9 C341.71 203.11, 380.6 158.54, 446.86 82.37 M308.82 247.26 C356.18 191.95, 404.92 137.07, 446.6 88.77 M308.82 247.26 C364.01 184.9, 417.04 122.42, 446.6 88.77 M314.47 246.86 C349.98 202.51, 385.6 161.39, 446.33 95.16 M314.47 246.86 C353.21 202.37, 391.46 157.53, 446.33 95.16 M319.45 247.22 C351.57 211.15, 380.04 174.8, 446.73 100.81 M319.45 247.22 C355.16 205.91, 391.62 164.14, 446.73 100.81 M325.1 246.83 C351.29 219.04, 375.08 190.34, 446.47 107.21 M325.1 246.83 C359.37 206.37, 394.91 167.54, 446.47 107.21 M330.08 247.19 C365.97 208.41, 400.11 167.08, 446.86 112.85 M330.08 247.19 C366.1 206.96, 401.82 165.75, 446.86 112.85 M335.73 246.79 C378.91 197.79, 421.24 153.05, 446.6 119.25 M335.73 246.79 C376.67 198.1, 418.63 149.64, 446.6 119.25 M340.71 247.15 C375.53 206.82, 411.05 164.04, 446.34 125.64 M340.71 247.15 C383.08 198.58, 425.38 151.37, 446.34 125.64 M346.36 246.76 C377.14 214.84, 405.32 182.62, 446.73 131.29 M346.36 246.76 C382.32 206.69, 417.26 164.31, 446.73 131.29 M351.34 247.12 C377.67 218.5, 398.31 192.53, 446.47 137.68 M351.34 247.12 C378.67 213.88, 406.44 181.85, 446.47 137.68 M356.33 247.48 C388.44 211.87, 418.8 178.26, 446.87 143.33 M356.33 247.48 C392.26 207.61, 427.53 166.84, 446.87 143.33 M361.97 247.08 C384.41 220.42, 409.24 191.68, 446.61 149.73 M361.97 247.08 C384.59 220.36, 407.6 194.93, 446.61 149.73 M366.96 247.44 C394.34 215.86, 420.3 186.13, 446.34 156.12 M366.96 247.44 C390.94 220.46, 415.79 190.68, 446.34 156.12 M372.6 247.05 C398.68 219.43, 419.66 190.39, 446.74 161.77 M372.6 247.05 C401.62 213.92, 429.77 181.27, 446.74 161.77 M377.59 247.41 C394.07 229.96, 407.8 212.37, 446.48 168.16 M377.59 247.41 C399.87 220.92, 422.81 194.92, 446.48 168.16 M383.23 247.01 C400.98 226.32, 417.24 206.9, 446.87 173.81 M383.23 247.01 C399.64 226.8, 416.39 209.47, 446.87 173.81 M388.22 247.37 C407.71 225.63, 427.4 204.27, 446.61 180.21 M388.22 247.37 C405.34 227.47, 422.8 207.13, 446.61 180.21 M393.86 246.98 C403.38 232.83, 413.65 221.14, 446.35 186.6 M393.86 246.98 C409.45 230.7, 423.54 212.87, 446.35 186.6 M398.85 247.34 C412.73 233.64, 424.87 217.13, 446.74 192.25 M398.85 247.34 C411.8 232.13, 423.5 218.96, 446.74 192.25 M404.49 246.95 C414.71 236.91, 423.88 225.63, 446.48 198.64 M404.49 246.95 C414.05 238.37, 421.18 227.04, 446.48 198.64 M409.48 247.31 C419.01 236.27, 429.44 225.01, 446.88 204.29 M409.48 247.31 C421.03 233.26, 432.53 219.7, 446.88 204.29 M414.47 247.67 C421.71 237.86, 429.78 230.5, 446.61 210.68 M414.47 247.67 C425.51 234.61, 438.39 220.98, 446.61 210.68 M420.77 246.52 C428.88 238.68, 437.44 228.95, 447.01 216.33 M420.77 246.52 C428.75 235.93, 438.27 226.14, 447.01 216.33 M427.72 244.61 C436.47 234.95, 444.09 227.63, 446.09 223.48 M427.72 244.61 C431.11 239.6, 436.54 235.12, 446.09 223.48" stroke="#868e96" stroke-width="0.5" fill="none"></path><path d="M32 0 M32 0 C172.91 0.03, 316.31 1.51, 412.37 0 M32 0 C121.75 -1.66, 212.76 -1.51, 412.37 0 M412.37 0 C435.57 0.79, 443.64 10.31, 444.37 32 M412.37 0 C433.54 -1.62, 444.15 9.44, 444.37 32 M444.37 32 C444.29 76.11, 447.55 123.75, 444.37 213.96 M444.37 32 C446.81 78.14, 445.13 125.64, 444.37 213.96 M444.37 213.96 C445.42 235.22, 433.77 247.49, 412.37 245.96 M444.37 213.96 C443.62 235.89, 435.12 244.23, 412.37 245.96 M412.37 245.96 C329.91 245.86, 245.29 245.52, 32 245.96 M412.37 245.96 C328.39 246.42, 244.98 246.33, 32 245.96 M32 245.96 C11.19 244, -0.92 234.51, 0 213.96 M32 245.96 C12.71 244.16, -0.8 233.43, 0 213.96 M0 213.96 C-1.08 147.22, 1.03 82.04, 0 32 M0 213.96 C-0.7 166.05, -0.81 119.24, 0 32 M0 32 C0.68 9.19, 12.54 -0.35, 32 0 M0 32 C-0.05 12.66, 8.55 -0.69, 32 0" stroke="#495057" stroke-width="1" fill="none"></path></g><g transform="translate(364.2195057456929 817.7506344065987) rotate(0 61.792237125737984 7.7751821548940825)"><text x="0" y="12.550364309788337" font-family="Cascadia, Segoe UI Emoji" font-size="13.095043629295434px" fill="#495057" text-anchor="start" style="white-space: pre;" direction="ltr">Tue 10, Jan 2023</text></g><g stroke-linecap="round" transform="translate(49.560436962051426 1137.9861720512067) rotate(0 120.54078159605115 79.79297535423302)"><path d="M7.86 8.16 C7.86 8.16, 7.86 8.16, 7.86 8.16 M7.86 8.16 C7.86 8.16, 7.86 8.16, 7.86 8.16 M3.66 19.09 C8.53 16.53, 11.76 11.19, 18.1 2.48 M3.66 19.09 C7.84 13.91, 13.18 8.28, 18.1 2.48 M2.75 26.24 C12.02 18.81, 17.29 8.83, 24.4 1.33 M2.75 26.24 C8.15 19.23, 15.54 11.43, 24.4 1.33 M2.48 32.64 C7.35 26.32, 15.59 16.37, 30.7 0.18 M2.48 32.64 C11.4 23.15, 19.59 11.99, 30.7 0.18 M2.88 38.28 C14.84 24.73, 25.57 14.56, 34.37 2.05 M2.88 38.28 C14.87 24.03, 25.24 10.8, 34.37 2.05 M2.62 44.68 C14.62 32.18, 22.17 20.34, 39.36 2.41 M2.62 44.68 C13.75 30.13, 27.07 17.86, 39.36 2.41 M2.36 51.07 C16.72 34.1, 34.47 15.75, 45 2.02 M2.36 51.07 C16.56 33.15, 31.06 16.9, 45 2.02 M2.75 56.72 C19.17 39.5, 31.43 22.57, 49.99 2.38 M2.75 56.72 C14.06 45.78, 23.68 33.96, 49.99 2.38 M2.49 63.11 C17.49 45.53, 32.14 28.67, 55.63 1.98 M2.49 63.11 C16.31 47.72, 29.66 33, 55.63 1.98 M2.88 68.76 C22.62 46.37, 44.21 23.26, 60.62 2.34 M2.88 68.76 C17.99 53.47, 30.59 35.88, 60.62 2.34 M2.62 75.16 C28.52 46.29, 52.38 21.57, 66.26 1.95 M2.62 75.16 C20.81 53.93, 39.48 31.34, 66.26 1.95 M2.36 81.55 C25.43 54.15, 47.42 30.91, 71.25 2.31 M2.36 81.55 C16.99 65.58, 31.49 50.59, 71.25 2.31 M2.76 87.2 C19.78 65.87, 37.95 47.75, 76.89 1.91 M2.76 87.2 C25.42 60.33, 50.34 34.32, 76.89 1.91 M2.49 93.59 C24.54 67.74, 48.03 41.6, 81.88 2.27 M2.49 93.59 C26.74 67.3, 49.49 39.14, 81.88 2.27 M2.89 99.24 C22.08 76.36, 42.03 54.89, 87.52 1.88 M2.89 99.24 C33.38 64.93, 63.75 28.79, 87.52 1.88 M2.63 105.64 C21.83 83.1, 44.88 59.82, 92.51 2.24 M2.63 105.64 C25.9 81, 49.94 53.65, 92.51 2.24 M2.37 112.03 C32.72 79.59, 58.51 45.53, 98.15 1.85 M2.37 112.03 C33.21 77.05, 62.71 42.32, 98.15 1.85 M2.76 117.68 C40.47 75.53, 76.08 31.69, 103.14 2.21 M2.76 117.68 C23.46 93.27, 46.17 68.26, 103.14 2.21 M2.5 124.07 C36.27 89.34, 69.13 51.5, 108.78 1.81 M2.5 124.07 C27.21 94.92, 52.13 65.43, 108.78 1.81 M2.89 129.72 C39.49 88.06, 75.55 48.31, 113.77 2.17 M2.89 129.72 C28.97 99.1, 54.28 69.81, 113.77 2.17 M1.98 136.87 C39.15 97.13, 73.44 55.57, 119.41 1.78 M1.98 136.87 C32.94 100.96, 65.01 64.26, 119.41 1.78 M3.68 141 C45.2 92.34, 88.25 44.17, 124.4 2.14 M3.68 141 C52.24 86.38, 98.44 31.57, 124.4 2.14 M5.39 145.14 C38.81 102.86, 72.34 64.12, 130.04 1.74 M5.39 145.14 C42 103.17, 77.98 60.85, 130.04 1.74 M7.1 149.27 C39.37 113.02, 68 76.48, 135.03 2.1 M7.1 149.27 C42.99 107.75, 79.63 65.76, 135.03 2.1 M10.12 151.89 C38.19 121.97, 63.84 91.12, 140.67 1.71 M10.12 151.89 C47.02 108.44, 85.22 66.55, 140.67 1.71 M12.48 155.27 C53.06 110.62, 92.21 63.73, 145.66 2.07 M12.48 155.27 C53.54 109.23, 94.23 62.33, 145.66 2.07 M16.81 156.39 C68.53 97.62, 119.31 42.73, 150.65 2.43 M16.81 156.39 C66.23 97.79, 116.77 39.47, 150.65 2.43 M20.48 158.26 C65.4 105.93, 111.16 51.59, 156.29 2.03 M20.48 158.26 C74.79 96.03, 128.96 35.02, 156.29 2.03 M24.82 159.37 C65.71 115.82, 104.09 71.84, 161.28 2.39 M24.82 159.37 C73.72 104.56, 121.46 47.7, 161.28 2.39 M29.8 159.73 C66.56 119.18, 98.01 81.02, 166.92 2 M29.8 159.73 C69.56 112.25, 109.82 65.86, 166.92 2 M34.13 160.85 C82.04 107.24, 128.25 55.25, 171.91 2.36 M34.13 160.85 C88.76 100.05, 142.37 38.21, 171.91 2.36 M39.12 161.21 C77.03 117.09, 116.67 71.34, 177.55 1.96 M39.12 161.21 C76.23 117.97, 113.68 75.81, 177.55 1.96 M44.76 160.81 C92 105.92, 138.3 52.77, 182.54 2.32 M44.76 160.81 C87.16 113.08, 130.31 62.38, 182.54 2.32 M49.75 161.17 C96.95 108.79, 139.47 55.54, 188.18 1.93 M49.75 161.17 C103.59 99.38, 157.03 37.66, 188.18 1.93 M54.74 161.53 C86.81 125.67, 116.96 89.41, 193.17 2.29 M54.74 161.53 C99.31 109.19, 145.02 56.94, 193.17 2.29 M60.38 161.14 C98.05 118.39, 134.05 76.34, 198.81 1.9 M60.38 161.14 C96.92 118.29, 133.11 78.36, 198.81 1.9 M65.37 161.5 C110.68 110.32, 156.19 59.11, 203.8 2.26 M65.37 161.5 C106.13 113.71, 147.55 65.85, 203.8 2.26 M71.01 161.1 C97.72 126.54, 125.4 94.8, 210.09 1.11 M71.01 161.1 C111.82 116.17, 150.95 69.72, 210.09 1.11 M76 161.46 C112.5 120.62, 148.01 77.54, 215.08 1.47 M76 161.46 C111.95 119.04, 147.53 78.37, 215.08 1.47 M81.64 161.07 C113.26 126.22, 143.35 90.96, 219.41 2.58 M81.64 161.07 C111.42 130.44, 138.27 96.78, 219.41 2.58 M86.63 161.43 C123.72 119.22, 161.14 76.83, 223.09 4.45 M86.63 161.43 C129.39 112.45, 172.04 63.1, 223.09 4.45 M92.27 161.04 C124.92 120.77, 158.91 83.39, 227.42 5.57 M92.27 161.04 C140.17 105.82, 189.65 49.94, 227.42 5.57 M97.26 161.4 C140.31 113.64, 184.09 63.39, 231.75 6.68 M97.26 161.4 C139.71 110.93, 184.59 60.32, 231.75 6.68 M102.9 161 C156.46 101.01, 208.39 42.58, 234.11 10.06 M102.9 161 C130.83 128.77, 159.85 96.98, 234.11 10.06 M107.89 161.36 C155.34 105.61, 206.05 52.6, 237.13 12.68 M107.89 161.36 C139.23 124.72, 171.31 89.73, 237.13 12.68 M113.53 160.97 C161.92 104.55, 210.19 47.77, 238.84 16.82 M113.53 160.97 C145.59 123.67, 175.03 89.76, 238.84 16.82 M118.52 161.33 C153.17 122.32, 187.7 79.01, 241.2 20.2 M118.52 161.33 C160.13 113.46, 202.09 64.27, 241.2 20.2 M124.16 160.93 C167 112.23, 212.04 64.48, 242.25 25.08 M124.16 160.93 C155.45 125.97, 186.02 90.97, 242.25 25.08 M129.15 161.29 C163.35 117.43, 201.61 77.48, 241.33 32.24 M129.15 161.29 C155.07 133.76, 179.17 104.63, 241.33 32.24 M134.79 160.9 C161.26 128.9, 191.54 95.5, 241.07 38.63 M134.79 160.9 C165.49 125.29, 195.76 91.71, 241.07 38.63 M139.78 161.26 C168.44 128.55, 199.54 93.38, 241.47 44.28 M139.78 161.26 C161.2 137.96, 181.5 114.33, 241.47 44.28 M145.42 160.86 C165.68 135.34, 186.52 111.53, 241.21 50.68 M145.42 160.86 C167.01 136.5, 188.79 111.74, 241.21 50.68 M150.41 161.22 C184.94 122.78, 221.13 80.96, 241.6 56.32 M150.41 161.22 C177.55 129.6, 203.93 98.89, 241.6 56.32 M156.05 160.83 C173.16 140.04, 191.76 117.04, 241.34 62.72 M156.05 160.83 C177.18 135.57, 198.45 111.98, 241.34 62.72 M161.04 161.19 C182.6 135.86, 204.32 113.21, 241.08 69.11 M161.04 161.19 C181.17 136.34, 203.72 110.48, 241.08 69.11 M166.03 161.55 C180.95 144.42, 197.58 126.46, 241.47 74.76 M166.03 161.55 C182.85 140.92, 200.33 121.38, 241.47 74.76 M171.67 161.15 C191.91 140.29, 208.67 118.64, 241.21 81.15 M171.67 161.15 C197.18 132.74, 222.54 103.37, 241.21 81.15 M176.66 161.51 C201.3 135.07, 225.12 108.78, 241.61 86.8 M176.66 161.51 C191.66 143.33, 207.34 125.78, 241.61 86.8 M182.3 161.12 C204.97 136.55, 229.43 108.26, 241.34 93.2 M182.3 161.12 C206.03 134.63, 228.65 109.23, 241.34 93.2 M187.29 161.48 C202.15 148.04, 213.19 130.89, 241.08 99.59 M187.29 161.48 C201.86 144.07, 218.78 126.92, 241.08 99.59 M192.93 161.08 C207.48 145.68, 221.08 130.98, 241.48 105.24 M192.93 161.08 C202.03 148.61, 213.3 137.71, 241.48 105.24 M197.92 161.45 C210.26 146.54, 221.17 132.61, 241.22 111.63 M197.92 161.45 C214.22 142.82, 230.99 122.3, 241.22 111.63 M203.56 161.05 C211.03 150.84, 219.8 139.53, 241.61 117.28 M203.56 161.05 C214.02 150.42, 224.69 137.1, 241.61 117.28 M209.86 159.9 C219.24 151.23, 224.68 143.72, 241.35 123.68 M209.86 159.9 C219.27 149.14, 228.6 140.38, 241.35 123.68 M215.5 159.51 C220.02 153.69, 226.8 144.69, 242.4 128.56 M215.5 159.51 C223.47 150.45, 230.24 141.55, 242.4 128.56 M221.8 158.36 C227.82 148.93, 233.95 143.63, 241.48 135.72 M221.8 158.36 C228.64 150.58, 234.5 144.63, 241.48 135.72" stroke="#868e96" stroke-width="0.5" fill="none"></path><path d="M32 0 M32 0 C78.88 -0.89, 123.17 -1.22, 209.08 0 M32 0 C86.63 0.92, 139.68 1.38, 209.08 0 M209.08 0 C231.76 -1.89, 240.63 10.48, 241.08 32 M209.08 0 C230.5 -0.29, 241.69 12.21, 241.08 32 M241.08 32 C242.27 59.54, 241.56 89.16, 241.08 127.59 M241.08 32 C239.74 61.28, 241.2 89.4, 241.08 127.59 M241.08 127.59 C242.69 150.64, 230.82 158.63, 209.08 159.59 M241.08 127.59 C242.88 146.75, 232.13 159.59, 209.08 159.59 M209.08 159.59 C149.89 162.33, 89.27 162.63, 32 159.59 M209.08 159.59 C152.32 160.8, 95.8 160.27, 32 159.59 M32 159.59 C12.48 157.79, -1.73 148.81, 0 127.59 M32 159.59 C9.31 161.07, 0.98 151.18, 0 127.59 M0 127.59 C-0.06 107.25, 0.92 86.02, 0 32 M0 127.59 C-1.61 94.38, 0.23 59.93, 0 32 M0 32 C-0.79 12.44, 9.87 -1.55, 32 0 M0 32 C0.9 8.64, 8.92 2.28, 32 0" stroke="#495057" stroke-width="1" fill="none"></path></g><g stroke-linecap="round" transform="translate(307.67491333209546 1137.46024270295) rotate(0 92.01214400006347 79.59313365482103)"><path d="M7.86 8.16 C7.86 8.16, 7.86 8.16, 7.86 8.16 M7.86 8.16 C7.86 8.16, 7.86 8.16, 7.86 8.16 M3.66 19.09 C6.71 13.1, 11.08 10.69, 18.1 2.48 M3.66 19.09 C9.6 13.27, 13.02 8.52, 18.1 2.48 M2.75 26.24 C6.68 21.73, 13 15.82, 24.4 1.33 M2.75 26.24 C11.02 16.46, 19.68 8.03, 24.4 1.33 M2.48 32.64 C7.36 23.22, 16.14 17.21, 30.7 0.18 M2.48 32.64 C9.86 22.25, 18 12.68, 30.7 0.18 M2.88 38.28 C10.81 29.34, 15.91 19.12, 34.37 2.05 M2.88 38.28 C10.54 28.51, 19.37 19.22, 34.37 2.05 M2.62 44.68 C16.12 28.38, 27.86 14.42, 39.36 2.41 M2.62 44.68 C13.63 32.74, 25.77 18.74, 39.36 2.41 M2.36 51.07 C15.7 36.56, 26.26 22.5, 45 2.02 M2.36 51.07 C16.53 33.52, 31.93 16.27, 45 2.02 M2.75 56.72 C16.91 36.93, 31.35 20.01, 49.99 2.38 M2.75 56.72 C20.47 35.94, 38.65 16.04, 49.99 2.38 M2.49 63.11 C21.47 41.28, 39.46 21.95, 55.63 1.98 M2.49 63.11 C16.78 48.46, 30.03 33, 55.63 1.98 M2.23 69.51 C20.96 46.71, 44.04 21.75, 60.62 2.34 M2.23 69.51 C24.22 42.65, 46.12 17.93, 60.62 2.34 M2.62 75.16 C25.31 48.61, 49.25 19.35, 66.26 1.95 M2.62 75.16 C17.36 60.02, 31.99 43.61, 66.26 1.95 M2.36 81.55 C21.83 56.4, 44.36 31.71, 71.25 2.31 M2.36 81.55 C18.41 63.57, 33 46.6, 71.25 2.31 M2.1 87.95 C24.52 62.14, 47.17 34.51, 76.89 1.91 M2.1 87.95 C23.79 63.88, 44.69 39.2, 76.89 1.91 M2.49 93.59 C23.57 70.31, 42.33 49.31, 81.88 2.27 M2.49 93.59 C28.52 64.09, 55.33 33.94, 81.88 2.27 M2.23 99.99 C21.68 80.79, 39.59 59.15, 87.52 1.88 M2.23 99.99 C30.06 67.84, 58.22 35.84, 87.52 1.88 M1.97 106.39 C25.9 78.57, 51.3 51.08, 92.51 2.24 M1.97 106.39 C29.45 73.57, 59.35 40.98, 92.51 2.24 M2.37 112.03 C32.97 76.85, 62.86 39.59, 98.15 1.85 M2.37 112.03 C22.75 88.72, 43.51 65.47, 98.15 1.85 M2.1 118.43 C41.96 70.14, 82.36 24.23, 103.14 2.21 M2.1 118.43 C40.31 74.56, 77.13 32.9, 103.14 2.21 M1.84 124.83 C28.51 95.46, 54.14 64.33, 108.78 1.81 M1.84 124.83 C29.32 94.2, 57.63 61.06, 108.78 1.81 M2.89 129.72 C45.88 82.25, 84.82 36.32, 113.77 2.17 M2.89 129.72 C28.32 98.22, 54.72 68.97, 113.77 2.17 M3.94 134.61 C39.67 91.74, 74.43 51.4, 119.41 1.78 M3.94 134.61 C47.75 85.22, 91.65 37.06, 119.41 1.78 M3.03 141.76 C32.86 108.74, 62.19 73.58, 124.4 2.14 M3.03 141.76 C32.29 110.2, 59.06 79.57, 124.4 2.14 M4.73 145.89 C36.74 107.91, 65.08 73.44, 130.04 1.74 M4.73 145.89 C43.11 101.24, 82.23 56.79, 130.04 1.74 M7.1 149.27 C50.09 100.08, 93.65 50.02, 135.03 2.1 M7.1 149.27 C37.23 115.39, 66.8 80.78, 135.03 2.1 M9.46 152.65 C50.66 105.13, 88.98 57.17, 140.67 1.71 M9.46 152.65 C62.01 94.06, 113.37 36.31, 140.67 1.71 M13.13 154.52 C62.14 102.61, 105.45 49.47, 145.66 2.07 M13.13 154.52 C50.74 111.18, 88.56 67.76, 145.66 2.07 M16.81 156.39 C63.34 104.95, 107.06 52.12, 152.61 0.16 M16.81 156.39 C44.66 123.57, 73.5 90.82, 152.61 0.16 M19.83 159.01 C47.63 125.8, 77.95 92.99, 156.94 1.28 M19.83 159.01 C51.03 123.22, 80.5 88.77, 156.94 1.28 M24.82 159.37 C62.8 115.23, 102.59 69.53, 161.93 1.64 M24.82 159.37 C71.46 104.88, 120.54 49.67, 161.93 1.64 M29.15 160.49 C60.05 125.5, 90.31 91.69, 166.26 2.75 M29.15 160.49 C84.68 97.28, 140.14 34.56, 166.26 2.75 M34.13 160.85 C76.61 112.25, 121.66 61.32, 169.94 4.62 M34.13 160.85 C62.19 126.61, 92.57 94.21, 169.94 4.62 M39.12 161.21 C82.98 106.68, 129.53 56.16, 173.61 6.49 M39.12 161.21 C93.69 99.66, 147.59 37.98, 173.61 6.49 M44.76 160.81 C89.62 109.19, 131.88 58.09, 176.63 9.12 M44.76 160.81 C72.98 130.19, 102.1 97.19, 176.63 9.12 M49.75 161.17 C88.46 117.32, 124.1 73.87, 178.99 12.5 M49.75 161.17 C88.61 115.86, 127.55 69.35, 178.99 12.5 M55.39 160.78 C105.11 105.24, 151.75 46.37, 181.36 15.87 M55.39 160.78 C81.61 131.22, 106.26 102.37, 181.36 15.87 M60.38 161.14 C85.28 127.96, 114.97 95.84, 183.72 19.25 M60.38 161.14 C89.64 126.9, 118.66 92.3, 183.72 19.25 M66.02 160.74 C96.93 120.08, 131.99 82.97, 184.11 24.9 M66.02 160.74 C92.99 130.5, 118.79 98.75, 184.11 24.9 M71.01 161.1 C104.3 121.81, 140.39 85.27, 185.16 29.78 M71.01 161.1 C97.63 130.33, 124.11 101.06, 185.16 29.78 M76.65 160.71 C121.92 112.16, 164.73 60.81, 186.87 33.92 M76.65 160.71 C119.17 111.95, 159.23 64.53, 186.87 33.92 M81.64 161.07 C108.72 127.92, 136.52 95.24, 186.61 40.32 M81.64 161.07 C113.58 124.93, 144.78 87.31, 186.61 40.32 M87.28 160.68 C111.31 130.18, 136.4 103.2, 186.35 46.71 M87.28 160.68 C118.1 126, 149.57 89.26, 186.35 46.71 M92.27 161.04 C120.68 126.25, 152.12 93.94, 186.74 52.36 M92.27 161.04 C112.59 137.5, 133.05 111.76, 186.74 52.36 M97.91 160.64 C127.68 123.45, 161.79 88.23, 186.48 58.75 M97.91 160.64 C130.05 122.63, 163.11 83.65, 186.48 58.75 M102.9 161 C119.98 138.95, 140.57 117.92, 186.22 65.15 M102.9 161 C136.47 122.41, 167.69 85.75, 186.22 65.15 M108.54 160.61 C133.82 132.79, 160.15 103.17, 186.61 70.8 M108.54 160.61 C127.49 138.55, 148.03 114.22, 186.61 70.8 M113.53 160.97 C138.66 131.88, 165.67 101.84, 186.35 77.19 M113.53 160.97 C133.85 136.47, 153.54 113.82, 186.35 77.19 M118.52 161.33 C131.45 147.03, 146.43 127.97, 186.09 83.59 M118.52 161.33 C139.57 135.57, 162.64 110.43, 186.09 83.59 M124.16 160.93 C142.9 137.14, 164.27 113.08, 186.49 89.23 M124.16 160.93 C137.1 146.14, 150.41 132.21, 186.49 89.23 M129.15 161.29 C148.04 142.29, 162.71 122.02, 186.22 95.63 M129.15 161.29 C147.73 139.39, 165.5 119.39, 186.22 95.63 M134.79 160.9 C149.76 143.58, 165.98 123.1, 185.96 102.03 M134.79 160.9 C146.35 147.92, 155.54 135.61, 185.96 102.03 M139.78 161.26 C159.66 140.32, 174.99 121.28, 186.36 107.67 M139.78 161.26 C150.08 148.18, 161 136.03, 186.36 107.67 M145.42 160.86 C160.75 142.88, 177.13 123.81, 186.1 114.07 M145.42 160.86 C158.42 144.44, 172.2 129.64, 186.1 114.07 M152.38 158.96 C160.49 148.75, 174.45 134.43, 186.49 119.71 M152.38 158.96 C160.56 149.89, 170.28 139.26, 186.49 119.71 M158.02 158.56 C167.93 147.53, 173.66 138.44, 186.23 126.11 M158.02 158.56 C167.26 148.73, 176.66 136.09, 186.23 126.11 M164.32 157.41 C169.63 150.61, 175.47 144.67, 184 134.77 M164.32 157.41 C171.28 148.14, 179.38 140.57, 184 134.77 M167.99 159.28 C171.99 152.22, 175.93 149.72, 183.08 141.93 M167.99 159.28 C170.22 156.22, 174.17 151.27, 183.08 141.93" stroke="#868e96" stroke-width="0.5" fill="none"></path><path d="M32 0 M32 0 C73 1.2, 116.64 2.08, 152.02 0 M32 0 C64.33 0.55, 96.05 0.55, 152.02 0 M152.02 0 C171.57 -1.16, 184.54 10.95, 184.02 32 M152.02 0 C174.62 1.71, 185.82 9.49, 184.02 32 M184.02 32 C184.96 64.24, 185.23 96.34, 184.02 127.19 M184.02 32 C182.96 53.58, 183.91 76.15, 184.02 127.19 M184.02 127.19 C183.81 150.23, 174.7 157.3, 152.02 159.19 M184.02 127.19 C183.51 148.3, 173.44 158.9, 152.02 159.19 M152.02 159.19 C112.63 158.77, 74.99 157.44, 32 159.19 M152.02 159.19 C111.94 158.67, 72.14 159.76, 32 159.19 M32 159.19 C11.96 159.14, 1.61 150.24, 0 127.19 M32 159.19 C11.13 158.09, 1.8 146.35, 0 127.19 M0 127.19 C0.01 93.47, 0.95 56.87, 0 32 M0 127.19 C-0.07 97.31, -0.97 65.07, 0 32 M0 32 C-0.86 8.67, 12.48 -1.79, 32 0 M0 32 C-1.99 10.54, 9.31 1.48, 32 0" stroke="#495057" stroke-width="1" fill="none"></path></g><g transform="translate(40.68020268429791 1374.8041526394459) rotate(0 58.5 9)"><text x="0" y="14" font-family="Helvetica, Segoe UI Emoji" font-size="16px" fill="#343a40" text-anchor="start" style="white-space: pre;" direction="ltr">:: card :: thought</text></g><g stroke-linecap="round" transform="translate(23.344641251302164 1424.0908841269634) rotate(0 254.47441979828363 75.13421588674282)"><path d="M30.35 -1.13 L478.24 1.27 L491.56 2.6 L501.73 8.1 L504.91 13.37 L510.29 26.1 L510.9 118.5 L508.9 133.92 L502.92 137.15 L497.36 145.06 L489.71 149.48 L475.85 148.97 L32.91 150.98 L16.4 147.52 L10.83 144.85 L2.77 139.2 L2.29 127.41 L0.2 25.41 L3.4 17.89 L8.21 6.5 L18.63 3.47 L31.69 -1.83" stroke="none" stroke-width="0" fill="#ffffff"></path><path d="M32 0 M32 0 C127.46 1.03, 222.84 1.19, 476.95 0 M32 0 C153.66 0.79, 275.83 0.96, 476.95 0 M476.95 0 C497.16 -0.29, 510.88 12.56, 508.95 32 M476.95 0 C499.87 -0.1, 507.38 11.56, 508.95 32 M508.95 32 C509.98 56.1, 508.11 76.64, 508.95 118.27 M508.95 32 C510.16 53.39, 508.67 76.89, 508.95 118.27 M508.95 118.27 C509.43 137.94, 496.81 151.08, 476.95 150.27 M508.95 118.27 C511.02 139.47, 496.98 148.47, 476.95 150.27 M476.95 150.27 C320.98 150.26, 165.22 150.15, 32 150.27 M476.95 150.27 C330.8 148.78, 183.91 148.79, 32 150.27 M32 150.27 C11.18 150.69, -0.6 140.18, 0 118.27 M32 150.27 C9.87 151.97, 0.91 137.35, 0 118.27 M0 118.27 C-1.3 95.62, -2.41 69.57, 0 32 M0 118.27 C-0.57 97.97, 0.31 78.05, 0 32 M0 32 C0.9 12.24, 12.53 -1.8, 32 0 M0 32 C1.8 9.67, 9.93 1.74, 32 0" stroke="#000000" stroke-width="1" fill="none"></path></g><g transform="translate(107.62299190198974 1454.05629709705) rotate(0 76.26262266042158 8.080807699117486)"><text x="0" y="13.161615398235025" font-family="Cascadia, Segoe UI Emoji" font-size="13.63869226138773px" fill="#495057" text-anchor="start" style="white-space: pre;" direction="ltr">Actions if any here</text></g><g transform="translate(57.35461262671288 1498.734990538533) rotate(0 229.08214093740207 22.05976171989778)"><text x="0" y="11.706507813265318" font-family="Cascadia, Segoe UI Emoji" font-size="12.188536526111026px" fill="#343a40" text-anchor="start" style="white-space: pre;" direction="ltr">In publishing and graphic design, Lorem ipsum is a placeholder </text><text x="0" y="26.413015626530637" font-family="Cascadia, Segoe UI Emoji" font-size="12.188536526111026px" fill="#343a40" text-anchor="start" style="white-space: pre;" direction="ltr">text commonly used to demonstrate the visual form of a </text><text x="0" y="41.119523439795955" font-family="Cascadia, Segoe UI Emoji" font-size="12.188536526111026px" fill="#343a40" text-anchor="start" style="white-space: pre;" direction="ltr">document  or a typeface without relying  on meaningful content. </text></g><g transform="translate(372.7231490768254 1453.2869401125267) rotate(0 62.41639818891963 7.853718977413791)"><text x="0" y="12.707437954827473" font-family="Cascadia, Segoe UI Emoji" font-size="13.227316172486285px" fill="#495057" text-anchor="start" style="white-space: pre;" direction="ltr">Tue 10, Jan 2023</text></g><g transform="translate(51.4300115888409 1428.4589189396997) rotate(0 25.466388924413423 40.746222279061385)"><text x="0" y="65.4924445581227" font-family="Cascadia, Segoe UI Emoji" font-size="66.49830252984472px" fill="#495057" text-anchor="start" style="white-space: pre;" direction="ltr">❞</text></g><g transform="translate(55.01610045008874 1627.8639273220256) rotate(0 51 9)"><text x="0" y="14" font-family="Helvetica, Segoe UI Emoji" font-size="16px" fill="#343a40" text-anchor="start" style="white-space: pre;" direction="ltr">:: card :: event</text></g><g stroke-linecap="round" transform="translate(27.512404201325808 1701.226370219811) rotate(0 254.47441979828363 249.50127325890435)"><path d="M32.07 -0.97 L476.51 0.84 L489.35 3.93 L502.7 7.18 L505.21 16.13 L510.25 32.61 L509.33 465.49 L505.32 482.32 L499.81 489.03 L490.41 497.65 L476.07 500.94 L31.42 498.12 L17.92 496.54 L7.43 491.39 L1.37 479.33 L1.03 468.26 L0.93 33.95 L2.1 19.73 L7.4 8.2 L18.86 0.91 L30.93 -0.95" stroke="none" stroke-width="0" fill="#ffffff"></path><path d="M32 0 M32 0 C206.32 0.14, 382.87 1.31, 476.95 0 M32 0 C145.96 -1.79, 260.5 -1.09, 476.95 0 M476.95 0 C499.73 0.99, 510.72 10.78, 508.95 32 M476.95 0 C497.61 1.88, 509.58 8.48, 508.95 32 M508.95 32 C511.62 151.59, 511.51 271.74, 508.95 467 M508.95 32 C510.84 150.46, 510.96 270.01, 508.95 467 M508.95 467 C508.67 490.01, 498.63 497.65, 476.95 499 M508.95 467 C511.2 486.09, 497.37 498.95, 476.95 499 M476.95 499 C358.57 500.11, 237.88 500.45, 32 499 M476.95 499 C312.5 499.21, 147.8 499.2, 32 499 M32 499 C9.97 497.68, -0.56 487.91, 0 467 M32 499 C10.25 499.98, 2.11 488.71, 0 467 M0 467 C1.24 357.28, 0.98 247.05, 0 32 M0 467 C0.03 309.07, 0.72 150.71, 0 32 M0 32 C-0.84 12.6, 10.89 0.37, 32 0 M0 32 C0.89 11.99, 9.35 -0.01, 32 0" stroke="#000000" stroke-width="1" fill="none"></path></g><g transform="translate(111.50076449762855 1732.6040738768374) rotate(0 20.5 8)"><text x="0" y="13" font-family="Cascadia, Segoe UI Emoji" font-size="13.63869226138773px" fill="#495057" text-anchor="start" style="white-space: pre;" direction="ltr">Event</text></g><g transform="translate(64.84904507963074 2071.050389041497) rotate(0 216 21)"><text x="0" y="11" font-family="Cascadia, Segoe UI Emoji" font-size="11.484202796348354px" fill="#343a40" text-anchor="start" style="white-space: pre;" direction="ltr">In publishing and graphic design, Lorem ipsum is a placeholder </text><text x="0" y="25" font-family="Cascadia, Segoe UI Emoji" font-size="11.484202796348354px" fill="#343a40" text-anchor="start" style="white-space: pre;" direction="ltr">text commonly used to demonstrate the visual form of a </text><text x="0" y="39" font-family="Cascadia, Segoe UI Emoji" font-size="11.484202796348354px" fill="#343a40" text-anchor="start" style="white-space: pre;" direction="ltr">document  or a typeface without relying  on meaningful content. </text></g><g transform="translate(331.09503268505887 1727.032928556721) rotate(0 89.5 8)"><text x="0" y="13" font-family="Cascadia, Segoe UI Emoji" font-size="13.227316172486285px" fill="#495057" text-anchor="start" style="white-space: pre;" direction="ltr">posted Tue 10, Jan 2023</text></g><g transform="translate(51.49687515858477 1725.7129566315457) rotate(0 26.5 32)"><text x="0" y="49" font-family="Cascadia, Segoe UI Emoji" font-size="49.09705280840807px" fill="#495057" text-anchor="start" style="white-space: pre;" direction="ltr">🗓</text></g><g transform="translate(112.48288713326565 1758.7326933637346) rotate(0 76.5 8)"><text x="0" y="13" font-family="Cascadia, Segoe UI Emoji" font-size="13.63869226138773px" fill="#495057" text-anchor="start" style="white-space: pre;" direction="ltr">Actions if any here</text></g><g transform="translate(61.710884024305415 1985.301299471596) rotate(0 117.75337316320565 13.434948615936264)"><text x="0" y="21.869897231872415" font-family="Cascadia, Segoe UI Emoji" font-size="22.24102493764327px" fill="#495057" text-anchor="start" style="white-space: pre;" direction="ltr">Title of the Event</text></g><g stroke-linecap="round" transform="translate(55.01852922886337 1797.6083818006505) rotate(0 228.1000103745448 82.43258281522048)"><path d="M7.86 8.16 C7.86 8.16, 7.86 8.16, 7.86 8.16 M7.86 8.16 C7.86 8.16, 7.86 8.16, 7.86 8.16 M3.66 19.09 C10.24 12.12, 13.23 5.78, 18.1 2.48 M3.66 19.09 C6.78 15.6, 9.82 10.56, 18.1 2.48 M2.75 26.24 C10.3 18.65, 18.65 9.33, 24.4 1.33 M2.75 26.24 C8.99 17.76, 16 9.99, 24.4 1.33 M2.48 32.64 C11.25 22.59, 23.39 11.85, 30.7 0.18 M2.48 32.64 C8.71 23.99, 16.13 16.55, 30.7 0.18 M2.88 38.28 C11.84 27.1, 20.43 14.93, 34.37 2.05 M2.88 38.28 C11.26 26.32, 21.14 17.07, 34.37 2.05 M2.62 44.68 C10.32 33.65, 17.54 25.66, 39.36 2.41 M2.62 44.68 C11.34 35.08, 17.7 26.38, 39.36 2.41 M2.36 51.07 C13.18 38.83, 27.49 24.03, 45 2.02 M2.36 51.07 C14.43 38.49, 26.69 23.89, 45 2.02 M2.75 56.72 C12.98 44.91, 24.41 33.23, 49.99 2.38 M2.75 56.72 C12.77 45.66, 23.26 34.13, 49.99 2.38 M2.49 63.11 C16.6 48.52, 29.6 34.7, 55.63 1.98 M2.49 63.11 C21.12 41.18, 40.48 19.96, 55.63 1.98 M2.88 68.76 C24.57 41.97, 49.86 17.35, 60.62 2.34 M2.88 68.76 C21.87 46.03, 43.09 22.32, 60.62 2.34 M2.62 75.16 C19.01 57.22, 37.98 36.05, 66.26 1.95 M2.62 75.16 C23.2 51.42, 44.91 25.74, 66.26 1.95 M2.36 81.55 C17.95 63.85, 30.16 48.86, 71.25 2.31 M2.36 81.55 C18.24 62.95, 36.2 44.15, 71.25 2.31 M2.76 87.2 C29.9 57.27, 54.43 30.56, 76.89 1.91 M2.76 87.2 C29.63 53.85, 57.86 22.34, 76.89 1.91 M2.49 93.59 C26.01 65.55, 50.58 39.65, 81.88 2.27 M2.49 93.59 C27.78 65.79, 51.4 36.94, 81.88 2.27 M2.89 99.24 C30.96 67.98, 56.96 37.35, 87.52 1.88 M2.89 99.24 C27.84 70.12, 51.71 43.15, 87.52 1.88 M2.63 105.64 C25.79 78.9, 45.37 55.01, 92.51 2.24 M2.63 105.64 C28.38 75.53, 54.24 43.4, 92.51 2.24 M2.37 112.03 C30.04 81.22, 55.53 52.73, 98.15 1.85 M2.37 112.03 C26.84 85.06, 51.29 57.92, 98.15 1.85 M2.76 117.68 C24.64 91.58, 45.7 68.03, 103.14 2.21 M2.76 117.68 C37.19 78.44, 69.39 41.24, 103.14 2.21 M2.5 124.07 C34.28 87.19, 66.62 50.81, 108.78 1.81 M2.5 124.07 C32.89 87.96, 64.87 53.95, 108.78 1.81 M2.89 129.72 C41.74 87.02, 81.28 39.77, 113.77 2.17 M2.89 129.72 C30.44 98.87, 56.46 68.44, 113.77 2.17 M2.63 136.11 C32.37 102.68, 65.21 66.69, 119.41 1.78 M2.63 136.11 C47.73 83.28, 91.49 32.87, 119.41 1.78 M2.37 142.51 C44.19 99.1, 80.77 50.5, 124.4 2.14 M2.37 142.51 C39.64 99.63, 76.06 55.18, 124.4 2.14 M4.08 146.65 C45.87 100.01, 82.31 55.63, 130.04 1.74 M4.08 146.65 C52.98 91.42, 101.25 34.01, 130.04 1.74 M5.78 150.78 C35.13 117.84, 63.58 83.88, 135.03 2.1 M5.78 150.78 C41.86 109.6, 79.03 69.48, 135.03 2.1 M7.49 154.91 C57.18 101.74, 102.83 46.23, 140.67 1.71 M7.49 154.91 C46.73 110.36, 86.96 65.45, 140.67 1.71 M10.51 157.54 C46.82 119.64, 79.68 77.74, 145.66 2.07 M10.51 157.54 C54.18 107.02, 98.45 56.86, 145.66 2.07 M12.87 160.92 C67.23 100.15, 118.67 42.09, 150.65 2.43 M12.87 160.92 C64.8 102.09, 115.01 42.73, 150.65 2.43 M16.55 162.79 C47.67 123.34, 83.01 85.71, 156.29 2.03 M16.55 162.79 C60.59 111.84, 103.73 61.28, 156.29 2.03 M20.22 164.66 C64.39 116.56, 105.62 66.73, 161.28 2.39 M20.22 164.66 C53.57 127.17, 86.1 89.48, 161.28 2.39 M24.55 165.77 C69.06 115.02, 113.62 63.67, 166.92 2 M24.55 165.77 C73.26 109.2, 121.28 52.23, 166.92 2 M29.54 166.13 C80.18 107.06, 132.89 47.16, 171.91 2.36 M29.54 166.13 C80.55 109.17, 131.19 49.33, 171.91 2.36 M34.53 166.49 C70.35 124.37, 102.61 87.74, 177.55 1.96 M34.53 166.49 C89.9 100.35, 146.08 34.37, 177.55 1.96 M39.51 166.85 C84.63 116.04, 133.12 61.7, 182.54 2.32 M39.51 166.85 C92.8 105.27, 147.36 44.65, 182.54 2.32 M45.16 166.46 C86 118.67, 125.5 70.14, 188.18 1.93 M45.16 166.46 C85.02 121.92, 124.93 75.09, 188.18 1.93 M50.14 166.82 C84.84 130.99, 115.86 93.38, 193.17 2.29 M50.14 166.82 C103.34 105.84, 156.86 44.75, 193.17 2.29 M55.13 167.18 C104.48 108.69, 156.55 50.97, 198.81 1.9 M55.13 167.18 C97 120.26, 138.1 70.97, 198.81 1.9 M60.77 166.78 C100.56 116.72, 144.09 68.5, 203.8 2.26 M60.77 166.78 C93.23 131.01, 123.19 96.31, 203.8 2.26 M65.76 167.14 C100.83 125.12, 135.92 88.48, 209.44 1.86 M65.76 167.14 C117.72 108.09, 169.93 48.15, 209.44 1.86 M71.4 166.75 C127.23 98.74, 183.43 33.48, 214.43 2.22 M71.4 166.75 C129.51 100.19, 184.9 36.86, 214.43 2.22 M76.39 167.11 C129.72 106.36, 182.26 43.31, 220.07 1.83 M76.39 167.11 C120.16 117.88, 163.07 68.56, 220.07 1.83 M82.04 166.71 C137.68 102.94, 192.2 37.89, 225.06 2.19 M82.04 166.71 C136.51 103.41, 190.94 40.39, 225.06 2.19 M87.02 167.07 C127.71 117.99, 171.67 71.14, 230.7 1.79 M87.02 167.07 C137.17 111.18, 185.86 53.82, 230.7 1.79 M92.67 166.68 C149.05 103.25, 203.41 39.72, 235.69 2.15 M92.67 166.68 C133.81 118.54, 176.56 70.49, 235.69 2.15 M97.65 167.04 C149.24 104.65, 204.25 44.74, 241.33 1.76 M97.65 167.04 C130.71 128.72, 163.7 90.85, 241.33 1.76 M103.3 166.64 C138.32 123.8, 175.76 82.88, 246.32 2.12 M103.3 166.64 C133.34 130.54, 165.5 93.9, 246.32 2.12 M108.28 167 C145.62 122.6, 184.93 76.08, 251.96 1.72 M108.28 167 C153.82 115.48, 197.38 64.73, 251.96 1.72 M113.93 166.61 C163.99 107.36, 215.38 46.95, 256.95 2.08 M113.93 166.61 C155.87 119.36, 197.28 71.13, 256.95 2.08 M118.91 166.97 C159.57 118.81, 204.84 70.19, 262.59 1.69 M118.91 166.97 C152.38 129.44, 186.72 90.98, 262.59 1.69 M124.56 166.57 C151.58 133.66, 182.45 100.28, 267.58 2.05 M124.56 166.57 C154.92 133.41, 184.87 98.21, 267.58 2.05 M129.54 166.94 C166.77 124.41, 203.76 83.23, 272.56 2.41 M129.54 166.94 C167.23 124.55, 205.41 82.14, 272.56 2.41 M135.19 166.54 C188.88 102.35, 240.7 42.5, 278.21 2.01 M135.19 166.54 C180.53 111.63, 227.05 58.3, 278.21 2.01 M140.17 166.9 C195.63 102.32, 247.56 41.53, 283.19 2.37 M140.17 166.9 C192.85 104.63, 244.87 44.48, 283.19 2.37 M145.82 166.51 C176.35 128.78, 210.24 92.67, 288.84 1.98 M145.82 166.51 C196.61 108.73, 246.8 52.04, 288.84 1.98 M150.8 166.87 C179.38 133.18, 207.84 99.55, 293.82 2.34 M150.8 166.87 C198.43 113.55, 245.53 59.44, 293.82 2.34 M156.45 166.47 C211.01 108.36, 263.75 45.74, 299.47 1.94 M156.45 166.47 C193.68 126.36, 229.25 84.17, 299.47 1.94 M161.43 166.83 C205.44 117.81, 248.23 65.24, 304.45 2.3 M161.43 166.83 C195.96 129.48, 228.27 89.79, 304.45 2.3 M166.42 167.19 C222.21 104.34, 275.29 38.52, 310.1 1.91 M166.42 167.19 C217.61 108.67, 270.24 47.57, 310.1 1.91 M172.06 166.8 C224.15 106.99, 271.62 49.56, 315.08 2.27 M172.06 166.8 C226.9 105.37, 280.56 43.65, 315.08 2.27 M177.05 167.16 C224.26 114.19, 272.52 56.47, 320.73 1.88 M177.05 167.16 C214.58 125.07, 252.48 81.2, 320.73 1.88 M182.69 166.76 C216.84 124.9, 252.54 84.63, 325.71 2.24 M182.69 166.76 C232.33 109.1, 282.23 52.33, 325.71 2.24 M187.68 167.12 C220.5 128.62, 253.46 94.11, 331.36 1.84 M187.68 167.12 C228.95 118.13, 271.78 69.28, 331.36 1.84 M193.32 166.73 C224.75 131.32, 252.5 97.29, 336.34 2.2 M193.32 166.73 C247.51 105.08, 299.84 43.2, 336.34 2.2 M198.31 167.09 C251.07 107.09, 300.61 50.86, 341.99 1.81 M198.31 167.09 C236.91 123.27, 274.71 78.22, 341.99 1.81 M203.95 166.69 C243.26 124.78, 277.54 84.08, 346.97 2.17 M203.95 166.69 C255.28 108.11, 306.24 50.37, 346.97 2.17 M208.94 167.05 C261.13 109.17, 313.23 45.58, 352.62 1.77 M208.94 167.05 C254.59 113.19, 301.35 59.1, 352.62 1.77 M214.58 166.66 C264.71 108.19, 314.5 49.94, 357.6 2.13 M214.58 166.66 C247.99 129.42, 281.79 92.23, 357.6 2.13 M219.57 167.02 C274.83 105.22, 328.81 41.98, 363.25 1.74 M219.57 167.02 C263.99 118.64, 307.18 68.5, 363.25 1.74 M225.21 166.62 C264.44 124.69, 299.2 81.49, 368.23 2.1 M225.21 166.62 C258.34 129.46, 291.72 92.26, 368.23 2.1 M230.2 166.98 C273.11 118.47, 314.32 68.23, 373.88 1.7 M230.2 166.98 C282.42 108.44, 333.1 50.17, 373.88 1.7 M235.84 166.59 C273.98 124.09, 310.68 80.78, 378.86 2.06 M235.84 166.59 C290.72 104.25, 345.87 40.71, 378.86 2.06 M240.83 166.95 C277.15 126.13, 310.81 84.22, 383.85 2.42 M240.83 166.95 C286.5 112.96, 333.84 58.81, 383.85 2.42 M246.47 166.56 C283.33 123.36, 316.92 84.4, 389.49 2.03 M246.47 166.56 C282.33 124.42, 316.92 84.7, 389.49 2.03 M251.46 166.92 C306.17 102.89, 359.16 42.69, 394.48 2.39 M251.46 166.92 C279.19 133.07, 309.12 99.25, 394.48 2.39 M257.1 166.52 C294.16 125.4, 330.86 85.98, 400.12 1.99 M257.1 166.52 C310.79 103.7, 366.06 42.99, 400.12 1.99 M262.09 166.88 C298.93 124.06, 335.25 82.68, 405.11 2.35 M262.09 166.88 C293.83 128.36, 327.31 89.56, 405.11 2.35 M267.73 166.49 C307.64 116.04, 352.6 67.1, 410.75 1.96 M267.73 166.49 C301.34 128.16, 335.86 87.69, 410.75 1.96 M272.72 166.85 C309.94 126.56, 346.72 82.71, 415.74 2.32 M272.72 166.85 C303.72 130.07, 335.93 93.21, 415.74 2.32 M278.36 166.45 C327.06 112.36, 375.12 55.1, 421.38 1.93 M278.36 166.45 C322.53 118.52, 365.47 68, 421.38 1.93 M283.35 166.81 C338.28 103.52, 393.83 40.1, 426.37 2.29 M283.35 166.81 C317.35 127.53, 349.76 88.95, 426.37 2.29 M288.34 167.17 C339 110.19, 390.23 50.6, 431.36 2.65 M288.34 167.17 C337.24 110.47, 386.35 54.6, 431.36 2.65 M293.98 166.78 C329.51 126.55, 363.67 85.74, 435.69 3.76 M293.98 166.78 C335.05 119.86, 376.43 72.24, 435.69 3.76 M298.97 167.14 C330.34 129.68, 359.6 93.4, 440.68 4.12 M298.97 167.14 C349.67 110.25, 400.96 51.12, 440.68 4.12 M304.61 166.74 C344.11 121.17, 385.3 76.12, 444.35 5.99 M304.61 166.74 C341.65 124.88, 378.36 82.94, 444.35 5.99 M309.6 167.1 C342.63 127.43, 375.67 92.12, 447.37 8.61 M309.6 167.1 C340.21 129.89, 372.35 93.19, 447.37 8.61 M315.24 166.71 C362.34 112.66, 408.53 62.75, 451.05 10.48 M315.24 166.71 C367.97 103.63, 422.61 43.3, 451.05 10.48 M320.23 167.07 C351.74 130.87, 385.87 94.82, 453.41 13.86 M320.23 167.07 C357.4 125.34, 393.34 83.05, 453.41 13.86 M325.87 166.67 C362.49 124.75, 402.2 79.87, 455.11 18 M325.87 166.67 C373.19 109.73, 423.04 52.02, 455.11 18 M330.86 167.03 C363.36 129.99, 396.02 97.07, 456.17 22.88 M330.86 167.03 C369.45 124.39, 406.67 82.28, 456.17 22.88 M336.5 166.64 C384.02 109.33, 432.25 53.64, 457.87 27.02 M336.5 166.64 C368.17 128.71, 401.17 90.32, 457.87 27.02 M341.49 167 C367.8 133.84, 396.65 102.49, 458.27 32.66 M341.49 167 C377.63 124.82, 413.77 82.94, 458.27 32.66 M347.13 166.61 C391.35 117.18, 435.27 67.13, 458.01 39.06 M347.13 166.61 C388.65 118.67, 429.67 68.72, 458.01 39.06 M352.12 166.97 C390.16 120.4, 429.03 77.18, 458.4 44.7 M352.12 166.97 C378.94 135.23, 406.47 104.57, 458.4 44.7 M357.76 166.57 C396.09 121.94, 431.15 82.4, 458.14 51.1 M357.76 166.57 C394.96 124.29, 432.13 81.16, 458.14 51.1 M362.75 166.93 C391.24 132.39, 424.26 93.38, 458.53 56.74 M362.75 166.93 C387.24 138.72, 412.1 111.06, 458.53 56.74 M368.39 166.54 C395.9 137.52, 420.19 105.89, 458.27 63.14 M368.39 166.54 C401.9 130.46, 433.17 93.07, 458.27 63.14 M373.38 166.9 C392.12 144.72, 412.84 125.16, 458.67 68.78 M373.38 166.9 C404.08 132.68, 432.1 98.23, 458.67 68.78 M379.02 166.5 C400.56 143.73, 420.79 117.76, 458.4 75.18 M379.02 166.5 C399.11 142.64, 418.27 120.13, 458.4 75.18 M384.01 166.86 C403.98 140.75, 426.47 119.33, 458.14 81.58 M384.01 166.86 C412.76 134.42, 441.75 100.24, 458.14 81.58 M389.65 166.47 C412.74 141.39, 432.66 116.87, 458.54 87.22 M389.65 166.47 C414.4 136.91, 440.01 106.23, 458.54 87.22 M394.64 166.83 C418.44 139.34, 438.8 113.72, 458.28 93.62 M394.64 166.83 C416.7 141.41, 439.02 114.76, 458.28 93.62 M399.63 167.19 C423.48 140.14, 445.48 113.6, 458.67 99.26 M399.63 167.19 C414.07 150.79, 426.58 135.1, 458.67 99.26 M405.27 166.79 C426.03 142.34, 445.91 119.78, 458.41 105.66 M405.27 166.79 C426.34 143.8, 445.43 119.7, 458.41 105.66 M410.26 167.15 C424.2 150.89, 442.67 131.01, 458.8 111.3 M410.26 167.15 C428.79 147.36, 446.4 125.45, 458.8 111.3 M415.9 166.76 C430.62 148.11, 446.86 131.41, 458.54 117.7 M415.9 166.76 C430.21 149.97, 445.92 132.85, 458.54 117.7 M420.89 167.12 C431.72 156.34, 441.91 139.87, 458.94 123.35 M420.89 167.12 C432.78 152.04, 445.69 139.44, 458.94 123.35 M426.53 166.72 C438.46 154.64, 450.86 141.62, 458.68 129.74 M426.53 166.72 C437.11 154.72, 448.21 140.04, 458.68 129.74 M432.17 166.33 C441.36 154.77, 453.93 141.79, 459.07 135.39 M432.17 166.33 C439.46 158.94, 446.49 151.57, 459.07 135.39 M439.78 163.67 C444.87 160.69, 449.3 152.63, 454.22 147.07 M439.78 163.67 C444.47 157.47, 451.11 150.51, 454.22 147.07" stroke="#868e96" stroke-width="0.5" fill="none"></path><path d="M32 0 M32 0 C119.04 2.19, 208.73 0.85, 424.2 0 M32 0 C143.4 0.67, 255.9 0.49, 424.2 0 M424.2 0 C447.43 0.93, 457.67 12.46, 456.2 32 M424.2 0 C444.69 0.48, 457.27 12.78, 456.2 32 M456.2 32 C456 62.5, 455.31 95.85, 456.2 132.87 M456.2 32 C456.77 61, 457.66 87.85, 456.2 132.87 M456.2 132.87 C454.64 154.21, 446.15 164.04, 424.2 164.87 M456.2 132.87 C455.25 156.07, 445.82 164.8, 424.2 164.87 M424.2 164.87 C333.85 165.73, 243.44 165.2, 32 164.87 M424.2 164.87 C333.96 164.77, 242.64 164.74, 32 164.87 M32 164.87 C9.73 163.75, -1.46 153.13, 0 132.87 M32 164.87 C10.64 166.83, 0.92 155.98, 0 132.87 M0 132.87 C0.5 92.94, -0.06 57.01, 0 32 M0 132.87 C-0.1 110.09, 0.42 87.93, 0 32 M0 32 C1.22 11.67, 9.59 0.04, 32 0 M0 32 C0.59 12.14, 10.11 1.08, 32 0" stroke="#495057" stroke-width="1" fill="none"></path></g><g transform="translate(73.70315542001299 2027.9917514303584) rotate(0 9.5 11)"><text x="0" y="17" font-family="Cascadia, Segoe UI Emoji" font-size="13.63869226138773px" fill="#495057" text-anchor="start" style="white-space: pre;" direction="ltr">🗓</text></g><g transform="translate(104.08058656893263 2030.7485428512596) rotate(0 73.79695361417066 8.143112122942966)"><text x="0" y="13.286224245885933" font-family="Cascadia, Segoe UI Emoji" font-size="13.882675036849356px" fill="#495057" text-anchor="start" style="white-space: pre;" direction="ltr">When: Jun 11, 2023</text></g><g stroke-linecap="round" transform="translate(395.19981157308894 2139.9212815550277) rotate(0 53.42601515975457 16.92677464651888)"><path d="M9.4 0.34 L101.95 0.02 L107 2.99 L106.94 29.2 L103.16 31.98 L100.08 32.86 L4.9 35.06 L1.5 29.49 L-1.85 9.74 L1.83 0.77 L9.57 -1.47" stroke="none" stroke-width="0" fill="#868e96"></path><path d="M8.46 0 M8.46 0 C37.97 1.2, 68.72 -1.79, 98.39 0 M8.46 0 C30.66 0.22, 50.92 -0.74, 98.39 0 M98.39 0 C103.63 -0.85, 105.35 3.34, 106.85 8.46 M98.39 0 C105.42 1.03, 105.88 0.9, 106.85 8.46 M106.85 8.46 C108.39 12.49, 107.32 18.2, 106.85 25.39 M106.85 8.46 C107.14 13.13, 106.44 16.48, 106.85 25.39 M106.85 25.39 C106.56 29.44, 105.47 35.02, 98.39 33.85 M106.85 25.39 C107.23 32.04, 102.42 35.94, 98.39 33.85 M98.39 33.85 C69.82 35.2, 42.34 32.63, 8.46 33.85 M98.39 33.85 C69.5 34.7, 39.53 34.96, 8.46 33.85 M8.46 33.85 C1.69 35.57, -1.7 29.85, 0 25.39 M8.46 33.85 C1.74 34.21, -1.14 32.06, 0 25.39 M0 25.39 C-0.61 19.05, -1.35 13.28, 0 8.46 M0 25.39 C0.07 19.41, 0.44 13.72, 0 8.46 M0 8.46 C-0.81 3.55, 4 1.88, 8.46 0 M0 8.46 C-1.74 3.3, 2.09 -0.42, 8.46 0" stroke="#495057" stroke-width="1" fill="none"></path></g><g transform="translate(36.52504438425876 10) rotate(0 158.5 21.5)"><text x="0" y="35" font-family="Cascadia, Segoe UI Emoji" font-size="36px" fill="#343a40" text-anchor="start" style="white-space: pre;" direction="ltr">Card Components</text></g><g stroke-linecap="round" transform="translate(50.06072223929141 2336.1972371724164) rotate(0 121.80078125 249.8674045138887)"><path d="M31.11 0.41 L219.08 2.2 L223.7 2.95 L235.99 8.22 L243.5 18.53 L244.71 31.52 L244.92 466.91 L244.97 474.71 L238.62 485.33 L235.33 491.83 L223.6 499.35 L210.75 499.29 L23.12 498.5 L14.36 495.44 L6.06 486.92 L3 480.26 L-0.64 468.45 L-0.98 31.15 L0.89 17.31 L9.71 8.9 L17.37 3.61 L32.22 -1.27" stroke="none" stroke-width="0" fill="#ffffff"></path><path d="M32 0 M32 0 C73.01 0.87, 110.14 -0.94, 211.6 0 M32 0 C79.04 -0.13, 125.48 0.02, 211.6 0 M211.6 0 C231.27 -0.57, 244.5 10.81, 243.6 32 M211.6 0 C230.76 -0.59, 245.9 8.53, 243.6 32 M243.6 32 C243.88 179.31, 243.8 328.51, 243.6 467.73 M243.6 32 C241.36 129.72, 241.89 227.58, 243.6 467.73 M243.6 467.73 C242.71 488.71, 232.52 499.51, 211.6 499.73 M243.6 467.73 C242.45 489.02, 235.06 500.19, 211.6 499.73 M211.6 499.73 C146.79 498.08, 78.56 498.4, 32 499.73 M211.6 499.73 C157.77 499.72, 105.1 498.84, 32 499.73 M32 499.73 C11.9 500.93, 1.7 491.03, 0 467.73 M32 499.73 C11.58 497.55, -1.92 488.56, 0 467.73 M0 467.73 C1.26 310.73, 1.05 153.2, 0 32 M0 467.73 C-0.86 377.4, -1.46 286.55, 0 32 M0 32 C-0.71 11.06, 10.7 -1.46, 32 0 M0 32 C-0.61 9.96, 12.39 -1.38, 32 0" stroke="#000000" stroke-width="1" fill="none"></path></g><g stroke-linecap="round"><g transform="translate(48.92270140595747 2407.2770982835277) rotate(0 122.66146046848985 -0.4437923358009357)"><path d="M1.02 -1.14 C41.85 -1.1, 204.6 -0.14, 245.22 0.24 M0.1 0.88 C40.8 0.53, 203.91 -1.52, 244.58 -1.76" stroke="#000000" stroke-width="1" fill="none"></path></g></g><mask></mask><g stroke-linecap="round" transform="translate(207.82891169241566 2402.754568073678) rotate(0 10.369180338541582 11.315947986767696)"><path d="M4.73 1.63 C6.64 0.31, 10.77 0.01, 13.02 0.4 C15.27 0.79, 17.02 1.91, 18.21 3.95 C19.41 6, 20.38 10.3, 20.21 12.68 C20.04 15.05, 18.75 16.71, 17.21 18.21 C15.67 19.71, 13.16 21.23, 10.97 21.69 C8.79 22.16, 6.02 22.26, 4.11 21.01 C2.2 19.76, 0.08 16.57, -0.5 14.19 C-1.07 11.8, -0.64 9.06, 0.64 6.69 C1.92 4.33, 5.79 0.91, 7.2 0 C8.6 -0.91, 8.95 0.87, 9.06 1.24 M9.48 -1.38 C11.77 -1.78, 14.66 0.52, 16.53 2.12 C18.39 3.72, 20.31 5.72, 20.65 8.21 C20.99 10.69, 19.66 14.89, 18.57 17.03 C17.47 19.17, 15.77 20.05, 14.08 21.06 C12.38 22.07, 10.24 23.41, 8.4 23.08 C6.56 22.75, 4.31 21.48, 3.02 19.08 C1.73 16.67, 0.84 11.37, 0.66 8.66 C0.48 5.95, 0.29 4.34, 1.94 2.81 C3.6 1.28, 9.21 -0.2, 10.59 -0.52 C11.96 -0.83, 10.38 0.6, 10.21 0.94" stroke="none" stroke-width="0" fill="#ffffff"></path><path d="M11.65 0.61 C13.7 0.64, 16.1 2.26, 17.54 4.06 C18.98 5.85, 20.13 9.12, 20.3 11.38 C20.46 13.65, 19.92 15.87, 18.54 17.66 C17.15 19.46, 14.09 21.67, 11.99 22.14 C9.89 22.62, 7.64 21.62, 5.93 20.52 C4.22 19.42, 2.7 17.72, 1.73 15.56 C0.77 13.4, -0.24 9.69, 0.16 7.58 C0.56 5.47, 2.06 4, 4.15 2.91 C6.23 1.82, 11.12 1.3, 12.68 1.04 C14.24 0.78, 13.69 1.33, 13.51 1.33 M11.37 -0.34 C13.81 0.14, 18.14 2.6, 19.62 4.75 C21.1 6.9, 20.46 10.41, 20.27 12.56 C20.07 14.71, 20.01 15.9, 18.45 17.67 C16.89 19.43, 13 22.35, 10.91 23.14 C8.82 23.93, 7.42 23.78, 5.93 22.4 C4.44 21.02, 2.85 17.46, 1.96 14.86 C1.08 12.26, -0.16 9.13, 0.63 6.83 C1.41 4.52, 4.69 2.3, 6.65 1.02 C8.61 -0.26, 11.56 -0.64, 12.39 -0.88 C13.22 -1.12, 11.91 -0.71, 11.64 -0.42" stroke="#000000" stroke-width="1" fill="none"></path></g><g stroke-linecap="round" transform="translate(191.36801390595747 2400.88047536383) rotate(0 11.66094205729155 12.72565520984881)"><path d="M10.57 0.43 C12.76 0.02, 16.13 0.25, 18.07 1.58 C20.02 2.92, 21.39 5.88, 22.25 8.43 C23.1 10.98, 24.21 14.39, 23.2 16.88 C22.19 19.37, 18.69 22.09, 16.19 23.37 C13.7 24.64, 10.52 25.17, 8.25 24.53 C5.98 23.88, 4.03 21.58, 2.58 19.49 C1.14 17.39, -0.48 14.53, -0.43 11.95 C-0.38 9.37, 1.12 5.98, 2.88 3.99 C4.64 2, 8.62 0.62, 10.15 0.03 C11.68 -0.56, 11.86 0.27, 12.06 0.46 M5.89 0.95 C7.93 -0.09, 12.66 0.18, 15.2 0.84 C17.74 1.49, 19.69 2.68, 21.14 4.88 C22.59 7.08, 24.3 10.99, 23.92 14.03 C23.54 17.07, 20.68 21, 18.85 23.11 C17.02 25.23, 15.11 26.68, 12.96 26.72 C10.81 26.76, 8.3 25.45, 5.95 23.35 C3.59 21.25, -0.35 16.73, -1.17 14.12 C-1.99 11.5, -0.29 9.76, 1.03 7.65 C2.35 5.54, 5.58 2.55, 6.76 1.44 C7.93 0.33, 7.85 1.07, 8.07 1" stroke="none" stroke-width="0" fill="#ffffff"></path><path d="M12.86 -0.22 C15.19 -0.35, 18.41 1.17, 20.3 3.04 C22.18 4.9, 24.02 8.34, 24.17 10.95 C24.32 13.57, 22.72 16.4, 21.18 18.74 C19.63 21.07, 17.42 23.87, 14.9 24.95 C12.38 26.04, 8.42 26.35, 6.07 25.23 C3.73 24.12, 1.9 20.88, 0.83 18.25 C-0.25 15.62, -1.18 12.06, -0.38 9.46 C0.41 6.85, 2.99 4.18, 5.6 2.64 C8.21 1.1, 13.38 0.55, 15.28 0.23 C17.17 -0.1, 17.21 0.39, 16.98 0.68 M8.31 1.66 C10.79 0.94, 14.9 -0.2, 17.44 0.81 C19.97 1.82, 22.77 5.34, 23.51 7.7 C24.26 10.07, 22.7 12.27, 21.92 15 C21.15 17.72, 20.56 22.09, 18.86 24.04 C17.17 26, 14.41 27.15, 11.76 26.73 C9.12 26.32, 5.05 23.51, 2.99 21.56 C0.94 19.62, -0.34 17.75, -0.55 15.06 C-0.76 12.37, 0.36 7.98, 1.74 5.44 C3.13 2.91, 6.72 0.86, 7.77 -0.15 C8.83 -1.16, 7.91 -1.03, 8.06 -0.62" stroke="#000000" stroke-width="1" fill="none"></path></g><g stroke-linecap="round" transform="translate(130.52426390595747 2362.5505357835277) rotate(0 37.66796875 37.66796875)"><path d="M39.3 0.84 C46.27 0.68, 55.07 3.28, 60.76 7.68 C66.44 12.08, 71.53 19.92, 73.43 27.23 C75.33 34.54, 74.88 44.58, 72.16 51.52 C69.43 58.47, 63.22 64.98, 57.09 68.91 C50.95 72.83, 42.58 75.5, 35.35 75.07 C28.12 74.64, 19.41 70.81, 13.72 66.33 C8.03 61.85, 3.05 55.12, 1.22 48.18 C-0.61 41.23, 0.1 31.82, 2.76 24.66 C5.42 17.5, 9.8 9.17, 17.16 5.22 C24.53 1.26, 41.17 1.13, 46.93 0.92 C52.7 0.71, 51.96 3.31, 51.75 3.96 M32.05 -0.26 C39.26 -1.69, 49.57 1.52, 56.36 5.35 C63.16 9.18, 69.68 16.46, 72.84 22.71 C76 28.97, 77.06 35.91, 75.34 42.88 C73.62 49.84, 67.78 59.24, 62.51 64.5 C57.24 69.76, 50.73 73.26, 43.71 74.44 C36.7 75.62, 27.1 74.9, 20.41 71.57 C13.73 68.24, 7.1 61.46, 3.61 54.47 C0.12 47.49, -2.01 37.01, -0.53 29.64 C0.95 22.28, 6.74 15.11, 12.48 10.29 C18.23 5.47, 30.65 2.39, 33.94 0.73 C37.24 -0.93, 32.5 -0.28, 32.26 0.33" stroke="none" stroke-width="0" fill="#ffffff"></path><path d="M54.61 4.8 C60.97 7.61, 67.53 15.15, 70.86 21.58 C74.19 28.01, 75.86 36.3, 74.6 43.41 C73.33 50.52, 68.46 59.15, 63.28 64.23 C58.1 69.31, 50.52 72.8, 43.52 73.89 C36.52 74.98, 27.91 74.08, 21.29 70.76 C14.68 67.45, 7.38 60.36, 3.84 54 C0.31 47.64, -1.12 39.66, 0.11 32.62 C1.34 25.58, 5.93 17.03, 11.2 11.75 C16.47 6.47, 23.77 1.79, 31.71 0.95 C39.65 0.11, 53.5 5.09, 58.82 6.69 C64.14 8.3, 63.94 10.11, 63.63 10.58 M30.72 1.77 C37.35 -0.21, 47.9 -0.27, 54.4 2.89 C60.9 6.04, 66.18 13.81, 69.73 20.71 C73.29 27.61, 76.35 37.13, 75.74 44.28 C75.13 51.43, 71.34 58.6, 66.07 63.59 C60.81 68.58, 51.39 72.95, 44.14 74.19 C36.88 75.43, 29.13 74.35, 22.53 71.02 C15.94 67.7, 8.34 60.82, 4.56 54.24 C0.78 47.66, -0.95 38.74, -0.15 31.54 C0.65 24.34, 4.03 16.18, 9.36 11.03 C14.7 5.89, 28.44 2.35, 31.86 0.67 C35.28 -1.02, 29.66 0.55, 29.9 0.92" stroke="#000000" stroke-width="1" fill="none"></path></g><g transform="translate(92.69223265595747 2455.652868530007) rotate(0 78.5 9.5)"><text x="157" y="15" font-family="Cascadia, Segoe UI Emoji" font-size="15.656910211267617px" fill="#000000" text-anchor="end" style="white-space: pre;" direction="ltr">Software Engineer</text></g><g transform="translate(68.88204747077225 2499.453878290629) rotate(0 103.5 45)"><text x="103.5" y="12" font-family="Helvetica, Segoe UI Emoji" font-size="13.083791473765428px" fill="#495057" text-anchor="middle" style="white-space: pre;" direction="ltr">In publishing and graphic design, </text><text x="103.5" y="27" font-family="Helvetica, Segoe UI Emoji" font-size="13.083791473765428px" fill="#495057" text-anchor="middle" style="white-space: pre;" direction="ltr">Lorem ipsum is a placeholder </text><text x="103.5" y="42" font-family="Helvetica, Segoe UI Emoji" font-size="13.083791473765428px" fill="#495057" text-anchor="middle" style="white-space: pre;" direction="ltr">text commonly used to demonstrate</text><text x="103.5" y="57" font-family="Helvetica, Segoe UI Emoji" font-size="13.083791473765428px" fill="#495057" text-anchor="middle" style="white-space: pre;" direction="ltr">the visual form of a document</text><text x="103.5" y="72" font-family="Helvetica, Segoe UI Emoji" font-size="13.083791473765428px" fill="#495057" text-anchor="middle" style="white-space: pre;" direction="ltr"> or a typeface without relying</text><text x="103.5" y="87" font-family="Helvetica, Segoe UI Emoji" font-size="13.083791473765428px" fill="#495057" text-anchor="middle" style="white-space: pre;" direction="ltr"> on meaningful content. </text></g><g stroke-linecap="round"><g transform="translate(50.46957640595747 2614.3474107835277) rotate(0 120.73299154346068 0.07426654620485351)"><path d="M0.92 -0.4 C75.98 -1.21, 151.32 -0.97, 240.3 -1.59 M0.67 -0.36 C68.82 1.43, 137.7 2.78, 240.79 0.65" stroke="#495057" stroke-width="1" fill="none"></path></g></g><mask></mask><g transform="translate(70.57591321151403 2717.9136542731117) rotate(0 73 45)"><text x="0" y="14" font-family="Helvetica, Segoe UI Emoji" font-size="16px" fill="#495057" text-anchor="start" style="white-space: pre;" direction="ltr">Currently:</text><text x="0" y="32" font-family="Helvetica, Segoe UI Emoji" font-size="16px" fill="#495057" text-anchor="start" style="white-space: pre;" direction="ltr"></text><text x="0" y="50" font-family="Helvetica, Segoe UI Emoji" font-size="16px" fill="#495057" text-anchor="start" style="white-space: pre;" direction="ltr">• open for work</text><text x="0" y="68" font-family="Helvetica, Segoe UI Emoji" font-size="16px" fill="#495057" text-anchor="start" style="white-space: pre;" direction="ltr">• working on this site</text><text x="0" y="86" font-family="Helvetica, Segoe UI Emoji" font-size="16px" fill="#495057" text-anchor="start" style="white-space: pre;" direction="ltr">• learning astro</text></g><g stroke-linecap="round"><g transform="translate(49.720064181490216 2695.9795745685165) rotate(0 120.19724627462506 0.2480583107367238)"><path d="M1.09 -0.68 C80.14 0.04, 156.77 -1.11, 240.49 0.08 M-0.18 -0.57 C47.87 1.63, 96.44 1.51, 240.58 0.42" stroke="#495057" stroke-width="1" fill="none"></path></g></g><mask></mask><g transform="translate(66.72999307262353 2638.366039818378) rotate(0 99.5 16)"><text x="0" y="13" font-family="Helvetica, Segoe UI Emoji" font-size="14.342436604557081px" fill="#495057" text-anchor="start" style="white-space: pre;" direction="ltr">#Coded, #Documented, #Tag1,</text><text x="0" y="29" font-family="Helvetica, Segoe UI Emoji" font-size="14.342436604557081px" fill="#495057" text-anchor="start" style="white-space: pre;" direction="ltr">#Highlight, more...</text></g><g transform="translate(57.822322988497035 2265.259136658224) rotate(0 60.5 9)"><text x="0" y="14" font-family="Helvetica, Segoe UI Emoji" font-size="16px" fill="#343a40" text-anchor="start" style="white-space: pre;" direction="ltr">:: card :: persona</text></g></svg>