<svg version="1.1" xmlns="http://www.w3.org/2000/svg" viewBox="0 0 1240.3885398109487 1678.6147026870444" width="2480.7770796218974" height="3357.229405374089">
  <!-- svg-source:excalidraw -->
  
  <defs>
    <style class="style-fonts">
      @font-face {
        font-family: "Virgil";
        src: url("https://excalidraw.com/Virgil.woff2");
      }
      @font-face {
        font-family: "Cascadia";
        src: url("https://excalidraw.com/Cascadia.woff2");
      }
    </style>
  </defs>
  <rect x="0" y="0" width="1240.3885398109487" height="1678.6147026870444" fill="#ffffff"></rect><g transform="translate(165.26904882845156 10) rotate(0 232.5 21.5)"><text x="0" y="35" font-family="Cascadia, Segoe UI Emoji" font-size="36px" fill="#343a40" text-anchor="start" style="white-space: pre;" direction="ltr">media_grid dialog view</text></g><g stroke-linecap="round" transform="translate(10 128.3997212841582) rotate(0 424.3335309634299 369.91911894176883)"><path d="M-0.87 0.39 L848.4 -0.61 L847.76 738.76 L-0.23 738.63" stroke="none" stroke-width="0" fill="#ced4da"></path><path d="M0.61 0.72 C251.1 1.7, 502.93 2, 848.13 -0.34 M0.31 -0.29 C312.96 -0.11, 626.28 -0.28, 848.45 -0.12 M849.38 -0.45 C846.13 210.17, 845.97 422.18, 849.08 739.43 M848.83 0.39 C845.72 158.71, 846.08 318.11, 848.47 739.7 M848.81 739.68 C561.07 742.74, 272.68 742.54, 0.22 739.97 M849.02 739.71 C615.08 741.69, 381.06 741.62, -0.03 740.07 M0.21 739.04 C1.08 551.09, 1.14 361.58, 0.25 0.07 M-0.24 740 C-0.86 448.38, -1.4 156.48, 0.17 -0.37" stroke="#000000" stroke-width="1" fill="none"></path></g><g stroke-linecap="round" transform="translate(861.3383219996076 126.0644687677327) rotate(0 179.06682695191967 372.32997315836565)"><path d="M1.27 -1.56 L359.92 1.2 L359.06 745.78 L-1.57 744.48" stroke="none" stroke-width="0" fill="#fff"></path><path d="M0.85 1.15 C81.27 -1.97, 163.4 -0.18, 358.35 -0.39 M0.58 -0.26 C98.42 -1.11, 196.82 -1.16, 357.66 -0.24 M357.4 -0.64 C355.66 205.97, 356.36 409.82, 358.68 743.97 M357.86 0.25 C357.8 161.65, 358.09 323.8, 358.29 744.78 M357.61 743.66 C217.65 747.2, 79.94 745.17, -0.55 743.88 M358.75 744.27 C227.18 744.79, 97.03 745.12, 0.59 744.68 M-0.79 744.64 C0.22 558.2, 0.18 372.22, -0.16 0.4 M-0.21 744.32 C-0.16 464.09, -0.13 183.16, 0 -0.14" stroke="#000000" stroke-width="1" fill="none"></path></g><g stroke-linecap="round" transform="translate(883.0500929628961 152.08992297806572) rotate(0 12.655439598362136 12.655439598361909)"><path d="M14.92 0.09 C17.38 0.26, 19.2 2.31, 20.95 4.3 C22.71 6.28, 25.04 9.25, 25.46 11.99 C25.88 14.73, 25.11 18.54, 23.49 20.74 C21.86 22.93, 18.53 24.52, 15.71 25.15 C12.89 25.78, 9.13 25.59, 6.55 24.5 C3.97 23.42, 1.39 21.13, 0.23 18.66 C-0.93 16.19, -1.44 12.57, -0.42 9.67 C0.6 6.78, 3.88 2.74, 6.35 1.28 C8.83 -0.18, 13 0.93, 14.41 0.93 C15.83 0.93, 14.79 1.26, 14.83 1.27 M7.58 -0.22 C10.29 -1.23, 16.05 -0.56, 18.77 0.58 C21.5 1.71, 23.06 4.08, 23.93 6.57 C24.81 9.06, 24.47 12.87, 24.01 15.52 C23.55 18.18, 23.29 20.8, 21.17 22.51 C19.04 24.22, 14.2 25.9, 11.28 25.79 C8.36 25.68, 5.62 23.99, 3.65 21.86 C1.69 19.73, -0.22 15.64, -0.52 13.01 C-0.81 10.37, 0.08 8.27, 1.88 6.03 C3.67 3.79, 9.07 0.66, 10.26 -0.44 C11.44 -1.54, 8.96 -1.06, 8.99 -0.56" stroke="none" stroke-width="0" fill="#fff"></path><path d="M12.4 -0.86 C14.99 -0.98, 18.93 0.63, 21.1 2.67 C23.26 4.72, 24.83 8.81, 25.39 11.41 C25.96 14.02, 25.92 15.98, 24.47 18.32 C23.02 20.65, 19.44 24.55, 16.69 25.43 C13.95 26.31, 10.44 24.75, 7.98 23.61 C5.53 22.47, 3.18 20.72, 1.99 18.57 C0.8 16.42, 0.27 13.35, 0.84 10.72 C1.4 8.09, 3.09 4.61, 5.37 2.8 C7.65 1, 12.99 0.38, 14.52 -0.11 C16.05 -0.61, 14.82 -0.28, 14.56 -0.18 M14.22 -0.26 C16.95 -0.15, 22.07 1.74, 23.82 4.21 C25.57 6.68, 24.9 11.87, 24.72 14.56 C24.53 17.26, 24.55 18.74, 22.7 20.37 C20.86 22, 16.59 23.72, 13.63 24.32 C10.67 24.92, 6.92 25.51, 4.96 23.97 C2.99 22.43, 2.57 17.88, 1.83 15.09 C1.09 12.3, -0.52 9.63, 0.5 7.24 C1.52 4.84, 5.33 1.81, 7.94 0.73 C10.56 -0.35, 15.17 0.54, 16.19 0.74 C17.22 0.95, 14.47 1.62, 14.1 1.96" stroke="#000000" stroke-width="1" fill="none"></path></g><g transform="translate(918.744003285321 153.92115699872647) rotate(0 93.50338870985024 10.585289287907472)"><text x="93.50338870985024" y="17.170578575815156" font-family="Cascadia, Segoe UI Emoji" font-size="17.64214881317929px" fill="#000000" text-anchor="middle" style="white-space: pre;" direction="ltr">Software Developer</text></g><g transform="translate(882.783181474023 192.7757672494513) rotate(0 159 30)"><text x="0" y="12" font-family="Helvetica, Segoe UI Emoji" font-size="13.370703659955145px" fill="#000000" text-anchor="start" style="white-space: pre;" direction="ltr">In publishing and graphic design, Lorem ipsum is</text><text x="0" y="27" font-family="Helvetica, Segoe UI Emoji" font-size="13.370703659955145px" fill="#000000" text-anchor="start" style="white-space: pre;" direction="ltr">a placeholder text commonly used to demonstrate the</text><text x="0" y="42" font-family="Helvetica, Segoe UI Emoji" font-size="13.370703659955145px" fill="#000000" text-anchor="start" style="white-space: pre;" direction="ltr">visual form of a document  or a typeface without</text><text x="0" y="57" font-family="Helvetica, Segoe UI Emoji" font-size="13.370703659955145px" fill="#000000" text-anchor="start" style="white-space: pre;" direction="ltr">relying  on meaningful content. </text></g><g stroke-linecap="round"><g transform="translate(861.0759351377383 286.41724092993763) rotate(0 178.84697566994828 -0.4676307760744294)"><path d="M0.33 0.38 C102.21 -2.1, 206.21 -1.53, 357.69 0.04 M-0.28 0.2 C137.02 0.31, 273.23 0.49, 357.98 -0.42" stroke="#000000" stroke-width="1" fill="none"></path></g></g><mask></mask><g transform="translate(903.2558378431049 485.198213677289) rotate(0 5 9)"><text x="0" y="14" font-family="Helvetica, Segoe UI Emoji" font-size="16px" fill="#000000" text-anchor="start" style="white-space: pre;" direction="ltr">3</text></g><g transform="translate(885.0296494817103 483.0812310089573) rotate(0 9.443688034406478 11.160722222480217)"><text x="0" y="17.321444444960434" font-family="Helvetica, Segoe UI Emoji" font-size="13.736273504591031px" fill="#000000" text-anchor="start" style="white-space: pre;" direction="ltr">❤️</text></g><g stroke-linecap="round" transform="translate(883.7066322349847 301.37228503112374) rotate(0 12.655439598362136 12.655439598362136)"><path d="M10.22 0.15 C12.72 -0.47, 15.59 0.79, 18.11 2 C20.64 3.21, 24.32 4.82, 25.36 7.38 C26.41 9.95, 25.56 14.52, 24.38 17.39 C23.2 20.25, 20.58 23.18, 18.3 24.57 C16.01 25.95, 13.23 26.27, 10.66 25.67 C8.08 25.07, 4.64 23.01, 2.83 20.95 C1.02 18.9, -0.26 15.94, -0.18 13.33 C-0.11 10.72, 1.28 7.55, 3.26 5.3 C5.24 3.04, 9.98 0.74, 11.7 -0.19 C13.43 -1.12, 13.47 -0.68, 13.6 -0.26 M13.38 -0.42 C16.03 -0.29, 20.01 2.07, 22.1 3.96 C24.2 5.84, 25.48 8.33, 25.95 10.9 C26.42 13.46, 26.27 16.95, 24.91 19.33 C23.54 21.71, 20.66 24.12, 17.77 25.2 C14.87 26.28, 10.29 26.83, 7.55 25.79 C4.81 24.75, 2.74 21.31, 1.34 18.94 C-0.06 16.56, -1.58 13.98, -0.86 11.54 C-0.13 9.09, 3.57 5.99, 5.7 4.28 C7.83 2.57, 10.72 1.88, 11.93 1.3 C13.14 0.72, 12.63 0.82, 12.97 0.81" stroke="none" stroke-width="0" fill="#fff"></path><path d="M10.31 0.34 C13.01 -0.16, 17.62 1.17, 19.95 2.68 C22.29 4.19, 23.56 7.08, 24.32 9.39 C25.08 11.71, 25.56 14.11, 24.51 16.57 C23.47 19.04, 20.39 22.82, 18.03 24.2 C15.67 25.59, 12.96 25.4, 10.35 24.89 C7.74 24.38, 4.07 23.2, 2.37 21.13 C0.68 19.07, 0.24 15.28, 0.2 12.49 C0.16 9.7, 0.29 6.63, 2.15 4.4 C4 2.17, 9.37 -0.31, 11.33 -0.89 C13.29 -1.46, 13.7 0.62, 13.92 0.96 M18.54 2.39 C21.16 3.38, 23.58 4.52, 24.43 6.59 C25.28 8.65, 24.27 12.31, 23.64 14.79 C23.02 17.28, 22.9 19.83, 20.68 21.5 C18.46 23.16, 13.2 24.81, 10.33 24.79 C7.46 24.78, 5.27 23.17, 3.44 21.4 C1.6 19.64, -0.41 16.95, -0.69 14.22 C-0.96 11.48, -0.1 7.42, 1.77 4.99 C3.65 2.56, 7.76 0.49, 10.57 -0.36 C13.38 -1.22, 17.47 -0.25, 18.62 -0.14 C19.77 -0.04, 17.75 -0.33, 17.47 0.26" stroke="#000000" stroke-width="1" fill="none"></path></g><g transform="translate(917.8405292127045 303.56744540003956) rotate(0 83 10.5)"><text x="83" y="17" font-family="Cascadia, Segoe UI Emoji" font-size="17.64214881317929px" fill="#000000" text-anchor="middle" style="white-space: pre;" direction="ltr">Robert Lawerence</text></g><g transform="translate(882.3842879629683 336.67284731049267) rotate(0 159 30)"><text x="0" y="12" font-family="Helvetica, Segoe UI Emoji" font-size="13.370703659955145px" fill="#000000" text-anchor="start" style="white-space: pre;" direction="ltr">In publishing and graphic design, Lorem ipsum is</text><text x="0" y="27" font-family="Helvetica, Segoe UI Emoji" font-size="13.370703659955145px" fill="#000000" text-anchor="start" style="white-space: pre;" direction="ltr">a placeholder text commonly used to demonstrate the</text><text x="0" y="42" font-family="Helvetica, Segoe UI Emoji" font-size="13.370703659955145px" fill="#000000" text-anchor="start" style="white-space: pre;" direction="ltr">visual form of a document  or a typeface without</text><text x="0" y="57" font-family="Helvetica, Segoe UI Emoji" font-size="13.370703659955145px" fill="#000000" text-anchor="start" style="white-space: pre;" direction="ltr">relying  on meaningful content. </text></g><g transform="translate(885.0434652835311 263.29455252508114) rotate(0 12.5 7)"><text x="0" y="11" font-family="Cascadia, Segoe UI Emoji" font-size="11.652525933349075px" fill="#666" text-anchor="start" style="white-space: pre;" direction="ltr">❤ 0</text></g><g transform="translate(882.5978826042438 411.8933813319495) rotate(0 159 30)"><text x="0" y="12" font-family="Helvetica, Segoe UI Emoji" font-size="13.370703659955145px" fill="#000000" text-anchor="start" style="white-space: pre;" direction="ltr">In publishing and graphic design, Lorem ipsum is</text><text x="0" y="27" font-family="Helvetica, Segoe UI Emoji" font-size="13.370703659955145px" fill="#000000" text-anchor="start" style="white-space: pre;" direction="ltr">a placeholder text commonly used to demonstrate the</text><text x="0" y="42" font-family="Helvetica, Segoe UI Emoji" font-size="13.370703659955145px" fill="#000000" text-anchor="start" style="white-space: pre;" direction="ltr">visual form of a document  or a typeface without</text><text x="0" y="57" font-family="Helvetica, Segoe UI Emoji" font-size="13.370703659955145px" fill="#000000" text-anchor="start" style="white-space: pre;" direction="ltr">relying  on meaningful content. </text></g><g stroke-linecap="round"><g transform="translate(859.8712058011652 510.3033485365063) rotate(0 179.28241416088758 0.20793670582861523)"><path d="M0.66 1.27 C95.95 -1.64, 191.38 -1.48, 358.98 1.22 M-0.41 0.51 C101.56 1.33, 202.94 1.01, 357.91 -0.54" stroke="#000000" stroke-width="1" fill="none"></path></g></g><mask></mask><g stroke-linecap="round" transform="translate(885.0573820859217 521.6090531282575) rotate(0 12.655439598362136 12.655439598362136)"><path d="M15.77 0.56 C18.5 1, 22.38 2.75, 23.95 5.07 C25.52 7.39, 25.54 11.63, 25.21 14.49 C24.87 17.35, 23.86 20.49, 21.92 22.23 C19.98 23.96, 16.43 24.83, 13.56 24.91 C10.69 25, 6.78 24.25, 4.69 22.73 C2.59 21.2, 1.37 18.53, 0.98 15.78 C0.59 13.03, 1.22 8.8, 2.34 6.21 C3.45 3.62, 5.2 1.04, 7.66 0.22 C10.12 -0.59, 15.24 0.95, 17.1 1.32 C18.97 1.68, 18.88 2.13, 18.87 2.42 M7.72 2.52 C9.81 1.34, 11.63 1.2, 14.28 1.8 C16.93 2.39, 21.69 3.97, 23.62 6.1 C25.55 8.23, 26.23 12.19, 25.86 14.58 C25.5 16.98, 23.22 18.54, 21.42 20.47 C19.61 22.4, 17.43 25.62, 15.03 26.18 C12.62 26.74, 9.5 25.63, 6.99 23.8 C4.48 21.98, 0.95 17.79, -0.04 15.23 C-1.03 12.67, -0.32 10.6, 1.06 8.45 C2.45 6.31, 7.45 3.63, 8.28 2.33 C9.11 1.04, 6.05 0.49, 6.03 0.66" stroke="none" stroke-width="0" fill="#fff"></path><path d="M9.23 1.01 C11.77 0.19, 16.2 -0.24, 18.54 0.78 C20.88 1.8, 22.28 4.73, 23.29 7.13 C24.3 9.52, 25.02 12.47, 24.61 15.14 C24.19 17.81, 22.83 21.46, 20.81 23.15 C18.79 24.84, 15.4 25.36, 12.48 25.27 C9.55 25.18, 5.19 24.41, 3.26 22.62 C1.33 20.84, 1.21 17.4, 0.88 14.55 C0.55 11.71, -0.22 7.99, 1.26 5.53 C2.75 3.06, 8.15 0.7, 9.81 -0.24 C11.47 -1.19, 10.95 -0.43, 11.22 -0.15 M14.41 -1.01 C16.65 -0.44, 19.43 2.81, 21.4 5.13 C23.37 7.45, 25.87 10.43, 26.21 12.9 C26.55 15.37, 25.31 17.72, 23.43 19.94 C21.56 22.17, 17.9 25.87, 14.95 26.22 C12 26.58, 8.2 23.8, 5.75 22.08 C3.31 20.36, 1.23 18.24, 0.27 15.92 C-0.7 13.6, -1.02 10.56, -0.03 8.14 C0.96 5.72, 3.92 2.76, 6.19 1.42 C8.46 0.08, 12.31 0.11, 13.6 0.1 C14.89 0.08, 13.65 0.93, 13.93 1.35" stroke="#000000" stroke-width="1" fill="none"></path></g><g transform="translate(920.8941329883783 523.5706645640689) rotate(0 42 10.5)"><text x="42" y="17" font-family="Cascadia, Segoe UI Emoji" font-size="17.64214881317929px" fill="#000000" text-anchor="middle" style="white-space: pre;" direction="ltr">John Doe</text></g><g transform="translate(883.7350378139063 556.9096154076256) rotate(0 7 7.5)"><text x="0" y="12" font-family="Helvetica, Segoe UI Emoji" font-size="13.370703659955145px" fill="#000000" text-anchor="start" style="white-space: pre;" direction="ltr">lol</text></g><g stroke-linecap="round"><g transform="translate(859.9671407335991 597.3858925555737) rotate(0 179.06327169173846 0.4398040428618515)"><path d="M1.27 0.37 C117.62 1.66, 232.35 0.95, 357.93 -0.18 M0.19 0.49 C100.7 0.96, 200.17 0.89, 357.15 0.6" stroke="#000000" stroke-width="1" fill="none"></path></g></g><mask></mask><g transform="translate(903.8783498018074 573.9826219853107) rotate(0 5 9)"><text x="0" y="14" font-family="Helvetica, Segoe UI Emoji" font-size="16px" fill="#000000" text-anchor="start" style="white-space: pre;" direction="ltr">3</text></g><g transform="translate(885.6521614404137 571.8656393169799) rotate(0 9.443688034406478 11.160722222480217)"><text x="0" y="17.321444444960434" font-family="Helvetica, Segoe UI Emoji" font-size="13.736273504591031px" fill="#000000" text-anchor="start" style="white-space: pre;" direction="ltr">❤️</text></g><g transform="translate(1171.4152549243472 579.2247395060945) rotate(0 11.789720930666135 5.89486046533284)"><text x="0" y="9.789720930666135" font-family="Helvetica, Segoe UI Emoji" font-size="10.509124319833838px" fill="#000000" text-anchor="start" style="white-space: pre;" direction="ltr">reply</text></g><g transform="translate(1172.6031377598756 266.0130503917294) rotate(0 11.789720930666135 5.894860465333068)"><text x="0" y="9.789720930666135" font-family="Helvetica, Segoe UI Emoji" font-size="10.509124319833838px" fill="#000000" text-anchor="start" style="white-space: pre;" direction="ltr">reply</text></g><g transform="translate(1171.4326469931766 489.51556869478964) rotate(0 11.789720930666135 5.894860465333295)"><text x="0" y="9.789720930666135" font-family="Helvetica, Segoe UI Emoji" font-size="10.509124319833838px" fill="#000000" text-anchor="start" style="white-space: pre;" direction="ltr">reply</text></g><g transform="translate(1096.7502718758815 309.92355835036005) rotate(0 16.994108326327932 4.63475681627142)"><text x="0" y="7.269513632542482" font-family="Helvetica, Segoe UI Emoji" font-size="8.262661323509324px" fill="#000000" text-anchor="start" style="white-space: pre;" direction="ltr">audience</text></g><g stroke-linecap="round" transform="translate(1093.7202282413946 308.13312813958555) rotate(0 20.957519484462864 6.765664436624775)"><path d="M0.48 -1.65 C10.84 -1.41, 23.13 -0.13, 40.68 1.73 M-0.56 0.21 C8.82 -0.23, 17.69 0.07, 42.81 -0.24 M42.42 1.05 C43.14 4.26, 41.93 6.75, 42.51 13.76 M41.62 0.47 C42.06 2.97, 41.65 6.97, 42.22 13.5 M42.02 15.2 C31.22 15.01, 19.02 13.16, -0.75 14.37 M42.86 13.94 C26.86 12.89, 10.17 14.1, -0.17 13.02 M-1.08 14.59 C0.35 9.26, -0.6 5.89, 0.57 -1.26 M0.49 13.29 C0.32 9.95, -0.53 5.72, -0.51 -0.13" stroke="#000000" stroke-width="1" fill="none"></path></g><g transform="translate(1015.9814088307676 530.011495711215) rotate(0 16.994108326327932 4.63475681627142)"><text x="0" y="7.269513632542482" font-family="Helvetica, Segoe UI Emoji" font-size="8.262661323509324px" fill="#000000" text-anchor="start" style="white-space: pre;" direction="ltr">audience</text></g><g stroke-linecap="round" transform="translate(1012.9513651962816 528.2210655004405) rotate(0 20.957519484462864 6.765664436624775)"><path d="M-0.23 -0.67 C12.01 -0.62, 28.05 -0.75, 43.23 -0.04 M0.77 0.65 C15.92 0.22, 31.45 0.17, 41.55 -0.15 M42.94 0.06 C43.28 5.41, 40.71 7.64, 41.38 12.83 M41.27 -0.56 C42.03 4.07, 42.14 8.98, 41.52 13.47 M43.29 15.49 C34.99 15.44, 24.16 11.87, 1.76 12.82 M42.66 13.18 C27.43 14.34, 12.23 14.43, 0.61 14.43 M0.74 13.87 C-0.49 7.66, -0.32 5.15, 0.39 -0.67 M0.37 12.88 C-0.45 8.51, -0.29 2.83, -0.25 0.08" stroke="#000000" stroke-width="1" fill="none"></path></g><g stroke-linecap="round"><g transform="translate(861.3912790417571 825.6913043549916) rotate(0 178.78245960585218 0.3726225138175323)"><path d="M0.49 0.75 C87.02 2.16, 173.47 1.51, 357.03 0.38 M-0.56 0.05 C130.83 -1, 261.02 -1.38, 358.13 0.62" stroke="#000000" stroke-width="1" fill="none"></path></g></g><mask></mask><g transform="translate(880.3272729724649 841.8948770370012) rotate(0 39.18918147117756 7.198012923277474)"><text x="0" y="11.396025846555027" font-family="Helvetica, Segoe UI Emoji" font-size="12.796467419160022px" fill="#495057" text-anchor="start" style="white-space: pre;" direction="ltr">add comment</text></g><g stroke-linecap="round" transform="translate(1133.4653446634038 836.6334410152217) rotate(0 34 12)"><path d="M7.75 0.73 L66.51 -0.91 L67.32 1.7 L67.39 20.15 L67.62 22.45 L60.58 22.54 L1.4 24.86 L2.11 21.32 L-0.28 7.95 L0.48 -0.4 L4.89 0.01" stroke="none" stroke-width="0" fill="#868e96"></path><path d="M6 0 M6 0 C25.48 -1.94, 40.77 0.63, 62 0 M6 0 C19.14 -0.07, 31.13 0.26, 62 0 M62 0 C66.83 -0.24, 66.04 0.13, 68 6 M62 0 C64.29 1.09, 67.89 4.08, 68 6 M68 6 C69.1 10.28, 67.38 13.19, 68 18 M68 6 C68.03 9.66, 67.55 12.15, 68 18 M68 18 C67.97 22.93, 64.8 24.58, 62 24 M68 18 C68.26 23.4, 67.16 23.28, 62 24 M62 24 C48.47 25.21, 38.04 23.14, 6 24 M62 24 C49.11 25.29, 34.68 25.25, 6 24 M6 24 C3.75 25.59, -1.87 21.92, 0 18 M6 24 C2.83 22.68, 0.23 22.01, 0 18 M0 18 C0.62 16.13, -0.97 14.07, 0 6 M0 18 C0.02 15.36, -0.33 12.11, 0 6 M0 6 C1.21 0.27, 0.9 0.64, 6 0 M0 6 C-0.41 2.38, 2.99 0.29, 6 0" stroke="#495057" stroke-width="1" fill="none"></path></g><g transform="translate(1154.9653446634038 841.6334410152217) rotate(0 12.5 7)"><text x="12.5" y="11" font-family="Helvetica, Segoe UI Emoji" font-size="11.117373809570209px" fill="#fff" text-anchor="middle" style="white-space: pre;" direction="ltr">send</text></g><g stroke-linecap="round" transform="translate(21.09951688842284 926.1094631818837) rotate(0 424.3335309634299 369.91911894176883)"><path d="M-1.6 -1.59 L847.33 0.83 L848.61 741.4 L-1.91 739.96" stroke="none" stroke-width="0" fill="#ced4da"></path><path d="M0.51 -0.8 C267.93 3.71, 534.05 3.25, 849.09 -0.57 M-0.09 -0.31 C233.69 0.86, 466.9 0.35, 849 -0.21 M848.06 0.35 C848.25 233.66, 847.62 467.96, 848.66 739.91 M848.75 0.15 C849.83 240.52, 849.7 480.8, 848.52 739.82 M848.01 739.93 C553.29 738.03, 259.24 737.67, -0.31 739.97 M848.86 740.16 C563.52 739.32, 277.98 739.16, 0.38 740.11 M-0.52 739.97 C2.69 452, 3.01 163.38, 0.33 -0.26 M0.28 739.82 C-1.05 577.85, -1.13 415.7, 0.37 0.27" stroke="#000000" stroke-width="1" fill="none"></path></g><g stroke-linecap="round" transform="translate(872.2548859071094 923.9547563703131) rotate(0 179.06682695191967 372.32997315836565)"><path d="M-1.59 -1.34 L358.96 -0.06 L359.69 742.75 L0.12 743.45" stroke="none" stroke-width="0" fill="#f9f9f9"></path><path d="M-1.27 0.98 C91.88 -2.38, 181.76 -0.78, 357.23 -0.32 M-0.49 0.5 C106.03 0.76, 210.75 1.06, 357.81 0.1 M358.49 0.13 C356.56 209.22, 356.74 419.44, 358.2 744.86 M358.28 0.15 C356.24 248.99, 355.98 497.82, 358.12 744.85 M358.28 743.59 C228.02 742.77, 96.49 742.28, 0.22 745.12 M358.65 744.79 C260.98 745.35, 163.65 746.35, 0.43 745.23 M0.13 744.43 C0.8 594.98, 0.61 445.47, -0.26 -0.65 M-0.02 744.91 C1.41 488.61, 1.28 232.58, 0.27 -0.32" stroke="#000000" stroke-width="1" fill="none"></path></g><g stroke-linecap="round" transform="translate(872.3840446919339 1628.4329259334759) rotate(0 177.86279568137888 18.74305144006894)"><path d="M0.2 1.39 L353.74 0.74 L357.64 36.43 L0.76 35.84" stroke="none" stroke-width="0" fill="#fff"></path><path d="M0.45 1.22 C131.66 3.06, 265.54 2.26, 354.88 1 M-0.55 -0.01 C75.92 -0.77, 151.53 -1.33, 355.72 -0.47 M356.16 -1.25 C356.22 12.45, 356.28 23.53, 357.01 37.24 M355.98 -0.06 C355.44 9.53, 355.88 19.07, 354.85 36.61 M354.58 36.76 C283.15 35.37, 211.63 36.65, -0.5 36.34 M355.85 37.74 C251.65 36.78, 147.74 36.99, 0.35 37.81 M0.73 39.12 C-0.63 23.44, 0.39 12.77, 1.23 1.55 M0.86 37.46 C0.79 28.78, -0.57 21.25, 0.28 0.48" stroke="#495057" stroke-width="1" fill="none"></path></g><g transform="translate(882.3537663728794 1638.5887484354066) rotate(0 63.5 7.5)"><text x="0" y="12" font-family="Helvetica, Segoe UI Emoji" font-size="12.796467419160022px" fill="#495057" text-anchor="start" style="white-space: pre;" direction="ltr">comment something...</text></g><g stroke-linecap="round" transform="translate(1151.851686199796 1636.1691726102895) rotate(0 31.55300388019168 11.136354310655861)"><path d="M4.3 -0.74 L59.95 0.52 L63.26 3.82 L61.5 19.56 L58.29 23 L3.04 21.99 L-1.05 18.43 L-0.09 6.51 L2.71 0.01 L3.92 0.23" stroke="none" stroke-width="0" fill="#868e96"></path><path d="M5.57 0 M5.57 0 C17.24 -0.78, 28.38 0.73, 57.54 0 M5.57 0 C20.47 -0.05, 33.61 -0.86, 57.54 0 M57.54 0 C60.19 1.92, 64.44 3.65, 63.11 5.57 M57.54 0 C58.98 -0.16, 61.62 2.23, 63.11 5.57 M63.11 5.57 C63.76 9.04, 62.82 10.7, 63.11 16.7 M63.11 5.57 C63.02 9.75, 63.11 13.47, 63.11 16.7 M63.11 16.7 C62.67 22.26, 62.59 20.67, 57.54 22.27 M63.11 16.7 C61.27 18.87, 62.2 22.21, 57.54 22.27 M57.54 22.27 C36.69 22.62, 17.13 24.17, 5.57 22.27 M57.54 22.27 C37.72 20.93, 18.39 22.27, 5.57 22.27 M5.57 22.27 C2.84 22.62, 1.62 19.99, 0 16.7 M5.57 22.27 C1.18 20.31, 1.11 22.46, 0 16.7 M0 16.7 C-1.08 14.42, 0.79 12.57, 0 5.57 M0 16.7 C-0.34 13.34, -0.51 10.85, 0 5.57 M0 5.57 C0.19 3, 2.88 -1.14, 5.57 0 M0 5.57 C2.09 0.84, 1.76 -0.13, 5.57 0" stroke="#495057" stroke-width="1" fill="none"></path></g><g transform="translate(1171.9046900799876 1641.3055269209449) rotate(0 11.5 6)"><text x="11.5" y="10" font-family="Helvetica, Segoe UI Emoji" font-size="10.179298962174398px" fill="#fff" text-anchor="middle" style="white-space: pre;" direction="ltr">send</text></g><g stroke-linecap="round" transform="translate(872.7763871785464 925.08742269399) rotate(0 177.9566642943082 75.32100556216437)"><path d="M1.68 0.92 L355.42 0.94 L354 152.6 L-0.79 148.91" stroke="none" stroke-width="0" fill="#fff"></path><path d="M0.54 1.13 C71.79 1.72, 144.73 0.81, 356.46 -0.75 M-0.08 0.62 C130.37 -0.16, 259.91 0.26, 355.45 -0.57 M354.82 1.1 C357.08 39.7, 355.42 79.51, 356.82 151.89 M355.25 0.97 C356.66 44.56, 357.58 88.61, 355.59 150.74 M355.71 149.82 C264.69 149.4, 172.69 149.64, -0.21 150.22 M355.82 150.06 C254.49 150.12, 153.52 150.91, 0.1 150.15 M0.73 151.69 C2.26 110.45, 3.07 72.72, -1.69 -0.9 M0.6 151.62 C-0.81 91.48, -1.33 31.33, 0.71 -0.46" stroke="#495057" stroke-width="1" fill="none"></path></g><g transform="translate(887.1881250479246 971.0810809765039) rotate(0 159 30)"><text x="0" y="12" font-family="Helvetica, Segoe UI Emoji" font-size="13.370703659955145px" fill="#666" text-anchor="start" style="white-space: pre;" direction="ltr">In publishing and graphic design, Lorem ipsum is</text><text x="0" y="27" font-family="Helvetica, Segoe UI Emoji" font-size="13.370703659955145px" fill="#666" text-anchor="start" style="white-space: pre;" direction="ltr">a placeholder text commonly used to demonstrate the</text><text x="0" y="42" font-family="Helvetica, Segoe UI Emoji" font-size="13.370703659955145px" fill="#666" text-anchor="start" style="white-space: pre;" direction="ltr">visual form of a document  or a typeface without</text><text x="0" y="57" font-family="Helvetica, Segoe UI Emoji" font-size="13.370703659955145px" fill="#666" text-anchor="start" style="white-space: pre;" direction="ltr">relying  on meaningful content... </text></g><g transform="translate(1154.8813816633683 1051.938609186142) rotate(0 24.5 6)"><text x="0" y="10" font-family="Helvetica, Segoe UI Emoji" font-size="10.509124319833838px" fill="#000000" text-anchor="start" style="white-space: pre;" direction="ltr">view more</text></g><g transform="translate(887.2270830878888 943.234927605316) rotate(0 129.5 10.5)"><text x="129.5" y="17" font-family="Cascadia, Segoe UI Emoji" font-size="17.64214881317929px" fill="#000000" text-anchor="middle" style="white-space: pre;" direction="ltr">A Big Title For This Post</text></g><g transform="translate(893.734445558408 1047.7033973977382) rotate(0 12.5 7)"><text x="0" y="11" font-family="Cascadia, Segoe UI Emoji" font-size="11.652525933349075px" fill="#666" text-anchor="start" style="white-space: pre;" direction="ltr">❤ 0</text></g><g stroke-linecap="round" transform="translate(911.2701344840189 1447.1349902393936) rotate(0 151.0264821116525 51.97439873590292)"><path d="M27.98 1.14 L275.99 0.67 L288.73 1.7 L295.53 5.59 L299.18 14.24 L302.24 19.36 L304.05 77.96 L300.73 89.18 L297.39 92.39 L290.91 98.74 L276.12 103.88 L25.93 103.56 L14.47 104.05 L9.84 100.18 L3.03 94.6 L-1.42 85.99 L0.38 19.08 L2.28 15.21 L7.84 4.52 L14.38 2.47 L25.5 -0.36" stroke="none" stroke-width="0" fill="#fff"></path><path d="M25.99 0 M25.99 0 C120.2 -1.71, 212.69 -0.79, 276.07 0 M25.99 0 C78.53 0.43, 132.28 1.02, 276.07 0 M276.07 0 C294.3 0.71, 302.04 8.36, 302.05 25.99 M276.07 0 C292.95 -0.63, 300.77 7.61, 302.05 25.99 M302.05 25.99 C301.21 37.95, 300.08 49.24, 302.05 77.96 M302.05 25.99 C302.59 38.37, 302.23 50.96, 302.05 77.96 M302.05 77.96 C300.1 94.13, 291.83 105.19, 276.07 103.95 M302.05 77.96 C300.46 96.09, 293.34 102.89, 276.07 103.95 M276.07 103.95 C203 105.59, 127.51 106.72, 25.99 103.95 M276.07 103.95 C195.05 102.35, 114.93 102.33, 25.99 103.95 M25.99 103.95 C7.59 103.46, 0.78 95.01, 0 77.96 M25.99 103.95 C7.5 104.29, -2.24 92.99, 0 77.96 M0 77.96 C0.9 64.16, -1.25 50.86, 0 25.99 M0 77.96 C-0.41 59.77, -0.11 41.65, 0 25.99 M0 25.99 C1.4 9.51, 7.05 -1.46, 25.99 0 M0 25.99 C0.68 7.45, 6.87 -0.07, 25.99 0" stroke="#999" stroke-width="1" fill="none"></path></g><g stroke-linecap="round" transform="translate(877.9318613061978 1447.0902208754828) rotate(0 12.609312027110263 13.62879344052817)"><path d="M11.6 -0.78 C14.12 -1.22, 17.02 0.13, 19.41 2.1 C21.79 4.08, 25.2 8.13, 25.9 11.09 C26.61 14.04, 25.2 17.46, 23.65 19.83 C22.1 22.21, 18.93 24.37, 16.6 25.34 C14.27 26.32, 12.07 26.24, 9.7 25.67 C7.32 25.1, 3.89 24.19, 2.32 21.93 C0.75 19.67, -0.19 15.02, 0.27 12.08 C0.72 9.15, 3.05 6.21, 5.06 4.32 C7.07 2.43, 10.77 1.49, 12.34 0.74 C13.92 -0.01, 14.3 -0.42, 14.51 -0.21 M17.07 1.49 C19.84 2.76, 23.88 6.61, 25.13 9.06 C26.39 11.51, 25.62 13.55, 24.59 16.19 C23.57 18.83, 21.28 22.89, 18.99 24.88 C16.71 26.86, 13.26 28.36, 10.88 28.08 C8.5 27.81, 6.27 25.57, 4.72 23.21 C3.16 20.85, 2.13 16.78, 1.57 13.93 C1 11.08, -0.14 8.22, 1.34 6.11 C2.83 3.99, 7.98 2.22, 10.47 1.25 C12.96 0.28, 15.08 0.42, 16.31 0.28 C17.54 0.15, 17.81 0.03, 17.85 0.42" stroke="none" stroke-width="0" fill="#868e96"></path><path d="M12.46 -0.51 C14.88 -0.81, 17.94 0.53, 20.19 2.5 C22.44 4.46, 25.38 8.1, 25.97 11.26 C26.55 14.43, 25.18 19.03, 23.71 21.47 C22.23 23.92, 19.54 25.14, 17.12 25.93 C14.7 26.73, 11.78 27.1, 9.2 26.24 C6.62 25.37, 3.04 23.08, 1.64 20.74 C0.24 18.4, 0.22 15.14, 0.78 12.21 C1.34 9.27, 2.81 5.24, 5 3.13 C7.19 1.02, 12.25 -0.07, 13.91 -0.47 C15.58 -0.86, 15.1 0.31, 14.99 0.74 M8.59 0.42 C11.3 -0.4, 15.7 0.76, 18.02 1.67 C20.34 2.58, 21.37 3.31, 22.53 5.88 C23.69 8.44, 25.33 13.77, 24.98 17.08 C24.63 20.39, 22.53 23.84, 20.43 25.76 C18.33 27.67, 14.9 29.13, 12.37 28.58 C9.83 28.02, 7.19 24.39, 5.2 22.41 C3.22 20.43, 1.24 19.28, 0.46 16.73 C-0.32 14.17, -0.86 9.86, 0.51 7.1 C1.88 4.33, 7.33 1.2, 8.67 0.16 C10 -0.88, 8.38 0.4, 8.51 0.85" stroke="#495057" stroke-width="1" fill="none"></path></g><g transform="translate(922.5615584193711 1472.632529071719) rotate(0 138.01981351835184 35.81829070545473)"><text x="0" y="11.327316282181858" font-family="Helvetica, Segoe UI Emoji" font-size="12.77108668343359px" fill="#495057" text-anchor="start" style="white-space: pre;" direction="ltr">so you mean In publishing and graphic design, </text><text x="0" y="25.654632564363716" font-family="Helvetica, Segoe UI Emoji" font-size="12.77108668343359px" fill="#495057" text-anchor="start" style="white-space: pre;" direction="ltr">Lorem ipsum is a placeholder text that's only and</text><text x="0" y="39.98194884654558" font-family="Helvetica, Segoe UI Emoji" font-size="12.77108668343359px" fill="#495057" text-anchor="start" style="white-space: pre;" direction="ltr">only used as a placeholder? so what about this </text><text x="0" y="54.30926512872743" font-family="Helvetica, Segoe UI Emoji" font-size="12.77108668343359px" fill="#495057" text-anchor="start" style="white-space: pre;" direction="ltr">and that and conflicting ideas to engage in a </text><text x="0" y="68.63658141090929" font-family="Helvetica, Segoe UI Emoji" font-size="12.77108668343359px" fill="#495057" text-anchor="start" style="white-space: pre;" direction="ltr">conversation?</text></g><g transform="translate(926.4511609316551 1453.5936120677275) rotate(0 52.97202290954601 7.03168445701931)"><text x="0" y="11.063368914038756" font-family="Cascadia, Segoe UI Emoji" font-size="11.997429474141658px" fill="#495057" text-anchor="start" style="white-space: pre;" direction="ltr">oscar_604043922</text></g><g transform="translate(1165.8229822840967 1535.2425831436544) rotate(0 12 6)"><text x="0" y="10" font-family="Helvetica, Segoe UI Emoji" font-size="10.509124319833838px" fill="#666" text-anchor="start" style="white-space: pre;" direction="ltr">reply</text></g><g stroke-linecap="round" transform="translate(1120.3145666604469 1539.9099883756412) rotate(0 16.937786296899958 7.903202123280607)"><path d="M1.33 0.32 L35.44 0.12 L32.2 17.22 L-1.5 16.4" stroke="none" stroke-width="0" fill="#fff"></path><path d="M-0.77 1.78 C14.33 1.16, 23.79 -1.75, 32.46 1.24 M0.29 -0.79 C12.54 0.32, 22.49 -0.66, 34.2 0.03 M34.2 1.31 C34.16 4.1, 35.06 7.46, 34.58 17.05 M34.63 0.57 C34.09 3.6, 34.54 5.81, 34.41 15.73 M33.88 17.7 C23.73 14.4, 10.47 16.35, 1.38 15.63 M34.1 16.46 C23.09 15.68, 11.74 15.57, -0.06 15.3 M-0.59 15.54 C-1.23 12.66, 1.03 7.77, -0.56 0.25 M0.27 16.52 C0.61 9.23, 0 2.7, 0.77 -0.59" stroke="#666" stroke-width="1" fill="none"></path></g><g transform="translate(1124.6674562014414 1540.8704098210096) rotate(0 12.5 7)"><text x="0" y="11" font-family="Cascadia, Segoe UI Emoji" font-size="11.652525933349075px" fill="#666" text-anchor="start" style="white-space: pre;" direction="ltr">❤ 1</text></g><g stroke-linecap="round" transform="translate(1193.1042887748126 1586.1632298673326) rotate(0 12.609312027110263 13.62879344052817)"><path d="M16.28 0.93 C18.93 1.44, 22.11 4.26, 23.61 6.48 C25.11 8.7, 25.63 11.56, 25.28 14.25 C24.92 16.93, 23.24 20.37, 21.48 22.59 C19.72 24.8, 17.35 27.21, 14.72 27.54 C12.1 27.87, 7.95 26.11, 5.72 24.56 C3.48 23.02, 2.04 21.06, 1.31 18.27 C0.58 15.47, 0.36 10.51, 1.34 7.79 C2.31 5.08, 4.57 3.06, 7.15 1.99 C9.73 0.91, 15.42 1.66, 16.82 1.34 C18.22 1.02, 15.87 0.04, 15.57 0.09 M13.6 0 C16.22 -0.03, 18.73 1.4, 20.66 3.24 C22.58 5.08, 24.88 8.19, 25.15 11.06 C25.41 13.93, 23.92 17.67, 22.23 20.46 C20.55 23.25, 17.67 26.92, 15.04 27.8 C12.41 28.68, 8.9 27.23, 6.43 25.74 C3.96 24.24, 1.19 21.56, 0.21 18.85 C-0.77 16.14, -0.15 12.33, 0.53 9.49 C1.22 6.65, 2.01 3.27, 4.31 1.79 C6.62 0.31, 12.68 0.96, 14.35 0.61 C16.01 0.26, 14.29 -0.44, 14.31 -0.29" stroke="none" stroke-width="0" fill="#868e96"></path><path d="M17.21 0.46 C19.61 1.33, 22.6 4.11, 24.05 6.64 C25.49 9.18, 26.43 12.75, 25.89 15.68 C25.35 18.61, 22.99 22.26, 20.79 24.21 C18.59 26.16, 15.31 27.34, 12.68 27.38 C10.04 27.41, 7.01 26.3, 4.98 24.42 C2.95 22.54, 0.95 19.2, 0.51 16.11 C0.07 13.01, 0.99 8.42, 2.35 5.85 C3.7 3.28, 5.72 1.26, 8.65 0.7 C11.57 0.14, 17.92 1.95, 19.9 2.51 C21.89 3.07, 20.58 3.82, 20.55 4.05 M13.18 1.15 C15.78 1.04, 19.53 2.77, 21.5 4.34 C23.48 5.91, 24.71 7.94, 25.05 10.56 C25.39 13.19, 25.02 17.57, 23.55 20.07 C22.08 22.58, 18.7 24.38, 16.24 25.58 C13.78 26.78, 11.05 27.93, 8.79 27.27 C6.53 26.6, 4.05 24.25, 2.66 21.6 C1.28 18.95, 0.21 14.32, 0.5 11.35 C0.79 8.38, 2.17 5.57, 4.39 3.79 C6.61 2.01, 12.52 1.45, 13.82 0.68 C15.11 -0.09, 12.31 -1.1, 12.16 -0.83" stroke="#495057" stroke-width="1" fill="none"></path></g><g stroke-linecap="round" transform="translate(958.1732603841201 1569.849700219041) rotate(0 114.31198255053596 21.470472111859635)"><path d="M8.94 0.59 L222.24 1.42 L227.39 5.24 L229.5 38.73 L224.77 40.01 L216.15 44.01 L6.33 42.73 L0.78 35.89 L-0.97 12.42 L4.43 3.97 L10.39 -0.06" stroke="none" stroke-width="0" fill="#fff"></path><path d="M10.74 0 M10.74 0 C76.44 2.44, 138.4 1.38, 217.89 0 M10.74 0 C56.9 0.46, 102.16 1.42, 217.89 0 M217.89 0 C224.57 -0.78, 228.54 2.3, 228.62 10.74 M217.89 0 C226.49 -0.07, 227.91 3.13, 228.62 10.74 M228.62 10.74 C229.75 17.22, 229.96 24.63, 228.62 32.21 M228.62 10.74 C229.71 15.63, 229.02 19.76, 228.62 32.21 M228.62 32.21 C229.94 39.82, 226.5 44.78, 217.89 42.94 M228.62 32.21 C229.13 38.64, 224.26 43.6, 217.89 42.94 M217.89 42.94 C174.68 41.28, 134.15 41.93, 10.74 42.94 M217.89 42.94 C145.41 44.29, 73.04 43.81, 10.74 42.94 M10.74 42.94 C4.11 41.5, 1.37 40.39, 0 32.21 M10.74 42.94 C1.97 42.65, 1.53 38.48, 0 32.21 M0 32.21 C-2.07 25.27, -1.21 21.04, 0 10.74 M0 32.21 C0.52 25.21, -0.6 17.46, 0 10.74 M0 10.74 C1.05 1.74, 4.08 1.73, 10.74 0 M0 10.74 C-1.74 5.19, 4.71 -1.32, 10.74 0" stroke="#999" stroke-width="1" fill="none"></path></g><g transform="translate(968.2140766462335 1592.3631334869783) rotate(0 105.5 7.5)"><text x="0" y="12" font-family="Helvetica, Segoe UI Emoji" font-size="13.370703659955145px" fill="#495057" text-anchor="start" style="white-space: pre;" direction="ltr">Aw c'mon, that's not what I meant...</text></g><g transform="translate(969.3830147000053 1576.7438391205073) rotate(0 23 6.5)"><text x="0" y="10" font-family="Cascadia, Segoe UI Emoji" font-size="10.85694365612317px" fill="#495057" text-anchor="start" style="white-space: pre;" direction="ltr">Richard</text></g><g stroke-linecap="round" transform="translate(874.3395151401455 1077.468428831669) rotate(0 177.86279568137888 18.74305144006894)"><path d="M1.85 -0.3 L356.74 1.13 L355.42 37.03 L0.05 39.19" stroke="none" stroke-width="0" fill="#fff"></path><path d="M0.59 -0.07 C83.45 2.83, 168.06 2.02, 354.66 0.34 M0.52 -0.27 C95.8 0.56, 191.23 0.59, 356.04 -0.06 M353.95 0.56 C356.93 12.61, 354.56 30.37, 355.93 37.31 M356.37 0.83 C355.2 12.51, 355.61 22.46, 356.67 37.75 M356.38 36.96 C242.52 39.49, 127.17 38.35, -0.38 37.43 M355.35 37.53 C226.38 35.19, 96.9 35.13, 0.27 37.01 M-0.79 36.3 C-0.88 26.16, -1.57 18.26, -0.73 -0.21 M-0.9 38.34 C0.41 25.64, -0.8 14.17, 0.35 0.62" stroke="#495057" stroke-width="1" fill="none"></path></g><g transform="translate(887.0549927466936 1088.2202293639625) rotate(0 33 7.5)"><text x="0" y="12" font-family="Helvetica, Segoe UI Emoji" font-size="12.796467419160022px" fill="#000000" text-anchor="start" style="white-space: pre;" direction="ltr">Public Chat</text></g><g transform="translate(1112.8817256686707 1091.0135579526936) rotate(0 42 6)"><text x="0" y="10" font-family="Helvetica, Segoe UI Emoji" font-size="10.509124319833838px" fill="#666" text-anchor="start" style="white-space: pre;" direction="ltr">Change Audience</text></g><g transform="translate(1198.0482701087494 1073.8782515057815) rotate(0 9.368382716500037 19.67360370464985)"><text x="0" y="31.34720740929989" font-family="Cascadia, Segoe UI Emoji" font-size="29.978824692799886px" fill="#666" text-anchor="start" style="white-space: pre;" direction="ltr">⌄</text></g></svg>