<svg version="1.1" xmlns="http://www.w3.org/2000/svg" viewBox="0 0 495.51273399203546 488.19163662273513" width="991.0254679840709" height="976.3832732454703">
  <!-- svg-source:excalidraw -->
  
  <defs>
    <style class="style-fonts">
      @font-face {
        font-family: "Virgil";
        src: url("https://excalidraw.com/Virgil.woff2");
      }
      @font-face {
        font-family: "Cascadia";
        src: url("https://excalidraw.com/Cascadia.woff2");
      }
    </style>
  </defs>
  <rect x="0" y="0" width="495.51273399203546" height="488.19163662273513" fill="#ffffff"></rect><g transform="translate(10 10) rotate(0 222 21.5)"><text x="0" y="35" font-family="Cascadia, Segoe UI Emoji" font-size="36px" fill="#343a40" text-anchor="start" style="white-space: pre;" direction="ltr">media_grid Components</text></g><g stroke-linecap="round" transform="translate(46.73744375359365 124.38147446385892) rotate(0 53.841590993788486 53.841590993788486)"><path d="M1.53 0.27 L109.25 1.22 L107.35 108.61 L1.09 107.72" stroke="none" stroke-width="0" fill="#ced4da"></path><path d="M0.1 0.76 C28.59 -1.66, 53.92 -1.95, 105.73 0.15 M-0.67 -0.3 C37.09 -0.03, 74.64 0, 107.94 0.72 M107.89 1.74 C108.31 38.81, 108.28 78.37, 106.73 108.17 M107.45 0.89 C106.96 39, 106.71 77.82, 108.64 107.22 M107.46 108.5 C74.43 110.35, 44.19 107.78, -1.93 107.44 M108.21 107.87 C65.95 106.12, 26.5 107.22, 0.02 107.03 M-1.53 108.21 C0.62 72.72, -1.93 36.84, -1.96 0.54 M0.74 107.61 C-1.07 74.32, -0.02 41.85, 0.04 -0.44" stroke="#000000" stroke-width="1" fill="none"></path></g><g stroke-linecap="round" transform="translate(298.043856664086 119.75590822727963) rotate(0 53.841590993788486 53.841590993788486)"><path d="M0.4 -0.32 L108.19 1.34 L107.78 105.93 L1.79 107.28" stroke="none" stroke-width="0" fill="#ced4da"></path><path d="M-1.56 1.06 C31.39 -2.57, 60.58 0.41, 108.44 0.03 M0.43 -0.76 C25.57 -0.07, 50.71 -1.34, 107.43 -0.98 M108.8 1.48 C107.57 34.93, 106.4 72.22, 106.82 107.77 M108.46 0.61 C108.34 28.07, 109.05 55.24, 107.94 107.75 M107.91 108.48 C74.7 108.5, 46.63 107.01, -0.94 108.82 M107.92 108.53 C68.89 108.87, 28.73 108.99, 0.5 108.27 M0.73 105.97 C1.87 82.78, -1.27 62.4, -1.28 -0.41 M-0.49 107.57 C1.21 66.64, 1.54 24.78, 0.23 0.57" stroke="#000000" stroke-width="1" fill="none"></path></g><g stroke-linecap="round" transform="translate(173.09830177074764 120.69303593235236) rotate(0 53.841590993788486 53.841590993788486)"><path d="M-0.32 0.51 L109.02 0.1 L105.93 109.48 L-0.4 108.92" stroke="none" stroke-width="0" fill="#ced4da"></path><path d="M1.06 0.38 C39.33 -0.6, 83.24 1.59, 107.72 -1.3 M-0.76 0.26 C35.86 -0.36, 69.75 -0.72, 106.7 0.27 M109.17 -0.15 C108.36 31.38, 110.46 64.53, 107.77 106.81 M108.29 -0.17 C108.3 41.08, 107.85 81.33, 107.75 107.56 M108.48 105.69 C70.86 108.74, 31.44 106.86, 1.14 108.97 M108.53 108.15 C66.77 107.49, 25.15 108.43, 0.59 106.82 M-1.71 108.99 C-3 79.16, -0.39 53.03, -0.41 1.67 M-0.11 107.87 C0.09 86.1, -0.47 63.72, 0.57 0.2" stroke="#000000" stroke-width="1" fill="none"></path></g><g stroke-linecap="round" transform="translate(49.35779699047089 246.96618840787778) rotate(0 53.841590993788486 53.841590993788486)"><path d="M-1.78 -1.67 L107.19 0.6 L109.05 107.01 L-0.49 109.57" stroke="none" stroke-width="0" fill="#ced4da"></path><path d="M-1.66 -0.93 C38.23 -1.17, 78.53 -1.34, 109.34 1.84 M-0.55 -0.41 C36.52 -0.34, 75.23 0.85, 107.28 0.86 M108.56 -0.74 C106.85 24.61, 106.96 46.93, 108.96 108.92 M107.09 -0.48 C108.09 21.67, 106.9 45.19, 108.07 107.19 M108.74 108.97 C80.05 107.86, 52.99 107.36, 0.21 108.87 M107.96 107.38 C65.04 107.17, 24.05 107.04, 0.79 106.96 M-1.4 108.07 C2 69.14, -0.33 30.1, -0.19 -1.53 M0.64 108.58 C-1.11 79.74, -1.81 52.49, -0.82 -0.67" stroke="#000000" stroke-width="1" fill="none"></path></g><g stroke-linecap="round" transform="translate(300.6642099009623 242.3406221712985) rotate(0 53.841590993788486 53.841590993788486)"><path d="M-1.67 -0.49 L108.28 1.37 L107.01 107.2 L1.89 107.25" stroke="none" stroke-width="0" fill="#ced4da"></path><path d="M-0.93 -1.06 C35.6 0.85, 72.31 2.55, 109.53 0.94 M-0.41 -0.85 C34.6 1.08, 71.25 0.19, 108.54 -0.74 M106.94 -1.7 C107.53 39.32, 105.55 83.08, 108.92 105.82 M107.2 0.31 C107.68 32.4, 108.91 66.95, 107.19 107.23 M108.97 107.47 C74.99 108.41, 42.23 108.46, 1.19 109.43 M107.38 106.73 C81.24 107.74, 54.12 108.77, -0.72 108.32 M0.39 108.62 C0.03 84.66, 0.15 64.24, -1.53 -0.9 M0.9 107.42 C0.07 65.9, 0.3 25.21, -0.67 -0.89" stroke="#000000" stroke-width="1" fill="none"></path></g><g stroke-linecap="round" transform="translate(175.71865500762578 243.27774987637076) rotate(0 53.841590993788486 53.841590993788486)"><path d="M-0.49 0.6 L109.05 -0.67 L107.2 109.57 L-0.44 108.54" stroke="none" stroke-width="0" fill="#ced4da"></path><path d="M-1.06 -1.27 C31.25 -0.94, 64.25 2.34, 108.62 0.59 M-0.85 -0.86 C27.6 0.78, 53.82 1.31, 106.94 0.8 M105.99 0.31 C106.57 26.01, 109.43 56.6, 105.82 107.86 M107.99 -0.63 C106.16 39.13, 107.43 76.55, 107.23 107.68 M107.47 107.24 C69.36 107.43, 30.94 109.56, 1.74 106.7 M106.73 108.24 C85.84 107.79, 65.28 106.64, 0.64 106.69 M0.93 108.31 C-0.64 70.21, 0.57 29.71, -0.9 1.58 M-0.26 107.22 C-1.65 80.43, -1.51 52.96, -0.89 -0.83" stroke="#000000" stroke-width="1" fill="none"></path></g><g stroke-linecap="round" transform="translate(52.04903552811629 370.50845463515816) rotate(0 53.841590993788486 53.841590993788486)"><path d="M0.98 -0.11 L108.82 0.05 L106.99 108.09 L-1.7 108.07" stroke="none" stroke-width="0" fill="#ced4da"></path><path d="M-1.31 -0.25 C24.6 2.77, 46.34 0.52, 107.09 -1.66 M-0.33 0.74 C38.8 0.18, 79.71 -0.63, 108.49 -0.26 M107.06 -1.85 C106.24 29.71, 108.52 58.53, 107.62 106.04 M106.74 0.72 C108.37 31.66, 108.58 62.41, 107.87 108 M107.58 106.19 C84.24 109.31, 57.8 106.92, -0.72 106.29 M108.38 108.48 C84.92 106.81, 61.35 107.94, 0.94 108.52 M1.14 108.68 C1.92 73.93, 1.49 44.69, -1.64 -1.44 M-0.09 108.36 C0.88 70.89, 0.59 35.13, -0.49 0.46" stroke="#000000" stroke-width="1" fill="none"></path></g><g stroke-linecap="round" transform="translate(303.3554484386095 365.88288839857796) rotate(0 53.841590993788486 53.841590993788486)"><path d="M-0.11 1.14 L107.73 -0.7 L108.09 105.99 L0.38 107.34" stroke="none" stroke-width="0" fill="#ced4da"></path><path d="M-0.25 1.25 C36.13 0.34, 68.22 0.11, 106.03 1.38 M0.74 -0.96 C40.43 0.56, 79.35 1.17, 107.43 -0.32 M105.83 -1.73 C109.19 35.68, 109.19 70.18, 106.04 107.53 M108.4 0.76 C107.18 32.61, 106.44 63.47, 108 107.04 M106.19 109.57 C71.34 108.4, 31.66 106.9, -1.39 105.92 M108.48 107.76 C67.65 107.78, 29.62 109.38, 0.83 107.68 M1 109.06 C-1.67 81.72, 1.35 52.21, -1.44 0.7 M0.68 108.34 C-1.23 77.94, -0.92 46.96, 0.46 0.49" stroke="#000000" stroke-width="1" fill="none"></path></g><g stroke-linecap="round" transform="translate(178.40989354526937 366.82001610365114) rotate(0 53.841590993788486 53.841590993788486)"><path d="M1.14 0.05 L106.99 0.41 L105.99 108.07 L-0.34 106.77" stroke="none" stroke-width="0" fill="#ced4da"></path><path d="M1.25 1.79 C22.17 -0.32, 44.48 -1.52, 109.07 1.38 M-0.96 0.7 C37.74 -0.9, 75.89 -1.05, 107.36 0.26 M105.96 0.9 C107.9 39.3, 107.28 75.17, 107.53 107.56 M108.44 0.17 C107.63 25.03, 106.86 51.53, 107.04 108.15 M109.57 108.64 C69.51 105.46, 29.06 105.49, -1.76 108.96 M107.76 106.81 C74.79 108.81, 44.14 109.38, 0 107.18 M1.38 106.19 C0.33 75.11, -2.26 38.02, 0.7 -0.41 M0.66 106.97 C0.47 69.78, -0.4 33.14, 0.49 -0.05" stroke="#000000" stroke-width="1" fill="none"></path></g><g transform="translate(426.51273399203546 127.01533824951957) rotate(0 29.5 48)"><text x="0" y="13" font-family="Helvetica, Segoe UI Emoji" font-size="14.463558832166566px" fill="#343a40" text-anchor="start" style="white-space: pre;" direction="ltr">article</text><text x="0" y="29" font-family="Helvetica, Segoe UI Emoji" font-size="14.463558832166566px" fill="#343a40" text-anchor="start" style="white-space: pre;" direction="ltr">essays</text><text x="0" y="45" font-family="Helvetica, Segoe UI Emoji" font-size="14.463558832166566px" fill="#343a40" text-anchor="start" style="white-space: pre;" direction="ltr">blog post</text><text x="0" y="61" font-family="Helvetica, Segoe UI Emoji" font-size="14.463558832166566px" fill="#343a40" text-anchor="start" style="white-space: pre;" direction="ltr">media</text><text x="0" y="77" font-family="Helvetica, Segoe UI Emoji" font-size="14.463558832166566px" fill="#343a40" text-anchor="start" style="white-space: pre;" direction="ltr">thought</text><text x="0" y="93" font-family="Helvetica, Segoe UI Emoji" font-size="14.463558832166566px" fill="#343a40" text-anchor="start" style="white-space: pre;" direction="ltr">event</text></g></svg>