<svg version="1.1" xmlns="http://www.w3.org/2000/svg" viewBox="0 0 721.1436200648477 1028.9923178105578" width="1442.2872401296954" height="2057.9846356211156">
  <!-- svg-source:excalidraw -->
  
  <defs>
    <style class="style-fonts">
      @font-face {
        font-family: "Virgil";
        src: url("https://excalidraw.com/Virgil.woff2");
      }
      @font-face {
        font-family: "Cascadia";
        src: url("https://excalidraw.com/Cascadia.woff2");
      }
    </style>
  </defs>
  <rect x="0" y="0" width="721.1436200648477" height="1028.9923178105578" fill="#ffffff"></rect><g transform="translate(111.72718461168733 10) rotate(0 190.5 21.5)"><text x="0" y="35" font-family="Cascadia, Segoe UI Emoji" font-size="36px" fill="#343a40" text-anchor="start" style="white-space: pre;" direction="ltr">search_dialog view</text></g><g stroke-linecap="round" transform="translate(10 122.49122914672034) rotate(0 350.57181003242385 260.19912263971014)"><path d="M-0.95 0.88 L703.06 1.39 L701.13 521.98 L-1.65 521.58" stroke="none" stroke-width="0" fill="#ced4da"></path><path d="M-0.72 -0.48 C190.89 -1.47, 381.69 -0.59, 701.73 -0.08 M0.26 -0.03 C235.1 2.82, 470.21 2.45, 700.87 -0.38 M701.33 -0.16 C701.59 131.94, 701.69 264.57, 701.72 520.29 M701.1 0.18 C699.19 134.82, 699.77 268.57, 700.97 520.7 M701.03 519.9 C427.17 517.91, 153.5 516.83, 0.59 520.97 M700.79 520.52 C422.77 518.42, 144.51 518.06, 0.14 520.22 M0.03 520.28 C-1.24 403.85, -2.53 286.57, 0.72 0.01 M0.26 520.55 C-0.68 391.54, -0.36 262.25, 0.22 -0.04" stroke="#000000" stroke-width="1" fill="none"></path></g><g stroke-linecap="round" transform="translate(124.38297555875579 213.3988477250664) rotate(0 236.46285559368152 169.76647400272032)"><path d="M-0.7 -0.02 L472.83 -0.32 L471.37 339.07 L-1.15 341.48" stroke="none" stroke-width="0" fill="#fff"></path><path d="M0.32 0.7 C146.46 1.88, 291.83 1.76, 472.29 0.03 M0.15 0.15 C140.39 -1.49, 281.03 -2.13, 473.09 -0.1 M472.78 0.79 C475.5 74.84, 474.22 148.82, 473.51 339.72 M473.44 0.2 C472.26 74.23, 472.18 148.23, 473.05 339.63 M473.13 339.39 C355.39 339.23, 236.85 339.95, 0.04 338.7 M473.23 339.35 C299.69 339.45, 125.89 339.8, -0.37 339.87 M-1.12 339.94 C-0.81 253.47, -0.68 169.69, -0.73 1.17 M-0.02 339.46 C1.13 267.08, 0.54 194.2, 0.16 0.19" stroke="#495057" stroke-width="1" fill="none"></path></g><g stroke-linecap="round" transform="translate(124.13005886131577 213.09112378991904) rotate(0 235.80590582292643 26.482177921126095)"><path d="M-0.9 1.27 L472.4 -1.67 L470.92 53.17 L-0.22 52.32" stroke="none" stroke-width="0" fill="#fff"></path><path d="M-0.78 -0.57 C155.92 -0.47, 311.26 0.45, 471.04 0.1 M0.13 -0.36 C168.84 1.55, 337.48 1.39, 471.38 -0.25 M472.99 0.61 C472.88 16.49, 471.75 34.56, 473.53 51.19 M471.57 0.75 C472.93 19.48, 472.41 37.2, 471.52 53.31 M470.91 53.31 C330.91 54.64, 189.06 54.67, -0.22 52.69 M471.18 52.69 C318.88 53.79, 166.14 54.12, -0.12 52.54 M0.65 54.21 C0.31 40.44, 2.13 25.16, -0.6 1.36 M-0.72 53.56 C-1.42 31.55, 0.39 11.88, -0.2 -0.07" stroke="#495057" stroke-width="1" fill="none"></path></g><g transform="translate(165.99862749211934 231.25862873349115) rotate(0 80 9.5)"><text x="0" y="15" font-family="Cascadia, Segoe UI Emoji" font-size="16px" fill="#495057" text-anchor="start" style="white-space: pre;" direction="ltr">Search service...</text></g><g stroke-linecap="round" transform="translate(515.46697121734 230.88797468859912) rotate(0 28.638448381014314 9.671177854919506)"><path d="M5.14 -1.41 L55.63 -0.59 L55.45 3.76 L55.88 18.2 L53.95 18.7 L4.41 18.07 L-1.06 16.35 L-1.21 4.38 L0.56 1.29 L4.65 -1.08" stroke="none" stroke-width="0" fill="#868e96"></path><path d="M4.84 0 M4.84 0 C23.23 -0.86, 39.44 1.75, 52.44 0 M4.84 0 C19.09 0.16, 35.28 -0.43, 52.44 0 M52.44 0 C56.16 0.71, 56.03 1.82, 57.28 4.84 M52.44 0 C53.68 -1.23, 55.5 0.79, 57.28 4.84 M57.28 4.84 C57.82 8.18, 56.87 9.92, 57.28 14.51 M57.28 4.84 C56.79 8.17, 57.58 11.83, 57.28 14.51 M57.28 14.51 C57.46 17.32, 53.72 18.72, 52.44 19.34 M57.28 14.51 C55.77 18.3, 56.68 17.84, 52.44 19.34 M52.44 19.34 C41.53 18.6, 32.62 19.09, 4.84 19.34 M52.44 19.34 C34.04 20.29, 17.14 19.29, 4.84 19.34 M4.84 19.34 C0.67 19.4, 1.61 17.66, 0 14.51 M4.84 19.34 C1.09 19.77, -1.61 16.52, 0 14.51 M0 14.51 C-0.81 10.69, 0.48 6.33, 0 4.84 M0 14.51 C-0.39 12.62, 0.33 10.07, 0 4.84 M0 4.84 C-1 1.13, -0.06 -1, 4.84 0 M0 4.84 C-0.79 2.63, -0.57 1.21, 4.84 0" stroke="#495057" stroke-width="1" fill="none"></path></g><g transform="translate(144.13220781647578 233.20467114110306) rotate(0 6.5 7.5)"><text x="6.5" y="11" font-family="Cascadia, Segoe UI Emoji" font-size="8.968495825735916px" fill="#fff" text-anchor="middle" style="white-space: pre;" direction="ltr">🔍</text></g><g transform="translate(172.25103052954 302.6624308433111) rotate(0 28.5 4.5)"><text x="0" y="7" font-family="Helvetica, Segoe UI Emoji" font-size="7.76457371475124px" fill="#495057" text-anchor="start" style="white-space: pre;" direction="ltr">Public Personas</text></g><g transform="translate(182.27883415858742 325.0198280069344) rotate(0 41.5 4.5)"><text x="0" y="7" font-family="Cascadia, Segoe UI Emoji" font-size="7.76457371475124px" fill="#495057" text-anchor="start" style="white-space: pre;" direction="ltr">Software Developer</text></g><g transform="translate(182.27883415858742 340.8838240482328) rotate(0 28 4.5)"><text x="0" y="7" font-family="Cascadia, Segoe UI Emoji" font-size="7.76457371475124px" fill="#495057" text-anchor="start" style="white-space: pre;" direction="ltr">Piano Player</text></g><g transform="translate(182.27883415858742 356.64660936317387) rotate(0 18.5 4.5)"><text x="0" y="7" font-family="Cascadia, Segoe UI Emoji" font-size="7.76457371475124px" fill="#495057" text-anchor="start" style="white-space: pre;" direction="ltr">Producer</text></g><g stroke-linecap="round"><g transform="translate(173.51198512563315 317.8227797973045) rotate(0 48.25490008323959 -0.3694788152909041)"><path d="M0.13 -0.45 C16.56 -0.67, 81.58 -0.35, 97.77 -0.35 M-1.26 -1.74 C15.05 -1.86, 79.83 0.61, 96.67 1" stroke="#495057" stroke-width="1" fill="none"></path></g></g><mask></mask><g transform="translate(311.394507951547 302.66243084331063) rotate(0 24.5 4.5)"><text x="0" y="7" font-family="Helvetica, Segoe UI Emoji" font-size="7.76457371475124px" fill="#495057" text-anchor="start" style="white-space: pre;" direction="ltr">Popular Posts</text></g><g transform="translate(321.4223115805944 325.01982800693395) rotate(0 43.5 4.5)"><text x="0" y="7" font-family="Cascadia, Segoe UI Emoji" font-size="7.76457371475124px" fill="#495057" text-anchor="start" style="white-space: pre;" direction="ltr">Started my own blog</text></g><g transform="translate(321.4223115805944 340.8838240482323) rotate(0 41.5 4.5)"><text x="0" y="7" font-family="Cascadia, Segoe UI Emoji" font-size="7.76457371475124px" fill="#495057" text-anchor="start" style="white-space: pre;" direction="ltr">Why this and that?</text></g><g transform="translate(321.4223115805944 356.64660936317387) rotate(0 16.5 4.5)"><text x="0" y="7" font-family="Cascadia, Segoe UI Emoji" font-size="7.76457371475124px" fill="#495057" text-anchor="start" style="white-space: pre;" direction="ltr">Meaning</text></g><g stroke-linecap="round"><g transform="translate(312.6554625476383 317.8227797973045) rotate(0 49.052639396260474 -0.4070061296224594)"><path d="M-0.96 0.18 C15.05 -0.14, 80.32 -0.78, 96.94 -1 M0.73 -0.77 C17.03 -1.06, 82.79 -0.05, 99.07 0.02" stroke="#495057" stroke-width="1" fill="none"></path></g></g><mask></mask><g transform="translate(449.7880548024559 302.6624308433102) rotate(0 9.5 4.5)"><text x="0" y="7" font-family="Helvetica, Segoe UI Emoji" font-size="7.76457371475124px" fill="#495057" text-anchor="start" style="white-space: pre;" direction="ltr">More</text></g><g transform="translate(459.81585843150333 325.0198280069335) rotate(0 23 4.5)"><text x="0" y="7" font-family="Cascadia, Segoe UI Emoji" font-size="7.76457371475124px" fill="#495057" text-anchor="start" style="white-space: pre;" direction="ltr">Contact Us</text></g><g transform="translate(459.81585843150333 340.8838240482319) rotate(0 46 4.5)"><text x="0" y="7" font-family="Cascadia, Segoe UI Emoji" font-size="7.76457371475124px" fill="#495057" text-anchor="start" style="white-space: pre;" direction="ltr">Terms and Conditions</text></g><g transform="translate(459.81585843150333 356.6466093631743) rotate(0 18.5 4.5)"><text x="0" y="7" font-family="Cascadia, Segoe UI Emoji" font-size="7.76457371475124px" fill="#495057" text-anchor="start" style="white-space: pre;" direction="ltr">About Me</text></g><g stroke-linecap="round"><g transform="translate(451.0490093985436 317.82277979730407) rotate(0 49.08710311605637 0.314596616247627)"><path d="M-0.92 -0.73 C15.46 -0.96, 82.71 -0.92, 99.09 -0.62 M0.8 1.51 C17.04 1.36, 82.78 0.95, 98.68 0.6" stroke="#495057" stroke-width="1" fill="none"></path></g></g><mask></mask><g transform="translate(460.41709369213913 372.4816758929992) rotate(0 41.5 4.5)"><text x="0" y="7" font-family="Cascadia, Segoe UI Emoji" font-size="7.76457371475124px" fill="#495057" text-anchor="start" style="white-space: pre;" direction="ltr">About this Project</text></g><g stroke-linecap="round" transform="translate(121.25372784353385 679.4593698051171) rotate(0 236.46285559368152 169.76647400272032)"><path d="M1.59 0.49 L474.39 -1.44 L472.22 338.14 L1.48 337.79" stroke="none" stroke-width="0" fill="#fff"></path><path d="M-0.85 -0.21 C146.94 0.8, 294.12 0.31, 473.41 0.43 M-0.09 -0.43 C105.65 -1.62, 211.69 -1.73, 473.26 0.38 M472.5 -0.44 C473.41 67.61, 473.59 137.58, 471.8 339.19 M473.31 -0.37 C473.19 133.61, 473.04 268.02, 473.2 338.92 M472.66 340.21 C377.52 337.89, 282.32 337.72, -0.43 338.84 M473.19 339.96 C363.81 341.04, 254.78 341.39, 0.18 339.32 M-1.1 339.38 C1.68 232.91, 1.53 123.9, 1.32 0.42 M0.38 338.87 C-1.65 228.73, -1.86 118.01, 0.51 0.24" stroke="#495057" stroke-width="1" fill="none"></path></g><g stroke-linecap="round" transform="translate(121.00081114609202 679.1516458699703) rotate(0 235.80590582292643 26.482177921126095)"><path d="M0.49 1.47 L470.17 -0.71 L470.21 54.45 L-1.75 51.18" stroke="none" stroke-width="0" fill="#fff"></path><path d="M-0.22 -0.36 C147.67 1.53, 295.08 2.5, 472.04 -0.68 M-0.43 -0.23 C159.5 0.37, 319.05 0.76, 471.99 -0.44 M470.95 -1.57 C470.5 18.17, 472.66 37.24, 471.1 54.86 M471.06 0.89 C471.14 15.79, 471.59 30.67, 470.7 51.99 M472.29 53.14 C309.84 52.92, 148.49 51.91, -0.7 52.34 M472.04 52.7 C353.04 53.77, 234.82 54.4, -0.22 53.04 M-0.23 54.9 C1.71 39.69, -0.01 24.97, 0.63 0.54 M-0.99 53.23 C-0.08 32.75, 0.25 13.43, 0.36 0.8" stroke="#495057" stroke-width="1" fill="none"></path></g><g transform="translate(162.4966830336598 697.3191508135419) rotate(0 28.5 9.5)"><text x="0" y="15" font-family="Cascadia, Segoe UI Emoji" font-size="16px" fill="#495057" text-anchor="start" style="white-space: pre;" direction="ltr">Person</text></g><g transform="translate(141.0029601012502 699.2651932211543) rotate(0 6.5 7.5)"><text x="6.5" y="11" font-family="Cascadia, Segoe UI Emoji" font-size="8.968495825735916px" fill="#fff" text-anchor="middle" style="white-space: pre;" direction="ltr">🔍</text></g><g transform="translate(136.38726070871417 745.7757713792521) rotate(0 17 4.5)"><text x="0" y="7" font-family="Helvetica, Segoe UI Emoji" font-size="7.76457371475124px" fill="#495057" text-anchor="start" style="white-space: pre;" direction="ltr">Personas</text></g><g transform="translate(140.03263260985113 770.8088880962136) rotate(0 41.5 4.5)"><text x="0" y="7" font-family="Cascadia, Segoe UI Emoji" font-size="7.76457371475124px" fill="#495057" text-anchor="start" style="white-space: pre;" direction="ltr">Software Developer</text></g><g transform="translate(139.80374819688404 801.5341667740313) rotate(0 28 4.5)"><text x="0" y="7" font-family="Cascadia, Segoe UI Emoji" font-size="7.76457371475124px" fill="#495057" text-anchor="start" style="white-space: pre;" direction="ltr">Piano Player</text></g><g transform="translate(139.38041330918713 832.4093999220217) rotate(0 18.5 4.5)"><text x="0" y="7" font-family="Cascadia, Segoe UI Emoji" font-size="7.76457371475124px" fill="#495057" text-anchor="start" style="white-space: pre;" direction="ltr">Producer</text></g><g stroke-linecap="round"><g transform="translate(220.62002089784983 693.909301382027) rotate(0 0.4013198175034631 12.163749016455313)"><path d="M1.07 -1.08 C0.83 3.16, -0.63 19.88, -0.76 24.48 M0.17 0.96 C0.26 5.39, 1.63 21.46, 1.56 25.41" stroke="#495057" stroke-width="1" fill="none"></path></g></g><mask></mask><g stroke-linecap="round"><g transform="translate(122.89447866475712 788.850062158147) rotate(0 235.6193275545279 0.22780546738749763)"><path d="M0.64 0.04 C79.4 0.16, 393.24 0.11, 471.72 -0.07 M-0.48 -0.98 C78.15 -0.6, 391.39 1.31, 470.47 1.43" stroke="#495057" stroke-width="1" fill="none"></path></g></g><mask></mask><g stroke-linecap="round"><g transform="translate(120.84667210273983 820.8878033959609) rotate(0 236.3108818771948 0.25380249917498077)"><path d="M-0.58 1.06 C78.42 0.97, 394.3 -0.28, 473.2 -0.55 M1.32 0.57 C80.29 0.64, 394.14 0.72, 472.62 0.69" stroke="#495057" stroke-width="1" fill="none"></path></g></g><mask></mask><g stroke-linecap="round"><g transform="translate(121.07960756726243 850.5090923800785) rotate(0 237.4428449764814 0.259909069007108)"><path d="M0.84 0.24 C79.8 0.16, 393.81 -0.27, 472.8 -0.23 M-0.17 -0.68 C79.25 -0.59, 395.92 1.34, 475.06 1.19" stroke="#495057" stroke-width="1" fill="none"></path></g></g><mask></mask><g transform="translate(134.41388162539806 865.617890952894) rotate(0 10 4.5)"><text x="0" y="7" font-family="Helvetica, Segoe UI Emoji" font-size="7.76457371475124px" fill="#495057" text-anchor="start" style="white-space: pre;" direction="ltr">Posts</text></g><g transform="translate(139.26086591244166 887.3504555209606) rotate(0 55 4.5)"><text x="0" y="7" font-family="Cascadia, Segoe UI Emoji" font-size="7.76457371475124px" fill="#495057" text-anchor="start" style="white-space: pre;" direction="ltr">The person that I was...</text></g><g stroke-linecap="round"><g transform="translate(122.12271196734946 905.3916295828935) rotate(0 236.25112215330137 -0.2957846111150957)"><path d="M0.58 -0.18 C79.23 -0.18, 394.44 -0.71, 473.08 -0.53 M-0.58 -1.32 C77.89 -1.12, 393.83 0.67, 472.55 0.73" stroke="#495057" stroke-width="1" fill="none"></path></g></g><mask></mask><g transform="translate(140.92399202066008 915.7301914721602) rotate(0 98.5 4.5)"><text x="0" y="7" font-family="Cascadia, Segoe UI Emoji" font-size="7.76457371475124px" fill="#495057" text-anchor="start" style="white-space: pre;" direction="ltr">Introducing a new persona to the world:....</text></g><g stroke-linecap="round"><g transform="translate(123.78583807556788 933.7713655340931) rotate(0 236.40142415148375 -0.5452422810601547)"><path d="M0.59 -0.27 C79.52 -0.02, 394.64 0.48, 473.37 0.5 M-0.56 -1.45 C78.32 -1.48, 394.14 -1.79, 472.98 -1.37" stroke="#495057" stroke-width="1" fill="none"></path></g></g><mask></mask></svg>