<svg version="1.1" xmlns="http://www.w3.org/2000/svg" viewBox="0 0 724.4860170482152 803.2368371440339" width="1448.9720340964304" height="1606.4736742880677">
  <!-- svg-source:excalidraw -->
  
  <defs>
    <style class="style-fonts">
      @font-face {
        font-family: "Virgil";
        src: url("https://excalidraw.com/Virgil.woff2");
      }
      @font-face {
        font-family: "Cascadia";
        src: url("https://excalidraw.com/Cascadia.woff2");
      }
    </style>
  </defs>
  <rect x="0" y="0" width="724.4860170482152" height="803.2368371440339" fill="#ffffff"></rect><g transform="translate(64.98745918407258 10) rotate(0 201 21.5)"><text x="0" y="35" font-family="Cascadia, Segoe UI Emoji" font-size="36px" fill="#343a40" text-anchor="start" style="white-space: pre;" direction="ltr">text_list Component</text></g><g transform="translate(42.21090085317064 170.1783009974788) rotate(0 37 7)"><text x="0" y="11" font-family="Cascadia, Segoe UI Emoji" font-size="11.324469220756093px" fill="#999" text-anchor="start" style="white-space: pre;" direction="ltr">Jan.20.2023</text></g><g transform="translate(170.14617513846588 165.00710722471877) rotate(0 169 19)"><text x="0" y="15" font-family="Cascadia, Segoe UI Emoji" font-size="16px" fill="#000000" text-anchor="start" style="white-space: pre;" direction="ltr">Lorem Ipsum Dolor Asid Amet. What is</text><text x="0" y="34" font-family="Cascadia, Segoe UI Emoji" font-size="16px" fill="#000000" text-anchor="start" style="white-space: pre;" direction="ltr">it? Where to find?</text></g><g transform="translate(171.74021804330732 243.24597674920005) rotate(0 171.5 21)"><text x="0" y="11" font-family="Helvetica, Segoe UI Emoji" font-size="11.962994149740359px" fill="#495057" text-anchor="start" style="white-space: pre;" direction="ltr">In publishing and graphic design, Lorem ipsum is a placeholder </text><text x="0" y="25" font-family="Helvetica, Segoe UI Emoji" font-size="11.962994149740359px" fill="#495057" text-anchor="start" style="white-space: pre;" direction="ltr">text commonly used to demonstrate the visual form of a </text><text x="0" y="39" font-family="Helvetica, Segoe UI Emoji" font-size="11.962994149740359px" fill="#495057" text-anchor="start" style="white-space: pre;" direction="ltr">document  or a typeface without relying  on meaningful content...</text></g><g stroke-linecap="round" transform="translate(170.2984666845541 210.6405911009656) rotate(0 32.31294947790229 7.935000911612406)"><path d="M-1.59 -1.94 L65.37 -1.27 L63.42 14.39 L1.15 14.36" stroke="none" stroke-width="0" fill="#868e96"></path><path d="M-0.53 -1.24 C15.1 0.84, 31.66 0.5, 64.33 -0.89 M0.54 0.1 C22.21 -0.13, 42.89 -0.2, 64.05 -0.88 M65.98 -1.4 C65.69 5.6, 63.44 8.51, 63.79 15.8 M64.78 0.31 C64.54 5.74, 64.35 12.56, 64.71 16.53 M63.64 14.57 C42.21 15.91, 16.59 14.1, -1.9 13.95 M65.21 15.74 C46.2 16.22, 28.6 16.08, -0.38 16.17 M1.19 16.94 C0.56 9.67, -1.59 6.75, 1.58 0.98 M-0.53 15.56 C0.26 9.19, 0.57 2.97, -0.15 -0.36" stroke="#343a40" stroke-width="1" fill="none"></path></g><g transform="translate(173.66498069514182 213.9058240969798) rotate(0 28.56782410188589 4.285173615282929)"><text x="0" y="6.570347230565808" font-family="Cascadia, Segoe UI Emoji" font-size="7.428579622063727px" fill="#fff" text-anchor="start" style="white-space: pre;" direction="ltr">Actions pills</text></g><g stroke-linecap="round"><g transform="translate(12.110089617756785 311.19932771462345) rotate(0 267.6495318621314 -0.7437489335234204)"><path d="M-0.03 -0.27 C190.19 -2.48, 380.15 -2.3, 535.49 0.31 M-0.19 0.08 C152.71 -1.98, 305.51 -2.11, 535.38 0.12" stroke="#343a40" stroke-width="1" fill="none"></path></g></g><mask></mask><g transform="translate(91.3379296632711 189.7182889410733) rotate(0 12.380808804183289 6.918687272926036)"><text x="0" y="10.837374545852022" font-family="Cascadia, Segoe UI Emoji" font-size="11.652525933349075px" fill="#666" text-anchor="start" style="white-space: pre;" direction="ltr">❤ 3</text></g><g stroke-linecap="round"><g transform="translate(10.091447249799785 135.6030388364734) rotate(0 268.10981494913904 0.11537219540264232)"><path d="M-0.09 0.15 C195.94 1.82, 393.43 1.03, 536.31 -0.71 M0.39 -0.36 C108.97 -0.89, 217.9 -1.31, 535.65 0.29" stroke="#343a40" stroke-width="1" fill="none"></path></g></g><mask></mask><g transform="translate(547.2511180512893 152.51262539987192) rotate(0 83.61744949846297 8.135751843093658)"><text x="0" y="13.271503686187405" font-family="Helvetica, Segoe UI Emoji" font-size="14.463558832166566px" fill="#343a40" text-anchor="start" style="white-space: pre;" direction="ltr">article / essays / blog post</text></g><g transform="translate(40.963881640768705 334.5281344144996) rotate(0 37 7)"><text x="0" y="11" font-family="Cascadia, Segoe UI Emoji" font-size="11.324469220756093px" fill="#999" text-anchor="start" style="white-space: pre;" direction="ltr">Jan.20.2023</text></g><g stroke-linecap="round"><g transform="translate(10.863070405354847 475.5491611316447) rotate(0 267.6149025600321 -0.4017151840423594)"><path d="M-0.29 0.42 C150.35 0.16, 301.06 -0.54, 535.13 0.61 M-0.05 -0.26 C148.94 -1.89, 298.2 -1.77, 535.52 -0.01" stroke="#343a40" stroke-width="1" fill="none"></path></g></g><mask></mask><g transform="translate(90.09091045086916 354.0681223580941) rotate(0 12.380808804183289 6.918687272926036)"><text x="0" y="10.837374545852022" font-family="Cascadia, Segoe UI Emoji" font-size="11.652525933349075px" fill="#666" text-anchor="start" style="white-space: pre;" direction="ltr">❤ 3</text></g><g stroke-linecap="round" transform="translate(174.5110347704649 332.5431901852694) rotate(0 110.07026450981584 61.62878691075343)"><path d="M7.55 7.88 C7.55 7.88, 7.55 7.88, 7.55 7.88 M7.55 7.88 C7.55 7.88, 7.55 7.88, 7.55 7.88 M7.28 14.28 C9.51 11.13, 14.09 4.84, 17.78 2.21 M7.28 14.28 C10.97 10.02, 13.63 7.06, 17.78 2.21 M3.09 25.21 C9.32 19.2, 15.45 12.66, 24.08 1.06 M3.09 25.21 C7.51 19.07, 12.04 15.18, 24.08 1.06 M2.83 31.61 C12.72 22.67, 19.36 11.56, 29.72 0.66 M2.83 31.61 C10.05 22.83, 19.19 12.34, 29.72 0.66 M2.56 38 C13.51 23.09, 28.03 8.55, 33.4 2.53 M2.56 38 C8.36 31.03, 15.42 22.97, 33.4 2.53 M2.96 43.65 C12.97 31.69, 24.64 15.03, 39.04 2.14 M2.96 43.65 C17.18 26.59, 30.47 11.32, 39.04 2.14 M2.7 50.05 C14.3 37.64, 23.23 25.29, 44.03 2.5 M2.7 50.05 C18.44 30.97, 34.36 12.1, 44.03 2.5 M3.09 55.69 C17.27 37.48, 36.04 21.46, 49.67 2.1 M3.09 55.69 C16.17 39.37, 29.88 25.22, 49.67 2.1 M2.83 62.09 C20.96 45.77, 35.53 24.95, 54.66 2.46 M2.83 62.09 C18.25 44.93, 33.95 25.42, 54.66 2.46 M2.57 68.48 C20.49 46.72, 43.52 21.21, 60.3 2.07 M2.57 68.48 C17.93 50.6, 32.77 32.37, 60.3 2.07 M2.96 74.13 C26.16 46.07, 53.69 17.49, 65.29 2.43 M2.96 74.13 C17.54 57.15, 30.73 41.56, 65.29 2.43 M2.7 80.52 C22.32 56.86, 42.96 35.13, 70.93 2.03 M2.7 80.52 C26.79 52.45, 51.83 24.36, 70.93 2.03 M2.44 86.92 C16.69 67.72, 34.53 52.01, 75.92 2.39 M2.44 86.92 C25.87 60.59, 49.59 33.04, 75.92 2.39 M2.84 92.57 C27.99 68.22, 49.11 39.54, 81.56 2 M2.84 92.57 C31.61 62.2, 58.59 30.57, 81.56 2 M1.26 100.47 C18.57 82.97, 35.82 59.39, 86.55 2.36 M1.26 100.47 C23.08 72.79, 47.28 46.09, 86.55 2.36 M2.97 104.61 C38.77 61.51, 73.56 22.62, 91.54 2.72 M2.97 104.61 C38.75 63.31, 72.67 22.09, 91.54 2.72 M4.02 109.49 C34.67 77.07, 59.35 45.1, 97.18 2.33 M4.02 109.49 C30.04 81.18, 53.52 50.37, 97.18 2.33 M6.38 112.87 C32.72 79.75, 63.55 49.44, 102.17 2.69 M6.38 112.87 C44.02 69.43, 81.16 27.54, 102.17 2.69 M9.4 115.5 C46.95 72.53, 86.75 28.08, 107.81 2.29 M9.4 115.5 C31.65 90.9, 52.01 65.82, 107.81 2.29 M11.76 118.88 C45.12 76.46, 83.56 37.8, 112.8 2.65 M11.76 118.88 C33.82 93.5, 56.71 68.08, 112.8 2.65 M14.78 121.5 C37.89 96.6, 59.29 71.23, 118.44 2.26 M14.78 121.5 C44.38 87.22, 75.64 51.17, 118.44 2.26 M19.11 122.62 C56.6 78.02, 97.03 28.74, 123.43 2.62 M19.11 122.62 C45.81 92.1, 73.67 60.29, 123.43 2.62 M23.44 123.73 C57.89 85.95, 90.07 47.46, 129.07 2.22 M23.44 123.73 C50.71 92.86, 75.83 64.91, 129.07 2.22 M28.43 124.09 C62.24 86.97, 94.27 49.66, 134.06 2.58 M28.43 124.09 C64.08 82.67, 100.85 40.34, 134.06 2.58 M32.76 125.21 C64.21 89.86, 92.65 54.67, 139.7 2.19 M32.76 125.21 C59.93 93.57, 87.41 60.75, 139.7 2.19 M38.41 124.81 C63.67 93.46, 90.81 61.34, 144.69 2.55 M38.41 124.81 C75.58 82.73, 114.08 38.89, 144.69 2.55 M43.39 125.17 C75.06 90.46, 102.25 58.29, 150.33 2.15 M43.39 125.17 C74.46 90.6, 105.08 55.1, 150.33 2.15 M49.04 124.78 C81.86 87.33, 111.68 55.39, 155.32 2.51 M49.04 124.78 C73.29 97.03, 98.14 68.83, 155.32 2.51 M54.02 125.14 C87.52 83.59, 122.72 45.64, 160.96 2.12 M54.02 125.14 C89.25 83.21, 125.02 42.38, 160.96 2.12 M59.67 124.74 C88.99 88.98, 120.74 57.3, 165.95 2.48 M59.67 124.74 C100.31 76.24, 140.8 29.95, 165.95 2.48 M64.65 125.1 C87.46 100.01, 108.37 73.09, 171.59 2.08 M64.65 125.1 C105.18 78.42, 147.03 31.82, 171.59 2.08 M70.3 124.71 C92.15 96.66, 116.01 69.29, 176.58 2.44 M70.3 124.71 C97.42 93.48, 124.29 61.56, 176.58 2.44 M75.28 125.07 C117.58 76.35, 160.74 25.82, 182.22 2.05 M75.28 125.07 C103.38 94.22, 130.46 64.62, 182.22 2.05 M80.27 125.43 C116.52 86.07, 147.88 45.28, 187.21 2.41 M80.27 125.43 C123.64 75.87, 165.64 26.73, 187.21 2.41 M85.91 125.03 C120.86 83.83, 153.93 47.87, 192.19 2.77 M85.91 125.03 C120.97 85.65, 154.57 46.18, 192.19 2.77 M90.9 125.39 C122.86 89.74, 153.22 56.94, 197.18 3.13 M90.9 125.39 C128.8 84.91, 164.65 42.89, 197.18 3.13 M96.54 125 C124.27 92.38, 154.64 59.37, 203.48 1.98 M96.54 125 C123.37 95.59, 146.93 65.54, 203.48 1.98 M101.53 125.36 C131.74 93.43, 157.07 58, 207.16 3.85 M101.53 125.36 C138.72 81.26, 176.18 38.1, 207.16 3.85 M107.17 124.96 C136.83 90.15, 171.25 55.14, 210.17 6.47 M107.17 124.96 C148.78 78.63, 188.57 30.96, 210.17 6.47 M112.16 125.32 C144.37 85.33, 181.43 45.86, 213.19 9.1 M112.16 125.32 C141.16 90.6, 172.16 54.81, 213.19 9.1 M117.8 124.93 C152.32 85.46, 188.05 44.79, 215.56 12.48 M117.8 124.93 C141.83 95.09, 165.45 66.42, 215.56 12.48 M122.79 125.29 C157.5 87.32, 189.49 48.68, 217.26 16.61 M122.79 125.29 C155.6 87.05, 188.45 48.64, 217.26 16.61 M128.43 124.9 C156.36 91.21, 189.02 55.13, 218.97 20.75 M128.43 124.9 C148.26 101.61, 169.62 76.44, 218.97 20.75 M133.42 125.26 C160.07 92.65, 188.83 63.66, 220.68 24.88 M133.42 125.26 C159.02 95.6, 185.8 64.57, 220.68 24.88 M139.06 124.86 C170.7 87.11, 203.06 51.14, 221.07 30.52 M139.06 124.86 C170.67 89.05, 203.33 52.26, 221.07 30.52 M144.05 125.22 C159.57 103.41, 177.44 84.93, 220.81 36.92 M144.05 125.22 C160.72 105.69, 177.64 87.18, 220.81 36.92 M149.69 124.83 C166.14 102.73, 185.75 83.65, 221.2 42.56 M149.69 124.83 C174.55 94.39, 202.07 64.33, 221.2 42.56 M154.68 125.19 C171.22 107.11, 185.63 90.05, 220.94 48.96 M154.68 125.19 C168.02 110.01, 183.19 92.63, 220.94 48.96 M160.32 124.79 C177.62 104.77, 196.47 80.98, 221.34 54.6 M160.32 124.79 C176.99 106.16, 191.34 87.71, 221.34 54.6 M165.31 125.15 C179.56 108.05, 191.27 93.53, 221.08 61 M165.31 125.15 C180.3 107.71, 195.85 88.97, 221.08 61 M170.95 124.76 C189.82 103.55, 206.1 84.8, 221.47 66.64 M170.95 124.76 C185.09 106.95, 200.96 90.54, 221.47 66.64 M175.94 125.12 C192.88 105.23, 206.69 88.83, 221.21 73.04 M175.94 125.12 C185.82 112.84, 197.54 98.89, 221.21 73.04 M181.58 124.72 C195.88 105.5, 213.2 90.58, 220.95 79.44 M181.58 124.72 C197.36 106.12, 212.37 89.22, 220.95 79.44 M186.57 125.08 C195.04 115.34, 202.87 106.35, 221.34 85.08 M186.57 125.08 C194.52 116.03, 202.91 107.78, 221.34 85.08 M191.56 125.44 C199.89 116.27, 206.92 110.46, 220.42 92.24 M191.56 125.44 C198.01 118.31, 203.04 111.46, 220.42 92.24 M197.86 124.29 C201.74 116.6, 207.83 112.28, 219.51 99.39 M197.86 124.29 C204.93 115.18, 211.98 108.4, 219.51 99.39 M204.16 123.14 C211.95 115.4, 217.41 108.53, 222.53 102.01 M204.16 123.14 C208.12 117.24, 213.09 111.78, 222.53 102.01 M11.96 118.85 C11.96 118.85, 11.96 118.85, 11.96 118.85 M11.96 118.85 C11.96 118.85, 11.96 118.85, 11.96 118.85 M19.11 119.77 C14.21 116.83, 7.96 109.75, 6.28 108.62 M19.11 119.77 C15.95 116.56, 13.5 114.15, 6.28 108.62 M26.26 120.69 C19.19 117.29, 17.92 111.22, 1.36 99.04 M26.26 120.69 C18.71 113.46, 10.34 107.33, 1.36 99.04 M32.66 120.95 C25.27 115.53, 17.09 106.63, 0.96 93.4 M32.66 120.95 C25.71 113.81, 17.7 108.4, 0.96 93.4 M39.06 121.21 C25.46 109.34, 9.36 95.65, 1.32 88.41 M39.06 121.21 C31.7 115.32, 24.25 107.6, 1.32 88.41 M44.7 120.82 C31.66 109.28, 15.53 95.1, 0.93 82.77 M44.7 120.82 C26.36 105.9, 10.84 90.22, 0.93 82.77 M51.1 121.08 C37.99 111.4, 25.9 99.75, 1.29 77.78 M51.1 121.08 C40.68 112.48, 31.25 102.76, 1.29 77.78 M57.5 121.34 C43.15 109.67, 27.47 94.85, 0.89 72.14 M57.5 121.34 C43.32 109.15, 29.47 97.57, 0.89 72.14 M63.14 120.95 C41.79 101.55, 19.87 84.18, 1.25 67.15 M63.14 120.95 C50.31 110.59, 37.37 97.81, 1.25 67.15 M69.54 121.21 C50.62 101.37, 26.95 85.13, 0.86 61.51 M69.54 121.21 C48.81 102.9, 28.06 84.96, 0.86 61.51 M75.18 120.81 C59.37 105.56, 42.35 90.96, 1.22 56.52 M75.18 120.81 C53.92 102.15, 33.14 84.57, 1.22 56.52 M81.58 121.07 C63.66 106.55, 45.31 91.64, 0.82 50.88 M81.58 121.07 C56.41 99.25, 31.32 77.08, 0.82 50.88 M87.98 121.34 C60.58 98.22, 35.53 75.65, 1.18 45.89 M87.98 121.34 C69.73 105.11, 49.79 88.37, 1.18 45.89 M93.62 120.94 C59.9 92.52, 23.88 62.56, 1.54 40.9 M93.62 120.94 C72.64 100.99, 50.47 82.24, 1.54 40.9 M100.02 121.2 C65.52 89.49, 30.46 59.33, 1.15 35.26 M100.02 121.2 C62.37 88.13, 22.74 54.33, 1.15 35.26 M105.66 120.81 C69.59 88.94, 35.38 61.37, 1.51 30.27 M105.66 120.81 C83.15 100.69, 58.46 81.29, 1.51 30.27 M112.06 121.07 C81.64 91.9, 48.89 64.54, 1.12 24.63 M112.06 121.07 C79.15 91.78, 43.94 62.04, 1.12 24.63 M118.46 121.33 C81.52 89.52, 47.89 60.48, 2.98 20.95 M118.46 121.33 C92.33 99.85, 67.76 77.08, 2.98 20.95 M124.1 120.94 C78.17 83.4, 30.08 41.59, 4.1 16.62 M124.1 120.94 C89.9 91.74, 58.29 63.24, 4.1 16.62 M130.5 121.2 C92.97 88.15, 53.39 52.75, 4.46 11.64 M130.5 121.2 C99.61 94.72, 69.48 68.51, 4.46 11.64 M136.14 120.8 C93.48 84.41, 48.61 43.16, 7.08 8.62 M136.14 120.8 C96.73 87.7, 56.67 53.4, 7.08 8.62 M142.54 121.07 C97.5 79.2, 51.08 39.96, 9.71 5.6 M142.54 121.07 C113.7 95.44, 83.06 69.52, 9.71 5.6 M148.93 121.33 C102.98 81.06, 56.87 42.04, 13.09 3.24 M148.93 121.33 C118.81 94.69, 89.26 68.91, 13.09 3.24 M154.58 120.93 C112.65 83.96, 72.46 46.91, 17.22 1.53 M154.58 120.93 C101.72 73.95, 49.41 28.57, 17.22 1.53 M160.98 121.19 C131.05 97.86, 103.12 72.02, 22.86 1.13 M160.98 121.19 C111.94 80.23, 64.21 37.79, 22.86 1.13 M166.62 120.8 C134.24 93.92, 105.34 67.28, 27.75 0.08 M166.62 120.8 C124.82 84.54, 83.77 48.29, 27.75 0.08 M173.02 121.06 C130.12 84.06, 89.74 49.25, 31.89 -1.62 M173.02 121.06 C138.69 93.03, 106.64 64.61, 31.89 -1.62 M179.41 121.32 C151.1 95.89, 121.99 69.1, 38.28 -1.36 M179.41 121.32 C122.77 74.56, 67.76 26.62, 38.28 -1.36 M185.06 120.93 C139.2 82.79, 91.71 40.9, 43.93 -1.76 M185.06 120.93 C141.18 81.2, 96.94 44.13, 43.93 -1.76 M191.46 121.19 C146.08 81.79, 101.61 43.64, 50.32 -1.49 M191.46 121.19 C155.12 91.25, 120.15 60.28, 50.32 -1.49 M196.34 120.14 C166.92 98.42, 139.58 73.63, 56.72 -1.23 M196.34 120.14 C162.75 91.18, 128.33 63.77, 56.72 -1.23 M203.5 121.06 C159.02 83.34, 117.53 47.06, 62.37 -1.63 M203.5 121.06 C158.8 82.82, 113.34 42.13, 62.37 -1.63 M206.87 118.69 C150.07 70.97, 96.6 23.49, 68.76 -1.37 M206.87 118.69 C155.02 73.51, 101.65 28.4, 68.76 -1.37 M210.25 116.33 C171.3 79.04, 129.82 44.02, 74.41 -1.76 M210.25 116.33 C182.76 91.55, 154.84 67.48, 74.41 -1.76 M213.63 113.97 C174.33 75.77, 130.38 43.47, 80.8 -1.5 M213.63 113.97 C172.67 78.37, 131.22 43.25, 80.8 -1.5 M216.26 110.95 C183.99 84.84, 152.73 59.11, 87.2 -1.24 M216.26 110.95 C170.27 70.23, 123.99 30.43, 87.2 -1.24 M217.37 106.62 C171.71 65.83, 124.1 25.94, 92.84 -1.63 M217.37 106.62 C181.06 75.19, 146.71 43.56, 92.84 -1.63 M219.24 102.94 C182.92 69.99, 148.6 42.06, 99.24 -1.37 M219.24 102.94 C193.76 79.26, 168.31 58.35, 99.24 -1.37 M220.36 98.61 C182.05 66.39, 146.61 35.52, 104.89 -1.77 M220.36 98.61 C196.59 78.16, 173.96 56.57, 104.89 -1.77 M220.72 93.62 C189.06 69.07, 159.62 41.26, 111.28 -1.5 M220.72 93.62 C195.55 72.23, 169.68 49.36, 111.28 -1.5 M222.59 89.95 C189.67 60.3, 157.77 33.79, 117.68 -1.24 M222.59 89.95 C194.84 67.29, 168.76 43.79, 117.68 -1.24 M222.19 84.31 C188.9 55.76, 152.33 22.77, 123.32 -1.64 M222.19 84.31 C196.98 62.56, 174.03 42.58, 123.32 -1.64 M222.55 79.32 C202.54 59.98, 180.63 45.21, 129.72 -1.38 M222.55 79.32 C200.97 59.14, 177.9 39.83, 129.72 -1.38 M222.16 73.68 C188.76 47.35, 157.88 18.12, 135.37 -1.77 M222.16 73.68 C191.81 46.46, 161.46 20.48, 135.37 -1.77 M222.52 68.69 C193.94 46.73, 166.51 21.31, 141.76 -1.51 M222.52 68.69 C200.63 50.22, 178.69 30.75, 141.76 -1.51 M222.12 63.05 C195.65 43.32, 174.62 20.21, 148.16 -1.25 M222.12 63.05 C207.2 48.66, 190.84 35.59, 148.16 -1.25 M222.48 58.06 C205.29 43.57, 187.33 25.76, 153.8 -1.64 M222.48 58.06 C205.64 41.99, 187.83 27.39, 153.8 -1.64 M222.09 52.42 C203.55 34.55, 182.98 18.91, 160.2 -1.38 M222.09 52.42 C203.39 36.07, 183.89 18.61, 160.2 -1.38 M222.45 47.43 C209.5 33.49, 195.62 24.36, 165.84 -1.78 M222.45 47.43 C210.41 35.74, 198.92 27.01, 165.84 -1.78 M222.05 41.79 C213.21 32.55, 201.34 23.87, 172.24 -1.51 M222.05 41.79 C205.56 28.09, 189.1 12.8, 172.24 -1.51 M222.41 36.8 C214.05 27.9, 205.14 20.9, 178.64 -1.25 M222.41 36.8 C204.81 22.72, 187.69 7.55, 178.64 -1.25 M222.02 31.16 C211.36 20.3, 199.79 11.2, 184.28 -1.65 M222.02 31.16 C207.99 19.43, 194.82 6.88, 184.28 -1.65 M221.62 25.51 C212.85 18.06, 201.09 7.37, 190.68 -1.39 M221.62 25.51 C211.18 16.46, 201.76 9.37, 190.68 -1.39 M221.98 20.53 C218.36 17.18, 212.8 9.99, 197.83 -0.47 M221.98 20.53 C214.57 14.38, 206.15 7.62, 197.83 -0.47" stroke="#868e96" stroke-width="0.5" fill="none"></path><path d="M30.81 0 M30.81 0 C66.7 0.76, 105.19 0.85, 189.33 0 M30.81 0 C82.89 -0.9, 133.89 -1.07, 189.33 0 M189.33 0 C207.92 0.2, 218.86 11.4, 220.14 30.81 M189.33 0 C211.06 -0.06, 219.06 11.38, 220.14 30.81 M220.14 30.81 C219.12 44.44, 219.89 56.35, 220.14 92.44 M220.14 30.81 C220.4 48.44, 220.35 65.91, 220.14 92.44 M220.14 92.44 C221.34 112.15, 208.01 123.36, 189.33 123.26 M220.14 92.44 C220.85 112.96, 210.13 121.6, 189.33 123.26 M189.33 123.26 C154.5 122.13, 120.13 122.56, 30.81 123.26 M189.33 123.26 C141.45 123.83, 93.72 124.69, 30.81 123.26 M30.81 123.26 C10.88 122.42, -0.14 112.77, 0 92.44 M30.81 123.26 C12.13 122.81, -0.19 110.78, 0 92.44 M0 92.44 C0.1 78.6, -2.15 62.71, 0 30.81 M0 92.44 C0.38 76.08, 0.59 58.45, 0 30.81 M0 30.81 C1.09 12.02, 9.72 1.7, 30.81 0 M0 30.81 C1.53 10.77, 12.42 -0.86, 30.81 0" stroke="#495057" stroke-width="1" fill="none"></path></g><g stroke-linecap="round" transform="translate(444.03498191333347 383.70270998838487) rotate(270 20.149377208276746 51.31742957098345)"><path d="M2.68 2.33 C2.68 2.33, 2.68 2.33, 2.68 2.33 M2.68 2.33 C2.68 2.33, 2.68 2.33, 2.68 2.33 M0.45 10.99 C3.95 7.71, 4.5 5.41, 10.29 -0.33 M0.45 10.99 C3.09 7.19, 6.95 3.77, 10.29 -0.33 M0.85 16.64 C5.87 12.02, 10.42 6.07, 13.31 2.3 M0.85 16.64 C4.29 11.66, 9.88 6.95, 13.31 2.3 M0.59 23.03 C5.38 17.57, 7.97 14.64, 18.3 2.66 M0.59 23.03 C8.07 15.5, 13.79 8.77, 18.3 2.66 M0.98 28.68 C4.8 24.28, 8.99 15.91, 23.29 3.02 M0.98 28.68 C6.56 22.7, 11.1 16.89, 23.29 3.02 M0.72 35.07 C11.17 23.39, 16.87 16.63, 28.93 2.62 M0.72 35.07 C7.25 25.82, 15.57 17.23, 28.93 2.62 M1.11 40.72 C10.15 29.5, 19.23 19.55, 35.23 1.47 M1.11 40.72 C12.93 26.28, 24.95 12.58, 35.23 1.47 M0.85 47.12 C12.14 35.93, 25.62 20.37, 38.25 4.1 M0.85 47.12 C13.42 31.93, 28.13 16.37, 38.25 4.1 M1.25 52.76 C12.46 42.28, 19.22 30.7, 41.27 6.72 M1.25 52.76 C12.58 40.52, 21.56 28.91, 41.27 6.72 M0.98 59.16 C17.98 42.87, 31.17 22.92, 41 13.12 M0.98 59.16 C10.3 47.68, 19.15 37.64, 41 13.12 M1.38 64.8 C12.5 53.93, 22.94 39.68, 41.4 18.76 M1.38 64.8 C10.92 52.1, 21.88 40.85, 41.4 18.76 M1.12 71.2 C11.95 58.4, 24.75 45.13, 41.14 25.16 M1.12 71.2 C10.33 60.45, 19.75 49.23, 41.14 25.16 M1.51 76.84 C15.44 60.76, 33.1 42.17, 41.53 30.8 M1.51 76.84 C14.65 62.72, 26.71 47.17, 41.53 30.8 M1.25 83.24 C12.42 72.07, 19.51 61.62, 41.27 37.2 M1.25 83.24 C12.25 71.86, 22.14 58.94, 41.27 37.2 M0.99 89.64 C16.45 74.18, 26.2 59.09, 41.67 42.84 M0.99 89.64 C16.69 71.07, 33.36 53.84, 41.67 42.84 M1.38 95.28 C14.85 77.83, 32.22 61.29, 41.4 49.24 M1.38 95.28 C14.57 78.71, 27.58 63.98, 41.4 49.24 M3.09 99.41 C11.2 88.48, 19.32 79.98, 41.14 55.64 M3.09 99.41 C15.44 84.94, 25.17 72.4, 41.14 55.64 M6.11 102.04 C17.62 89.47, 32.2 74.78, 41.54 61.28 M6.11 102.04 C18.19 87.34, 32.24 73.85, 41.54 61.28 M11.1 102.4 C19.69 94.34, 27.27 80.66, 41.28 67.68 M11.1 102.4 C17.82 93.73, 23.98 87.57, 41.28 67.68 M16.74 102 C23.74 93.84, 34.26 81.29, 41.67 73.32 M16.74 102 C23.38 94.8, 30.18 85.23, 41.67 73.32 M21.73 102.36 C26.16 96.81, 30.29 93.09, 41.41 79.72 M21.73 102.36 C30.37 93.99, 37.43 85.21, 41.41 79.72 M27.37 101.97 C34.07 95.25, 35.66 89.59, 41.8 85.36 M27.37 101.97 C32.34 96.17, 36.84 92.19, 41.8 85.36 M32.36 102.33 C35.73 98.97, 38.45 95.53, 40.89 92.52 M32.36 102.33 C33.84 99.92, 37.07 97.45, 40.89 92.52 M5.52 101.88 C5.52 101.88, 5.52 101.88, 5.52 101.88 M5.52 101.88 C5.52 101.88, 5.52 101.88, 5.52 101.88 M11.92 102.14 C8.51 98.94, 5.27 95.94, 2.86 94.26 M11.92 102.14 C10.03 99.63, 6.97 97.82, 2.86 94.26 M17.56 101.74 C11.88 96.4, 5.6 93.63, 3.22 89.28 M17.56 101.74 C13.65 97.6, 8.9 93.41, 3.22 89.28 M23.96 102 C18.16 96.05, 15.2 92.83, 2.82 83.63 M23.96 102 C18.56 97.72, 12.43 92.28, 2.82 83.63 M30.35 102.26 C22.42 97.27, 19.83 90.46, 3.18 78.65 M30.35 102.26 C22.51 95.4, 14.53 88.66, 3.18 78.65 M35.24 101.21 C26.03 93.51, 20.37 88.98, 2.79 73 M35.24 101.21 C21.55 90.07, 9.34 78.69, 2.79 73 M37.87 98.2 C27.77 90.59, 21.61 84.03, 2.39 67.36 M37.87 98.2 C26.17 87.62, 16.2 78.12, 2.39 67.36 M41.25 95.83 C30.12 85.35, 17.5 78.07, 2.76 62.37 M41.25 95.83 C28.46 84.88, 16.19 72.28, 2.76 62.37 M41.61 90.85 C29.13 79.07, 17.66 70.15, 2.36 56.73 M41.61 90.85 C27.69 77.83, 13.72 67.49, 2.36 56.73 M41.97 85.86 C32.62 77.16, 21.57 68.32, 2.72 51.74 M41.97 85.86 C32.12 78.3, 24.19 69.84, 2.72 51.74 M41.57 80.22 C33.41 72.67, 23.25 68.42, 2.33 46.1 M41.57 80.22 C31.96 72.09, 22.44 64.58, 2.33 46.1 M41.93 75.23 C25.87 63.97, 14.42 50.78, 2.69 41.11 M41.93 75.23 C32.89 66.84, 24.42 60.29, 2.69 41.11 M41.54 69.59 C30.59 62.48, 22.61 53.36, 2.29 35.47 M41.54 69.59 C32.71 61.91, 22.63 52.52, 2.29 35.47 M41.14 63.94 C26.16 52.83, 11.02 36.53, 2.65 30.48 M41.14 63.94 C31.26 54.89, 20.62 47.05, 2.65 30.48 M41.5 58.96 C29.37 46.38, 14.02 37.79, 2.26 24.84 M41.5 58.96 C27.28 47.48, 13.8 35.68, 2.26 24.84 M41.11 53.31 C29.73 43.72, 18.52 33.43, 2.62 19.85 M41.11 53.31 C29.8 43.45, 17.16 33.52, 2.62 19.85 M41.47 48.33 C29.22 38.95, 17.2 27.63, 2.22 14.21 M41.47 48.33 C27.51 35.42, 12.77 24.17, 2.22 14.21 M41.07 42.68 C27.53 30.21, 12.38 15.59, 1.83 8.57 M41.07 42.68 C24.59 28.34, 8.98 16.35, 1.83 8.57 M41.43 37.7 C31.17 28.42, 20.54 20.91, 2.94 4.24 M41.43 37.7 C27.5 24.61, 13.83 13.73, 2.94 4.24 M41.04 32.05 C30.4 22.47, 17.54 10.53, 4.81 0.56 M41.04 32.05 C30.74 22.09, 18.24 12.66, 4.81 0.56 M41.4 27.06 C30.16 19.03, 22.81 9.64, 10.46 0.17 M41.4 27.06 C31.61 18.74, 20.02 9.68, 10.46 0.17 M41 21.42 C33.33 17.01, 27.13 12.44, 16.1 -0.23 M41 21.42 C34.17 15.21, 26.86 7.93, 16.1 -0.23 M41.36 16.43 C32.67 8.77, 27.3 2.06, 22.5 0.03 M41.36 16.43 C35.47 11.87, 30.7 6.4, 22.5 0.03 M40.97 10.79 C36.63 9.16, 34.29 6.81, 28.89 0.29 M40.97 10.79 C36.6 6.78, 32.34 2.15, 28.89 0.29" stroke="#868e96" stroke-width="0.5" fill="none"></path><path d="M10.07 0 M10.07 0 C16.35 0.96, 23.61 -1.98, 30.22 0 M10.07 0 C17.52 0.96, 22.71 0.14, 30.22 0 M30.22 0 C37.76 -0.06, 39.15 4.86, 40.3 10.07 M30.22 0 C35.77 -0.86, 39.3 2.22, 40.3 10.07 M40.3 10.07 C39.51 37.09, 39.84 68.31, 40.3 92.56 M40.3 10.07 C39.77 30.11, 40.38 50.87, 40.3 92.56 M40.3 92.56 C39.38 99.04, 37.64 102.11, 30.22 102.63 M40.3 92.56 C39.53 100.35, 37.36 104.86, 30.22 102.63 M30.22 102.63 C23.54 102.57, 16.51 103.75, 10.07 102.63 M30.22 102.63 C25.49 103.34, 20.09 102.34, 10.07 102.63 M10.07 102.63 C4.1 101.34, -1.77 100.35, 0 92.56 M10.07 102.63 C2.07 103.38, -0.3 97, 0 92.56 M0 92.56 C2.09 65.68, 0.9 36.2, 0 10.07 M0 92.56 C0.52 72.85, -0.42 54.34, 0 10.07 M0 10.07 C-1.78 2.84, 3.21 -1.28, 10.07 0 M0 10.07 C-2.19 5.06, 3.21 -0.04, 10.07 0" stroke="#495057" stroke-width="1" fill="none"></path></g><g stroke-linecap="round" transform="translate(409.0306895697231 333.07678557692407) rotate(0 54.39977781005882 35.87808917932011)"><path d="M2.28 7.28 C2.28 7.28, 2.28 7.28, 2.28 7.28 M2.28 7.28 C2.28 7.28, 2.28 7.28, 2.28 7.28 M1.36 14.44 C3.04 11.15, 5.56 10.04, 9.89 4.63 M1.36 14.44 C4.01 11.49, 6.98 8.04, 9.89 4.63 M1.1 20.83 C5.77 17.02, 9.04 10.59, 18.82 0.46 M1.1 20.83 C6.55 15.15, 12.29 7.47, 18.82 0.46 M1.5 26.48 C8.3 17.19, 17.67 9.33, 23.8 0.82 M1.5 26.48 C9.66 17.1, 18.56 7.1, 23.8 0.82 M1.24 32.88 C11.64 20.89, 17.99 10.59, 29.45 0.42 M1.24 32.88 C7.75 24.91, 14.35 18.49, 29.45 0.42 M0.97 39.27 C12.95 22.3, 29.78 7.52, 34.43 0.78 M0.97 39.27 C10.51 27.76, 20.72 16.08, 34.43 0.78 M1.37 44.92 C16.32 26.59, 32.61 12, 40.08 0.39 M1.37 44.92 C14.01 29.52, 27.38 15.68, 40.08 0.39 M1.11 51.31 C17.24 37.01, 28.9 20.68, 45.06 0.75 M1.11 51.31 C17.49 33.76, 33.48 13.75, 45.06 0.75 M0.19 58.47 C11.04 44.56, 20.98 32.85, 50.71 0.35 M0.19 58.47 C15.01 40.14, 30.4 25.02, 50.71 0.35 M1.9 62.6 C22.15 40.19, 38.57 18.52, 55.69 0.71 M1.9 62.6 C23.08 37.05, 45.68 13.03, 55.69 0.71 M4.26 65.98 C27.79 41.27, 47.7 13.89, 61.34 0.32 M4.26 65.98 C19.02 48.26, 35.26 30.54, 61.34 0.32 M7.28 68.6 C25.13 49.23, 42.5 28.48, 66.32 0.68 M7.28 68.6 C19.51 54.66, 31.01 42.19, 66.32 0.68 M9.64 71.98 C24.54 57.87, 36.81 42.38, 71.97 0.28 M9.64 71.98 C25.71 53.39, 40.44 35.53, 71.97 0.28 M13.97 73.1 C27.33 55.53, 41.71 40.14, 76.95 0.64 M13.97 73.1 C29.55 55.16, 43.88 36.59, 76.95 0.64 M19.62 72.7 C31.86 56.15, 44.47 44.97, 81.94 1 M19.62 72.7 C38.82 51.29, 59.09 30.32, 81.94 1 M24.6 73.06 C48.18 46.82, 72.88 20.56, 87.58 0.61 M24.6 73.06 C46.16 46.29, 69.8 19.56, 87.58 0.61 M30.25 72.67 C52.59 45.07, 77.68 16.59, 92.57 0.97 M30.25 72.67 C49.08 47.82, 70.15 25.99, 92.57 0.97 M35.23 73.03 C53.01 56.03, 68.48 38.85, 96.9 2.09 M35.23 73.03 C48.58 58.37, 63.31 41.64, 96.9 2.09 M40.88 72.63 C56.75 55.27, 66.96 39.33, 101.89 2.45 M40.88 72.63 C59.08 50.08, 79.8 28.75, 101.89 2.45 M45.86 72.99 C67.24 51.75, 83.86 27.99, 104.91 5.07 M45.86 72.99 C62.78 54.22, 77.26 35.28, 104.91 5.07 M50.85 73.35 C65.71 55.63, 82.35 38.93, 107.27 8.45 M50.85 73.35 C67.04 55.01, 82.83 37.57, 107.27 8.45 M56.49 72.96 C74.3 49.62, 92.81 30.6, 108.98 12.58 M56.49 72.96 C67 60.86, 78.86 47.98, 108.98 12.58 M61.48 73.32 C77.34 55.29, 93.26 33.78, 111.34 15.96 M61.48 73.32 C77.34 55.95, 93.48 35.62, 111.34 15.96 M67.12 72.92 C76.93 60.85, 86.09 52.99, 111.08 22.36 M67.12 72.92 C80.02 58.04, 91.57 45.31, 111.08 22.36 M72.11 73.28 C82.47 60.15, 93.63 46.19, 111.47 28 M72.11 73.28 C86.8 55.13, 102.14 39.01, 111.47 28 M77.75 72.89 C86.74 60.44, 98.19 51.44, 111.21 34.4 M77.75 72.89 C84.86 65.21, 91.63 56.15, 111.21 34.4 M82.74 73.25 C88.7 65.97, 97.68 54.85, 111.61 40.04 M82.74 73.25 C91.19 63.54, 98.61 53.98, 111.61 40.04 M88.38 72.86 C95.71 66.28, 101.53 55.98, 111.35 46.44 M88.38 72.86 C94.52 65.89, 100.62 58.39, 111.35 46.44 M92.71 73.97 C97.03 67.9, 104.04 64.13, 109.77 54.35 M92.71 73.97 C96.88 69.02, 100.99 63.88, 109.77 54.35 M99.67 72.07 C102.51 70.33, 105.78 66.44, 107.54 63.01 M99.67 72.07 C102.02 69.06, 104.91 65.43, 107.54 63.01 M7.23 69.42 C7.23 69.42, 7.23 69.42, 7.23 69.42 M7.23 69.42 C7.23 69.42, 7.23 69.42, 7.23 69.42 M15.13 71 C11.37 67.44, 9.26 67.01, 4.57 61.81 M15.13 71 C12.29 68.9, 11.33 66.66, 4.57 61.81 M20.02 69.95 C14.81 64.06, 9.2 60.09, 2.66 54.86 M20.02 69.95 C16.81 67.34, 12.9 62.59, 2.66 54.86 M25.67 69.55 C16.19 60.23, 10.44 53.44, 3.02 49.87 M25.67 69.55 C17.62 62.01, 10.28 56.67, 3.02 49.87 M32.06 69.81 C21.36 61.53, 9.34 48, 2.63 44.23 M32.06 69.81 C25.03 63.26, 19.67 58.38, 2.63 44.23 M37.71 69.42 C28.95 61.56, 18.59 51.07, 2.99 39.24 M37.71 69.42 C28.84 62.5, 18.94 54.87, 2.99 39.24 M44.1 69.68 C34.85 59.9, 20.48 49.34, 2.59 33.6 M44.1 69.68 C29.85 57.37, 17.47 47.33, 2.59 33.6 M50.5 69.94 C36.14 57.78, 26.48 49.47, 2.95 28.61 M50.5 69.94 C35.05 55.45, 19.43 42.85, 2.95 28.61 M56.14 69.55 C44.73 60.23, 31.98 46.92, 2.56 22.97 M56.14 69.55 C39.74 55.6, 24.1 42.01, 2.56 22.97 M62.54 69.81 C43.6 51.12, 21.87 35.05, 2.92 17.98 M62.54 69.81 C47.33 55.74, 33.01 44.03, 2.92 17.98 M68.19 69.41 C44.67 50.75, 19.09 30.06, 1.77 11.68 M68.19 69.41 C44.02 47.93, 22.44 28.49, 1.77 11.68 M74.58 69.68 C56.05 53.94, 39.77 39.94, 3.64 8.01 M74.58 69.68 C57.65 55.52, 42.76 41.62, 3.64 8.01 M80.98 69.94 C61.69 51.38, 39.03 34.51, 5.51 4.33 M80.98 69.94 C54.81 47.05, 28.39 24.59, 5.51 4.33 M86.62 69.54 C67.52 52.78, 46.76 34.96, 8.13 1.31 M86.62 69.54 C58.21 44.6, 29.05 18.96, 8.13 1.31 M93.02 69.8 C65.92 43.44, 38.6 20.21, 13.02 0.26 M93.02 69.8 C76.41 55.38, 58.31 41.03, 13.02 0.26 M99.42 70.07 C74.29 48.68, 49.48 26.81, 18.67 -0.13 M99.42 70.07 C76.85 49.97, 53.29 29.41, 18.67 -0.13 M102.8 67.7 C73.78 39.4, 43.36 15.35, 24.31 -0.53 M102.8 67.7 C76.83 45.4, 49.29 21.95, 24.31 -0.53 M105.42 64.68 C83.23 44.22, 57.52 25.39, 30.71 -0.27 M105.42 64.68 C83.58 44.86, 59.8 25.82, 30.71 -0.27 M108.8 62.32 C86.65 43.42, 65.29 24.49, 36.35 -0.66 M108.8 62.32 C82.66 39.53, 57.76 19.08, 36.35 -0.66 M109.92 57.99 C91.89 43.6, 76.87 31.11, 42.75 -0.4 M109.92 57.99 C92.66 43.06, 76.33 28.75, 42.75 -0.4 M109.52 52.35 C85.42 32.18, 61.16 11.84, 49.15 -0.14 M109.52 52.35 C88.83 33.98, 67.54 15.15, 49.15 -0.14 M109.88 47.36 C93.6 35.61, 79.9 22.71, 54.79 -0.53 M109.88 47.36 C94.24 32.92, 79.65 20.49, 54.79 -0.53 M109.49 41.72 C94.57 28.9, 79.38 12.38, 61.19 -0.27 M109.49 41.72 C94.81 28.73, 80.07 15.36, 61.19 -0.27 M109.85 36.73 C93.28 23.16, 76.04 7.16, 66.83 -0.67 M109.85 36.73 C100.87 27.75, 89.54 19.26, 66.83 -0.67 M109.45 31.09 C97.39 20.74, 80.93 9.63, 73.23 -0.4 M109.45 31.09 C101.41 23.52, 93.47 17.69, 73.23 -0.4 M109.81 26.1 C97.3 18.19, 88.72 5.72, 79.62 -0.14 M109.81 26.1 C101.69 19.45, 94.8 11.71, 79.62 -0.14 M109.42 20.46 C102.57 15.55, 95.42 9.82, 85.27 -0.54 M109.42 20.46 C100.74 12.55, 92.54 5.31, 85.27 -0.54 M109.78 15.47 C106.33 11, 98.15 8.68, 91.67 -0.28 M109.78 15.47 C105.4 11.36, 102.85 8.03, 91.67 -0.28 M110.89 11.14 C107.16 7.83, 104.25 5.34, 99.57 1.3 M110.89 11.14 C107.98 7.93, 104.32 6.33, 99.57 1.3" stroke="#868e96" stroke-width="0.5" fill="none"></path><path d="M17.94 0 M17.94 0 C43.83 -1.15, 66.64 -2.07, 90.86 0 M17.94 0 C40.01 0.84, 61.25 -0.69, 90.86 0 M90.86 0 C104.65 -0.34, 109.41 4.73, 108.8 17.94 M90.86 0 C100.57 -1.46, 107.48 6.15, 108.8 17.94 M108.8 17.94 C109.49 31.48, 110.4 40.35, 108.8 53.82 M108.8 17.94 C108.42 28.88, 108.13 42.4, 108.8 53.82 M108.8 53.82 C108.8 66.75, 103.15 70.54, 90.86 71.76 M108.8 53.82 C109.75 66.36, 101.65 74.05, 90.86 71.76 M90.86 71.76 C64.79 72.97, 36.18 70.19, 17.94 71.76 M90.86 71.76 C69.8 71.44, 50.18 70.99, 17.94 71.76 M17.94 71.76 C7.04 72, 0.42 63.94, 0 53.82 M17.94 71.76 C5.57 69.7, -0.27 67.77, 0 53.82 M0 53.82 C-0.54 39.3, 0.46 27.98, 0 17.94 M0 53.82 C0.8 43.42, 0.16 32.87, 0 17.94 M0 17.94 C0.38 6.82, 6.72 1.59, 17.94 0 M0 17.94 C-0.29 5.89, 4.61 -1.31, 17.94 0" stroke="#495057" stroke-width="1" fill="none"></path></g><g transform="translate(554.313669820046 327.7008679575488) rotate(0 20 8)"><text x="0" y="13" font-family="Helvetica, Segoe UI Emoji" font-size="14.463558832166566px" fill="#343a40" text-anchor="start" style="white-space: pre;" direction="ltr">media</text></g><g transform="translate(42.44470911562803 503.9848053938581) rotate(0 37 7)"><text x="0" y="11" font-family="Cascadia, Segoe UI Emoji" font-size="11.324469220756093px" fill="#999" text-anchor="start" style="white-space: pre;" direction="ltr">Jan.20.2023</text></g><g transform="translate(173.62028630175246 580.9486667283591) rotate(0 190.30720777420356 18.739221772076917)"><text x="0" y="10.492814514717972" font-family="Cascadia, Segoe UI Emoji" font-size="9.963431130224164px" fill="#495057" text-anchor="start" style="white-space: pre;" direction="ltr">In publishing and graphic design, Lorem ipsum is a placeholder </text><text x="0" y="22.985629029435945" font-family="Cascadia, Segoe UI Emoji" font-size="9.963431130224164px" fill="#495057" text-anchor="start" style="white-space: pre;" direction="ltr">text commonly used to demonstrate the visual form of a </text><text x="0" y="35.47844354415392" font-family="Cascadia, Segoe UI Emoji" font-size="9.963431130224164px" fill="#495057" text-anchor="start" style="white-space: pre;" direction="ltr">document  or a typeface without relying  on meaningful content...</text></g><g stroke-linecap="round" transform="translate(174.2210251004317 510.6410343394541) rotate(0 32.31294947790229 7.935000911612406)"><path d="M-1.09 -0.76 L64.78 1.48 L64.83 16.93 L0.05 14.72" stroke="none" stroke-width="0" fill="#868e96"></path><path d="M0.03 0.64 C15.58 -1.06, 31.13 -1.52, 65.91 -1.56 M-0.37 -0.76 C21.53 -0.01, 41.99 -0.29, 65.05 0.71 M63.52 -0.56 C65.4 5.34, 64.7 8.41, 64.24 14.92 M64.56 -0.36 C64.94 5.88, 65.22 13.15, 65.4 16.54 M63.34 14.23 C47.43 15.27, 35.01 15.3, 0.74 14.27 M65.39 16.73 C39.45 16.19, 17.19 17.1, -0.38 15.71 M-1 14.35 C-0.87 11.34, -0.15 5.77, 0.43 0.37 M0.62 15.76 C-0.49 12.86, -0.41 9.43, 0.39 0.4" stroke="#343a40" stroke-width="1" fill="none"></path></g><g transform="translate(177.5875391110194 513.9062673354688) rotate(0 28.56782410188589 4.285173615282929)"><text x="0" y="6.570347230565808" font-family="Cascadia, Segoe UI Emoji" font-size="7.428579622063727px" fill="#fff" text-anchor="start" style="white-space: pre;" direction="ltr">Actions pills</text></g><g stroke-linecap="round"><g transform="translate(18.67582400545689 631.2117736030891) rotate(0 267.87148484270165 0.11268132987265744)"><path d="M-0.23 -0.36 C173.73 -1.23, 348.93 -1.32, 535.97 0.54 M0.08 -0.14 C131.7 1.37, 264.11 1.9, 535.75 -0.25" stroke="#343a40" stroke-width="1" fill="none"></path></g></g><mask></mask><g transform="translate(91.57173792572848 523.5247933374535) rotate(0 12.380808804183289 6.918687272926036)"><text x="0" y="10.837374545852022" font-family="Cascadia, Segoe UI Emoji" font-size="11.652525933349075px" fill="#666" text-anchor="start" style="white-space: pre;" direction="ltr">❤ 3</text></g><g transform="translate(173.60091749821186 541.7500389768793) rotate(0 13.79010855702927 22.06417369124665)"><text x="0" y="36.12834738249342" font-family="Cascadia, Segoe UI Emoji" font-size="36.0089847628781px" fill="#495057" text-anchor="start" style="white-space: pre;" direction="ltr">❞</text></g><g transform="translate(559.9739158447392 506.91657444346583) rotate(0 24.5 8)"><text x="0" y="13" font-family="Helvetica, Segoe UI Emoji" font-size="14.463558832166566px" fill="#343a40" text-anchor="start" style="white-space: pre;" direction="ltr">thought</text></g><g transform="translate(46.607053226694916 650.3946668932249) rotate(0 37 7)"><text x="0" y="11" font-family="Cascadia, Segoe UI Emoji" font-size="11.324469220756093px" fill="#999" text-anchor="start" style="white-space: pre;" direction="ltr">Jan.20.2023</text></g><g stroke-linecap="round" transform="translate(279.0545869387879 690.351431199324) rotate(0 32.31294947790229 7.935000911612406)"><path d="M0.25 0.5 L63.57 -1.4 L65.58 16.63 L-1.61 15.72" stroke="none" stroke-width="0" fill="#868e96"></path><path d="M1.85 0.9 C15.06 -0.5, 24.48 -1.53, 66.02 -0.56 M-0.15 0.67 C14.85 0.43, 29.03 -0.02, 64.03 -0.25 M65.34 1.09 C65.91 6.29, 63.76 10.18, 64.57 16.54 M65.32 0.32 C64.31 4.83, 64.05 7.82, 65.08 16.27 M65.74 16.87 C44.49 14.29, 27.97 15.09, -1.91 17.82 M64.18 15.01 C45.51 16.17, 25.66 15.54, 0.39 15.22 M-0.39 15.54 C0.87 11.76, 1.39 4.52, -1.25 0.27 M-0.19 15.97 C0.58 12.6, -0.68 9.41, -0.69 -0.2" stroke="#343a40" stroke-width="1" fill="none"></path></g><g transform="translate(282.4211009493756 693.6166641953387) rotate(0 28.56782410188589 4.285173615282929)"><text x="0" y="6.570347230565808" font-family="Cascadia, Segoe UI Emoji" font-size="7.428579622063727px" fill="#fff" text-anchor="start" style="white-space: pre;" direction="ltr">Actions pills</text></g><g stroke-linecap="round"><g transform="translate(17.668951325272246 792.8739411028341) rotate(0 268.00629522296686 -0.3243899549879643)"><path d="M0.8 -0.07 C186.72 -1.45, 375.33 -1.19, 535.11 -0.1 M0.2 0.28 C183.28 -1.33, 366.06 -1.53, 535.82 0.36" stroke="#343a40" stroke-width="1" fill="none"></path></g></g><mask></mask><g transform="translate(95.73408203679537 669.9346548368194) rotate(0 12.380808804183289 6.918687272926036)"><text x="0" y="10.837374545852022" font-family="Cascadia, Segoe UI Emoji" font-size="11.652525933349075px" fill="#666" text-anchor="start" style="white-space: pre;" direction="ltr">❤ 3</text></g><g transform="translate(275.0991681585501 726.8721207184831) rotate(0 126.27925917618404 20.617021906315813)"><text x="0" y="8.30851095315788" font-family="Cascadia, Segoe UI Emoji" font-size="8.456073593888808px" fill="#495057" text-anchor="start" style="white-space: pre;" direction="ltr">In publishing and graphic design, Lorem ipsum is</text><text x="0" y="18.61702190631576" font-family="Cascadia, Segoe UI Emoji" font-size="8.456073593888808px" fill="#495057" text-anchor="start" style="white-space: pre;" direction="ltr">a placeholder text commonly used to demonstrate the</text><text x="0" y="28.92553285947364" font-family="Cascadia, Segoe UI Emoji" font-size="8.456073593888808px" fill="#495057" text-anchor="start" style="white-space: pre;" direction="ltr">visual form of a document  or a typeface without</text><text x="0" y="39.23404381263152" font-family="Cascadia, Segoe UI Emoji" font-size="8.456073593888808px" fill="#495057" text-anchor="start" style="white-space: pre;" direction="ltr">relying  on meaningful content. </text></g><g transform="translate(278.66080284340023 661.1851275473714) rotate(0 7.242626655764525 8.745813320168509)"><text x="0" y="12.491626640336865" font-family="Cascadia, Segoe UI Emoji" font-size="13.418551826024638px" fill="#495057" text-anchor="start" style="white-space: pre;" direction="ltr">🗓</text></g><g transform="translate(304.30973807632563 658.7268047593298) rotate(0 93.36564209923199 10.652455809979529)"><text x="0" y="17.304911619958936" font-family="Cascadia, Segoe UI Emoji" font-size="17.634718381867533px" fill="#000000" text-anchor="start" style="white-space: pre;" direction="ltr">Title of the Event</text></g><g stroke-linecap="round" transform="translate(172.63255907911935 653.5652334473807) rotate(0 44.45003028469728 41.26912124685782)"><path d="M20.95 1.31 L72.29 -0.59 L83.42 5.46 L88.75 9.69 L89.4 18.73 L90.18 64.94 L82.23 75.49 L78.02 80.4 L68.97 84.42 L14.77 84.04 L4.68 76.51 L-0.53 65 L-0.98 17.51 L5.58 6.81 L10.9 2.93 L20.93 0.34" stroke="none" stroke-width="0" fill="#ced4da"></path><path d="M20.63 0 M20.63 0 C38.92 -0.32, 55.99 1.42, 68.27 0 M20.63 0 C36.65 0.96, 53.29 0.86, 68.27 0 M68.27 0 C83.87 1.54, 88.51 8.23, 88.9 20.63 M68.27 0 C81.19 0.51, 87.43 5.29, 88.9 20.63 M88.9 20.63 C90.46 34.74, 88.41 52.4, 88.9 61.9 M88.9 20.63 C87.82 33.62, 87.66 45.17, 88.9 61.9 M88.9 61.9 C87.28 75.63, 82.26 80.82, 68.27 82.54 M88.9 61.9 C89.27 74.4, 82.21 83.7, 68.27 82.54 M68.27 82.54 C51.87 80.81, 30.86 82.73, 20.63 82.54 M68.27 82.54 C56.06 82.23, 44.25 82.22, 20.63 82.54 M20.63 82.54 C6.57 82.81, 1.32 75.57, 0 61.9 M20.63 82.54 C9.13 81.11, -0.43 75.12, 0 61.9 M0 61.9 C-0.27 45.92, 1.43 31.99, 0 20.63 M0 61.9 C-0.91 51.95, -0.56 41.53, 0 20.63 M0 20.63 C-1.7 6.1, 6.16 -0.13, 20.63 0 M0 20.63 C-0.61 5.23, 7.08 -0.28, 20.63 0" stroke="#495057" stroke-width="1" fill="none"></path></g><g transform="translate(183.99963768902126 677.9601150833319) rotate(0 31.707081940670378 5.5953674012948795)"><text x="31.707081940670367" y="9.190734802589542" font-family="Cascadia, Segoe UI Emoji" font-size="8.936530447106811px" fill="#000000" text-anchor="middle" style="white-space: pre;" direction="ltr">Jun 11, 2023</text></g><g stroke-linecap="round" transform="translate(181.48628002222085 748.6740323165022) rotate(0 37.451340046919086 10.292720720801071)"><path d="M4.33 -0.91 L71.68 0.62 L75.72 0.98 L75.08 15.79 L71.36 18.78 L1.39 18.37 L1.05 16.84 L0.7 7.03 L0.26 3.11 L4.67 -0.87" stroke="none" stroke-width="0" fill="#868e96"></path><path d="M5.15 0 M5.15 0 C23.49 0.84, 40.06 -0.28, 69.76 0 M5.15 0 C30.72 0.45, 54.84 -0.19, 69.76 0 M69.76 0 C73.01 -1.55, 76.47 2.51, 74.9 5.15 M69.76 0 C71.61 -2.13, 74.54 2.91, 74.9 5.15 M74.9 5.15 C75.74 8.35, 75.64 11.59, 74.9 15.44 M74.9 5.15 C75.23 8.21, 74.95 12.23, 74.9 15.44 M74.9 15.44 C73.45 18.58, 73.82 20.65, 69.76 20.59 M74.9 15.44 C73.22 19.01, 71.39 21.66, 69.76 20.59 M69.76 20.59 C56.41 20.3, 41.39 20.39, 5.15 20.59 M69.76 20.59 C54.65 20.73, 37.82 21.62, 5.15 20.59 M5.15 20.59 C0.1 18.8, 0.3 17.74, 0 15.44 M5.15 20.59 C2.81 19.26, -1.38 18.79, 0 15.44 M0 15.44 C0.15 13.85, -0.04 11.92, 0 5.15 M0 15.44 C0.27 12.83, 0.17 10.44, 0 5.15 M0 5.15 C-1.6 3.02, 0.55 -0.88, 5.15 0 M0 5.15 C0.33 2.7, -0.23 1.41, 5.15 0" stroke="#495057" stroke-width="1" fill="none"></path></g><g transform="translate(177.3866784973543 691.4342180576309) rotate(0 39.54059630248321 8.95258784207158)"><text x="39.540596302483046" y="14.905175684143266" font-family="Cascadia, Segoe UI Emoji" font-size="14.920979736786055px" fill="#000000" text-anchor="middle" style="white-space: pre;" direction="ltr">18:00 AST</text></g><g transform="translate(560.6186129981552 668.4075195426922) rotate(0 18 8)"><text x="0" y="13" font-family="Helvetica, Segoe UI Emoji" font-size="14.463558832166566px" fill="#343a40" text-anchor="start" style="white-space: pre;" direction="ltr">event</text></g></svg>