<svg version="1.1" xmlns="http://www.w3.org/2000/svg" viewBox="0 0 736.1435866911279 2095.6279550364607" width="1472.2871733822558" height="4191.255910072921">
  <!-- svg-source:excalidraw -->
  
  <defs>
    <style class="style-fonts">
      @font-face {
        font-family: "Virgil";
        src: url("https://excalidraw.com/Virgil.woff2");
      }
      @font-face {
        font-family: "Cascadia";
        src: url("https://excalidraw.com/Cascadia.woff2");
      }
    </style>
  </defs>
  <rect x="0" y="0" width="736.1435866911279" height="2095.6279550364607" fill="#ffffff"></rect><g transform="translate(50.73617630432 10) rotate(0 201 21.5)"><text x="0" y="35" font-family="Cascadia, Segoe UI Emoji" font-size="36px" fill="#343a40" text-anchor="start" style="white-space: pre;" direction="ltr">timeline Components</text></g><g stroke-linecap="round"><g transform="translate(10.686561312635604 154.2128624799907) rotate(0 261.60372391545206 0.5633403679526054)"><path d="M0.65 0.92 C87.96 0.91, 436.52 -0.1, 523.68 -0.19 M-0.47 0.35 C86.7 0.55, 435.48 1.6, 522.67 1.25" stroke="#495057" stroke-width="1" fill="none"></path></g></g><mask></mask><g stroke-linecap="round"><g transform="translate(145.06428903332562 153.6108128877495) rotate(0 0.7817313346631636 966.2122338168251)"><path d="M-0.27 0.95 C0.05 323.1, 1.08 1610.35, 0.94 1932.02 M1.79 0.41 C2.12 322.24, 0.59 1608.1, 0.49 1930.01" stroke="#495057" stroke-width="1" fill="none"></path></g></g><mask></mask><g transform="translate(558.908687694202 252.80383992638235) rotate(0 83.61744949846297 8.135751843093658)"><text x="0" y="13.271503686187405" font-family="Helvetica, Segoe UI Emoji" font-size="14.463558832166566px" fill="#343a40" text-anchor="start" style="white-space: pre;" direction="ltr">article / essays / blog post</text></g><g transform="translate(22.026906833864814 254.40110574110258) rotate(0 53.437339135442926 6.7239035998238705)"><text x="0" y="10.44780719964786" font-family="Cascadia, Segoe UI Emoji" font-size="11.324469220756093px" fill="#000000" text-anchor="start" style="white-space: pre;" direction="ltr">Fri Jan 20, 2023</text></g><g stroke-linecap="round" transform="translate(139.45534273005978 254.8285824386644) rotate(0 6.777688997345649 6.777688997345649)"><path d="M7.94 0.44 C9.34 0.44, 11.74 1.45, 12.56 2.37 C13.39 3.29, 13.02 4.57, 12.89 5.95 C12.75 7.33, 12.62 9.5, 11.74 10.63 C10.86 11.76, 9.08 12.46, 7.61 12.73 C6.15 13.01, 4.06 13.02, 2.95 12.28 C1.83 11.55, 1.23 9.61, 0.92 8.33 C0.61 7.05, 0.84 5.72, 1.09 4.6 C1.35 3.48, 0.98 2.36, 2.43 1.6 C3.89 0.83, 8.48 0.08, 9.81 0.02 C11.14 -0.03, 10.52 0.89, 10.39 1.27 M6.39 0.68 C7.61 0.68, 8.87 0.36, 10.3 1.22 C11.72 2.08, 14.73 4.54, 14.91 5.84 C15.1 7.15, 12.44 7.57, 11.39 9.05 C10.34 10.53, 9.8 13.89, 8.62 14.72 C7.43 15.55, 5.41 14.88, 4.27 14.04 C3.12 13.19, 2.22 11.23, 1.73 9.64 C1.25 8.05, 1.24 5.99, 1.38 4.5 C1.53 3.01, 1.51 1.55, 2.59 0.72 C3.67 -0.12, 7.14 -0.57, 7.88 -0.51 C8.62 -0.46, 7.31 1.02, 7.02 1.04" stroke="none" stroke-width="0" fill="#fff"></path><path d="M5.32 0.85 C6.65 0.49, 8.29 -0.39, 9.51 0.29 C10.74 0.98, 12.12 3.58, 12.65 4.96 C13.19 6.34, 13.01 7.13, 12.7 8.59 C12.39 10.04, 11.93 12.71, 10.81 13.67 C9.69 14.63, 7.44 14.63, 5.97 14.34 C4.51 14.06, 3.14 13.17, 2.01 11.97 C0.89 10.77, -0.63 8.81, -0.77 7.16 C-0.91 5.52, -0.03 3.4, 1.18 2.1 C2.39 0.79, 5.39 -0.23, 6.5 -0.67 C7.61 -1.1, 7.86 -0.77, 7.87 -0.51 M10.32 0.86 C11.72 1.33, 12.4 2.88, 13.13 4.29 C13.86 5.7, 15.03 8.19, 14.71 9.29 C14.38 10.39, 12.81 10.19, 11.19 10.9 C9.57 11.61, 6.45 13.4, 5 13.55 C3.55 13.7, 3.2 12.71, 2.48 11.82 C1.76 10.93, 1.15 9.9, 0.7 8.21 C0.26 6.53, -0.96 2.86, -0.18 1.71 C0.6 0.55, 3.87 1.24, 5.38 1.29 C6.9 1.33, 8.28 1.93, 8.92 1.97 C9.56 2.01, 9.17 1.65, 9.21 1.51" stroke="#495057" stroke-width="1" fill="none"></path></g><g transform="translate(170.53427884238044 249.5234560271906) rotate(0 169 19)"><text x="0" y="15" font-family="Cascadia, Segoe UI Emoji" font-size="16px" fill="#495057" text-anchor="start" style="white-space: pre;" direction="ltr">Lorem Ipsum Dolor Asid Amet. What is</text><text x="0" y="34" font-family="Cascadia, Segoe UI Emoji" font-size="16px" fill="#495057" text-anchor="start" style="white-space: pre;" direction="ltr">it? Where to find?</text></g><g stroke-linecap="round" transform="translate(169.9298121303791 308.71324196954583) rotate(0 175.64013947746344 79.68875402251524)"><path d="M7.86 8.16 C7.86 8.16, 7.86 8.16, 7.86 8.16 M7.86 8.16 C7.86 8.16, 7.86 8.16, 7.86 8.16 M3.66 19.09 C5.8 12.7, 12.63 11.92, 18.1 2.48 M3.66 19.09 C8.01 14.3, 11.73 9.48, 18.1 2.48 M2.75 26.24 C8.42 22.54, 12.54 16.67, 24.4 1.33 M2.75 26.24 C9.92 18.26, 14.54 12.05, 24.4 1.33 M2.48 32.64 C11.57 22.27, 17.86 14.65, 30.7 0.18 M2.48 32.64 C9.23 23.88, 17.81 15.72, 30.7 0.18 M2.88 38.28 C15.49 26.77, 25.27 11.05, 34.37 2.05 M2.88 38.28 C14.29 24.66, 27.44 11.84, 34.37 2.05 M2.62 44.68 C14.5 30.39, 31.93 14.81, 39.36 2.41 M2.62 44.68 C12.65 34.19, 22.6 22.38, 39.36 2.41 M2.36 51.07 C17.96 30.19, 38.11 12.1, 45 2.02 M2.36 51.07 C10.5 39.73, 19.85 30.26, 45 2.02 M2.75 56.72 C10.83 45.01, 21.93 33.67, 49.99 2.38 M2.75 56.72 C19.9 35.71, 37.91 15.42, 49.99 2.38 M2.49 63.11 C20.78 41.92, 38.03 22.21, 55.63 1.98 M2.49 63.11 C15.91 46.66, 30.88 28.84, 55.63 1.98 M2.88 68.76 C24.32 44.27, 47.01 21.04, 60.62 2.34 M2.88 68.76 C25.86 43.06, 47.56 16.52, 60.62 2.34 M2.62 75.16 C23.56 51.81, 45.68 27.66, 66.26 1.95 M2.62 75.16 C17.63 58.23, 31.23 43.74, 66.26 1.95 M2.36 81.55 C25.63 56.82, 46.5 27.49, 71.25 2.31 M2.36 81.55 C23.65 56.03, 46.27 32.94, 71.25 2.31 M2.76 87.2 C21.83 64.41, 43.22 38.47, 76.89 1.91 M2.76 87.2 C25.92 59.52, 48.43 32.81, 76.89 1.91 M2.49 93.59 C31.82 57.58, 62.78 22.91, 81.88 2.27 M2.49 93.59 C21.04 73.28, 39.74 53.29, 81.88 2.27 M2.89 99.24 C32.79 64.33, 62.02 29.49, 87.52 1.88 M2.89 99.24 C20.64 78.06, 37.95 58.3, 87.52 1.88 M2.63 105.64 C35.33 69.89, 66.24 29.57, 92.51 2.24 M2.63 105.64 C28.3 77.67, 52.69 49, 92.51 2.24 M2.37 112.03 C26.06 86.73, 47.23 58.97, 98.15 1.85 M2.37 112.03 C22.65 86.32, 44.77 59.68, 98.15 1.85 M2.76 117.68 C25.72 91.37, 52.93 61.41, 103.14 2.21 M2.76 117.68 C29.1 87.75, 55.01 59.12, 103.14 2.21 M2.5 124.07 C24.87 97.54, 46.62 72.09, 108.78 1.81 M2.5 124.07 C27.26 97.47, 50.54 70.07, 108.78 1.81 M2.89 129.72 C47.76 76.55, 93.35 28.66, 113.77 2.17 M2.89 129.72 C26.44 102.57, 50.01 74.71, 113.77 2.17 M2.63 136.11 C43.13 92.79, 85.15 46.22, 119.41 1.78 M2.63 136.11 C39.76 93.99, 76.19 50.85, 119.41 1.78 M3.68 141 C50.35 88.15, 96.2 35.73, 124.4 2.14 M3.68 141 C38.33 99.1, 74.74 57.98, 124.4 2.14 M5.39 145.14 C48.13 96.3, 88.77 46.68, 130.04 1.74 M5.39 145.14 C54.31 88.86, 103.16 32.33, 130.04 1.74 M7.1 149.27 C39.4 107.95, 75.92 70, 135.03 2.1 M7.1 149.27 C36.99 115.86, 66.94 81.07, 135.03 2.1 M10.12 151.89 C53.71 99.08, 101.04 47.08, 140.67 1.71 M10.12 151.89 C61.76 93.29, 114.34 33.61, 140.67 1.71 M12.48 155.27 C60.09 100.85, 110.49 44.43, 145.66 2.07 M12.48 155.27 C51.95 110.16, 89.76 65.64, 145.66 2.07 M16.81 156.39 C50.72 115.72, 89.47 73.57, 150.65 2.43 M16.81 156.39 C43.23 125.76, 70.66 94.31, 150.65 2.43 M21.14 157.5 C57.06 115.99, 89.11 74.89, 156.29 2.03 M21.14 157.5 C65.8 106.06, 110.33 54.31, 156.29 2.03 M24.82 159.37 C64.15 112.1, 104.74 66, 161.28 2.39 M24.82 159.37 C76.57 97.56, 130.62 36.4, 161.28 2.39 M29.8 159.73 C58.22 128.63, 85.82 95, 166.92 2 M29.8 159.73 C72.91 111.84, 115.19 62.46, 166.92 2 M34.13 160.85 C83.86 101.85, 135.77 42.14, 171.91 2.36 M34.13 160.85 C69.14 121.62, 103.48 81.76, 171.91 2.36 M39.12 161.21 C83.85 108.24, 130.5 56.83, 177.55 1.96 M39.12 161.21 C70.73 125.62, 103.28 89.6, 177.55 1.96 M44.76 160.81 C90.52 107.47, 135.7 54.71, 182.54 2.32 M44.76 160.81 C94.64 103.81, 145.01 44.87, 182.54 2.32 M49.75 161.17 C78.23 126.66, 106.22 94.4, 188.18 1.93 M49.75 161.17 C96.94 103.47, 146.48 48.67, 188.18 1.93 M55.39 160.78 C100.67 104.71, 147.29 51.8, 193.17 2.29 M55.39 160.78 C90.09 118.88, 125.25 79.48, 193.17 2.29 M60.38 161.14 C102.09 110.15, 145.75 61.38, 198.81 1.9 M60.38 161.14 C111.58 101.69, 165.14 39.04, 198.81 1.9 M66.02 160.74 C104.07 117.89, 139.41 77.06, 203.8 2.26 M66.02 160.74 C108.05 111.29, 151.45 62.64, 203.8 2.26 M71.01 161.1 C115.95 107.27, 161.59 56.02, 209.44 1.86 M71.01 161.1 C114.71 108.01, 160.49 56.57, 209.44 1.86 M76.65 160.71 C118.04 115.2, 161.73 64.26, 214.43 2.22 M76.65 160.71 C113.94 118.1, 150.38 74.16, 214.43 2.22 M81.64 161.07 C123.18 114.33, 166.22 64.1, 220.07 1.83 M81.64 161.07 C134.27 98.85, 189.08 36.45, 220.07 1.83 M86.63 161.43 C135.31 105.47, 185.74 48.2, 225.06 2.19 M86.63 161.43 C133.43 107.6, 179.88 55.37, 225.06 2.19 M92.27 161.04 C125.35 120.45, 161.22 83.56, 230.7 1.79 M92.27 161.04 C132.16 115.38, 170.24 70.64, 230.7 1.79 M97.26 161.4 C132.14 120.22, 170.92 75.69, 235.69 2.15 M97.26 161.4 C134.9 118.12, 172.23 75.72, 235.69 2.15 M102.9 161 C146.26 111.96, 189.29 60, 241.33 1.76 M102.9 161 C148.98 108.03, 195.35 54.32, 241.33 1.76 M107.89 161.36 C158.5 101.73, 211.33 44.18, 246.32 2.12 M107.89 161.36 C148.74 117.61, 187.81 70.97, 246.32 2.12 M113.53 160.97 C151.81 116.28, 188.39 73.69, 251.96 1.72 M113.53 160.97 C164.92 101.45, 218.9 40.14, 251.96 1.72 M118.52 161.33 C165.46 107.89, 213.48 54.48, 256.95 2.08 M118.52 161.33 C166.55 105.31, 216.73 48.22, 256.95 2.08 M124.16 160.93 C176.35 98.14, 232.14 36.05, 262.59 1.69 M124.16 160.93 C160.04 118.77, 196.76 75.74, 262.59 1.69 M129.15 161.29 C177.1 108.23, 224.16 56.13, 267.58 2.05 M129.15 161.29 C174.09 112.76, 216.91 62.07, 267.58 2.05 M134.79 160.9 C188.12 98.7, 239.16 39.5, 272.56 2.41 M134.79 160.9 C179.54 109.15, 223.98 57.28, 272.56 2.41 M139.78 161.26 C176.97 118.74, 216.54 72.53, 278.21 2.01 M139.78 161.26 C187.16 105.35, 235.18 50.56, 278.21 2.01 M145.42 160.86 C183.59 119.22, 217.81 78.92, 283.19 2.37 M145.42 160.86 C190.95 108.14, 237.09 56.9, 283.19 2.37 M150.41 161.22 C199.59 103.82, 247.36 47.87, 288.84 1.98 M150.41 161.22 C192.62 113.31, 235.39 63.59, 288.84 1.98 M156.05 160.83 C193.24 117.92, 231.59 73.57, 293.82 2.34 M156.05 160.83 C199.26 109.26, 245.38 57.77, 293.82 2.34 M161.04 161.19 C206.34 110.77, 249.96 57.92, 299.47 1.94 M161.04 161.19 C215.49 98.25, 269.54 33.82, 299.47 1.94 M166.68 160.79 C215.6 105.56, 261.86 47.72, 304.45 2.3 M166.68 160.79 C193.46 128, 221.6 96.59, 304.45 2.3 M171.67 161.15 C201.12 126.88, 229.31 94.4, 310.1 1.91 M171.67 161.15 C210.73 114.98, 250.25 71.27, 310.1 1.91 M177.31 160.76 C218.33 117.14, 254.25 72.72, 315.08 2.27 M177.31 160.76 C220.92 107.83, 267.26 55.35, 315.08 2.27 M182.3 161.12 C236.02 99.82, 288.47 37.74, 320.73 1.88 M182.3 161.12 C233.94 100.33, 287.28 39.79, 320.73 1.88 M187.94 160.72 C232.1 109.45, 281.12 52.99, 327.03 0.73 M187.94 160.72 C229.23 112.13, 272.28 65.94, 327.03 0.73 M192.93 161.08 C239.49 107.3, 287.44 54.82, 331.36 1.84 M192.93 161.08 C244.69 100.48, 295.64 40.9, 331.36 1.84 M198.57 160.69 C229.12 125.75, 262.6 89.19, 335.03 3.71 M198.57 160.69 C227.08 127.71, 254.47 96.02, 335.03 3.71 M203.56 161.05 C239.34 117.17, 276.07 75.26, 339.36 4.83 M203.56 161.05 C244.56 114.44, 285.05 68.92, 339.36 4.83 M208.55 161.41 C259.34 102.77, 307.29 45.87, 342.38 7.45 M208.55 161.41 C254.38 108.96, 301.06 55.66, 342.38 7.45 M214.19 161.02 C253.17 118.47, 293.22 74.61, 344.74 10.83 M214.19 161.02 C244.33 126.57, 277.14 88.76, 344.74 10.83 M219.18 161.38 C247.17 129.21, 276.86 95.55, 347.76 13.45 M219.18 161.38 C261.29 110.72, 304.91 62.29, 347.76 13.45 M224.82 160.98 C256.24 127.82, 284.98 92.31, 349.47 17.59 M224.82 160.98 C256.62 122.61, 290.58 85.2, 349.47 17.59 M229.81 161.34 C266.53 116.97, 306.17 73.57, 352.49 20.21 M229.81 161.34 C279.12 104.88, 327.39 47.81, 352.49 20.21 M235.45 160.95 C266.01 125.46, 296.18 89.65, 352.88 25.85 M235.45 160.95 C268.24 124.81, 299.9 87.35, 352.88 25.85 M240.44 161.31 C263.55 133.16, 290.84 104.44, 351.97 33.01 M240.44 161.31 C267.29 129.47, 296.8 97.17, 351.97 33.01 M246.08 160.91 C271.71 133.41, 296.91 104.59, 352.36 38.65 M246.08 160.91 C283.36 117.97, 320.36 76.54, 352.36 38.65 M251.07 161.27 C277 131.89, 298.03 103.14, 352.1 45.05 M251.07 161.27 C275.93 132.89, 301.21 105.08, 352.1 45.05 M256.71 160.88 C288.23 123.48, 321.49 89.57, 352.49 50.69 M256.71 160.88 C293.91 119.64, 331.15 76.83, 352.49 50.69 M261.7 161.24 C289.46 134.38, 313.24 104.57, 352.23 57.09 M261.7 161.24 C299 119.5, 334.17 77.03, 352.23 57.09 M267.34 160.84 C288 132.91, 311.62 107.43, 351.97 63.49 M267.34 160.84 C293.39 132.84, 317.4 103.67, 351.97 63.49 M272.33 161.2 C301 127.58, 331.95 94.8, 352.37 69.13 M272.33 161.2 C303.29 126.28, 331.66 92.43, 352.37 69.13 M277.97 160.81 C298.01 140.11, 313.64 120.97, 352.1 75.53 M277.97 160.81 C294 143.37, 310.48 126.05, 352.1 75.53 M282.96 161.17 C303.9 134.16, 326.94 108.66, 351.84 81.92 M282.96 161.17 C305.58 134.33, 327.95 109.09, 351.84 81.92 M288.6 160.77 C303.54 145.19, 319.46 127.03, 352.24 87.57 M288.6 160.77 C303.45 144.23, 318.34 126.45, 352.24 87.57 M293.59 161.13 C313.94 140.44, 331.5 115.65, 351.98 93.97 M293.59 161.13 C307.45 145.06, 321.34 130.42, 351.98 93.97 M299.23 160.74 C310.89 146.87, 322.41 131.83, 352.37 99.61 M299.23 160.74 C316.43 141.47, 332.92 123.12, 352.37 99.61 M304.22 161.1 C322.11 142.37, 336.97 122.54, 352.11 106.01 M304.22 161.1 C320.09 142.69, 337.71 122.4, 352.11 106.01 M309.86 160.71 C323.74 145.56, 333.35 131.56, 351.85 112.4 M309.86 160.71 C325.33 143.35, 340.17 126.29, 351.85 112.4 M314.85 161.07 C323.61 147.34, 336.09 138.63, 352.24 118.05 M314.85 161.07 C328.52 145.83, 341.92 129.26, 352.24 118.05 M320.49 160.67 C329.38 154.01, 334.23 143.77, 351.98 124.45 M320.49 160.67 C333.07 147.32, 343.2 133.77, 351.98 124.45 M326.79 159.52 C334.28 154.58, 339.43 146.29, 353.03 129.33 M326.79 159.52 C333.63 151.44, 340.65 142.37, 353.03 129.33 M333.74 157.62 C340.46 150.39, 343.6 146.4, 352.11 136.49 M333.74 157.62 C339.64 151.18, 343.63 146.49, 352.11 136.49 M12.47 154.85 C12.47 154.85, 12.47 154.85, 12.47 154.85 M12.47 154.85 C12.47 154.85, 12.47 154.85, 12.47 154.85 M22.64 158.39 C16.8 155.27, 10.5 147.78, 6.79 144.61 M22.64 158.39 C20.16 155.12, 15.67 153.04, 6.79 144.61 M26.77 156.68 C18.91 151.95, 11.52 144.41, 1.11 134.38 M26.77 156.68 C21.33 150.39, 14.29 146.57, 1.11 134.38 M33.93 157.6 C22.99 147.5, 10.84 136.57, 0.72 128.74 M33.93 157.6 C22.41 146.91, 8.45 135.45, 0.72 128.74 M39.57 157.21 C30.62 147.82, 22.96 140.98, 1.08 123.75 M39.57 157.21 C27.28 146.59, 13.97 134.31, 1.08 123.75 M45.97 157.47 C31.74 146.03, 17 134, 0.68 118.11 M45.97 157.47 C29.61 142.56, 13.54 129.7, 0.68 118.11 M52.36 157.73 C31.86 140.59, 13.22 121.92, 1.04 113.12 M52.36 157.73 C35.79 143.83, 18.9 127.5, 1.04 113.12 M58.01 157.34 C45.97 146.21, 33.59 134.34, 0.65 107.48 M58.01 157.34 C39.21 141.58, 20.95 124.34, 0.65 107.48 M64.4 157.6 C46.73 142.89, 26.16 127.22, 1.01 102.49 M64.4 157.6 C46.26 142.76, 27.52 127.05, 1.01 102.49 M70.05 157.2 C54.17 142.29, 38.14 129.64, 1.37 97.5 M70.05 157.2 C50.46 140.26, 32.4 123.06, 1.37 97.5 M76.45 157.46 C62.04 142.37, 45.8 128.16, 0.97 91.86 M76.45 157.46 C51.47 134.5, 26 113.02, 0.97 91.86 M82.84 157.73 C64.24 142.29, 44.86 123.69, 1.33 86.87 M82.84 157.73 C63.77 141.46, 46.93 127.12, 1.33 86.87 M88.49 157.33 C71.43 143.03, 51.78 125.96, 0.94 81.23 M88.49 157.33 C70.64 141.76, 53.49 126.96, 0.94 81.23 M94.88 157.59 C68.85 134.41, 41.61 111.54, 1.3 76.24 M94.88 157.59 C60.51 127.25, 27.29 97.57, 1.3 76.24 M100.53 157.2 C70.09 127.76, 37.13 102.94, 0.91 70.6 M100.53 157.2 C65.01 126.83, 31.54 96.94, 0.91 70.6 M106.93 157.46 C77.08 130.85, 46.41 103.72, 1.27 65.61 M106.93 157.46 C73.38 127.08, 39.7 98.7, 1.27 65.61 M113.32 157.72 C77.07 127.98, 42.82 96.21, 0.87 59.97 M113.32 157.72 C84.78 133.77, 57.95 111.53, 0.87 59.97 M118.97 157.33 C78.8 120.54, 38.85 87, 1.23 54.98 M118.97 157.33 C81.5 123.58, 43.72 91.44, 1.23 54.98 M125.36 157.59 C78.5 120.14, 32.29 78.55, 0.84 49.34 M125.36 157.59 C95.77 130.54, 64.99 104.21, 0.84 49.34 M131.01 157.19 C101.66 132.1, 71.81 105.68, 1.2 44.35 M131.01 157.19 C80.51 113.83, 29.28 69.45, 1.2 44.35 M137.4 157.45 C82.94 112.69, 31.47 64.92, 0.8 38.71 M137.4 157.45 C93.99 117.01, 48.51 78.23, 0.8 38.71 M143.8 157.72 C112.63 133.01, 83.56 106.4, 1.16 33.72 M143.8 157.72 C88.68 107.62, 32.87 59.57, 1.16 33.72 M149.45 157.32 C107.92 121.87, 64.8 85.34, 0.77 28.08 M149.45 157.32 C94.26 110.19, 38.91 62.66, 0.77 28.08 M155.84 157.58 C105.9 117.48, 57.72 75.64, 1.13 23.09 M155.84 157.58 C103.84 113.77, 52.12 68.42, 1.13 23.09 M161.49 157.19 C117.36 117.45, 71.76 79.75, 2.24 18.76 M161.49 157.19 C116.06 120.17, 72.45 81.46, 2.24 18.76 M167.88 157.45 C122.5 119.21, 78.16 83.32, 4.11 15.08 M167.88 157.45 C115.01 109.74, 61.8 65.21, 4.11 15.08 M174.28 157.71 C131.79 121.03, 93.04 84.99, 6.74 12.07 M174.28 157.71 C133.31 123.72, 94.25 88.61, 6.74 12.07 M179.93 157.32 C121.32 105.86, 64.85 58.37, 7.85 7.73 M179.93 157.32 C113.95 99.88, 47.99 42.61, 7.85 7.73 M186.32 157.58 C127.08 107.19, 67.52 55.01, 11.98 6.03 M186.32 157.58 C143.53 117.72, 99.44 80.07, 11.98 6.03 M191.97 157.18 C148.94 122.16, 105.54 84.13, 15.36 3.67 M191.97 157.18 C153.85 123.77, 115.26 90.63, 15.36 3.67 M198.36 157.44 C135.6 105.49, 71.88 52.41, 18.74 1.3 M198.36 157.44 C155.37 117.62, 111.91 79.92, 18.74 1.3 M204.76 157.71 C147.08 110.04, 89.78 58.82, 23.63 0.25 M204.76 157.71 C154.62 113.56, 104.89 68.2, 23.63 0.25 M210.4 157.31 C145.29 99.45, 77.51 41.95, 29.27 -0.14 M210.4 157.31 C150.43 104.22, 90.01 51.39, 29.27 -0.14 M216.8 157.57 C158.64 105.97, 102.41 55.24, 33.41 -1.85 M216.8 157.57 C166.06 113.21, 114.82 69.86, 33.41 -1.85 M222.45 157.18 C164.65 107.14, 105.53 53.11, 39.81 -1.59 M222.45 157.18 C158.34 101.82, 94.87 46.76, 39.81 -1.59 M228.84 157.44 C157.37 95.49, 89.11 35.46, 45.45 -1.98 M228.84 157.44 C174.26 110.12, 119.67 63.16, 45.45 -1.98 M235.24 157.7 C186.88 117.61, 141.29 76.79, 51.85 -1.72 M235.24 157.7 C175.93 107.69, 117.51 56.13, 51.85 -1.72 M240.88 157.31 C181.63 104.49, 122.66 55.02, 58.24 -1.46 M240.88 157.31 C196.57 116.58, 150.94 76.98, 58.24 -1.46 M247.28 157.57 C209.28 123.8, 173.04 92.04, 63.89 -1.85 M247.28 157.57 C208.23 125.9, 168.96 91.97, 63.89 -1.85 M252.92 157.17 C193.32 105, 134.56 54.52, 70.29 -1.59 M252.92 157.17 C210.12 119.43, 166.44 82.55, 70.29 -1.59 M259.32 157.44 C195.49 101.81, 129.58 43.16, 75.93 -1.99 M259.32 157.44 C193.84 100.54, 127.46 42.68, 75.93 -1.99 M265.72 157.7 C227.07 120.85, 186.41 87.29, 82.33 -1.73 M265.72 157.7 C193.91 95.1, 122.75 33.14, 82.33 -1.73 M271.36 157.3 C219.11 113.46, 169.46 67.54, 88.72 -1.46 M271.36 157.3 C230.39 121.62, 189.77 86.47, 88.72 -1.46 M277.76 157.56 C239.33 123.78, 200.57 90.71, 94.37 -1.86 M277.76 157.56 C235.41 123.15, 195.11 87.33, 94.37 -1.86 M283.4 157.17 C226.6 105.73, 171.17 60.41, 100.76 -1.6 M283.4 157.17 C231.03 112.27, 178.32 66.54, 100.76 -1.6 M289.8 157.43 C216.91 96.84, 149.26 34.79, 106.41 -1.99 M289.8 157.43 C237.21 112.43, 184.72 66.85, 106.41 -1.99 M296.2 157.69 C231.76 106.33, 170.22 53.28, 112.81 -1.73 M296.2 157.69 C238.1 107.7, 180.53 56.53, 112.81 -1.73 M301.84 157.3 C231.95 96.02, 165.76 36.09, 119.2 -1.47 M301.84 157.3 C247.62 109.82, 192.19 60.64, 119.2 -1.47 M308.24 157.56 C266.82 122.65, 228.79 88.43, 124.85 -1.86 M308.24 157.56 C252.35 109.91, 198.51 63.87, 124.85 -1.86 M313.88 157.16 C257.26 106.88, 199.95 59.69, 131.24 -1.6 M313.88 157.16 C267.36 116.63, 222.89 78.26, 131.24 -1.6 M321.04 158.08 C283.09 122.53, 246.62 92.17, 136.89 -2 M321.04 158.08 C261.45 107.01, 202.68 55.4, 136.89 -2 M325.92 157.03 C279.46 118.81, 234.92 81.37, 143.29 -1.74 M325.92 157.03 C280.55 115.46, 232.89 75.7, 143.29 -1.74 M330.81 155.98 C279.62 112.34, 230.33 66.64, 149.68 -1.47 M330.81 155.98 C278.79 111.44, 226.64 65.68, 149.68 -1.47 M335.7 154.93 C274.92 101.43, 214.33 47.73, 155.33 -1.87 M335.7 154.93 C278.66 104.71, 222.51 55.67, 155.33 -1.87 M339.84 153.22 C301.47 120.49, 259.6 87.2, 161.72 -1.61 M339.84 153.22 C302.33 122.32, 264.61 89.17, 161.72 -1.61 M343.21 150.86 C290.71 107.62, 236.3 60.62, 167.37 -2 M343.21 150.86 C276.09 91.96, 209.48 34.41, 167.37 -2 M345.84 147.84 C288.78 96.28, 230.59 45.03, 173.76 -1.74 M345.84 147.84 C295.38 104.99, 243.92 61.34, 173.76 -1.74 M348.46 144.82 C298.2 99.32, 244.73 55.11, 180.16 -1.48 M348.46 144.82 C307.71 107.98, 264.29 71.44, 180.16 -1.48 M349.58 140.49 C290.04 88.98, 229.77 34.94, 185.81 -1.87 M349.58 140.49 C304.61 101.76, 260.08 63.93, 185.81 -1.87 M351.45 136.82 C303.37 91.92, 251.78 49.59, 192.2 -1.61 M351.45 136.82 C303.51 97.39, 256.37 55.54, 192.2 -1.61 M352.56 132.49 C298.84 86.61, 246.67 37.52, 197.85 -2.01 M352.56 132.49 C309.67 96.24, 268.16 60.19, 197.85 -2.01 M352.17 126.84 C304.76 85.38, 257.23 41.18, 204.24 -1.75 M352.17 126.84 C302.44 85.07, 252.68 41.45, 204.24 -1.75 M351.77 121.2 C303.3 80.93, 258.05 42.2, 210.64 -1.48 M351.77 121.2 C304.53 81.5, 257.42 41.18, 210.64 -1.48 M352.13 116.21 C306.01 80.47, 262.18 40.74, 216.28 -1.88 M352.13 116.21 C304.03 73.74, 255.19 32.53, 216.28 -1.88 M351.74 110.57 C313.85 77.57, 275.12 43.05, 222.68 -1.62 M351.74 110.57 C313.04 79.28, 275.54 45.39, 222.68 -1.62 M352.1 105.58 C306.91 66.19, 265.11 28.84, 228.33 -2.01 M352.1 105.58 C303.04 65.63, 255.72 23.62, 228.33 -2.01 M351.7 99.94 C323.75 75.9, 291 47.39, 234.72 -1.75 M351.7 99.94 C314.26 66.37, 276.67 33.88, 234.72 -1.75 M352.06 94.95 C322.4 69.84, 295.65 46.23, 241.12 -1.49 M352.06 94.95 C327.87 71.87, 301.5 49.57, 241.12 -1.49 M351.67 89.31 C322.73 60.35, 289.03 33.57, 246.76 -1.88 M351.67 89.31 C310.57 54.01, 272 19.27, 246.76 -1.88 M352.03 84.32 C324.98 62.64, 299.99 37.92, 253.16 -1.62 M352.03 84.32 C317.23 54.87, 284.8 26.06, 253.16 -1.62 M351.63 78.68 C320.33 51.62, 285.74 20.6, 258.81 -2.02 M351.63 78.68 C320.91 50.78, 290.48 24.93, 258.81 -2.02 M351.99 73.69 C327.38 52.38, 303.59 31.7, 265.2 -1.75 M351.99 73.69 C322.31 48.9, 294.74 23.53, 265.2 -1.75 M351.6 68.05 C328.48 47.36, 306.48 28.47, 271.6 -1.49 M351.6 68.05 C332.54 50.5, 313.07 33.08, 271.6 -1.49 M351.96 63.06 C321.48 39.59, 294.57 13.2, 277.24 -1.89 M351.96 63.06 C333.37 46.03, 312.77 29.45, 277.24 -1.89 M351.57 57.42 C328.9 36.68, 304.69 17.73, 283.64 -1.63 M351.57 57.42 C330.6 37.83, 306.94 18.65, 283.64 -1.63 M351.93 52.43 C335.82 38.6, 317.47 23.36, 289.28 -2.02 M351.93 52.43 C329.44 32.47, 305.07 13.2, 289.28 -2.02 M352.29 47.44 C334.64 32.02, 320.44 20.29, 295.68 -1.76 M352.29 47.44 C331.8 30.22, 310.63 12.14, 295.68 -1.76 M351.89 41.8 C336.18 28.07, 320.29 14.02, 302.08 -1.5 M351.89 41.8 C336.41 28.1, 319.87 12.96, 302.08 -1.5 M352.25 36.81 C335.43 20.52, 320.95 6.91, 307.72 -1.89 M352.25 36.81 C342.14 27.55, 330.48 17.72, 307.72 -1.89 M351.86 31.17 C335.45 17.68, 322.15 5.75, 314.12 -1.63 M351.86 31.17 C336.95 18.48, 321.22 5.59, 314.12 -1.63 M350.71 24.87 C342.19 16.91, 334.63 10.71, 320.52 -1.37 M350.71 24.87 C341.69 17.54, 333.25 9.18, 320.52 -1.37 M350.31 19.23 C341.82 13.87, 337.41 5.68, 327.67 -0.45 M350.31 19.23 C343.63 13.64, 339 9.69, 327.67 -0.45" stroke="#868e96" stroke-width="0.5" fill="none"></path><path d="M32 0 M32 0 C116.37 1.22, 202.05 3.05, 319.28 0 M32 0 C125.07 -0.3, 219.35 -0.85, 319.28 0 M319.28 0 C339.15 1.14, 350.93 12.64, 351.28 32 M319.28 0 C340.33 1.98, 351.89 12.8, 351.28 32 M351.28 32 C348.81 52.48, 348.52 75.19, 351.28 127.38 M351.28 32 C352.2 52.7, 351.71 72.24, 351.28 127.38 M351.28 127.38 C350.22 146.8, 340.92 158.89, 319.28 159.38 M351.28 127.38 C349.27 146.53, 341.92 159.01, 319.28 159.38 M319.28 159.38 C255.04 157.12, 188.96 158.76, 32 159.38 M319.28 159.38 C223.32 160.7, 126.7 159.34, 32 159.38 M32 159.38 C9.89 161.28, -0.4 149.85, 0 127.38 M32 159.38 C10.23 160.15, -1 147.39, 0 127.38 M0 127.38 C1.79 100.2, -0.97 71.91, 0 32 M0 127.38 C-1.27 91.19, 0.48 56.05, 0 32 M0 32 C0.92 11.48, 12.65 0.97, 32 0 M0 32 C-2.11 12.35, 10.23 -0.7, 32 0" stroke="#495057" stroke-width="1" fill="none"></path></g><g transform="translate(14.30231906458721 277.5101765724744) rotate(0 58.228460343430925 8.994640215651998)"><text x="0" y="13.989280431303865" font-family="Cascadia, Segoe UI Emoji" font-size="15.148867731624305px" fill="#666" text-anchor="start" style="white-space: pre;" direction="ltr">Actions pills</text></g><g transform="translate(173.71706234773683 490.4567666885732) rotate(0 171.5 21)"><text x="0" y="11" font-family="Helvetica, Segoe UI Emoji" font-size="11.962994149740359px" fill="#495057" text-anchor="start" style="white-space: pre;" direction="ltr">In publishing and graphic design, Lorem ipsum is a placeholder </text><text x="0" y="25" font-family="Helvetica, Segoe UI Emoji" font-size="11.962994149740359px" fill="#495057" text-anchor="start" style="white-space: pre;" direction="ltr">text commonly used to demonstrate the visual form of a </text><text x="0" y="39" font-family="Helvetica, Segoe UI Emoji" font-size="11.962994149740359px" fill="#495057" text-anchor="start" style="white-space: pre;" direction="ltr">document  or a typeface without relying  on meaningful content...</text></g><g transform="translate(21.3498295564641 630.3727373284582) rotate(0 53.437339135442926 6.7239035998238705)"><text x="0" y="10.44780719964786" font-family="Cascadia, Segoe UI Emoji" font-size="11.324469220756093px" fill="#000000" text-anchor="start" style="white-space: pre;" direction="ltr">Fri Jan 20, 2023</text></g><g stroke-linecap="round" transform="translate(138.77826545265998 630.8002140260196) rotate(0 6.777688997345649 6.777688997345649)"><path d="M9.03 0.9 C10.39 1.53, 13.26 3.1, 13.91 4.43 C14.55 5.77, 13.38 7.43, 12.88 8.91 C12.39 10.38, 12.04 12.63, 10.93 13.3 C9.82 13.97, 7.81 13.16, 6.21 12.94 C4.61 12.71, 2.5 12.74, 1.32 11.96 C0.15 11.18, -0.92 9.8, -0.82 8.24 C-0.73 6.69, 0.89 3.9, 1.91 2.64 C2.93 1.38, 4.08 0.88, 5.3 0.68 C6.53 0.48, 8.28 1.23, 9.24 1.44 C10.2 1.65, 11.01 1.91, 11.05 1.94 M5.32 1.3 C6.12 0.71, 6.49 -1.39, 7.93 -0.92 C9.37 -0.45, 13.23 2.61, 13.95 4.14 C14.68 5.67, 12.89 6.88, 12.28 8.25 C11.68 9.62, 11.52 11.68, 10.35 12.37 C9.17 13.06, 6.35 12.23, 5.22 12.38 C4.09 12.52, 4.33 13.96, 3.58 13.24 C2.82 12.52, 1.28 9.77, 0.67 8.05 C0.06 6.32, -0.7 4.11, -0.08 2.88 C0.55 1.66, 3.4 0.93, 4.42 0.71 C5.44 0.48, 5.88 1.26, 6.03 1.52" stroke="none" stroke-width="0" fill="#fff"></path><path d="M4.58 0.71 C5.97 0.29, 7.75 0.36, 9.19 0.75 C10.63 1.13, 12.48 1.63, 13.23 3.03 C13.98 4.42, 14.06 7.71, 13.68 9.12 C13.29 10.53, 12.07 10.65, 10.93 11.48 C9.79 12.31, 8.16 14.01, 6.83 14.1 C5.5 14.19, 4.17 13.15, 2.94 12.03 C1.7 10.9, -0.26 8.77, -0.59 7.33 C-0.92 5.89, 0.05 4.7, 0.94 3.39 C1.83 2.08, 3.72 -0.13, 4.74 -0.55 C5.75 -0.96, 6.92 0.59, 7.04 0.89 M8.89 1.17 C10.59 1.75, 12.01 2.86, 12.98 3.69 C13.94 4.53, 14.96 5.15, 14.68 6.16 C14.39 7.18, 12.19 8.44, 11.29 9.78 C10.38 11.12, 10.5 13.79, 9.25 14.2 C8 14.61, 5.08 13.01, 3.77 12.25 C2.47 11.49, 2.19 11.08, 1.4 9.64 C0.61 8.19, -1.36 4.98, -0.97 3.57 C-0.58 2.17, 2.44 1.74, 3.73 1.22 C5.02 0.69, 6.27 0.63, 6.78 0.43 C7.3 0.22, 6.59 -0.19, 6.82 -0.01" stroke="#495057" stroke-width="1" fill="none"></path></g><g transform="translate(12.443913505783712 655.141176203213) rotate(0 58.228460343430925 8.994640215651998)"><text x="0" y="13.989280431303865" font-family="Cascadia, Segoe UI Emoji" font-size="15.148867731624305px" fill="#666" text-anchor="start" style="white-space: pre;" direction="ltr">Actions pills</text></g><g stroke-linecap="round" transform="translate(176.55411183089382 622.1164550075196) rotate(0 169.464927542007 83.12562733197456)"><path d="M7.86 8.16 C7.86 8.16, 7.86 8.16, 7.86 8.16 M7.86 8.16 C7.86 8.16, 7.86 8.16, 7.86 8.16 M3.66 19.09 C7.75 15.42, 13.03 10.06, 18.1 2.48 M3.66 19.09 C8.13 13.13, 13.28 8.23, 18.1 2.48 M2.75 26.24 C9.1 17.98, 17.25 9.61, 24.4 1.33 M2.75 26.24 C7.32 21.76, 12.36 16.34, 24.4 1.33 M2.48 32.64 C12.79 19.55, 24.44 7.46, 30.7 0.18 M2.48 32.64 C10.77 21.64, 20.9 11.14, 30.7 0.18 M2.88 38.28 C12.44 30.18, 19.42 17.28, 34.37 2.05 M2.88 38.28 C11.19 29.41, 18.1 20.48, 34.37 2.05 M2.62 44.68 C12.54 33.69, 18.42 23.72, 39.36 2.41 M2.62 44.68 C10.24 35.39, 19.42 25.49, 39.36 2.41 M2.36 51.07 C19.88 30.11, 36.27 13.14, 45 2.02 M2.36 51.07 C16.77 34.73, 32.09 17.38, 45 2.02 M2.75 56.72 C14.12 42.98, 24.36 32.81, 49.99 2.38 M2.75 56.72 C21.54 36.75, 38.4 16.07, 49.99 2.38 M2.49 63.11 C16.47 44.53, 31.53 28.82, 55.63 1.98 M2.49 63.11 C22.89 39.81, 43.49 16.91, 55.63 1.98 M2.88 68.76 C21.96 45.59, 46.31 22.04, 60.62 2.34 M2.88 68.76 C19.03 50.52, 33.73 32.9, 60.62 2.34 M2.62 75.16 C16.45 59.29, 27.11 46.49, 66.26 1.95 M2.62 75.16 C21.21 52.2, 39.99 30.68, 66.26 1.95 M2.36 81.55 C23.56 60.01, 40.99 37.04, 71.25 2.31 M2.36 81.55 C30.08 50.16, 56.4 19.25, 71.25 2.31 M2.76 87.2 C22.05 61.97, 45 37.5, 76.89 1.91 M2.76 87.2 C18.63 67.23, 36.32 46.72, 76.89 1.91 M2.49 93.59 C28.55 62.86, 55.9 30.33, 81.88 2.27 M2.49 93.59 C31.08 58.64, 60.64 25.13, 81.88 2.27 M2.89 99.24 C28.32 70.76, 50.05 41.79, 87.52 1.88 M2.89 99.24 C32.93 62.99, 64.4 27.92, 87.52 1.88 M2.63 105.64 C24.06 82.39, 43.55 57.99, 92.51 2.24 M2.63 105.64 C22.83 79.76, 46.52 54.65, 92.51 2.24 M2.37 112.03 C29.46 80.57, 54.45 52.95, 98.15 1.85 M2.37 112.03 C27.56 82.8, 51.21 54.81, 98.15 1.85 M2.76 117.68 C34.88 81.97, 68.1 44.02, 103.14 2.21 M2.76 117.68 C38.28 75.91, 72.84 34.91, 103.14 2.21 M2.5 124.07 C38.47 84.6, 73.24 46.38, 108.78 1.81 M2.5 124.07 C35.93 84.78, 71.67 45.85, 108.78 1.81 M2.89 129.72 C35.08 93.81, 66.77 55.4, 113.77 2.17 M2.89 129.72 C33.39 94.38, 62.93 57.25, 113.77 2.17 M2.63 136.11 C27.37 109.26, 50.91 80.83, 119.41 1.78 M2.63 136.11 C46.18 87.4, 87.61 37.96, 119.41 1.78 M1.72 143.27 C47.77 89.38, 92.82 39.1, 124.4 2.14 M1.72 143.27 C38.02 100.74, 74.85 58.04, 124.4 2.14 M3.42 147.4 C41.06 100.33, 81.56 55.52, 130.04 1.74 M3.42 147.4 C33.99 114.97, 63.27 79.2, 130.04 1.74 M5.13 151.53 C30.42 119.41, 58.31 86.7, 135.03 2.1 M5.13 151.53 C46.4 103.44, 87.89 55.76, 135.03 2.1 M6.84 155.67 C53.9 102.55, 98.3 47.48, 140.67 1.71 M6.84 155.67 C53.23 102.28, 101.8 46.58, 140.67 1.71 M9.85 158.29 C49.25 113.51, 86.35 68.1, 145.66 2.07 M9.85 158.29 C58.27 102.52, 107.43 45.67, 145.66 2.07 M12.22 161.67 C67.69 96.58, 121.94 36.17, 150.65 2.43 M12.22 161.67 C41.39 127.83, 72.02 92.58, 150.65 2.43 M15.24 164.3 C50.2 122.47, 88.65 82, 156.29 2.03 M15.24 164.3 C51.89 123.91, 88.98 81.1, 156.29 2.03 M19.57 165.41 C59.65 119.76, 99.92 72.24, 161.28 2.39 M19.57 165.41 C60.08 118.19, 101.74 71.38, 161.28 2.39 M24.55 165.77 C82.35 102.94, 136.71 37.56, 166.92 2 M24.55 165.77 C76.52 105.22, 131.16 44.18, 166.92 2 M29.54 166.13 C59.21 130.03, 92.69 93.33, 171.91 2.36 M29.54 166.13 C69.7 119.02, 111.41 72.01, 171.91 2.36 M33.87 167.25 C90.47 101.72, 145.64 35.86, 177.55 1.96 M33.87 167.25 C74.94 121.2, 114.52 75.03, 177.55 1.96 M38.86 167.61 C90.05 110.41, 138.34 55.72, 182.54 2.32 M38.86 167.61 C83.37 115.85, 127.53 65.71, 182.54 2.32 M43.85 167.97 C92.8 112.09, 139.91 56.65, 188.18 1.93 M43.85 167.97 C80.64 124.97, 117.04 82.53, 188.18 1.93 M49.49 167.57 C104.06 104.97, 156.54 46.06, 193.17 2.29 M49.49 167.57 C95.3 114.92, 140.49 62.95, 193.17 2.29 M54.48 167.93 C104.94 108.35, 154.72 53.02, 198.81 1.9 M54.48 167.93 C84.14 132.98, 115.54 98.28, 198.81 1.9 M60.12 167.54 C111.79 107.84, 164.35 48.62, 203.8 2.26 M60.12 167.54 C92.78 129.97, 126.1 91.65, 203.8 2.26 M65.11 167.9 C107.3 116.15, 152.83 64.9, 209.44 1.86 M65.11 167.9 C118.56 105.33, 173.06 41.82, 209.44 1.86 M70.75 167.5 C119.58 107.67, 172.88 50.79, 214.43 2.22 M70.75 167.5 C107.63 125.26, 145.73 83.48, 214.43 2.22 M75.74 167.86 C125.33 111.02, 176.33 49.19, 220.07 1.83 M75.74 167.86 C133.19 102.56, 189.28 37.5, 220.07 1.83 M81.38 167.47 C125.56 115.69, 172.59 66.48, 225.06 2.19 M81.38 167.47 C131.52 109.86, 181.5 52.13, 225.06 2.19 M86.37 167.83 C143.94 102.43, 199.66 36.02, 230.7 1.79 M86.37 167.83 C118.3 131.57, 150.2 95.12, 230.7 1.79 M92.01 167.43 C149.09 101.74, 205.95 33, 235.69 2.15 M92.01 167.43 C141.07 111.11, 189.68 55.38, 235.69 2.15 M97 167.79 C150.5 103.83, 205.47 42.16, 241.33 1.76 M97 167.79 C129.97 131.69, 162.21 95.01, 241.33 1.76 M102.64 167.4 C144.27 119.45, 183.8 72.76, 246.32 2.12 M102.64 167.4 C136.49 131.76, 166.74 95.8, 246.32 2.12 M107.63 167.76 C139.77 130.35, 171.62 95.6, 251.96 1.72 M107.63 167.76 C152.65 118, 195.16 68.63, 251.96 1.72 M113.27 167.36 C151.5 125.81, 187.96 82.45, 256.95 2.08 M113.27 167.36 C149.56 123.7, 189.1 79.59, 256.95 2.08 M118.26 167.72 C161.55 119.3, 201.42 69.67, 262.59 1.69 M118.26 167.72 C170.78 107.88, 222.65 49.07, 262.59 1.69 M123.9 167.33 C167.25 119.12, 211.75 68.27, 267.58 2.05 M123.9 167.33 C167.24 117.99, 210.12 69.3, 267.58 2.05 M128.89 167.69 C178.66 112.59, 226.1 58.72, 272.56 2.41 M128.89 167.69 C161.72 130.7, 195.21 92.31, 272.56 2.41 M134.53 167.3 C163.24 132.79, 197.03 95.56, 278.21 2.01 M134.53 167.3 C165.53 131.5, 197.03 93.98, 278.21 2.01 M139.52 167.66 C187.1 115.07, 234.97 58.22, 283.19 2.37 M139.52 167.66 C190.89 107.13, 242.2 48.34, 283.19 2.37 M145.16 167.26 C188.57 118.25, 233.35 66.28, 288.84 1.98 M145.16 167.26 C187.67 118.66, 229.71 72.08, 288.84 1.98 M150.15 167.62 C183.32 130.63, 211.9 97.32, 293.82 2.34 M150.15 167.62 C194.82 116.14, 237.76 65.75, 293.82 2.34 M155.13 167.98 C194.69 121.75, 235.55 77.53, 299.47 1.94 M155.13 167.98 C191.31 127.91, 227.34 87.06, 299.47 1.94 M160.78 167.59 C191.64 135.3, 220.66 98.88, 304.45 2.3 M160.78 167.59 C195.31 127.88, 231.56 85.88, 304.45 2.3 M165.76 167.95 C215.13 109.59, 266.71 48.59, 309.44 2.66 M165.76 167.95 C222.2 104.11, 277.59 40.12, 309.44 2.66 M171.41 167.55 C208.87 123.82, 249.88 81.59, 315.74 1.52 M171.41 167.55 C209.72 121.31, 249.7 76.31, 315.74 1.52 M176.39 167.91 C229.1 109.32, 281.15 47, 320.07 2.63 M176.39 167.91 C215.87 121.15, 256.67 74.92, 320.07 2.63 M182.04 167.52 C238.06 102.02, 295.16 38.77, 323.75 4.5 M182.04 167.52 C227.05 116.77, 270.58 66.05, 323.75 4.5 M187.02 167.88 C222.23 129.45, 258.12 86.78, 328.08 5.61 M187.02 167.88 C224.41 124.75, 260.58 80.46, 328.08 5.61 M192.67 167.48 C247.01 106.49, 302.12 41.9, 330.44 8.99 M192.67 167.48 C245 107.35, 299.02 46.8, 330.44 8.99 M197.65 167.84 C246.37 111.39, 295.68 57, 333.46 11.62 M197.65 167.84 C242.1 117.44, 288.28 64.53, 333.46 11.62 M203.3 167.45 C241.52 124.71, 282.86 79.35, 336.48 14.24 M203.3 167.45 C248.09 116.3, 292.26 64.61, 336.48 14.24 M208.28 167.81 C247.62 120.32, 290.15 74.18, 337.53 19.13 M208.28 167.81 C241.24 128.76, 275.1 90.93, 337.53 19.13 M213.93 167.41 C250.44 128.83, 281.3 91.11, 338.58 24.02 M213.93 167.41 C254.88 119.45, 295.81 71.57, 338.58 24.02 M218.91 167.77 C242.99 139.49, 267.07 111.8, 339.63 28.91 M218.91 167.77 C251.1 131.82, 284.03 93.31, 339.63 28.91 M224.56 167.38 C268.27 112.57, 313.89 60.62, 340.68 33.8 M224.56 167.38 C266.15 118.43, 306.5 71.38, 340.68 33.8 M229.54 167.74 C272.88 117.22, 314.75 69.24, 341.07 39.44 M229.54 167.74 C271.35 119.52, 313.56 71.35, 341.07 39.44 M235.19 167.34 C262.72 137.24, 289.2 104.72, 340.81 45.84 M235.19 167.34 C267.24 128.44, 300.43 91.58, 340.81 45.84 M240.17 167.7 C262.64 139.84, 287.5 112, 340.55 52.23 M240.17 167.7 C263.49 137.66, 288.28 110.68, 340.55 52.23 M245.82 167.31 C276.81 131.45, 306.82 92.78, 340.95 57.88 M245.82 167.31 C273.54 133.54, 303.53 100.97, 340.95 57.88 M250.8 167.67 C272.19 142.4, 294.2 119.17, 340.68 64.28 M250.8 167.67 C279.6 134.45, 307.19 102.77, 340.68 64.28 M256.45 167.28 C279.27 143.47, 297.64 117.94, 341.08 69.92 M256.45 167.28 C287.16 130.69, 319.37 94.18, 341.08 69.92 M261.43 167.64 C283.83 143.5, 302.69 119.11, 340.82 76.32 M261.43 167.64 C284.99 140.6, 308.33 113.53, 340.82 76.32 M267.08 167.24 C287.85 142.84, 310.93 119.57, 340.56 82.71 M267.08 167.24 C294.65 134.86, 322.34 103.82, 340.56 82.71 M272.06 167.6 C297.59 139.17, 319.85 114.48, 340.95 88.36 M272.06 167.6 C288.46 146.97, 306.66 127.8, 340.95 88.36 M277.05 167.96 C295.31 147.62, 312.76 125.69, 340.69 94.75 M277.05 167.96 C294.31 148.75, 310.71 129.82, 340.69 94.75 M282.69 167.57 C296.13 151.49, 312.99 133.81, 341.08 100.4 M282.69 167.57 C301.71 146.47, 320.51 123.96, 341.08 100.4 M287.68 167.93 C307.22 145.08, 322.32 126.36, 340.82 106.8 M287.68 167.93 C300.45 153.75, 313.76 138.11, 340.82 106.8 M293.32 167.53 C307.41 147.91, 323.98 128.96, 340.56 113.19 M293.32 167.53 C303.84 155.94, 314.35 143.49, 340.56 113.19 M298.31 167.89 C310.19 151.22, 323.11 139.04, 340.96 118.84 M298.31 167.89 C314.29 149.55, 330.82 129.33, 340.96 118.84 M303.95 167.5 C315.46 155.78, 325.14 142.48, 340.69 125.23 M303.95 167.5 C314.14 155.78, 326.06 142.64, 340.69 125.23 M308.94 167.86 C318.96 156.24, 326.01 146.13, 341.09 130.88 M308.94 167.86 C316.02 158.24, 324.47 149.75, 341.09 130.88 M315.24 166.71 C323.87 155.27, 333.87 144.53, 341.48 136.52 M315.24 166.71 C323.25 157.36, 331.37 147.02, 341.48 136.52 M322.2 164.8 C327.2 156.82, 334.84 147.46, 340.57 143.67 M322.2 164.8 C326.83 160.58, 331.01 155.65, 340.57 143.67 M12.84 162.05 C12.84 162.05, 12.84 162.05, 12.84 162.05 M12.84 162.05 C12.84 162.05, 12.84 162.05, 12.84 162.05 M22.25 164.93 C16.14 159.27, 12.15 157.23, 6.41 151.15 M22.25 164.93 C18.9 161.62, 15.73 158.91, 6.41 151.15 M26.39 163.22 C19.73 156.52, 11.58 151.05, 0.73 140.92 M26.39 163.22 C16.16 154.84, 7.34 146.76, 0.73 140.92 M33.54 164.14 C22.01 156.73, 14.29 146.83, 1.09 135.93 M33.54 164.14 C22.67 153.66, 10.81 144.2, 1.09 135.93 M39.94 164.4 C29.44 153.71, 18.18 146.91, 0.69 130.29 M39.94 164.4 C32.58 158.05, 23.37 150.63, 0.69 130.29 M45.58 164.01 C34.63 156.66, 25.88 146.58, 1.05 125.3 M45.58 164.01 C35.09 154.84, 23.9 146.19, 1.05 125.3 M51.98 164.27 C33.85 148.78, 17.8 136.58, 0.66 119.66 M51.98 164.27 C41.53 153.27, 30.11 143.62, 0.66 119.66 M58.38 164.53 C43.39 150.98, 29.54 139.23, 1.02 114.67 M58.38 164.53 C37.03 145.88, 14.11 125.89, 1.02 114.67 M64.02 164.14 C41.53 145.04, 16.5 123.13, 1.38 109.68 M64.02 164.14 C46.26 149.08, 29.99 133.16, 1.38 109.68 M70.42 164.4 C55.5 150.79, 43.3 139.1, 0.98 104.04 M70.42 164.4 C49.53 145.23, 27.26 125.69, 0.98 104.04 M76.06 164 C49.25 143.27, 23.35 120.21, 1.34 99.05 M76.06 164 C59.25 149.22, 42.5 135.53, 1.34 99.05 M82.46 164.26 C65.74 151.51, 47.84 136.23, 0.95 93.41 M82.46 164.26 C62.75 146.01, 41.91 129.94, 0.95 93.41 M88.86 164.53 C63.09 144.52, 38.76 121.65, 1.31 88.42 M88.86 164.53 C57.07 137.32, 25.97 108.98, 1.31 88.42 M94.5 164.13 C74.06 148.47, 53.73 130.31, 0.92 82.78 M94.5 164.13 C70.69 142.88, 47.69 122.07, 0.92 82.78 M100.9 164.39 C78.43 144.52, 52 122.71, 1.28 77.79 M100.9 164.39 C63.31 132.9, 25.49 98.05, 1.28 77.79 M106.54 164 C67.87 131.27, 28.54 96.82, 0.88 72.15 M106.54 164 C74.51 136.44, 40.92 107.1, 0.88 72.15 M112.94 164.26 C78.77 134.33, 43.31 103.69, 1.24 67.16 M112.94 164.26 C88.27 143.59, 63.57 121.03, 1.24 67.16 M119.34 164.52 C86.75 137.24, 58.16 111.69, 0.85 61.52 M119.34 164.52 C95.05 143.74, 69.71 122.72, 0.85 61.52 M124.98 164.13 C83.75 126.47, 41.68 88.78, 1.21 56.53 M124.98 164.13 C76.88 122.9, 27.5 82.08, 1.21 56.53 M131.38 164.39 C98.9 133.52, 64.12 107.85, 0.81 50.89 M131.38 164.39 C97.64 136.28, 65.54 108.35, 0.81 50.89 M137.02 163.99 C96.12 124.35, 53.26 87.63, 1.17 45.9 M137.02 163.99 C98.97 130.59, 62.09 98.32, 1.17 45.9 M143.42 164.26 C97.86 123.37, 53.23 84.27, 0.78 40.26 M143.42 164.26 C92.64 119.98, 41.41 74.21, 0.78 40.26 M149.82 164.52 C96.25 119.62, 45.88 74.37, 1.14 35.27 M149.82 164.52 C117.45 134.9, 83.53 107.45, 1.14 35.27 M155.46 164.12 C116.02 131.71, 77.57 97.19, 0.74 29.63 M155.46 164.12 C95.2 113.77, 35.29 62.42, 0.74 29.63 M161.86 164.38 C126.5 134.26, 91.93 102.71, 0.35 23.99 M161.86 164.38 C123.05 129.71, 85.9 97.16, 0.35 23.99 M167.5 163.99 C122.94 124.82, 78.8 86.59, 1.46 19.66 M167.5 163.99 C102.91 107.39, 40.37 51.99, 1.46 19.66 M173.9 164.25 C121.45 117.57, 68.23 73.04, 3.33 15.98 M173.9 164.25 C121.84 118.32, 68.81 72.63, 3.33 15.98 M180.3 164.51 C123.13 113.88, 63.47 65.22, 5.96 12.96 M180.3 164.51 C122.13 115.22, 63.5 63.65, 5.96 12.96 M185.94 164.12 C131.63 115.6, 80.01 71.09, 7.83 9.29 M185.94 164.12 C135.25 122.47, 85.14 78.11, 7.83 9.29 M192.34 164.38 C137.14 115.73, 80.79 66.49, 9.7 5.61 M192.34 164.38 C150.4 127.59, 108.13 91.92, 9.7 5.61 M197.98 163.98 C137.49 111.87, 75.08 58.76, 13.83 3.91 M197.98 163.98 C128.71 105.73, 59.58 45.46, 13.83 3.91 M204.38 164.25 C132.79 103.48, 60.67 40, 17.21 1.54 M204.38 164.25 C132.23 101.77, 59.6 38.44, 17.21 1.54 M210.77 164.51 C138.89 101.63, 66.87 39.72, 20.59 -0.82 M210.77 164.51 C160.57 121.9, 109.75 76.69, 20.59 -0.82 M216.42 164.11 C140.24 98.41, 65.36 33.88, 25.48 -1.87 M216.42 164.11 C153.42 110.72, 93.26 58.14, 25.48 -1.87 M222.82 164.37 C167.75 112.63, 109.58 64.51, 32.63 -0.95 M222.82 164.37 C184.47 128.65, 144.58 94.49, 32.63 -0.95 M228.46 163.98 C156.06 102.03, 85.51 40.33, 39.03 -0.69 M228.46 163.98 C173.44 115.92, 118.03 68.72, 39.03 -0.69 M234.86 164.24 C162.22 101.78, 89.1 37.45, 44.67 -1.09 M234.86 164.24 C175.04 112.24, 114.82 59.41, 44.67 -1.09 M241.25 164.5 C168.33 98.33, 94.52 35.48, 51.07 -0.82 M241.25 164.5 C173.16 106.98, 104.74 47.06, 51.07 -0.82 M246.9 164.11 C209.53 129.94, 168.49 95.37, 57.47 -0.56 M246.9 164.11 C196.37 118.42, 143.47 73.79, 57.47 -0.56 M253.29 164.37 C207.21 122.16, 158.72 82.58, 63.11 -0.96 M253.29 164.37 C198.53 114.59, 142.9 66.16, 63.11 -0.96 M258.94 163.97 C189.73 104.34, 122.19 43.98, 69.51 -0.7 M258.94 163.97 C215.62 124.84, 171.54 86.3, 69.51 -0.7 M265.34 164.24 C217.6 120.15, 168.27 78.88, 75.15 -1.09 M265.34 164.24 C208.51 114.53, 150.87 64.77, 75.15 -1.09 M271.73 164.5 C202.4 105.4, 132.98 45.02, 81.55 -0.83 M271.73 164.5 C212.44 113.08, 152.41 60.73, 81.55 -0.83 M277.38 164.1 C228.94 120.6, 180.02 79.25, 87.94 -0.57 M277.38 164.1 C220.71 116.13, 166.03 67.68, 87.94 -0.57 M283.77 164.36 C223.77 112.73, 162.86 59.01, 93.59 -0.96 M283.77 164.36 C226.71 113.52, 169.3 63.67, 93.59 -0.96 M289.42 163.97 C228.1 108.47, 162.73 51.36, 99.99 -0.7 M289.42 163.97 C249.68 128.75, 210.13 94.95, 99.99 -0.7 M295.82 164.23 C253.04 126.28, 210.92 90.2, 105.63 -1.1 M295.82 164.23 C230.92 107.44, 164.06 50.26, 105.63 -1.1 M302.21 164.49 C234.44 105.33, 164.69 45.33, 112.03 -0.83 M302.21 164.49 C247.65 117.98, 192.36 69.84, 112.03 -0.83 M308.61 164.75 C248.06 110.37, 183.43 56.02, 118.42 -0.57 M308.61 164.75 C256.24 120.3, 205.17 75.39, 118.42 -0.57 M313.5 163.7 C266.6 124.71, 217.72 80.69, 124.07 -0.97 M313.5 163.7 C239.54 96.77, 164.06 31.9, 124.07 -0.97 M319.14 163.31 C251.38 105.18, 185.87 46.99, 130.46 -0.71 M319.14 163.31 C268.31 121.11, 219.22 79.17, 130.46 -0.71 M323.28 161.6 C272.6 117.92, 221.53 73.65, 136.11 -1.1 M323.28 161.6 C262.11 110.07, 201.55 56.4, 136.11 -1.1 M327.41 159.9 C284.46 122.91, 243.51 83.24, 142.51 -0.84 M327.41 159.9 C257.71 100.57, 187.84 41.24, 142.51 -0.84 M330.79 157.53 C265.18 99.47, 197.74 40.73, 148.9 -0.58 M330.79 157.53 C282.28 114.92, 233.4 72.19, 148.9 -0.58 M333.41 154.51 C294.19 116.95, 253.34 81.74, 154.55 -0.97 M333.41 154.51 C293.38 120.9, 253.29 85.37, 154.55 -0.97 M336.04 151.49 C297.7 119.24, 260.68 88.74, 160.94 -0.71 M336.04 151.49 C275.31 99.05, 212.84 45.56, 160.94 -0.71 M337.91 147.82 C272.19 89.02, 203.32 30.73, 166.59 -1.11 M337.91 147.82 C284.52 103.2, 232.05 56.36, 166.59 -1.11 M339.02 143.49 C278.6 92.28, 218.52 39.9, 172.99 -0.84 M339.02 143.49 C291.6 102.09, 241.6 58.17, 172.99 -0.84 M340.14 139.16 C294.42 100.51, 247.04 59.96, 179.38 -0.58 M340.14 139.16 C295.13 101.39, 250.98 62.03, 179.38 -0.58 M339.74 133.52 C286.89 87.45, 236.68 44.94, 185.03 -0.98 M339.74 133.52 C283.84 85.12, 227.88 36.71, 185.03 -0.98 M339.35 127.87 C297.61 91.68, 252.47 55.6, 191.42 -0.72 M339.35 127.87 C300.59 96.32, 262.14 62.69, 191.42 -0.72 M339.71 122.88 C302.49 89.74, 266.57 58.94, 197.07 -1.11 M339.71 122.88 C309 97.28, 277.35 69.14, 197.07 -1.11 M339.31 117.24 C302.49 84.23, 267.79 53.14, 203.46 -0.85 M339.31 117.24 C294.22 76.79, 248.22 37.21, 203.46 -0.85 M339.67 112.25 C299.66 80.26, 264.33 46.49, 209.86 -0.59 M339.67 112.25 C305.33 83.28, 272.95 53.66, 209.86 -0.59 M339.28 106.61 C300.47 73.71, 258.26 38.4, 215.51 -0.98 M339.28 106.61 C304.88 77.29, 271.74 49.03, 215.51 -0.98 M339.64 101.62 C293.49 64.21, 246.32 23.33, 221.9 -0.72 M339.64 101.62 C307.96 74.09, 275.7 45.62, 221.9 -0.72 M340 96.64 C311.99 73.36, 287.76 49.62, 227.55 -1.12 M340 96.64 C295.83 57.95, 251.51 20.09, 227.55 -1.12 M339.6 90.99 C305.6 62.67, 273.55 33.75, 233.94 -0.85 M339.6 90.99 C298.02 54.65, 257.39 19.72, 233.94 -0.85 M339.96 86.01 C316.01 64.35, 293.9 44.66, 240.34 -0.59 M339.96 86.01 C313.02 59.88, 284.41 35.98, 240.34 -0.59 M339.57 80.36 C319.92 63.19, 298.56 43.02, 245.99 -0.99 M339.57 80.36 C307.86 52.06, 276.11 25.42, 245.99 -0.99 M339.93 75.38 C303.42 44.35, 272.01 15.49, 252.38 -0.73 M339.93 75.38 C312.18 50.95, 285.93 28.44, 252.38 -0.73 M339.53 69.73 C317.62 47.82, 292.94 29.09, 258.03 -1.12 M339.53 69.73 C308.72 41.61, 275.47 13.2, 258.03 -1.12 M339.89 64.75 C321.4 46.27, 301.46 32.43, 264.42 -0.86 M339.89 64.75 C317.79 44.88, 294.56 24.64, 264.42 -0.86 M339.5 59.1 C316.16 37.67, 292.99 19.24, 270.82 -0.6 M339.5 59.1 C324.6 46.27, 310.33 33.77, 270.82 -0.6 M339.86 54.12 C326.66 39.52, 311.21 26.95, 276.46 -0.99 M339.86 54.12 C324.58 40.71, 309.23 28.82, 276.46 -0.99 M339.47 48.47 C322.84 32.06, 302.81 17.4, 282.86 -0.73 M339.47 48.47 C317.33 29.07, 296.04 10.58, 282.86 -0.73 M339.83 43.49 C321.13 27.23, 301.13 6.6, 288.51 -1.12 M339.83 43.49 C320.71 26.31, 299.8 10.31, 288.51 -1.12 M339.43 37.84 C329.51 29.27, 316.66 18.57, 294.9 -0.86 M339.43 37.84 C325.87 25.06, 312.74 12.99, 294.9 -0.86 M339.79 32.86 C329.5 25.37, 320.02 17.19, 301.3 -0.6 M339.79 32.86 C325.57 20.39, 310.55 8.61, 301.3 -0.6 M341.66 29.18 C328.81 18.56, 318 11.67, 307.7 -0.34 M341.66 29.18 C329.3 19.95, 318.89 9.99, 307.7 -0.34 M340.51 22.88 C331.9 13.64, 323.41 8.03, 314.85 0.58 M340.51 22.88 C332.19 16.66, 325.56 9.44, 314.85 0.58 M334.83 12.65 C330.23 7.96, 325.84 5.65, 324.27 3.46 M334.83 12.65 C331.54 8.68, 326.81 5.54, 324.27 3.46" stroke="#868e96" stroke-width="0.5" fill="none"></path><path d="M32 0 M32 0 C126.05 -1.18, 220.04 -2.6, 306.93 0 M32 0 C96.3 0.66, 159.76 0.3, 306.93 0 M306.93 0 C326.92 0.75, 339.6 9.21, 338.93 32 M306.93 0 C328.4 -0.59, 339.88 10.96, 338.93 32 M338.93 32 C340.33 69.56, 339.02 106.72, 338.93 134.25 M338.93 32 C338.3 62.25, 339.64 93.75, 338.93 134.25 M338.93 134.25 C339.29 155.84, 328.55 167.27, 306.93 166.25 M338.93 134.25 C340.2 155.04, 328.76 165.24, 306.93 166.25 M306.93 166.25 C208.21 166.95, 110.49 166.07, 32 166.25 M306.93 166.25 C228.83 168.57, 150.73 167.18, 32 166.25 M32 166.25 C9.63 166.79, 0.35 153.62, 0 134.25 M32 166.25 C11.55 167.79, 2.09 157.06, 0 134.25 M0 134.25 C-1.09 108.73, 0.95 86.02, 0 32 M0 134.25 C1.63 93.91, 1.06 54.01, 0 32 M0 32 C1.91 10.83, 10.78 -0.94, 32 0 M0 32 C0.26 10.94, 10.69 0.97, 32 0" stroke="#495057" stroke-width="1" fill="none"></path></g><g stroke-linecap="round" transform="translate(178.74720013157366 804.7750080501801) rotate(0 44.67108634032729 76.81608180354442)"><path d="M2.83 9.08 C2.83 9.08, 2.83 9.08, 2.83 9.08 M2.83 9.08 C2.83 9.08, 2.83 9.08, 2.83 9.08 M0.6 17.75 C4.98 13.1, 6.47 11.22, 11.1 5.67 M0.6 17.75 C2.3 14.61, 5.24 11.94, 11.1 5.67 M0.99 23.39 C7.42 16.94, 9.96 11.45, 18.05 3.77 M0.99 23.39 C7.15 17.06, 13.06 8.7, 18.05 3.77 M0.73 29.79 C7.62 23.04, 10.46 18.8, 25.01 1.86 M0.73 29.79 C8.06 22.14, 15.5 13.34, 25.01 1.86 M0.47 36.18 C9.59 25.6, 15.59 20.59, 29.99 2.22 M0.47 36.18 C10.34 25.07, 19.55 13.14, 29.99 2.22 M0.87 41.83 C15.95 27.68, 26.24 11.45, 35.64 1.83 M0.87 41.83 C8.96 32.2, 17.75 23.34, 35.64 1.83 M0.6 48.23 C14.82 33.35, 26.86 15.69, 40.62 2.19 M0.6 48.23 C13.46 34.31, 26.12 19.87, 40.62 2.19 M1 53.87 C17.13 33.73, 33.77 17.92, 45.61 2.55 M1 53.87 C18.65 33.38, 37.22 12.53, 45.61 2.55 M0.74 60.27 C18.83 41.63, 36.34 19.39, 51.25 2.15 M0.74 60.27 C13.02 47.35, 24.81 33.87, 51.25 2.15 M0.48 66.66 C18.19 47.2, 36.73 24.2, 56.24 2.51 M0.48 66.66 C16.38 48.88, 31.08 30.59, 56.24 2.51 M0.87 72.31 C18.96 52.94, 35.84 33.1, 61.88 2.12 M0.87 72.31 C13.92 55.68, 26.95 40.45, 61.88 2.12 M0.61 78.7 C18.9 58.04, 40.53 35.89, 66.87 2.48 M0.61 78.7 C15.92 61.12, 29.94 44.77, 66.87 2.48 M0.35 85.1 C24.36 56.1, 47.29 28.8, 73.17 1.33 M0.35 85.1 C17.47 65.95, 34.42 45.3, 73.17 1.33 M0.74 90.75 C15.62 69.44, 34.67 52.52, 77.5 2.44 M0.74 90.75 C17.49 73, 32.85 53.97, 77.5 2.44 M0.48 97.14 C16.54 77.67, 33.66 59.83, 81.83 3.56 M0.48 97.14 C21.52 72.14, 42.48 46.43, 81.83 3.56 M0.88 102.79 C30.83 65.58, 63.63 30.76, 84.19 6.94 M0.88 102.79 C28.62 71.52, 54.86 42.25, 84.19 6.94 M0.61 109.18 C29.68 74.59, 63.12 40.98, 86.56 10.32 M0.61 109.18 C26.7 79.88, 52.3 50.7, 86.56 10.32 M0.35 115.58 C28.38 81.57, 56.22 50.78, 88.92 13.7 M0.35 115.58 C27.13 85.11, 55.38 52.62, 88.92 13.7 M0.75 121.23 C21.01 94.45, 44.01 72.64, 89.97 18.58 M0.75 121.23 C32.23 84.46, 63.43 49.91, 89.97 18.58 M0.49 127.62 C30.54 92.34, 60.08 60.46, 91.02 23.47 M0.49 127.62 C32.83 89.17, 65.97 49.96, 91.02 23.47 M1.54 132.51 C24.5 109, 45.36 84.09, 90.76 29.87 M1.54 132.51 C21.26 110.65, 40.93 87.06, 90.76 29.87 M1.93 138.15 C36.91 99.02, 70.29 58.56, 90.5 36.27 M1.93 138.15 C34.77 98.99, 69.27 58.78, 90.5 36.27 M2.98 143.04 C33.17 109.13, 59.9 75.99, 90.89 41.91 M2.98 143.04 C19.21 123.06, 36.79 101.86, 90.89 41.91 M5.34 146.42 C38.77 107.56, 70.61 69.48, 90.63 48.31 M5.34 146.42 C28.65 119.26, 51.33 91.71, 90.63 48.31 M7.71 149.8 C38.03 113.37, 69.44 79.03, 91.03 53.95 M7.71 149.8 C32.98 119.4, 59.42 89.51, 91.03 53.95 M11.38 151.67 C37.39 121.35, 65.25 90.6, 90.76 60.35 M11.38 151.67 C33.98 124.79, 55.76 99.81, 90.76 60.35 M15.06 153.54 C34.32 128.62, 56.19 103.65, 90.5 66.75 M15.06 153.54 C34.13 129.07, 53.89 107.11, 90.5 66.75 M19.39 154.65 C41.62 126.85, 63.98 103.62, 90.9 72.39 M19.39 154.65 C36.07 133.52, 54.98 113.16, 90.9 72.39 M24.37 155.01 C37.88 137.73, 53.76 117.51, 90.64 78.79 M24.37 155.01 C45.29 129.26, 67.46 105.21, 90.64 78.79 M29.36 155.37 C53.92 128.77, 77.45 102.1, 90.38 85.19 M29.36 155.37 C49.94 132.16, 70.28 107.89, 90.38 85.19 M35 154.98 C49.73 138.01, 63.4 123.11, 90.77 90.83 M35 154.98 C48.9 139.39, 62.45 123.43, 90.77 90.83 M39.99 155.34 C52.3 143.45, 62.57 131.22, 90.51 97.23 M39.99 155.34 C57.13 135.21, 73.54 115.65, 90.51 97.23 M45.63 154.95 C56.67 142.12, 68.67 130.41, 90.9 102.87 M45.63 154.95 C59.47 138.98, 73.57 121.6, 90.9 102.87 M50.62 155.31 C60.24 144.79, 72.94 128.22, 90.64 109.27 M50.62 155.31 C65.92 138.68, 79.88 121.97, 90.64 109.27 M56.26 154.91 C68.17 143.78, 79.07 129.61, 90.38 115.67 M56.26 154.91 C66.49 142.79, 78.06 130.07, 90.38 115.67 M61.25 155.27 C70.32 143.82, 79.19 137.68, 90.77 121.31 M61.25 155.27 C71.66 144.83, 81.29 132.29, 90.77 121.31 M67.55 154.12 C75.34 145.45, 82.95 136.24, 90.51 127.71 M67.55 154.12 C75.62 143.8, 85.61 134.31, 90.51 127.71 M73.85 152.97 C77.68 147.98, 81.58 142.79, 90.25 134.11 M73.85 152.97 C76.93 148.85, 81.47 143.72, 90.25 134.11 M78.18 154.09 C80.67 150.32, 87.35 145.68, 91.3 138.99 M78.18 154.09 C82.44 148.22, 87.42 144.91, 91.3 138.99 M5.33 147.82 C5.33 147.82, 5.33 147.82, 5.33 147.82 M5.33 147.82 C5.33 147.82, 5.33 147.82, 5.33 147.82 M17.01 152.68 C14.45 151.62, 9.64 147.9, 2.67 140.21 M17.01 152.68 C12.34 148.5, 8.15 145.2, 2.67 140.21 M23.4 152.94 C18.25 149.01, 11.31 145.62, 1.52 133.91 M23.4 152.94 C15.72 146.95, 7.29 138.81, 1.52 133.91 M29.8 153.2 C20.03 145.44, 7.92 134.53, 1.88 128.93 M29.8 153.2 C24.33 147.06, 17.79 142.45, 1.88 128.93 M35.44 152.81 C20.64 141.75, 8.94 131.34, 2.24 123.94 M35.44 152.81 C25.36 145.33, 17.31 136.67, 2.24 123.94 M41.84 153.07 C32.31 144.72, 25.18 138.89, 1.84 118.3 M41.84 153.07 C33.82 145.4, 25.35 138.42, 1.84 118.3 M48.24 153.33 C36.27 146.09, 26.73 135.92, 2.2 113.31 M48.24 153.33 C33.37 139.72, 19.48 129.37, 2.2 113.31 M53.88 152.93 C38.63 139.08, 23.16 125.85, 1.81 107.67 M53.88 152.93 C32.62 135.8, 14.27 117.89, 1.81 107.67 M60.28 153.2 C42.92 138.24, 26.27 123.86, 2.17 102.68 M60.28 153.2 C39.33 137.23, 19.85 120.56, 2.17 102.68 M66.68 153.46 C46.06 136.7, 26.35 116.87, 1.77 97.04 M66.68 153.46 C41.54 131.45, 18.75 110.19, 1.77 97.04 M69.3 150.44 C50.86 133.84, 30.46 113.71, 2.13 92.05 M69.3 150.44 C53.97 137.59, 40.48 125.16, 2.13 92.05 M77.21 152.01 C53.01 131.43, 31.65 114.72, 1.74 86.41 M77.21 152.01 C53.75 131.06, 29.81 111.83, 1.74 86.41 M80.59 149.65 C59.28 130.78, 42.12 116.56, 2.1 81.42 M80.59 149.65 C64.4 134.15, 49.12 121.68, 2.1 81.42 M83.97 147.29 C57.08 124.94, 31.27 101.26, 2.46 76.43 M83.97 147.29 C62.97 130.26, 43.11 113.77, 2.46 76.43 M85.84 143.61 C66.61 123.85, 43.02 107.36, 2.07 70.79 M85.84 143.61 C61.97 123.46, 39.27 102.02, 2.07 70.79 M87.71 139.94 C64.13 119.16, 39.46 96.7, 2.43 65.8 M87.71 139.94 C58.97 114.59, 30.39 89.13, 2.43 65.8 M89.58 136.26 C61.12 111.25, 35.57 88.5, 2.03 60.16 M89.58 136.26 C70.78 120.26, 49.87 103.94, 2.03 60.16 M89.18 130.62 C71.1 116.51, 51.11 98.3, 2.39 55.17 M89.18 130.62 C63.31 109.54, 36.32 86.24, 2.39 55.17 M89.54 125.63 C56.81 95.42, 23.58 67.37, 2 49.53 M89.54 125.63 C60.63 99.34, 31.05 73.24, 2 49.53 M89.15 119.99 C64.09 98.53, 36.42 77.04, 2.36 44.54 M89.15 119.99 C63.37 96.52, 35.71 73.8, 2.36 44.54 M89.51 115 C69.53 94.36, 44.52 75.41, 1.96 38.9 M89.51 115 C57.7 87.54, 25.48 58.59, 1.96 38.9 M89.11 109.36 C64.33 87.44, 40.41 68.68, 2.32 33.91 M89.11 109.36 C62.99 84.79, 34.84 61.74, 2.32 33.91 M89.47 104.37 C61.96 83.83, 35.85 59.15, 1.93 28.27 M89.47 104.37 C59.12 78.37, 29.59 50.61, 1.93 28.27 M89.83 99.38 C65.09 77.77, 41.96 57.73, 2.29 23.28 M89.83 99.38 C61.76 74.78, 33.6 48.86, 2.29 23.28 M89.44 93.74 C59.66 69.39, 29.84 42.75, 0.38 16.33 M89.44 93.74 C59.11 68.36, 30.38 43.69, 0.38 16.33 M89.8 88.75 C60.7 64.44, 30.57 39.52, 2.25 12.65 M89.8 88.75 C60.32 65.44, 32.06 40.06, 2.25 12.65 M89.4 83.11 C58.49 55.11, 26.86 30.11, 3.37 8.32 M89.4 83.11 C64.02 61.06, 38.18 38.18, 3.37 8.32 M89.76 78.12 C63.53 58.93, 40.16 36.04, 5.99 5.3 M89.76 78.12 C59.38 51.76, 30.62 26.25, 5.99 5.3 M89.37 72.48 C56.87 47.69, 27.47 20.42, 9.37 2.94 M89.37 72.48 C69.92 55.77, 48.15 36.82, 9.37 2.94 M89.73 67.49 C65.57 45.65, 41.95 25.47, 14.26 1.89 M89.73 67.49 C69.88 50.77, 51.57 34.67, 14.26 1.89 M89.34 61.85 C75.22 47.15, 57.85 33.3, 18.39 0.18 M89.34 61.85 C69.45 42.54, 47.2 24.45, 18.39 0.18 M89.7 56.86 C63 33.5, 40.19 11.26, 23.28 -0.87 M89.7 56.86 C71.59 42.2, 54.53 25.87, 23.28 -0.87 M89.3 51.22 C67.27 32.56, 49.93 16.25, 29.68 -0.61 M89.3 51.22 C68.99 33.74, 47.03 14.18, 29.68 -0.61 M89.66 46.23 C70.57 28.51, 52.71 14.19, 35.32 -1 M89.66 46.23 C74.27 33.03, 59.36 20.07, 35.32 -1 M90.02 41.25 C72.34 26.91, 58.58 12.16, 41.72 -0.74 M90.02 41.25 C76.08 28.95, 62.76 17.5, 41.72 -0.74 M89.63 35.6 C80.29 26.81, 70.81 17.57, 48.12 -0.48 M89.63 35.6 C72.76 22.49, 57.72 7.92, 48.12 -0.48 M89.99 30.62 C82.47 21.35, 71 14.03, 53.76 -0.87 M89.99 30.62 C77.9 19.6, 65.03 9.47, 53.76 -0.87 M89.59 24.97 C81.84 16.48, 69.48 8.53, 60.16 -0.61 M89.59 24.97 C82.06 18.51, 73.4 11.34, 60.16 -0.61 M90.71 20.64 C83.63 12.23, 72.16 6.07, 66.56 -0.35 M90.71 20.64 C83.13 14, 77.26 9.2, 66.56 -0.35 M89.56 14.34 C83.91 10.34, 76.43 4.47, 72.95 -0.09 M89.56 14.34 C84.19 9.71, 78.77 4.88, 72.95 -0.09" stroke="#868e96" stroke-width="0.5" fill="none"></path><path d="M22.34 0 M22.34 0 C38.61 2.1, 53.48 0.6, 67.01 0 M22.34 0 C38.24 -0.68, 55.5 -0.41, 67.01 0 M67.01 0 C80.84 -1.1, 89.05 8.8, 89.34 22.34 M67.01 0 C82.75 0.05, 89.57 9.44, 89.34 22.34 M89.34 22.34 C88.99 57.55, 89.74 95.6, 89.34 131.3 M89.34 22.34 C89.02 46.05, 89.18 71.05, 89.34 131.3 M89.34 131.3 C88.35 144.6, 80.96 152.61, 67.01 153.63 M89.34 131.3 C88.42 145.58, 81.81 155.69, 67.01 153.63 M67.01 153.63 C57.98 154.07, 46.47 155.25, 22.34 153.63 M67.01 153.63 C52.52 153.06, 36.42 153.58, 22.34 153.63 M22.34 153.63 C7.03 152.2, -0.66 147.47, 0 131.3 M22.34 153.63 C9.59 153.55, -2.06 144.25, 0 131.3 M0 131.3 C2.06 105.25, 0.64 79.09, 0 22.34 M0 131.3 C-0.82 106.15, -0.45 82.29, 0 22.34 M0 22.34 C1.97 7.2, 9.17 0.53, 22.34 0 M0 22.34 C2.13 5.66, 5.32 0.05, 22.34 0" stroke="#495057" stroke-width="1" fill="none"></path></g><g stroke-linecap="round" transform="translate(286.7231170344676 806.9976712816101) rotate(0 114.32822097371718 75.4024790713313)"><path d="M7.86 8.16 C7.86 8.16, 7.86 8.16, 7.86 8.16 M7.86 8.16 C7.86 8.16, 7.86 8.16, 7.86 8.16 M3.66 19.09 C7.63 14.24, 16.07 4.52, 18.1 2.48 M3.66 19.09 C9.02 12.71, 13.92 6.62, 18.1 2.48 M2.75 26.24 C9.24 20.32, 14.6 15.02, 24.4 1.33 M2.75 26.24 C10.52 18.44, 16.33 9.18, 24.4 1.33 M2.48 32.64 C11.35 22.27, 22.2 12.85, 30.7 0.18 M2.48 32.64 C11.09 23.65, 18.73 13.99, 30.7 0.18 M2.88 38.28 C15.99 24.15, 25.25 12.01, 34.37 2.05 M2.88 38.28 C8.69 31.17, 15.13 22.64, 34.37 2.05 M2.62 44.68 C14.58 29.65, 29.22 14.23, 39.36 2.41 M2.62 44.68 C13.17 31.51, 24.07 18.62, 39.36 2.41 M2.36 51.07 C17.89 33.02, 35.57 14.03, 45 2.02 M2.36 51.07 C18.56 31.94, 34.91 12.45, 45 2.02 M2.75 56.72 C17.66 40.25, 28.79 28.32, 49.99 2.38 M2.75 56.72 C19.51 38.86, 34.57 19.12, 49.99 2.38 M2.49 63.11 C17.56 43.9, 36 21.44, 55.63 1.98 M2.49 63.11 C19.58 43.28, 37.26 22.62, 55.63 1.98 M2.88 68.76 C25.24 46.53, 43.82 22.57, 60.62 2.34 M2.88 68.76 C19.03 49.55, 36.01 32.07, 60.62 2.34 M2.62 75.16 C22.54 51.99, 41.33 32.2, 66.26 1.95 M2.62 75.16 C20.4 54.43, 38.26 34.27, 66.26 1.95 M2.36 81.55 C21.51 60.39, 37.58 39.08, 71.25 2.31 M2.36 81.55 C21.33 59.11, 41.08 37.45, 71.25 2.31 M2.76 87.2 C24.09 65.65, 40.19 44.56, 76.89 1.91 M2.76 87.2 C18.99 67.67, 34.76 49.76, 76.89 1.91 M2.49 93.59 C25.63 69.4, 46.32 44.85, 81.88 2.27 M2.49 93.59 C19.3 73.7, 36.8 52.86, 81.88 2.27 M2.89 99.24 C23.3 78.15, 41.25 54.46, 87.52 1.88 M2.89 99.24 C26.34 71.1, 51.19 42.28, 87.52 1.88 M2.63 105.64 C27.69 77.4, 53.82 45.37, 92.51 2.24 M2.63 105.64 C29.49 77.08, 54.08 46.3, 92.51 2.24 M2.37 112.03 C33.33 80.25, 60.27 43.66, 98.15 1.85 M2.37 112.03 C21.19 88.4, 40.78 65.49, 98.15 1.85 M2.76 117.68 C23.19 95.44, 41.53 70.09, 103.14 2.21 M2.76 117.68 C44.6 72.49, 82.8 27.04, 103.14 2.21 M0.53 126.34 C29.56 93.45, 55.1 60.89, 108.78 1.81 M0.53 126.34 C26.11 95.94, 51.93 66.79, 108.78 1.81 M2.24 130.47 C46.17 81.25, 87.86 33.56, 113.77 2.17 M2.24 130.47 C37.65 88.49, 74.84 46.91, 113.77 2.17 M3.29 135.36 C38.73 99.43, 71.99 60.29, 119.41 1.78 M3.29 135.36 C47.03 85.58, 91.33 35.64, 119.41 1.78 M5.65 138.74 C47.34 92.97, 86.96 44.97, 124.4 2.14 M5.65 138.74 C28.71 109.62, 54.33 81.51, 124.4 2.14 M8.01 142.12 C47.19 97.27, 86.23 51.82, 130.04 1.74 M8.01 142.12 C36.4 108.57, 64.97 77.29, 130.04 1.74 M11.03 144.74 C45.99 102.83, 83.39 63.02, 135.03 2.1 M11.03 144.74 C41.14 108.1, 72.13 74.51, 135.03 2.1 M14.05 147.37 C51.51 100.95, 89.67 58.09, 140.67 1.71 M14.05 147.37 C54.8 101.85, 95.88 53.81, 140.67 1.71 M17.73 149.24 C62.69 96.13, 110.74 43.66, 145.66 2.07 M17.73 149.24 C69.22 91.27, 118.21 34.76, 145.66 2.07 M22.06 150.35 C58.07 107.02, 92.83 65.36, 150.65 2.43 M22.06 150.35 C66.21 98.69, 110.43 47.81, 150.65 2.43 M26.39 151.47 C52.58 120.94, 76.09 92.94, 156.29 2.03 M26.39 151.47 C56.77 115.87, 87.83 79.7, 156.29 2.03 M32.03 151.07 C71.63 102.97, 115.35 51.49, 161.28 2.39 M32.03 151.07 C74.93 99.77, 121.32 47.73, 161.28 2.39 M37.67 150.68 C89.78 91.66, 140.47 33.63, 166.92 2 M37.67 150.68 C86.22 96.7, 134.49 40.8, 166.92 2 M42.66 151.04 C72.57 115.77, 102.71 81.17, 171.91 2.36 M42.66 151.04 C87.19 98.86, 132.98 47.07, 171.91 2.36 M48.3 150.64 C72.35 117.94, 100.8 89.49, 177.55 1.96 M48.3 150.64 C77.41 117.26, 105.62 85.59, 177.55 1.96 M53.29 151 C80.12 120.31, 108.09 90.03, 182.54 2.32 M53.29 151 C92.46 103.89, 131.7 58.65, 182.54 2.32 M58.94 150.61 C90.47 111.6, 124.8 73.36, 188.18 1.93 M58.94 150.61 C103.3 99.84, 148.8 47.04, 188.18 1.93 M63.92 150.97 C111.08 98.85, 158.35 42.63, 193.17 2.29 M63.92 150.97 C111.4 98.81, 156.13 46.14, 193.17 2.29 M69.57 150.57 C102.33 109.86, 134.81 71.01, 198.81 1.9 M69.57 150.57 C95.82 119.63, 123.62 86.21, 198.81 1.9 M74.55 150.93 C110.48 111.95, 140.59 73.07, 205.11 0.75 M74.55 150.93 C122.79 96.86, 170.26 40.89, 205.11 0.75 M79.54 151.29 C115.44 114.39, 144.91 75.06, 208.78 2.62 M79.54 151.29 C105.75 119.74, 132.78 89.1, 208.78 2.62 M85.18 150.9 C127.96 99.89, 170.27 49.86, 213.11 3.73 M85.18 150.9 C135.74 93.13, 187.31 35.53, 213.11 3.73 M90.17 151.26 C141.97 96.13, 188.54 39.62, 216.79 5.6 M90.17 151.26 C140.73 93.93, 189.1 35.99, 216.79 5.6 M95.81 150.86 C130.65 108.85, 164.49 70.16, 219.81 8.22 M95.81 150.86 C121.93 120.51, 147.61 89.04, 219.81 8.22 M100.8 151.22 C141.47 102.83, 183.13 55.05, 222.83 10.85 M100.8 151.22 C146.41 97.6, 192.16 44.41, 222.83 10.85 M106.44 150.83 C141.09 113.93, 172.7 73.15, 225.85 13.47 M106.44 150.83 C130.7 121.58, 157.65 92.19, 225.85 13.47 M111.43 151.19 C143.11 111.32, 174.96 76.61, 226.9 18.36 M111.43 151.19 C140.49 119.65, 168.68 87.17, 226.9 18.36 M117.07 150.8 C154.86 105.56, 194.73 59.9, 227.95 23.25 M117.07 150.8 C148.21 115.13, 178.69 79.69, 227.95 23.25 M122.06 151.16 C161.34 110.15, 199.28 64.65, 228.34 28.89 M122.06 151.16 C144.77 127.01, 166.6 101.53, 228.34 28.89 M127.7 150.76 C152.33 127.36, 174.43 101.57, 230.05 33.03 M127.7 150.76 C159.02 114.18, 189.52 78.65, 230.05 33.03 M132.69 151.12 C165.44 111.25, 200.85 73.71, 229.79 39.42 M132.69 151.12 C169.03 110.48, 205.18 68.41, 229.79 39.42 M138.33 150.73 C156.51 128.37, 179.01 104.2, 230.18 45.07 M138.33 150.73 C164.12 120.88, 192.1 88.8, 230.18 45.07 M143.32 151.09 C163.94 130.07, 183.61 106.74, 229.92 51.46 M143.32 151.09 C176.58 114.71, 208.12 76.26, 229.92 51.46 M148.96 150.69 C165.23 128.65, 185.25 109.88, 229.66 57.86 M148.96 150.69 C169.67 127.27, 189.63 103.34, 229.66 57.86 M153.95 151.05 C169.44 131.51, 185.47 114.81, 230.05 63.51 M153.95 151.05 C179.7 124.01, 202.81 94.94, 230.05 63.51 M159.59 150.66 C180.22 125.87, 201.76 103.31, 229.79 69.9 M159.59 150.66 C183.21 124.74, 206.24 98.28, 229.79 69.9 M164.58 151.02 C185.24 127.23, 204.55 102.06, 230.19 75.55 M164.58 151.02 C182.34 130.91, 199.32 110.58, 230.19 75.55 M170.22 150.62 C185.83 134.02, 198.13 118.18, 229.92 81.94 M170.22 150.62 C182.75 135.43, 196.03 119.26, 229.92 81.94 M175.21 150.98 C186.71 138.16, 199.53 124.2, 229.66 88.34 M175.21 150.98 C193.76 130.33, 211.98 108.76, 229.66 88.34 M180.85 150.59 C194.34 135.37, 208.14 115.87, 230.06 93.98 M180.85 150.59 C199.73 129.79, 217.43 108.29, 230.06 93.98 M185.84 150.95 C200.78 134.54, 216.27 119.33, 229.8 100.38 M185.84 150.95 C195.36 139.33, 205.71 128.28, 229.8 100.38 M190.83 151.31 C205.2 137.02, 216.06 118.16, 230.19 106.03 M190.83 151.31 C199.81 140.26, 211.06 129.94, 230.19 106.03 M196.47 150.91 C208.59 135.54, 222.36 121.5, 229.93 112.42 M196.47 150.91 C205.64 141.53, 212.14 131.68, 229.93 112.42 M199.49 153.54 C210.81 142.85, 221.13 129.21, 229.01 119.58 M199.49 153.54 C210.32 141.96, 220.16 128.33, 229.01 119.58 M205.79 152.39 C214.28 143.97, 224.33 133.29, 228.09 126.73 M205.79 152.39 C211.76 144.56, 217.83 136.86, 228.09 126.73 M216.02 146.71 C219.16 145.3, 219.98 141.35, 225.21 136.15 M216.02 146.71 C218.99 143.95, 220.97 140.14, 225.21 136.15 M12.18 146.03 C12.18 146.03, 12.18 146.03, 12.18 146.03 M12.18 146.03 C12.18 146.03, 12.18 146.03, 12.18 146.03 M22.36 149.57 C18.25 144.78, 9.03 140.49, 6.51 135.79 M22.36 149.57 C17.23 146.06, 13.25 140.06, 6.51 135.79 M26.49 147.87 C18.81 142.03, 11.09 133.22, 0.83 125.56 M26.49 147.87 C19.94 142.67, 15.9 137.94, 0.83 125.56 M33.64 148.78 C25.59 141.43, 18.47 135.76, 1.19 120.57 M33.64 148.78 C24.52 141.41, 15.04 131.64, 1.19 120.57 M40.04 149.04 C29.86 140.15, 18.04 129.72, 0.79 114.93 M40.04 149.04 C24.74 135.65, 8.87 122.92, 0.79 114.93 M45.68 148.65 C33.86 138.04, 22.83 129.22, 1.15 109.94 M45.68 148.65 C35.17 139.69, 26.82 132.5, 1.15 109.94 M52.08 148.91 C31.05 131.49, 12.87 114.13, 0.76 104.3 M52.08 148.91 C34.03 133.02, 17.47 118.07, 0.76 104.3 M57.72 148.52 C41.12 135.42, 21.74 118.22, 1.12 99.31 M57.72 148.52 C41.34 134.46, 26.22 122.46, 1.12 99.31 M64.12 148.78 C49.11 135.14, 35.63 123.94, 0.73 93.67 M64.12 148.78 C48.69 133.76, 31.48 120.77, 0.73 93.67 M70.52 149.04 C46.32 127.73, 18.18 105.47, 1.09 88.68 M70.52 149.04 C45.51 126.65, 19.76 104.59, 1.09 88.68 M76.16 148.64 C46.27 123.03, 19.43 100.01, 0.69 83.04 M76.16 148.64 C55.01 131.29, 33.42 113.74, 0.69 83.04 M82.56 148.91 C58.39 126.09, 34.06 104.31, 1.05 78.05 M82.56 148.91 C50.11 121.37, 19.43 94.14, 1.05 78.05 M88.96 149.17 C64.55 130.51, 43.58 109.69, 0.66 72.41 M88.96 149.17 C54.24 118.92, 20.61 89.81, 0.66 72.41 M94.6 148.77 C75.17 130.55, 56.56 113.28, 1.02 67.42 M94.6 148.77 C61.92 119.81, 27.89 90.46, 1.02 67.42 M101 149.03 C66.87 120.24, 38.78 93.11, 1.38 62.43 M101 149.03 C65.15 117.87, 29.83 87.26, 1.38 62.43 M106.64 148.64 C75.12 121.13, 48.22 97.73, 0.98 56.79 M106.64 148.64 C75.94 120.12, 43.24 92.28, 0.98 56.79 M113.04 148.9 C69.45 108.75, 22.8 70.96, 1.34 51.8 M113.04 148.9 C68.89 111.17, 25.64 74.04, 1.34 51.8 M119.44 149.16 C80.59 113.17, 41.54 81.82, 0.95 46.16 M119.44 149.16 C75.63 114.65, 34.46 77.84, 0.95 46.16 M125.08 148.77 C80.74 109.42, 39.58 71.29, 1.31 41.17 M125.08 148.77 C90.09 120.5, 58.22 91.85, 1.31 41.17 M131.48 149.03 C93.77 113.63, 54.14 81.39, 0.91 35.53 M131.48 149.03 C100.21 120.71, 68.39 93.41, 0.91 35.53 M137.12 148.64 C98.95 119.56, 61.07 86.09, 1.27 30.54 M137.12 148.64 C109.02 124.49, 80.44 98.14, 1.27 30.54 M143.52 148.9 C95.46 107.13, 44.66 66.07, 0.88 24.9 M143.52 148.9 C111.32 121.78, 80.37 94.42, 0.88 24.9 M149.92 149.16 C112.56 118.28, 76.32 86, 2.75 21.23 M149.92 149.16 C118.77 121.6, 87.42 95.37, 2.75 21.23 M155.56 148.76 C105.32 101.76, 54.89 58.3, 3.11 16.24 M155.56 148.76 C103.64 106.65, 54.06 63.5, 3.11 16.24 M161.96 149.03 C128 121.66, 96.75 91.17, 5.73 13.22 M161.96 149.03 C114.62 107.97, 66.9 66.2, 5.73 13.22 M167.6 148.63 C109.71 101.9, 53.75 51.7, 7.6 9.55 M167.6 148.63 C113.41 100.52, 58.99 52.94, 7.6 9.55 M174 148.89 C125.54 111.17, 77.99 69.21, 9.47 5.87 M174 148.89 C125.29 105.44, 74.78 61.55, 9.47 5.87 M180.4 149.15 C145.26 119.24, 111.16 89.1, 13.61 4.16 M180.4 149.15 C143.68 117.47, 107.7 86.68, 13.61 4.16 M186.04 148.76 C147.37 113.46, 109.23 81.54, 16.98 1.8 M186.04 148.76 C142.69 111.32, 99.3 73.17, 16.98 1.8 M192.44 149.02 C137.99 99.22, 80.89 49.8, 20.36 -0.56 M192.44 149.02 C151.18 113.88, 110.94 77.94, 20.36 -0.56 M198.08 148.63 C129.37 89.39, 59.64 31.46, 25.25 -1.61 M198.08 148.63 C128.16 90.28, 60.48 31.06, 25.25 -1.61 M203.72 148.23 C163 112.24, 123.36 78.17, 32.4 -0.69 M203.72 148.23 C155.64 105, 105.88 61.5, 32.4 -0.69 M208.61 147.18 C144.09 91.67, 75.25 32.5, 38.8 -0.43 M208.61 147.18 C144.3 89.88, 77.63 32.72, 38.8 -0.43 M213.5 146.13 C162.73 99.41, 107.85 54.27, 44.44 -0.83 M213.5 146.13 C152.35 94.61, 91.95 42.15, 44.44 -0.83 M217.63 144.42 C151.84 87.07, 84.11 28.29, 50.84 -0.57 M217.63 144.42 C172.48 106.41, 128.01 66.26, 50.84 -0.57 M220.26 141.4 C185.47 111.22, 150.4 84.52, 57.24 -0.3 M220.26 141.4 C177.76 105.95, 136.8 71.1, 57.24 -0.3 M223.64 139.04 C183.11 103.21, 139.11 65.11, 62.88 -0.7 M223.64 139.04 C171.39 93.56, 119.03 48.01, 62.88 -0.7 M226.26 136.02 C191.73 105.09, 155.95 74.21, 69.28 -0.44 M226.26 136.02 C183.98 97.54, 140.8 60.64, 69.28 -0.44 M227.38 131.69 C169.79 80.99, 107.6 29.57, 74.92 -0.83 M227.38 131.69 C195.41 103, 162.21 74.09, 74.92 -0.83 M229.25 128.02 C172.47 78.22, 117.63 31.93, 81.32 -0.57 M229.25 128.02 C179.58 84.2, 130.05 42.38, 81.32 -0.57 M230.36 123.69 C192.88 91.69, 156.92 61.27, 87.72 -0.31 M230.36 123.69 C195.76 94.02, 160.67 64.79, 87.72 -0.31 M229.97 118.04 C193.16 82.72, 155.29 50.09, 93.36 -0.7 M229.97 118.04 C192.01 85.05, 155.86 54.21, 93.36 -0.7 M229.57 112.4 C186.3 75.94, 144.14 41.29, 99.76 -0.44 M229.57 112.4 C194.28 82.9, 159.98 53.13, 99.76 -0.44 M229.93 107.41 C197.3 76.18, 162.94 46.19, 105.4 -0.84 M229.93 107.41 C193.33 75.08, 156.95 43.76, 105.4 -0.84 M229.54 101.77 C193.64 71.38, 159.5 40.79, 111.8 -0.58 M229.54 101.77 C205.03 79.5, 180.28 56.89, 111.8 -0.58 M229.9 96.78 C191.7 65.47, 152.41 31.73, 118.2 -0.31 M229.9 96.78 C190.57 60.72, 149.91 26.04, 118.2 -0.31 M229.5 91.14 C203.22 66.42, 174.12 46.15, 123.84 -0.71 M229.5 91.14 C190.29 57.94, 152 24.46, 123.84 -0.71 M229.86 86.15 C195.36 59.47, 164.63 30.38, 130.24 -0.45 M229.86 86.15 C208.96 66.79, 187.67 49.58, 130.24 -0.45 M229.47 80.51 C198.69 53.81, 166.87 26.86, 135.88 -0.84 M229.47 80.51 C205.02 59.66, 181.51 39.01, 135.88 -0.84 M229.83 75.52 C200.16 49.53, 168.1 24.12, 142.28 -0.58 M229.83 75.52 C203.99 52.29, 178.42 28.73, 142.28 -0.58 M229.43 69.88 C204.94 49.28, 183.49 29.48, 148.68 -0.32 M229.43 69.88 C199.79 41.23, 167.24 15.37, 148.68 -0.32 M229.79 64.89 C214.93 52.79, 196.96 36.05, 154.32 -0.71 M229.79 64.89 C208.17 46.09, 187.39 26.01, 154.32 -0.71 M229.4 59.25 C210.4 45.72, 193.42 29.98, 160.72 -0.45 M229.4 59.25 C207.98 41.19, 187.36 22.7, 160.72 -0.45 M229.76 54.26 C206.97 33.97, 186.55 15.91, 166.36 -0.85 M229.76 54.26 C207.95 35.26, 185.78 15.52, 166.36 -0.85 M229.36 48.62 C218.22 38.88, 202.63 28.04, 172.76 -0.59 M229.36 48.62 C210.27 31.47, 191.92 15.46, 172.76 -0.59 M229.72 43.63 C214.44 30.73, 200.32 20.96, 179.16 -0.32 M229.72 43.63 C215.39 32.18, 203.38 21.01, 179.16 -0.32 M229.33 37.99 C210.23 24.24, 196.25 7.4, 184.8 -0.72 M229.33 37.99 C219.81 29.63, 208.92 21.18, 184.8 -0.72 M229.69 33 C216.83 18.5, 199.48 7.81, 191.2 -0.46 M229.69 33 C218.1 23.48, 206.91 12.82, 191.2 -0.46 M231.56 29.33 C221.34 19.43, 209.7 9.28, 196.84 -0.85 M231.56 29.33 C220.15 18.73, 209.27 10.3, 196.84 -0.85 M230.41 23.03 C220.67 12.78, 211.73 5.77, 203.99 0.07 M230.41 23.03 C220.25 14.26, 211.1 4.98, 203.99 0.07 M223.98 12.14 C221.36 10.75, 217.33 5.85, 214.17 3.61 M223.98 12.14 C222.4 9.91, 220.17 8.19, 214.17 3.61" stroke="#868e96" stroke-width="0.5" fill="none"></path><path d="M32 0 M32 0 C80.1 -0.81, 130.19 0.13, 196.66 0 M32 0 C78.8 0.27, 127.25 -0.26, 196.66 0 M196.66 0 C218.61 -0.27, 228.05 9.86, 228.66 32 M196.66 0 C216.16 1.13, 227.36 8.81, 228.66 32 M228.66 32 C226.97 59.44, 228.31 86.1, 228.66 118.8 M228.66 32 C228.92 56.25, 228.81 79.48, 228.66 118.8 M228.66 118.8 C230.56 139.56, 218.71 151.21, 196.66 150.8 M228.66 118.8 C227.35 141.96, 217.97 151.79, 196.66 150.8 M196.66 150.8 C145.12 150.18, 96.22 152.44, 32 150.8 M196.66 150.8 C146.71 151.03, 96.6 151.91, 32 150.8 M32 150.8 C9.01 151.24, -1.22 141.86, 0 118.8 M32 150.8 C11.11 151.57, -2.28 140.14, 0 118.8 M0 118.8 C-0.91 94.32, 0.28 72.79, 0 32 M0 118.8 C0.11 85.58, -0.38 51.16, 0 32 M0 32 C-0.58 9.87, 10.41 -0.34, 32 0 M0 32 C0.83 9.47, 9.81 -1.39, 32 0" stroke="#495057" stroke-width="1" fill="none"></path></g><g transform="translate(562.8850980623356 623.3077969685169) rotate(0 20 8)"><text x="0" y="13" font-family="Helvetica, Segoe UI Emoji" font-size="14.463558832166566px" fill="#343a40" text-anchor="start" style="white-space: pre;" direction="ltr">media</text></g><g transform="translate(21.45262588954847 1072.7264131434836) rotate(0 53.437339135442926 6.7239035998238705)"><text x="0" y="10.44780719964786" font-family="Cascadia, Segoe UI Emoji" font-size="11.324469220756093px" fill="#000000" text-anchor="start" style="white-space: pre;" direction="ltr">Fri Jan 20, 2023</text></g><g stroke-linecap="round" transform="translate(138.88106178574435 1073.153889841045) rotate(0 6.777688997345649 6.777688997345649)"><path d="M5.57 1.03 C6.87 0.59, 9.17 -0.52, 10.41 0.09 C11.66 0.7, 12.66 3.38, 13.02 4.71 C13.39 6.04, 12.86 6.71, 12.62 8.08 C12.38 9.45, 12.64 11.88, 11.59 12.93 C10.54 13.98, 7.88 14.6, 6.3 14.4 C4.72 14.19, 3.32 12.72, 2.13 11.7 C0.95 10.67, -0.62 9.85, -0.81 8.25 C-0.99 6.65, -0.13 3.37, 1.02 2.1 C2.18 0.83, 5.07 0.79, 6.13 0.63 C7.18 0.48, 7.39 1.13, 7.36 1.17 M9.28 -0.43 C10.68 -0.31, 12.79 2.29, 13.57 3.56 C14.35 4.83, 14.34 5.77, 13.96 7.18 C13.59 8.59, 12.27 10.92, 11.32 12.03 C10.36 13.13, 9.46 13.61, 8.22 13.83 C6.97 14.06, 5.41 14.45, 3.85 13.38 C2.3 12.32, -0.76 8.91, -1.11 7.45 C-1.47 5.98, 0.93 5.86, 1.72 4.58 C2.52 3.31, 2.75 0.3, 3.66 -0.21 C4.57 -0.73, 6.54 1.3, 7.18 1.49 C7.82 1.67, 7.18 1.25, 7.49 0.91" stroke="none" stroke-width="0" fill="#fff"></path><path d="M8.69 0.79 C10.03 1.23, 11.24 2.99, 12.11 4.13 C12.97 5.27, 14.08 6.14, 13.88 7.61 C13.68 9.08, 12.05 12.1, 10.91 12.96 C9.78 13.82, 8.34 13.06, 7.08 12.76 C5.81 12.46, 4.43 12.11, 3.31 11.14 C2.18 10.17, 0.82 8.26, 0.33 6.96 C-0.17 5.66, -0.31 4.56, 0.33 3.32 C0.98 2.08, 2.69 0, 4.18 -0.5 C5.67 -0.99, 8.11 -0.1, 9.25 0.33 C10.39 0.76, 10.94 1.89, 11.01 2.11 M10.65 1.41 C11.93 1.67, 12.96 2.42, 13.2 3.79 C13.44 5.17, 12.31 8.06, 12.08 9.67 C11.86 11.28, 12.65 12.98, 11.83 13.44 C11.01 13.91, 8.85 12.74, 7.16 12.47 C5.47 12.2, 2.77 12.9, 1.67 11.84 C0.57 10.78, 0.51 7.45, 0.58 6.09 C0.65 4.74, 1.23 4.95, 2.11 3.72 C2.99 2.48, 4.31 -0.77, 5.86 -1.31 C7.41 -1.85, 10.77 0.32, 11.41 0.5 C12.06 0.68, 10.01 -0.57, 9.74 -0.23" stroke="#495057" stroke-width="1" fill="none"></path></g><g transform="translate(11.451911588441362 1096.4614080530646) rotate(0 58.228460343430925 8.994640215651998)"><text x="0" y="13.989280431303865" font-family="Cascadia, Segoe UI Emoji" font-size="15.148867731624305px" fill="#666" text-anchor="start" style="white-space: pre;" direction="ltr">Actions pills</text></g><g stroke-linecap="round" transform="translate(177.1307637348018 1061.684547642246) rotate(0 172.61577977407342 85.78996981552928)"><path d="M33.84 1.07 L313.16 -0.84 L321.58 2.1 L332.92 3.05 L340.88 13.09 L344.14 18.46 L347.15 32.71 L346.44 138.97 L345.44 148.84 L342.28 161.05 L334.11 165.82 L328.94 170.6 L314.4 171.34 L30.85 173.07 L24.13 171.19 L13.95 165.58 L5.17 159.32 L-0.15 146.39 L-0.95 24.24 L3.71 19.35 L7.86 7.38 L17.05 0.21 L33.55 -0.95" stroke="none" stroke-width="0" fill="#ffffff"></path><path d="M32 0 M32 0 C133.69 -1.35, 235.23 0.2, 313.23 0 M32 0 C143.68 -2.47, 255.7 -2.41, 313.23 0 M313.23 0 C335.41 -1.12, 345.96 9.78, 345.23 32 M313.23 0 C335.16 -0.11, 345.36 9.38, 345.23 32 M345.23 32 C345.47 60.12, 345.9 89.27, 345.23 139.58 M345.23 32 C344.56 65.3, 343.87 97.18, 345.23 139.58 M345.23 139.58 C344.63 162.72, 336.02 170.98, 313.23 171.58 M345.23 139.58 C343.01 161.89, 336.38 169.73, 313.23 171.58 M313.23 171.58 C245.14 171.35, 178.17 170.73, 32 171.58 M313.23 171.58 C245.57 172.76, 177.93 172.26, 32 171.58 M32 171.58 C9.22 172.85, 1.56 161.7, 0 139.58 M32 171.58 C8.97 172.84, -1.15 162.31, 0 139.58 M0 139.58 C-0.52 108.73, 1.62 81.2, 0 32 M0 139.58 C0.18 103.91, -1.09 68.11, 0 32 M0 32 C-1.13 10.27, 10.95 -0.24, 32 0 M0 32 C-1.5 9.86, 10.34 -2.01, 32 0" stroke="#000000" stroke-width="1" fill="none"></path></g><g transform="translate(196.28055347852205 1126.5834921838177) rotate(0 153 40)"><text x="0" y="13" font-family="Cascadia, Segoe UI Emoji" font-size="13.381741276462435px" fill="#495057" text-anchor="start" style="white-space: pre;" direction="ltr">In publishing and graphic design, Lorem</text><text x="0" y="29" font-family="Cascadia, Segoe UI Emoji" font-size="13.381741276462435px" fill="#495057" text-anchor="start" style="white-space: pre;" direction="ltr">ipsum is a placeholder text commonly </text><text x="0" y="45" font-family="Cascadia, Segoe UI Emoji" font-size="13.381741276462435px" fill="#495057" text-anchor="start" style="white-space: pre;" direction="ltr">used to demonstrate the visual form of</text><text x="0" y="61" font-family="Cascadia, Segoe UI Emoji" font-size="13.381741276462435px" fill="#495057" text-anchor="start" style="white-space: pre;" direction="ltr">a document  or a typeface without </text><text x="0" y="77" font-family="Cascadia, Segoe UI Emoji" font-size="13.381741276462435px" fill="#495057" text-anchor="start" style="white-space: pre;" direction="ltr">relying  on meaningful content. </text></g><g transform="translate(194.7033520633031 1064.274473152072) rotate(0 24.538690975493864 39.26190556079018)"><text x="0" y="63.52381112158051" font-family="Cascadia, Segoe UI Emoji" font-size="64.07588060553252px" fill="#495057" text-anchor="start" style="white-space: pre;" direction="ltr"></text></g><g stroke-linecap="round"><g transform="translate(248.4556508022697 1093.4795420882433) rotate(0 126.72654766205278 0.35764288444079284)"><path d="M-0.51 0.04 C41.65 0.14, 211.64 -0.07, 253.96 0.1 M1.43 -0.98 C43.39 -0.64, 211.43 1.64, 253.3 1.69" stroke="#495057" stroke-width="1" fill="none"></path></g></g><mask></mask><g transform="translate(236.40385826535476 1429.418639066691) rotate(0 20.5 8)"><text x="0" y="13" font-family="Cascadia, Segoe UI Emoji" font-size="13.63869226138773px" fill="#495057" text-anchor="start" style="white-space: pre;" direction="ltr">Event</text></g><g transform="translate(181.43616145703163 1738.205096621954) rotate(0 171.5 28)"><text x="0" y="11" font-family="Cascadia, Segoe UI Emoji" font-size="11.484202796348354px" fill="#495057" text-anchor="start" style="white-space: pre;" direction="ltr">In publishing and graphic design, Lorem ipsum is</text><text x="0" y="25" font-family="Cascadia, Segoe UI Emoji" font-size="11.484202796348354px" fill="#495057" text-anchor="start" style="white-space: pre;" direction="ltr">a placeholder text commonly used to demonstrate the</text><text x="0" y="39" font-family="Cascadia, Segoe UI Emoji" font-size="11.484202796348354px" fill="#495057" text-anchor="start" style="white-space: pre;" direction="ltr">visual form of a document  or a typeface without</text><text x="0" y="53" font-family="Cascadia, Segoe UI Emoji" font-size="11.484202796348354px" fill="#495057" text-anchor="start" style="white-space: pre;" direction="ltr">relying  on meaningful content. </text></g><g transform="translate(176.39996892631098 1392.5275218213992) rotate(0 26.5 32)"><text x="0" y="49" font-family="Cascadia, Segoe UI Emoji" font-size="49.09705280840807px" fill="#495057" text-anchor="start" style="white-space: pre;" direction="ltr"></text></g><g transform="translate(234.09535105363193 1398.308956350107) rotate(0 117.75337316320565 13.434948615936264)"><text x="0" y="21.869897231872415" font-family="Cascadia, Segoe UI Emoji" font-size="22.24102493764327px" fill="#495057" text-anchor="start" style="white-space: pre;" direction="ltr">Title of the Event</text></g><g stroke-linecap="round" transform="translate(175.92162299658958 1464.422946990504) rotate(0 180.07265238706077 109.7056482332041)"><path d="M7.86 8.16 C7.86 8.16, 7.86 8.16, 7.86 8.16 M7.86 8.16 C7.86 8.16, 7.86 8.16, 7.86 8.16 M3.66 19.09 C8.91 13.08, 11.23 12.19, 18.1 2.48 M3.66 19.09 C8.86 14.97, 12.42 9.88, 18.1 2.48 M2.75 26.24 C10.04 17.14, 16.76 13.68, 24.4 1.33 M2.75 26.24 C7.71 19.15, 14.47 13.67, 24.4 1.33 M2.48 32.64 C14.4 21.55, 24.35 8.73, 30.7 0.18 M2.48 32.64 C8.75 23.83, 16.29 17.27, 30.7 0.18 M2.88 38.28 C11.54 29.24, 18.76 21.5, 34.37 2.05 M2.88 38.28 C12.3 27.9, 22.25 16.52, 34.37 2.05 M2.62 44.68 C12.3 35.9, 22.43 22.31, 39.36 2.41 M2.62 44.68 C11.92 34.39, 20.83 22.79, 39.36 2.41 M2.36 51.07 C18 33.39, 30.67 18.55, 45 2.02 M2.36 51.07 C19.87 31.68, 36.03 13.41, 45 2.02 M2.75 56.72 C17.66 39.22, 30.84 24.89, 49.99 2.38 M2.75 56.72 C21.78 34.77, 40.79 13.55, 49.99 2.38 M2.49 63.11 C19.59 44.2, 36.99 24.27, 55.63 1.98 M2.49 63.11 C15.68 47.77, 28.92 33.1, 55.63 1.98 M2.23 69.51 C22.26 45.81, 42.68 19.37, 60.62 2.34 M2.23 69.51 C23.58 45.31, 44.99 19.75, 60.62 2.34 M2.62 75.16 C23.19 54.07, 42.27 33.8, 66.26 1.95 M2.62 75.16 C16.75 58.67, 31.33 44.1, 66.26 1.95 M2.36 81.55 C18.83 64.53, 31.44 45.14, 71.25 2.31 M2.36 81.55 C26.82 51.48, 51.99 23.98, 71.25 2.31 M2.76 87.2 C19.45 64.56, 36.25 47.24, 76.89 1.91 M2.76 87.2 C21.06 64.59, 40.22 42.82, 76.89 1.91 M2.49 93.59 C32.35 61.27, 60.51 30.4, 81.88 2.27 M2.49 93.59 C21.16 73.8, 37.12 54.41, 81.88 2.27 M2.23 99.99 C21.42 75.37, 43.96 52.67, 87.52 1.88 M2.23 99.99 C29.11 70.33, 55.04 38.85, 87.52 1.88 M2.63 105.64 C38.35 66.08, 72.16 27.54, 92.51 2.24 M2.63 105.64 C25.5 77.27, 49.16 49.62, 92.51 2.24 M2.37 112.03 C39.24 71.53, 72.11 30.34, 98.15 1.85 M2.37 112.03 C39.31 68.89, 76.06 26.53, 98.15 1.85 M2.1 118.43 C39.59 79.36, 75.08 35.68, 103.14 2.21 M2.1 118.43 C26.97 88.32, 54.59 58.8, 103.14 2.21 M2.5 124.07 C27.67 95.1, 52.74 68.2, 108.78 1.81 M2.5 124.07 C31.19 91.57, 58.46 58.31, 108.78 1.81 M2.24 130.47 C38.96 88.76, 72.89 46.7, 113.77 2.17 M2.24 130.47 C33.5 93.97, 66.65 58.11, 113.77 2.17 M1.98 136.87 C26.01 107.9, 52.57 80.11, 119.41 1.78 M1.98 136.87 C48.99 83.09, 94.24 31.58, 119.41 1.78 M2.37 142.51 C47.49 88.23, 95.52 35.2, 124.4 2.14 M2.37 142.51 C28.55 111.05, 54.94 81.49, 124.4 2.14 M2.11 148.91 C33.87 116.23, 61.4 80.65, 130.04 1.74 M2.11 148.91 C51.03 93.73, 98.93 37.12, 130.04 1.74 M2.5 154.55 C53.15 98.43, 102.36 42.21, 135.03 2.1 M2.5 154.55 C37.74 112.08, 73.93 72.02, 135.03 2.1 M2.24 160.95 C31.1 128.23, 59.82 95.95, 140.67 1.71 M2.24 160.95 C46.01 112.41, 86.92 64.6, 140.67 1.71 M1.98 167.35 C32.25 132.73, 60.41 98.36, 145.66 2.07 M1.98 167.35 C40.85 122.56, 80.18 77.48, 145.66 2.07 M2.38 172.99 C55.06 111.87, 108.61 51.23, 150.65 2.43 M2.38 172.99 C35.56 135.02, 68.4 97.7, 150.65 2.43 M2.11 179.39 C56.75 116.77, 109.93 55.36, 156.29 2.03 M2.11 179.39 C60.26 113.37, 116.93 47.85, 156.29 2.03 M0.54 187.3 C48.47 132.05, 96.27 75.21, 161.28 2.39 M0.54 187.3 C38.31 145.19, 75.03 103.83, 161.28 2.39 M0.94 192.94 C54.81 133.6, 107.09 72.74, 166.92 2 M0.94 192.94 C52.66 133.08, 105.16 72.26, 166.92 2 M1.99 197.83 C69.28 123.82, 135.58 45.07, 171.91 2.36 M1.99 197.83 C38.6 153.43, 77.24 109.75, 171.91 2.36 M3.04 202.72 C72.71 124.57, 141.03 43.75, 177.55 1.96 M3.04 202.72 C70.7 123.65, 138.23 46.65, 177.55 1.96 M4.74 206.85 C70.08 129.96, 137.64 52.02, 182.54 2.32 M4.74 206.85 C65.79 134.99, 127.95 64.31, 182.54 2.32 M7.76 209.47 C65.21 139.92, 126.14 72.97, 188.18 1.93 M7.76 209.47 C58.56 151.5, 109.33 92.62, 188.18 1.93 M10.13 212.85 C64.7 148.41, 120.42 86.5, 193.17 2.29 M10.13 212.85 C66.85 146.16, 124.1 80.91, 193.17 2.29 M13.14 215.48 C87.35 129.94, 160.16 45.39, 198.81 1.9 M13.14 215.48 C53.06 169.62, 92.95 124.15, 198.81 1.9 M17.47 216.59 C63.45 167.98, 106.71 118.04, 203.8 2.26 M17.47 216.59 C73.22 150.15, 130.39 85.77, 203.8 2.26 M21.15 218.46 C88.04 137.95, 158.68 57.85, 209.44 1.86 M21.15 218.46 C57.77 173.86, 94.23 131.12, 209.44 1.86 M25.48 219.58 C89.19 143.94, 156.89 69.55, 214.43 2.22 M25.48 219.58 C75.42 159.56, 126.47 100.14, 214.43 2.22 M30.47 219.94 C95.84 145.87, 162.55 68.65, 220.07 1.83 M30.47 219.94 C104.26 133.83, 179.33 46.8, 220.07 1.83 M34.14 221.81 C73.25 176.18, 116.25 127.72, 225.06 2.19 M34.14 221.81 C78.27 171.18, 122.37 119.24, 225.06 2.19 M39.79 221.41 C97.63 156.13, 154.68 88.92, 230.7 1.79 M39.79 221.41 C110.35 140.9, 180.35 60.18, 230.7 1.79 M44.77 221.77 C104.53 150.54, 165.69 79.62, 235.69 2.15 M44.77 221.77 C116.87 141.12, 186.79 58.31, 235.69 2.15 M50.42 221.38 C119.96 139.78, 190.55 61.11, 241.33 1.76 M50.42 221.38 C123.16 137.36, 196.14 53.51, 241.33 1.76 M55.4 221.74 C126.23 139.84, 194.48 58.57, 246.32 2.12 M55.4 221.74 C121.62 146.34, 185.43 71.5, 246.32 2.12 M61.05 221.34 C122.38 150.15, 182.92 80.42, 251.96 1.72 M61.05 221.34 C127.94 143.8, 194.75 65.45, 251.96 1.72 M66.03 221.7 C133.03 144.22, 199.24 66.68, 256.95 2.08 M66.03 221.7 C134.6 145.08, 203.02 66.14, 256.95 2.08 M71.68 221.31 C131.73 151.63, 189.42 86.25, 262.59 1.69 M71.68 221.31 C123.24 158.73, 177.51 96.82, 262.59 1.69 M76.66 221.67 C127.69 161.21, 180.92 100.97, 267.58 2.05 M76.66 221.67 C133.59 155.14, 191.59 88.61, 267.58 2.05 M82.31 221.27 C144.81 147.89, 208.05 76.04, 272.56 2.41 M82.31 221.27 C122.7 177.18, 160.66 132.74, 272.56 2.41 M87.29 221.63 C138.15 164.23, 189.95 103.92, 278.21 2.01 M87.29 221.63 C132.35 170.82, 176.67 119.44, 278.21 2.01 M92.94 221.24 C158.4 144.62, 224.13 69, 283.19 2.37 M92.94 221.24 C145.1 161.32, 196.85 102.68, 283.19 2.37 M97.92 221.6 C146.63 167.7, 192.16 115.46, 288.84 1.98 M97.92 221.6 C148.63 162.67, 200.26 102.52, 288.84 1.98 M103.57 221.21 C177.05 137.95, 247.87 56.08, 293.82 2.34 M103.57 221.21 C150.8 169.15, 197.69 115.2, 293.82 2.34 M108.55 221.57 C156.71 167.93, 201.98 115.03, 299.47 1.94 M108.55 221.57 C164.26 156.69, 222.12 90.21, 299.47 1.94 M114.2 221.17 C188.97 134.88, 263.12 50.35, 304.45 2.3 M114.2 221.17 C154.42 175.08, 195.14 128.98, 304.45 2.3 M119.18 221.53 C177.58 155.73, 235.78 89.04, 310.1 1.91 M119.18 221.53 C173.18 159.5, 226.54 98.1, 310.1 1.91 M124.83 221.14 C165.29 175.96, 207.3 128.78, 315.08 2.27 M124.83 221.14 C178.05 161.39, 230.04 101.2, 315.08 2.27 M129.81 221.5 C201.27 141.19, 272.87 56.73, 320.73 1.88 M129.81 221.5 C193.91 151.32, 255.45 79.04, 320.73 1.88 M134.8 221.86 C180.85 167.66, 228.59 114.29, 325.71 2.24 M134.8 221.86 C180.81 167.41, 227.77 114.19, 325.71 2.24 M140.44 221.46 C181.16 173.4, 220.86 129.89, 330.7 2.6 M140.44 221.46 C183.82 173.51, 227.08 123.65, 330.7 2.6 M145.43 221.82 C209.44 149.95, 271.53 78.41, 337 1.45 M145.43 221.82 C217.05 140.65, 287.72 58.71, 337 1.45 M151.07 221.43 C203.08 162.48, 252.85 104.01, 340.67 3.32 M151.07 221.43 C216.95 147.3, 281.37 72.1, 340.67 3.32 M156.06 221.79 C208.54 160.33, 258.88 103.02, 345.01 4.43 M156.06 221.79 C229.41 138.59, 300.93 55.17, 345.01 4.43 M161.7 221.39 C205.88 168.69, 250.32 116.08, 349.34 5.55 M161.7 221.39 C217.66 158.9, 272.74 95.36, 349.34 5.55 M166.69 221.75 C228.95 150.21, 290.26 78.03, 351.7 8.92 M166.69 221.75 C214.34 167.08, 262.03 111.48, 351.7 8.92 M172.33 221.36 C224.62 161.39, 278.78 101.01, 354.72 11.55 M172.33 221.36 C224.44 163.49, 274.09 105.37, 354.72 11.55 M177.32 221.72 C241.03 149.51, 304.49 76.99, 357.74 14.17 M177.32 221.72 C231.21 160.1, 284.89 98.55, 357.74 14.17 M182.96 221.32 C217.69 180.16, 256.19 136.34, 358.79 19.06 M182.96 221.32 C243.82 153.37, 302.21 85.15, 358.79 19.06 M187.95 221.68 C253.43 145.05, 317.14 72.7, 359.84 23.95 M187.95 221.68 C253.14 144.95, 321.22 67.72, 359.84 23.95 M193.59 221.29 C241.02 167.86, 289.08 113.68, 360.23 29.59 M193.59 221.29 C243.66 161.18, 295.82 102.43, 360.23 29.59 M198.58 221.65 C242.91 174.23, 285.84 123.22, 361.94 33.73 M198.58 221.65 C258.22 155.07, 316.18 87.67, 361.94 33.73 M204.22 221.25 C242.21 179.59, 280.43 138.19, 362.33 39.37 M204.22 221.25 C248.86 170.52, 293.52 120.73, 362.33 39.37 M209.21 221.61 C255.05 166.94, 303.11 115.1, 362.07 45.77 M209.21 221.61 C246.12 179, 282.39 137.03, 362.07 45.77 M214.85 221.22 C254.83 175.06, 291.48 131.02, 361.81 52.17 M214.85 221.22 C260.54 168.36, 305.98 115.63, 361.81 52.17 M219.84 221.58 C272.05 163.6, 321.53 106.51, 362.21 57.81 M219.84 221.58 C275.9 157.38, 333.92 91.24, 362.21 57.81 M225.48 221.19 C275.7 162.94, 331.39 103.19, 361.94 64.21 M225.48 221.19 C269.61 170.23, 314.68 118.28, 361.94 64.21 M230.47 221.55 C271.28 175.38, 313.02 127, 362.34 69.85 M230.47 221.55 C282.75 161.21, 334.56 100.07, 362.34 69.85 M236.11 221.15 C278.16 175.32, 320.38 125.51, 362.08 76.25 M236.11 221.15 C265.05 187.28, 293.01 155.24, 362.08 76.25 M241.1 221.51 C271.89 187.51, 300.9 149.76, 361.82 82.64 M241.1 221.51 C279.78 175.24, 320.13 129.92, 361.82 82.64 M246.09 221.87 C273.84 191.34, 300.93 158.62, 362.21 88.29 M246.09 221.87 C290.11 173.45, 332.55 124.58, 362.21 88.29 M251.73 221.48 C285.05 183.96, 320.49 145.77, 361.95 94.69 M251.73 221.48 C283.6 182.17, 315.54 144.94, 361.95 94.69 M256.72 221.84 C292.28 182.82, 329.75 140.91, 362.34 100.33 M256.72 221.84 C285.76 189.45, 312.92 156.42, 362.34 100.33 M262.36 221.44 C298.18 180.08, 330.78 138.31, 362.08 106.73 M262.36 221.44 C294.86 182.31, 329.3 144.68, 362.08 106.73 M267.35 221.8 C294.59 189.07, 321.59 161.25, 361.82 113.12 M267.35 221.8 C299.32 185.61, 330.01 149.15, 361.82 113.12 M272.99 221.41 C303.78 188.44, 330.97 155.24, 362.22 118.77 M272.99 221.41 C296.32 194.42, 320.51 165.34, 362.22 118.77 M277.98 221.77 C298.72 197.99, 319.11 173.3, 361.95 125.17 M277.98 221.77 C303.78 189.76, 331.29 159.21, 361.95 125.17 M283.62 221.37 C311.55 190.21, 337.35 158.9, 362.35 130.81 M283.62 221.37 C304.44 197.18, 327.14 173.14, 362.35 130.81 M288.61 221.73 C315.67 189.86, 344.21 157.92, 362.09 137.21 M288.61 221.73 C308.76 198.61, 329.5 176.94, 362.09 137.21 M294.25 221.34 C318.26 196.45, 340.23 168.69, 361.83 143.6 M294.25 221.34 C315.66 196.62, 335.31 172.39, 361.83 143.6 M299.24 221.7 C319.53 194.37, 345.21 171.75, 362.22 149.25 M299.24 221.7 C323.46 194.99, 345.93 168.34, 362.22 149.25 M304.88 221.3 C318.73 204.11, 333.03 188.83, 361.96 155.64 M304.88 221.3 C321.06 203.04, 336.16 185.75, 361.96 155.64 M309.87 221.66 C323.66 205.78, 337.6 190.8, 361.7 162.04 M309.87 221.66 C323.96 205.35, 337.84 187.48, 361.7 162.04 M315.51 221.27 C327.35 209.03, 336.68 196.23, 362.09 167.69 M315.51 221.27 C328.49 205.88, 341.18 191.33, 362.09 167.69 M320.5 221.63 C332.69 207.52, 342.76 193.44, 361.83 174.08 M320.5 221.63 C331.04 211.13, 341.22 199.54, 361.83 174.08 M326.14 221.24 C334 213.07, 340.84 202.99, 362.23 179.73 M326.14 221.24 C339.19 207.45, 351.34 191.12, 362.23 179.73 M331.13 221.6 C338.4 214.61, 345.26 208.71, 360.65 187.63 M331.13 221.6 C340.68 209.35, 351.74 199.12, 360.65 187.63 M336.77 221.2 C347.81 209.29, 356.13 201.33, 360.39 194.03 M336.77 221.2 C343.9 211.23, 352.12 202.27, 360.39 194.03 M343.73 219.3 C352.11 212.87, 357.89 204.79, 362.75 197.41 M343.73 219.3 C349.07 212.71, 353.53 207.9, 362.75 197.41" stroke="#868e96" stroke-width="0.5" fill="none"></path><path d="M32 0 M32 0 C127.24 2.02, 223 0.5, 328.15 0 M32 0 C93.23 -1.18, 155.26 -0.73, 328.15 0 M328.15 0 C348.26 0.83, 361.28 11.08, 360.15 32 M328.15 0 C347.94 -1.11, 361.91 10.72, 360.15 32 M360.15 32 C359.79 78.18, 362.59 128.58, 360.15 187.41 M360.15 32 C360.4 88.9, 359.27 147.53, 360.15 187.41 M360.15 187.41 C360.07 209.88, 350.69 218.59, 328.15 219.41 M360.15 187.41 C358.6 207.58, 348.79 217.56, 328.15 219.41 M328.15 219.41 C248.71 218.41, 171 218.29, 32 219.41 M328.15 219.41 C232.81 218.66, 137.06 218.35, 32 219.41 M32 219.41 C9.69 220.31, 0.88 209.03, 0 187.41 M32 219.41 C10.23 221.23, -0.51 208.63, 0 187.41 M0 187.41 C-0.75 137.84, -1.25 88.24, 0 32 M0 187.41 C1.14 130.74, 1.44 74.73, 0 32 M0 32 C-1.05 12.29, 11.17 1.47, 32 0 M0 32 C-0.6 12.63, 10.15 -0.5, 32 0" stroke="#495057" stroke-width="1" fill="none"></path></g><g transform="translate(182.77055105893032 1707.569274850397) rotate(0 73.5 8)"><text x="0" y="13" font-family="Cascadia, Segoe UI Emoji" font-size="13.882675036849356px" fill="#000000" text-anchor="start" style="white-space: pre;" direction="ltr">Date: Jun 11, 2023</text></g><g stroke-linecap="round" transform="translate(181.13166953852033 1819.5392180960062) rotate(0 53.42601515975457 16.92677464651888)"><path d="M7.24 0.78 L101.23 -1.25 L108.03 3.01 L107.2 29.74 L104.53 33.25 L100.06 32.81 L3.93 34.1 L2.13 27.26 L0.35 9.85 L2.2 3.58 L8.64 1.85" stroke="none" stroke-width="0" fill="#868e96"></path><path d="M8.46 0 M8.46 0 C43.81 -1.68, 79.26 0.04, 98.39 0 M8.46 0 C26.69 -1.49, 46.32 -1.64, 98.39 0 M98.39 0 C102.93 0.82, 107.62 4.11, 106.85 8.46 M98.39 0 C104.82 -1.6, 108.86 3.44, 106.85 8.46 M106.85 8.46 C105.53 15.04, 105.34 19.62, 106.85 25.39 M106.85 8.46 C106.79 13.31, 107.58 17.52, 106.85 25.39 M106.85 25.39 C108.51 30.6, 104.01 34.18, 98.39 33.85 M106.85 25.39 C107.52 31.19, 105.28 35.26, 98.39 33.85 M98.39 33.85 C69.82 35.36, 46.48 36.12, 8.46 33.85 M98.39 33.85 C76.4 33.41, 54.97 33.11, 8.46 33.85 M8.46 33.85 C1.34 34.84, -1.9 30.46, 0 25.39 M8.46 33.85 C3.15 33.08, -2.23 32.89, 0 25.39 M0 25.39 C1.61 18.66, 1.26 13.11, 0 8.46 M0 25.39 C0.24 19.73, -0.3 15.53, 0 8.46 M0 8.46 C1.9 3.36, 2.16 1.02, 8.46 0 M0 8.46 C-1.46 4.78, 1.94 0.41, 8.46 0" stroke="#495057" stroke-width="1" fill="none"></path></g><g transform="translate(20.00071430110802 1402.1358854043983) rotate(0 53.437339135442926 6.723903599824098)"><text x="0" y="10.44780719964786" font-family="Cascadia, Segoe UI Emoji" font-size="11.324469220756093px" fill="#000000" text-anchor="start" style="white-space: pre;" direction="ltr">Fri Jan 20, 2023</text></g><g stroke-linecap="round" transform="translate(137.4291501973039 1402.5633621019597) rotate(0 6.777688997345649 6.777688997345649)"><path d="M9.21 1.22 C10.36 1.52, 11.59 1.46, 12.15 2.54 C12.71 3.62, 12.86 6.08, 12.58 7.71 C12.31 9.34, 11.4 11.18, 10.48 12.31 C9.56 13.44, 8.27 14.45, 7.06 14.5 C5.84 14.55, 4.32 13.5, 3.19 12.62 C2.07 11.73, 0.8 10.73, 0.31 9.18 C-0.18 7.63, -0.46 4.59, 0.26 3.3 C0.99 2.02, 2.99 1.79, 4.64 1.47 C6.29 1.15, 9.26 1.33, 10.17 1.38 C11.08 1.42, 10.39 1.72, 10.1 1.75 M10.15 -0.57 C11.21 -0.49, 11.67 1.12, 12.19 2.77 C12.71 4.43, 13.53 7.93, 13.27 9.38 C13.01 10.83, 11.61 10.61, 10.63 11.46 C9.65 12.32, 8.76 14.36, 7.38 14.52 C6.01 14.67, 3.74 13.42, 2.39 12.4 C1.04 11.38, -0.65 9.78, -0.71 8.38 C-0.77 6.98, 1.34 5.25, 2.04 3.99 C2.75 2.74, 2.32 1.36, 3.51 0.85 C4.69 0.34, 8.31 1.13, 9.14 0.94 C9.98 0.74, 8.46 -0.45, 8.52 -0.32" stroke="none" stroke-width="0" fill="#fff"></path><path d="M6.72 -0.61 C8.06 -0.76, 9.71 0.28, 10.72 1.08 C11.73 1.88, 12.47 2.81, 12.78 4.21 C13.09 5.62, 13.15 8, 12.6 9.52 C12.04 11.04, 10.71 12.71, 9.43 13.32 C8.15 13.94, 6.12 13.7, 4.92 13.22 C3.72 12.74, 3.08 11.53, 2.25 10.46 C1.43 9.38, 0.18 8.27, -0.02 6.77 C-0.23 5.27, -0.01 2.41, 1 1.44 C2.01 0.47, 4.77 1, 6.04 0.96 C7.3 0.92, 8.43 1.15, 8.57 1.18 M4.83 0.01 C6.09 -0.5, 7.99 -0.57, 9.4 0.11 C10.8 0.78, 12.78 2.35, 13.26 4.04 C13.75 5.73, 12.74 8.91, 12.3 10.24 C11.86 11.58, 11.82 11.76, 10.63 12.07 C9.43 12.39, 6.77 12.35, 5.12 12.13 C3.46 11.91, 1.57 11.53, 0.7 10.77 C-0.17 10.01, -0.46 8.77, -0.1 7.58 C0.26 6.39, 1.75 5.09, 2.87 3.63 C3.98 2.16, 6.29 -0.42, 6.58 -1.22 C6.87 -2.01, 4.74 -1.51, 4.58 -1.14" stroke="#495057" stroke-width="1" fill="none"></path></g><g transform="translate(10 1425.870880313979) rotate(0 58.228460343430925 8.994640215651998)"><text x="0" y="13.989280431303865" font-family="Cascadia, Segoe UI Emoji" font-size="15.148867731624305px" fill="#666" text-anchor="start" style="white-space: pre;" direction="ltr">Actions pills</text></g><g transform="translate(560.4604621696099 1071.8522872974313) rotate(0 24.5 8)"><text x="0" y="13" font-family="Helvetica, Segoe UI Emoji" font-size="14.463558832166566px" fill="#343a40" text-anchor="start" style="white-space: pre;" direction="ltr">thougth</text></g><g transform="translate(567.4502014050831 1405.4345553247558) rotate(0 18 8)"><text x="0" y="13" font-family="Helvetica, Segoe UI Emoji" font-size="14.463558832166566px" fill="#343a40" text-anchor="start" style="white-space: pre;" direction="ltr">event</text></g></svg>