<svg version="1.1" xmlns="http://www.w3.org/2000/svg" xmlns:xlink="http://www.w3.org/1999/xlink" x="0px" y="0px"
	viewBox="0 0 179.3 48" style="enable-background:new 0 0 179.3 48;" xml:space="preserve">
	<!-- B -->
	<path style="stroke: #ffffff;" d="M82.4,25.7c0.1,0.1,0.1,0.2,0,0.3c-0.2,0.3-0.4,0.6-0.6,0.9c-0.3,0.5-0.7,1-1.1,1.4
		c-0.7,0.6-1.4,1.3-2.1,1.9c-0.3,0.2-0.4,0.5-0.5,0.8c-0.4,2.6-1.6,4.7-3.7,6.3c-1.8,1.5-6.2,0-3.4-2.3c0.7-0.6,1.4-1.1,2.1-1.7
		c1-0.7,2-1.4,3-2.2c2.5-2.5-1.9-5.8-3.9-6.4c-0.5-0.1-1.1,0.5-1.3,0.8c-0.6,0.5-1.1,0.4-1.5-0.2c-0.1-0.6,0.1-1,0.6-1.2
		c0.7-0.1,1.3-0.3,1.8-0.8c0.3-0.5,0.5-1.1,0.8-1.7c0.6-1.4,1.2-2.7,1.7-4.2c1.7-4.1-2.8-1.8-4,0.4c-1.1,2.1-1.9,4.3-2.4,6.7
		c-0.8,4.2,0.6,8.7-0.6,12.9c-1.3,4-5,0.1-5.8-1.8c-0.2-0.4-0.4-0.8-0.6-1.2c-0.2-0.4-0.5-0.7-1-0.7c-0.5-0.1-1.1-0.3-1.6-0.4
		c-0.4-0.2-0.8-0.3-1.1-0.4c-9.6-2-18.2,4-27,6.8C23.7,42,15.1,43.5,8.1,41c-2.5-0.9-4.5-2.2-6-4.1c-0.1-0.1-0.1-0.2,0-0.4
		c0.1-0.1,0.3-0.1,0.4,0c6.4,7.7,19.8,5.2,27.8,2.6c5.2-1.7,10-4.2,15.2-5.8c4-1.4,8-1.7,12-0.9c0.4,0.1,0.8,0.2,1.1,0.3
		c0.4,0.1,0.8,0.2,1.2,0.3c0.3,0,0.5-0.1,0.4-0.4c-0.7-1.9-2.2-7.4,1.2-7.8c0.9-0.1,1.7,0.3,2.2,1.2c1.6,2.4,0.1,6-1.9,7.8
		c-0.1,0.2-0.1,0.3-0.1,0.5c0.3,0.9,0.7,1.8,1.2,2.7c0.4,0.6,1.6,2.1,2.5,1.4c0.6-0.7,0.9-1.5,0.8-2.4c0.2-5.9,0.2-11.9,0-17.8
		c0-0.1,0-0.1-0.1-0.1c-0.4-0.2-2.7,2.5-2.9,1.6c0.1-0.1,0.1-0.2,0.2-0.2c0.9-0.7,1.7-1.4,2.5-2.1c0.2-0.2,0.4-0.5,0.4-0.8v-0.6
		c0-3.3,4.1-3.1,2-0.4c-1,1.4-0.7,4.9-0.3,6.4c0,0.1,0.1,0.1,0.2,0c1-2.2,2.6-8.6,6.2-7.6c0.5,0.1,1,0.4,1.3,0.8
		c0.4,0.6,0.4,1.2,0.2,1.9c-0.4,2-1.2,3.8-2.4,5.5c-0.2,0.4-0.5,0.7-0.7,1.1c-0.1,0.1-0.3,0.6,0,0.6c0.2,0.1,0.4,0.2,0.7,0.2
		c2.5,0.5,4.1,2,4.7,4.5c-0.1,0.4,0.1,0.6,0.4,0.6c0.4-0.2,0.7-0.4,1-0.7c0.9-0.7,1.7-2,2.3-2.9C82.1,25.6,82.2,25.6,82.4,25.7
		C82.5,25.8,82.3,25.6,82.4,25.7z M60.1,28.1c0,0.8,0.1,1.6,0.3,2.4c0.1,0.5,0.3,1,0.5,1.4c0.1,0.3,0.3,0.3,0.5,0.1
		c0.2-0.3,0.4-0.6,0.4-1c0.5-1.4,1.5-3.3,1-4.8C61.9,23.7,60,26.6,60.1,28.1C60.1,28.5,60.1,27.8,60.1,28.1z M68.2,13.7
		c-0.3-0.1-0.3,0.7-0.2,0.9c0.3-0.1,0.5-0.3,0.4-0.7C68.4,13.8,68.4,13.8,68.2,13.7C68.1,13.7,68.4,13.8,68.2,13.7z M70.4,25.1
		c0.3,0,0.1-0.3,0-0.2c-0.1,0-0.2,0.1-0.1,0.2C70.3,25.1,70.3,25.1,70.4,25.1C70.4,25.1,70.4,25.1,70.4,25.1z M76.5,32.1
		c0-0.2,0-0.2-0.2-0.1c-0.2,0.1-0.4,0.2-0.6,0.4c-1.3,0.8-2.7,1.8-3.8,2.9c-0.1,0.1-0.3,0.2-0.4,0.3c-0.2,0.2-0.4,0.3-0.6,0.6
		c-1.2,2,2.7,0.7,3.3,0.1C75.4,35,76.2,33.7,76.5,32.1C76.5,31.9,76.4,32.8,76.5,32.1z"/>
	<path style="stroke: #ffffff;" d="M92.2,29.6c-0.7,0.9-1.6,1.6-2.6,2.1c-1,0.3-2,0.4-3.1,0.2c-2.7-0.6-5.6-2.9-4.6-6.1
		c0.3-1.3,2.4-4.1,3.9-2.3c0.6,0.6,0.7,1.3,0.3,2c-0.5,0.9-1.5,0.7-2.3,1.1l-0.1,0.1l0,0.2c0.5,3.2,4.3,6.1,7.3,3.1
		c1.4-1.2,2.6-2.9,3.5-4.4c0.1,0,0.2,0,0.2,0c0.1,0.3,0,0.6-0.2,0.8C93.8,27.6,93,28.6,92.2,29.6C91.8,30.1,92.6,29.1,92.2,29.6z
		 M84.3,24.3c-0.4,0.5-0.7,1-0.7,1.6c0,0.1,0.1,0.1,0.2,0.1c0.5,0,1-0.2,1.5-0.4l0.4-0.4c0-0.5-0.1-0.9-0.5-1.2
		c-0.2-0.1-0.3-0.1-0.5,0C84.6,24.1,84.4,24.1,84.3,24.3C84.1,24.5,84.4,24.2,84.3,24.3z"/>
	<path style="stroke: #ffffff;" d="M104.1,25.8c0.2-0.3,0.4-0.3,0.6,0c0,0.3,0,0.5-0.2,0.7c-0.6,1.4-1.4,2.6-2.3,3.7
		c-1,1.3-2.6,2.8-4.5,2.2c-1.1-0.5-1.9-1.4-2.3-2.5L95.1,29c-2.3-6.4-0.7-15.3,2.1-21.3c0.8-1.8,1.9-3.4,3.5-4.6c1-0.7,2-1,3.2-1
		c0.8-0.1,1.4,0,1.9,0.4c1.1,1.1,1.5,2.3,1.1,3.9c-0.3,2.2-1,4.3-2,6.3c-2.1,4.5-5,8.4-8.6,11.7c-0.2,0.1-0.3,0.3-0.4,0.5
		c-0.1,0.2-0.1,0.4,0,0.6c0.1,1.9,0.6,3.6,1.6,5.2c0.4,0.7,1.1,1.1,1.9,1.1c0.6-0.1,1-0.4,1.4-0.8
		C102.2,29.3,103.2,27.7,104.1,25.8C104.2,25.6,103.2,27.7,104.1,25.8z M96.5,16.3c-0.4,2.6-0.6,5.2-0.6,7.8
		c2.2-1.9,4.1-4.1,5.7-6.5c1.4-2.1,2.6-4.4,3.5-6.7c0.7-1.5,1.2-3.1,1.4-4.8c0.2-0.9,0.1-1.8-0.4-2.6c-1.2-1.2-2.9-0.9-4.2-0.1
		c-1.4,1.1-2.4,2.5-3.1,4.1C97.6,10.3,96.9,13.2,96.5,16.3C96.3,17.5,96.7,14.7,96.5,16.3z"/>
	<path style="stroke: #ffffff;" d="M121,35.8c0.3,0.2,0.4,0.3,0.2,0.6c-0.4,0.6-1.4-0.3-1.9,0.2c-0.2,0.1-0.3,0.3-0.4,0.5
		c-0.8,1.2-2,2-3.4,2.3c-3.4,0.6-4.5-3.7-1-4.3c-6.1-0.5-11.7,2-17.2,4.2c-2.4,1.1-4.9,2-7.5,2.9c-4.6,1.5-9.5,2.5-14.4,2.5h-0.4
		c-2.9-0.1-5.4-0.5-7.5-1.2c-2.5-0.9-4.5-2.2-6-4.1c-0.1-0.1-0.1-0.2,0-0.4c0.1-0.1,0.3-0.1,0.4,0c6.4,7.7,19.8,5.3,27.8,2.6
		c2.5-0.9,5-1.8,7.4-2.9c3.4-1.6,7-2.8,10.7-3.8c3.2-0.7,6.5-0.8,9.6,0c0.4,0.1,0.9,0.1,1.3,0c1.1-0.7,0.5-2.6,0.4-3.6
		c-0.3-1.5-0.7-2.9-1.3-4.3c-1.4-3.4-3.4-6.7-4.1-10.3c-0.6-2.5-0.7-5.7,1.1-7.9c1.5-1.7,4.1-0.7,5.3,0.8c0.5,0.6,0.7,1.2,0.8,1.9
		c0,0.2-0.1,0.3-0.2,0.4c-0.2,0-1.4-2.3-1.7-2.5c-1-0.9-2-0.9-3-0.2c-0.6,0.6-1,1.4-1.2,2.2c-0.2,0.8-0.3,1.5-0.2,2.3
		c0.3,2.8,1.2,5.5,2.6,8c1.5,3.2,3.2,6.6,3.3,10.2c0,0.7-0.1,1.5-0.2,2.2c-0.1,0.4-0.7,1.2-0.2,1.5
		C120.5,35.7,120.7,35.8,121,35.8C121.3,36,120.7,35.8,121,35.8z M117.4,37.8c0.4-0.3,1.8-1.5,0.7-1.9c-1.5-0.4-7.8,1.1-4.1,2.8
		C115.3,38.9,116.4,38.6,117.4,37.8C117.5,37.7,116.9,38.1,117.4,37.8z"/>
	<path style="stroke: #ffffff;" d="M136.5,28.6c0.7-0.8,1.3-1.8,1.7-2.8c0.1-0.2,0.3-0.2,0.4,0c0,0.4-0.1,0.8-0.3,1.2
		c-0.9,1.6-2.1,2.8-3.4,4.1c-0.6,0.6-1.3,0.8-2.1,0.7c-1-0.1-1.6-0.5-2.1-1.4c-0.1-0.2-0.2-0.2-0.3-0.2c0,0-0.1,0-0.2,0.1
		c-0.4,1.3-1.3,2.1-2.7,2.3c-2.5-0.1-3.7-1.4-3.6-4.1c0-0.9-0.4-4.7,1.5-4.2c2.2,0.7-1.7,7.6,2.1,7.4c1.7,0,2.6-3.2,2.7-4.4
		c0-0.4,0.1-0.8,0.3-1.2c0.4-0.6,1.3-0.6,1.7,0c0.8,1-0.1,3.1,0.4,4.3c0.4,0.7,1,0.8,1.8,0.4C135.1,30,135.8,29.3,136.5,28.6
		C136.7,28.3,136.2,28.9,136.5,28.6z"/>
	<path style="stroke: #ffffff;" d="M143.2,24.7c0.5,0.5,0.5,1.1,0.9,1.6c0.6,0.5,1.2,0.8,1.9,1c1.4,0.4,2.5,0,3.4-1.1l0.2-0.4
		c0.1-0.2,0.2-0.2,0.3,0c0.2,0.2,0.2,0.4,0,0.6c-1.1,1.5-2.5,2-4.2,1.4c-0.6-0.1-1.2-0.4-1.7-0.8c0,0.7-0.2,1.4-0.4,2
		c-0.3,0.8-0.7,1.5-1.3,2.1c-0.6,0.6-1.4,0.9-2.3,0.8c-1.6-0.1-2.3-1.7-2.5-3.1c-0.2-1.5,0.2-3.6,1.8-4.3
		C140.4,24.3,142.3,23.7,143.2,24.7C143.3,24.8,143,24.4,143.2,24.7z M143.2,27.5c0-0.3-0.1-0.5-0.3-0.6h-0.3
		c-0.6,0-1.1-0.1-1.5-0.5c-0.2-0.1-0.3-0.2-0.5-0.3c-0.4,0-0.7,0.1-0.9,0.5c-0.5,1.3-0.5,2.6,0,4c0.3,0.6,0.8,0.7,1.5,0.5
		c0.3-0.1,0.6-0.3,0.9-0.6c0.6-0.6,0.9-1.3,1.1-2.1C143.2,28.2,143.3,27.8,143.2,27.5C143.2,27.2,143.3,27.7,143.2,27.5z
		 M141.5,24.9c-0.3,0.2-0.4,0.5-0.3,0.8c0.5,0.7,1.2,0.8,1.8,0.5c0.1-0.1,0.1-0.3,0.1-0.4c-0.3-0.6-0.7-0.9-1.4-0.9
		C141.6,24.8,141.6,24.9,141.5,24.9C141.3,25,141.6,24.9,141.5,24.9z"/>
	<path style="stroke: #ffffff;" d="M165.5,26c0.1-0.1,0.2-0.2,0.3-0.2c0.2,0,0.3,0.1,0.2,0.4c-0.4,2.7-1.6,6.1-3.8,8
		c-5.5,4.8-4.1-5.8-5.1-7.7c-0.8-1.5-2.4,0.1-3,0.9c-1.2,2.1-2,4.3-2.6,6.7c0,0.1-0.1,0.2-0.2,0.3c-0.2,0.2-0.4,0.2-0.6,0.1
		c-0.1-0.1-0.2-0.2-0.2-0.4c-0.3-0.6-0.4-1.2-0.5-1.8c-0.5-2.2-0.6-4.5-0.4-6.8c0.1-0.4,0.4-0.6,0.8-0.7c0.2,0,0.4,0.1,0.6,0.3
		c0.2,0.5,0.2,1.1,0.2,1.6c0,0.8,0,1.5,0,2.3c-0.1,0.8,0,1.6,0.2,2.4c0.1,0.1,0.2,0.1,0.2,0.1l0,0c0.1,0,0.1,0,0.1-0.1
		c0.5-1.6,1.2-3.1,2.1-4.5c0.9-1.3,2.1-1.9,3.6-1.7c1.8,0.4,1.5,3.3,1.3,4.5c0,1.7,0,5.6,2.9,4.3c1.3-0.7,2.3-2.8,2.8-4.1
		C164.8,28.7,165.5,27.4,165.5,26C165.6,26,165.5,26.3,165.5,26z"/>
	<path style="stroke: #ffffff;" d="M170.6,24.7c0.5,0.5,0.5,1.1,0.9,1.6c0.6,0.5,1.2,0.8,1.9,1c1.4,0.4,2.5,0,3.4-1.1l0.2-0.4
			c0.1-0.2,0.2-0.2,0.3,0c0.2,0.2,0.2,0.4,0,0.6c-1.1,1.5-2.5,2-4.2,1.4c-0.6-0.1-1.2-0.4-1.7-0.8c0,0.7-0.2,1.4-0.4,2
			c-0.3,0.8-0.7,1.5-1.3,2.1c-0.6,0.6-1.4,0.9-2.3,0.8c-1.6-0.1-2.3-1.7-2.5-3.1c-0.2-1.5,0.2-3.6,1.8-4.3
			C167.7,24.3,169.7,23.7,170.6,24.7C170.7,24.8,170.3,24.4,170.6,24.7z M170.6,27.5c0-0.3-0.1-0.5-0.3-0.6H170
			c-0.6,0-1.1-0.1-1.5-0.5c-0.2-0.1-0.3-0.2-0.5-0.3c-0.4,0-0.7,0.1-0.9,0.5c-0.5,1.3-0.5,2.6,0,4c0.3,0.6,0.8,0.7,1.5,0.5
			c0.3-0.1,0.6-0.3,0.9-0.6c0.6-0.6,0.9-1.3,1.1-2.1C170.6,28.2,170.6,27.8,170.6,27.5C170.6,27.2,170.6,27.7,170.6,27.5z
			 M168.8,24.9c-0.3,0.2-0.4,0.5-0.3,0.8c0.5,0.7,1.2,0.8,1.8,0.5c0.1-0.1,0.1-0.3,0.1-0.4c-0.3-0.6-0.7-0.9-1.4-0.9
			C169,24.8,168.9,24.9,168.8,24.9C168.7,25,168.9,24.9,168.8,24.9z"/>

	<path style="stroke: #ffffff;" d="M129.5,44.2c-0.2,0-0.4,0.1-0.6,0.1c-0.4,0-0.7-0.1-1.1-0.3s-0.6-0.5-0.9-0.9
		c-0.2-0.4-0.3-0.8-0.3-1.2c0-0.7,0.2-1.3,0.7-1.8c0.5-0.5,1.1-0.8,1.8-0.8c0.4,0,0.8,0.1,1.2,0.3c0.4,0.2,0.6,0.5,0.8,0.9
		s0.3,0.8,0.3,1.2c0,0.3-0.1,0.7-0.2,1s-0.3,0.6-0.6,0.9c-0.2,0.2-0.5,0.4-0.8,0.6c-0.3,0.2-0.7,0.3-1.1,0.5
		c-0.3,0.1-0.5,0.2-0.7,0.3c0.1,0,0.2,0,0.2,0c0.2,0,0.3,0,0.5,0.1c0.1,0.1,0.4,0.2,0.7,0.4c0.4,0.2,0.7,0.4,0.9,0.4
		c0.2,0,0.3,0,0.4-0.1c0.1-0.1,0.2-0.2,0.4-0.4c0,0,0.1-0.1,0.1-0.1c0,0,0.1,0,0.1,0.1c0,0.1-0.1,0.3-0.4,0.5
		c-0.3,0.3-0.6,0.4-1,0.4c-0.2,0-0.4,0-0.6-0.1s-0.5-0.3-1-0.6c-0.2-0.2-0.4-0.3-0.6-0.3s-0.3,0-0.3,0.1c-0.1,0.1-0.1,0.2-0.1,0.4
		c0,0.1,0,0.2-0.1,0.3c0,0.1-0.1,0.1-0.2,0.1c-0.1,0-0.1,0-0.2-0.1c-0.1,0-0.1-0.1-0.1-0.2c0-0.1,0.1-0.3,0.2-0.4
		c0.1-0.2,0.3-0.3,0.5-0.4c0.2-0.1,0.6-0.3,1-0.5C129.1,44.4,129.4,44.2,129.5,44.2z M127.5,41.6c0,0.4,0.1,0.8,0.2,1.2
		s0.3,0.7,0.5,0.9c0.2,0.2,0.5,0.3,0.9,0.3c0.5,0,0.9-0.2,1.2-0.7s0.4-1,0.4-1.6c0-0.6-0.1-1.1-0.4-1.6c-0.3-0.5-0.7-0.7-1.2-0.7
		c-0.5,0-0.9,0.2-1.1,0.7C127.7,40.6,127.5,41.1,127.5,41.6z"/>
	<path style="stroke: #ffffff;" d="M133,41.1c0,0.2,0,0.6,0,1.4c0,0.5,0,0.8,0,0.9c0,0.2,0.1,0.3,0.2,0.4s0.2,0.2,0.4,0.2
		c0.2,0,0.4-0.1,0.5-0.2s0.3-0.3,0.3-0.5c0-0.2,0.1-0.6,0.1-1.3c0-0.3,0-0.5-0.1-0.6c0-0.1-0.1-0.1-0.3-0.1c-0.1,0-0.1,0-0.1-0.1
		c0,0,0,0,0-0.1c0,0,0.1,0,0.2,0h0.7c0,0.3,0,0.6,0,0.9l0,1.4c0,0.3,0,0.5,0.1,0.5c0,0.1,0.1,0.1,0.2,0.1c0.1,0,0.1,0,0.1,0.1
		c0,0-0.1,0.1-0.2,0.1h-0.6c-0.1,0-0.2,0-0.2-0.1c0,0,0,0,0-0.1c0-0.1,0-0.1,0-0.2c0-0.1,0-0.2,0-0.3c-0.2,0.2-0.4,0.4-0.6,0.5
		c-0.2,0.1-0.4,0.2-0.6,0.2c-0.2,0-0.3,0-0.5-0.1s-0.2-0.2-0.2-0.3c0-0.1-0.1-0.4-0.1-1s0-0.9,0-1.2c0-0.2,0-0.3,0-0.3
		c0,0-0.1-0.1-0.2-0.1c-0.1,0-0.1,0-0.1-0.1c0,0,0.1-0.1,0.2-0.1H133z"/>
	<path style="stroke: #ffffff;" d="M135.9,42.6c0-0.4,0.2-0.8,0.5-1.1c0.3-0.3,0.7-0.5,1.1-0.5c0.4,0,0.8,0.1,1.1,0.4
		c0.3,0.3,0.5,0.7,0.5,1.1c0,0.4-0.2,0.8-0.5,1.2c-0.3,0.3-0.7,0.5-1.1,0.5c-0.4,0-0.8-0.2-1.1-0.5S135.9,43.1,135.9,42.6z
		 M136.5,42.6c0,0.4,0.1,0.8,0.3,1c0.2,0.3,0.4,0.4,0.7,0.4c0.3,0,0.5-0.1,0.7-0.4c0.2-0.3,0.3-0.6,0.3-1c0-0.4-0.1-0.7-0.3-1
		s-0.4-0.5-0.7-0.5c-0.3,0-0.5,0.1-0.7,0.4C136.6,41.8,136.5,42.2,136.5,42.6z"/>
	<path style="stroke: #ffffff;" d="M140.7,41.8c0.2-0.3,0.3-0.5,0.5-0.6c0.2-0.1,0.4-0.2,0.6-0.2c0.1,0,0.3,0,0.3,0.1
		c0.1,0.1,0.1,0.2,0.1,0.3c0,0.2-0.1,0.3-0.3,0.3c-0.1,0-0.2-0.1-0.2-0.2c-0.1-0.2-0.2-0.2-0.3-0.2c-0.1,0-0.2,0.1-0.4,0.2
		c-0.1,0.1-0.2,0.3-0.3,0.5c0,0.2-0.1,0.5-0.1,1c0,0.5,0,0.7,0.1,0.8c0,0.1,0.1,0.1,0.3,0.1c0,0,0.1,0,0.1,0.1
		c0,0.1-0.1,0.1-0.2,0.1h-1.2c-0.1,0-0.1,0-0.1-0.1c0,0,0.1-0.1,0.2-0.1c0.2,0,0.2-0.1,0.3-0.1c0-0.1,0.1-0.4,0.1-0.9
		c0-0.8,0-1.3,0-1.4c0-0.2-0.2-0.2-0.4-0.3c-0.1,0-0.1,0-0.1-0.1c0,0,0,0,0,0c0,0,0.1,0,0.3,0l0.7,0
		C140.6,41.2,140.6,41.4,140.7,41.8z"/>
	<path style="stroke: #ffffff;" d="M143.6,41.1c0,0.2,0,0.6,0,1.4c0,0.5,0,0.8,0,0.9c0,0.2,0.1,0.3,0.2,0.4s0.2,0.2,0.4,0.2
		c0.2,0,0.4-0.1,0.5-0.2s0.3-0.3,0.3-0.5c0-0.2,0.1-0.6,0.1-1.3c0-0.3,0-0.5-0.1-0.6c0-0.1-0.1-0.1-0.3-0.1c-0.1,0-0.1,0-0.1-0.1
		c0,0,0,0,0-0.1c0,0,0.1,0,0.2,0h0.7c0,0.3,0,0.6,0,0.9l0,1.4c0,0.3,0,0.5,0.1,0.5c0,0.1,0.1,0.1,0.2,0.1c0.1,0,0.1,0,0.1,0.1
		c0,0-0.1,0.1-0.2,0.1h-0.6c-0.1,0-0.2,0-0.2-0.1c0,0,0,0,0-0.1c0-0.1,0-0.1,0-0.2c0-0.1,0-0.2,0-0.3c-0.2,0.2-0.4,0.4-0.6,0.5
		c-0.2,0.1-0.4,0.2-0.6,0.2c-0.2,0-0.3,0-0.5-0.1s-0.2-0.2-0.2-0.3c0-0.1-0.1-0.4-0.1-1s0-0.9,0-1.2c0-0.2,0-0.3,0-0.3
		c0,0-0.1-0.1-0.2-0.1c-0.1,0-0.1,0-0.1-0.1c0,0,0.1-0.1,0.2-0.1H143.6z"/>
	<path style="stroke: #ffffff;" d="M147.5,41c0,0.1,0,0.2,0,0.3c0,0.1,0,0.2,0,0.4c0.2-0.2,0.4-0.4,0.6-0.5c0.2-0.1,0.4-0.2,0.6-0.2
		c0.2,0,0.3,0,0.5,0.1s0.3,0.2,0.4,0.4c0.2-0.2,0.4-0.3,0.5-0.4c0.2-0.1,0.4-0.1,0.5-0.1c0.2,0,0.4,0,0.6,0.1
		c0.2,0.1,0.3,0.2,0.3,0.3s0.1,0.3,0.1,0.7l0,1.4c0,0.2,0,0.3,0.1,0.4c0,0.1,0.1,0.1,0.2,0.1c0.1,0,0.1,0,0.1,0.1
		c0,0-0.1,0.1-0.2,0.1h-1.1c-0.1,0-0.2,0-0.2-0.1c0,0,0-0.1,0.1-0.1c0.2,0,0.3-0.1,0.4-0.1s0.1-0.5,0.1-1.3c0-0.4,0-0.6,0-0.8
		s-0.1-0.3-0.2-0.4s-0.2-0.2-0.4-0.2c-0.1,0-0.3,0-0.4,0.1c-0.1,0.1-0.3,0.2-0.4,0.4c-0.1,0.3-0.1,0.9-0.1,1.7
		c0,0.3,0,0.5,0.1,0.5c0,0.1,0.1,0.1,0.3,0.1h0.1c0.1,0,0.1,0,0.1,0.1c0,0,0,0.1-0.1,0.1h-1.2c-0.1,0-0.2,0-0.2-0.1s0-0.1,0.1-0.1
		c0.1,0,0.3,0,0.3-0.1c0.1-0.1,0.1-0.2,0.1-0.5c0-0.3,0-0.6,0-0.9c0-0.5-0.1-0.9-0.2-1s-0.2-0.2-0.4-0.2c-0.2,0-0.3,0.1-0.5,0.2
		s-0.3,0.3-0.3,0.5c-0.1,0.2-0.1,0.6-0.1,1.2c0,0.4,0,0.6,0.1,0.7s0.1,0.1,0.3,0.1c0.1,0,0.1,0,0.1,0s0,0,0,0.1c0,0,0,0.1-0.1,0.1
		h-1.1c-0.1,0-0.2,0-0.2-0.1c0,0,0-0.1,0.1-0.1c0.1,0,0.2,0,0.3-0.1c0,0,0.1-0.2,0.1-0.4c0-0.2,0-0.6,0-1.1c0-0.5,0-0.8,0-0.9
		c0-0.1,0-0.2-0.1-0.3s-0.2-0.1-0.3-0.1c-0.1,0-0.1,0-0.1-0.1c0,0,0,0,0-0.1c0,0,0.1,0,0.3,0c0.2,0,0.4,0,0.5,0
		C147.4,41,147.5,41,147.5,41z"/>
</svg>
